{"asset": {"generator": "Granite glTF 2.0 exporter", "version": "2.0"}, "nodes": [{"mesh": 0, "scale": [0.00800000037997961, 0.00800000037997961, 0.00800000037997961]}], "buffers": [{"byteLength": 309888, "uri": "Sponza28.bin"}], "bufferViews": [{"buffer": 0, "byteLength": 55104, "byteOffset": 0}, {"buffer": 0, "byteLength": 63696, "byteOffset": 55104}, {"buffer": 0, "byteLength": 42464, "byteOffset": 118800}, {"buffer": 0, "byteLength": 63696, "byteOffset": 161264}, {"buffer": 0, "byteLength": 84928, "byteOffset": 224960}], "accessors": [{"bufferView": 0, "componentType": 5123, "type": "SCALAR", "count": 27552, "byteOffset": 0, "min": [0], "max": [5307]}, {"bufferView": 1, "componentType": 5126, "type": "VEC3", "count": 5308, "byteOffset": 0, "min": [-1276.67333984375, -0.6934000253677368, -523.4995727539062], "max": [1194.1705322265625, 133.0167999267578, 478.2618103027344]}, {"bufferView": 2, "componentType": 5126, "type": "VEC2", "count": 5308, "byteOffset": 0}, {"bufferView": 3, "componentType": 5126, "type": "VEC3", "count": 5308, "byteOffset": 0}, {"bufferView": 4, "componentType": 5126, "type": "VEC4", "count": 5308, "byteOffset": 0}], "samplers": [{"magFilter": 9729, "minFilter": 9987, "wrapS": 10497, "wrapT": 10497}], "images": [{"uri": "10381718147657362067.jpg", "mimeType": "image/jpeg"}, {"uri": "8481240838833932244.jpg", "mimeType": "image/jpeg"}, {"uri": "17556969131407844942.jpg", "mimeType": "image/jpeg"}], "textures": [{"sampler": 0, "source": 0}, {"sampler": 0, "source": 1}, {"sampler": 0, "source": 2}], "materials": [{"pbrMetallicRoughness": {"baseColorFactor": [0.5879999995231628, 0.5879999995231628, 0.5879999995231628, 1.0], "baseColorTexture": {"index": 1}, "metallicRoughnessTexture": {"index": 2}}, "normalTexture": {"index": 0, "scale": 1.0}}], "meshes": [{"primitives": [{"indices": 0, "material": 0, "mode": 4, "attributes": {"POSITION": 1, "TEXCOORD_0": 2, "NORMAL": 3, "TANGENT": 4}}]}], "scene": 0, "scenes": [{"nodes": [0]}]}