{"asset": {"generator": "Granite glTF 2.0 exporter", "version": "2.0"}, "nodes": [{"mesh": 0, "scale": [0.00800000037997961, 0.00800000037997961, 0.00800000037997961]}], "buffers": [{"byteLength": 24016, "uri": "Sponza69.bin"}], "bufferViews": [{"buffer": 0, "byteLength": 2400, "byteOffset": 0}, {"buffer": 0, "byteLength": 5400, "byteOffset": 2400}, {"buffer": 0, "byteLength": 3600, "byteOffset": 7808}, {"buffer": 0, "byteLength": 5400, "byteOffset": 11408}, {"buffer": 0, "byteLength": 7200, "byteOffset": 16816}], "accessors": [{"bufferView": 0, "componentType": 5123, "type": "SCALAR", "count": 1200, "byteOffset": 0, "min": [0], "max": [449]}, {"bufferView": 1, "componentType": 5126, "type": "VEC3", "count": 450, "byteOffset": 0, "min": [91.80699920654297, 47.762901306152344, -250.7406005859375], "max": [147.3343963623047, 70.95819854736328, -193.55690002441406]}, {"bufferView": 2, "componentType": 5126, "type": "VEC2", "count": 450, "byteOffset": 0}, {"bufferView": 3, "componentType": 5126, "type": "VEC3", "count": 450, "byteOffset": 0}, {"bufferView": 4, "componentType": 5126, "type": "VEC4", "count": 450, "byteOffset": 0}], "samplers": [{"magFilter": 9729, "minFilter": 9987, "wrapS": 10497, "wrapT": 10497}], "images": [{"uri": "12501374198249454378.jpg", "mimeType": "image/jpeg"}, {"uri": "8006627369776289000.png", "mimeType": "image/png"}, {"uri": "715093869573992647.jpg", "mimeType": "image/jpeg"}], "textures": [{"sampler": 0, "source": 0}, {"sampler": 0, "source": 1}, {"sampler": 0, "source": 2}], "materials": [{"alphaMode": "MASK", "doubleSided": true, "pbrMetallicRoughness": {"baseColorFactor": [0.5879999995231628, 0.5879999995231628, 0.5879999995231628, 1.0], "baseColorTexture": {"index": 1}, "metallicRoughnessTexture": {"index": 2}}, "normalTexture": {"index": 0, "scale": 1.0}}], "meshes": [{"primitives": [{"indices": 0, "material": 0, "mode": 4, "attributes": {"POSITION": 1, "TEXCOORD_0": 2, "NORMAL": 3, "TANGENT": 4}}]}], "scene": 0, "scenes": [{"nodes": [0]}]}