{"asset": {"generator": "Granite glTF 2.0 exporter", "version": "2.0"}, "nodes": [{"mesh": 0, "scale": [0.00800000037997961, 0.00800000037997961, 0.00800000037997961]}], "buffers": [{"byteLength": 90720, "uri": "Sponza30.bin"}], "bufferViews": [{"buffer": 0, "byteLength": 8736, "byteOffset": 0}, {"buffer": 0, "byteLength": 20496, "byteOffset": 8736}, {"buffer": 0, "byteLength": 13664, "byteOffset": 29232}, {"buffer": 0, "byteLength": 20496, "byteOffset": 42896}, {"buffer": 0, "byteLength": 27328, "byteOffset": 63392}], "accessors": [{"bufferView": 0, "componentType": 5123, "type": "SCALAR", "count": 4368, "byteOffset": 0, "min": [0], "max": [1707]}, {"bufferView": 1, "componentType": 5126, "type": "VEC3", "count": 1708, "byteOffset": 0, "min": [-658.5947875976562, -2.460700035095215, -316.86920166015625], "max": [528.9411010742188, 220.99710083007812, 244.57009887695312]}, {"bufferView": 2, "componentType": 5126, "type": "VEC2", "count": 1708, "byteOffset": 0}, {"bufferView": 3, "componentType": 5126, "type": "VEC3", "count": 1708, "byteOffset": 0}, {"bufferView": 4, "componentType": 5126, "type": "VEC4", "count": 1708, "byteOffset": 0}], "samplers": [{"magFilter": 9729, "minFilter": 9987, "wrapS": 10497, "wrapT": 10497}], "images": [{"uri": "15722799267630235092.jpg", "mimeType": "image/jpeg"}, {"uri": "6047387724914829168.jpg", "mimeType": "image/jpeg"}, {"uri": "8051790464816141987.jpg", "mimeType": "image/jpeg"}], "textures": [{"sampler": 0, "source": 0}, {"sampler": 0, "source": 1}, {"sampler": 0, "source": 2}], "materials": [{"pbrMetallicRoughness": {"baseColorFactor": [0.5879999995231628, 0.5879999995231628, 0.5879999995231628, 1.0], "baseColorTexture": {"index": 1}, "metallicRoughnessTexture": {"index": 2}}, "normalTexture": {"index": 0, "scale": 1.0}}], "meshes": [{"primitives": [{"indices": 0, "material": 0, "mode": 4, "attributes": {"POSITION": 1, "TEXCOORD_0": 2, "NORMAL": 3, "TANGENT": 4}}]}], "scene": 0, "scenes": [{"nodes": [0]}]}