{"asset": {"generator": "Granite glTF 2.0 exporter", "version": "2.0"}, "nodes": [{"mesh": 0, "scale": [0.00800000037997961, 0.00800000037997961, 0.00800000037997961]}], "buffers": [{"byteLength": 174272, "uri": "Sponza97.bin"}], "bufferViews": [{"buffer": 0, "byteLength": 21840, "byteOffset": 0}, {"buffer": 0, "byteLength": 38100, "byteOffset": 21840}, {"buffer": 0, "byteLength": 25400, "byteOffset": 59952}, {"buffer": 0, "byteLength": 38100, "byteOffset": 85360}, {"buffer": 0, "byteLength": 50800, "byteOffset": 123472}], "accessors": [{"bufferView": 0, "componentType": 5123, "type": "SCALAR", "count": 10920, "byteOffset": 0, "min": [0], "max": [3174]}, {"bufferView": 1, "componentType": 5126, "type": "VEC3", "count": 3175, "byteOffset": 0, "min": [449.5628967285156, 85.37139892578125, 152.0906982421875], "max": [540.9965209960938, 210.9434051513672, 244.8979949951172]}, {"bufferView": 2, "componentType": 5126, "type": "VEC2", "count": 3175, "byteOffset": 0}, {"bufferView": 3, "componentType": 5126, "type": "VEC3", "count": 3175, "byteOffset": 0}, {"bufferView": 4, "componentType": 5126, "type": "VEC4", "count": 3175, "byteOffset": 0}], "samplers": [{"magFilter": 9729, "minFilter": 9987, "wrapS": 10497, "wrapT": 10497}], "images": [{"uri": "8773302468495022225.jpg", "mimeType": "image/jpeg"}, {"uri": "5061699253647017043.png", "mimeType": "image/png"}, {"uri": "11872827283454512094.jpg", "mimeType": "image/jpeg"}], "textures": [{"sampler": 0, "source": 0}, {"sampler": 0, "source": 1}, {"sampler": 0, "source": 2}], "materials": [{"alphaMode": "MASK", "doubleSided": true, "pbrMetallicRoughness": {"baseColorFactor": [0.5879999995231628, 0.5879999995231628, 0.5879999995231628, 1.0], "baseColorTexture": {"index": 1}, "metallicRoughnessTexture": {"index": 2}}, "normalTexture": {"index": 0, "scale": 1.0}}], "meshes": [{"primitives": [{"indices": 0, "material": 0, "mode": 4, "attributes": {"POSITION": 1, "TEXCOORD_0": 2, "NORMAL": 3, "TANGENT": 4}}]}], "scene": 0, "scenes": [{"nodes": [0]}]}