{"asset": {"generator": "Granite glTF 2.0 exporter", "version": "2.0"}, "nodes": [{"mesh": 0, "scale": [0.00800000037997961, 0.00800000037997961, 0.00800000037997961]}], "buffers": [{"byteLength": 28416, "uri": "Sponza20.bin"}], "bufferViews": [{"buffer": 0, "byteLength": 2808, "byteOffset": 0}, {"buffer": 0, "byteLength": 6396, "byteOffset": 2816}, {"buffer": 0, "byteLength": 4264, "byteOffset": 9216}, {"buffer": 0, "byteLength": 6396, "byteOffset": 13488}, {"buffer": 0, "byteLength": 8528, "byteOffset": 19888}], "accessors": [{"bufferView": 0, "componentType": 5123, "type": "SCALAR", "count": 1404, "byteOffset": 0, "min": [0], "max": [532]}, {"bufferView": 1, "componentType": 5126, "type": "VEC3", "count": 533, "byteOffset": 0, "min": [-277.3555908203125, 46.08150100708008, -252.99859619140625], "max": [-209.1302032470703, 73.12359619140625, -189.0428009033203]}, {"bufferView": 2, "componentType": 5126, "type": "VEC2", "count": 533, "byteOffset": 0}, {"bufferView": 3, "componentType": 5126, "type": "VEC3", "count": 533, "byteOffset": 0}, {"bufferView": 4, "componentType": 5126, "type": "VEC4", "count": 533, "byteOffset": 0}], "samplers": [{"magFilter": 9729, "minFilter": 9987, "wrapS": 10497, "wrapT": 10497}], "images": [{"uri": "12501374198249454378.jpg", "mimeType": "image/jpeg"}, {"uri": "8006627369776289000.png", "mimeType": "image/png"}, {"uri": "715093869573992647.jpg", "mimeType": "image/jpeg"}], "textures": [{"sampler": 0, "source": 0}, {"sampler": 0, "source": 1}, {"sampler": 0, "source": 2}], "materials": [{"alphaMode": "MASK", "doubleSided": true, "pbrMetallicRoughness": {"baseColorFactor": [0.5879999995231628, 0.5879999995231628, 0.5879999995231628, 1.0], "baseColorTexture": {"index": 1}, "metallicRoughnessTexture": {"index": 2}}, "normalTexture": {"index": 0, "scale": 1.0}}], "meshes": [{"primitives": [{"indices": 0, "material": 0, "mode": 4, "attributes": {"POSITION": 1, "TEXCOORD_0": 2, "NORMAL": 3, "TANGENT": 4}}]}], "scene": 0, "scenes": [{"nodes": [0]}]}