{"asset": {"generator": "Granite glTF 2.0 exporter", "version": "2.0"}, "nodes": [{"mesh": 0, "scale": [0.00800000037997961, 0.00800000037997961, 0.00800000037997961]}], "buffers": [{"byteLength": 7024, "uri": "Sponza76.bin"}], "bufferViews": [{"buffer": 0, "byteLength": 960, "byteOffset": 0}, {"buffer": 0, "byteLength": 1512, "byteOffset": 960}, {"buffer": 0, "byteLength": 1008, "byteOffset": 2480}, {"buffer": 0, "byteLength": 1512, "byteOffset": 3488}, {"buffer": 0, "byteLength": 2016, "byteOffset": 5008}], "accessors": [{"bufferView": 0, "componentType": 5123, "type": "SCALAR", "count": 480, "byteOffset": 0, "min": [0], "max": [125]}, {"bufferView": 1, "componentType": 5126, "type": "VEC3", "count": 126, "byteOffset": 0, "min": [478.494384765625, 1215.901611328125, -263.6247863769531], "max": [535.96142578125, 1273.487548828125, -243.13319396972656]}, {"bufferView": 2, "componentType": 5126, "type": "VEC2", "count": 126, "byteOffset": 0}, {"bufferView": 3, "componentType": 5126, "type": "VEC3", "count": 126, "byteOffset": 0}, {"bufferView": 4, "componentType": 5126, "type": "VEC4", "count": 126, "byteOffset": 0}], "samplers": [{"magFilter": 9729, "minFilter": 9987, "wrapS": 10497, "wrapT": 10497}], "images": [{"uri": "2051777328469649772.jpg", "mimeType": "image/jpeg"}, {"uri": "14650633544276105767.jpg", "mimeType": "image/jpeg"}, {"uri": "4871783166746854860.jpg", "mimeType": "image/jpeg"}], "textures": [{"sampler": 0, "source": 0}, {"sampler": 0, "source": 1}, {"sampler": 0, "source": 2}], "materials": [{"pbrMetallicRoughness": {"baseColorFactor": [0.5879999995231628, 0.5879999995231628, 0.5879999995231628, 1.0], "baseColorTexture": {"index": 1}, "metallicRoughnessTexture": {"index": 2}}, "normalTexture": {"index": 0, "scale": 1.0}}], "meshes": [{"primitives": [{"indices": 0, "material": 0, "mode": 4, "attributes": {"POSITION": 1, "TEXCOORD_0": 2, "NORMAL": 3, "TANGENT": 4}}]}], "scene": 0, "scenes": [{"nodes": [0]}]}