{"asset": {"generator": "Granite glTF 2.0 exporter", "version": "2.0"}, "nodes": [{"mesh": 0, "scale": [0.00800000037997961, 0.00800000037997961, 0.00800000037997961]}], "buffers": [{"byteLength": 864, "uri": "Sponza44.bin"}], "bufferViews": [{"buffer": 0, "byteLength": 96, "byteOffset": 0}, {"buffer": 0, "byteLength": 192, "byteOffset": 96}, {"buffer": 0, "byteLength": 128, "byteOffset": 288}, {"buffer": 0, "byteLength": 192, "byteOffset": 416}, {"buffer": 0, "byteLength": 256, "byteOffset": 608}], "accessors": [{"bufferView": 0, "componentType": 5123, "type": "SCALAR", "count": 48, "byteOffset": 0, "min": [0], "max": [15]}, {"bufferView": 1, "componentType": 5126, "type": "VEC3", "count": 16, "byteOffset": 0, "min": [-1432.224365234375, 415.5303039550781, -645.4310302734375], "max": [1302.220947265625, 415.5303039550781, 574.1851806640625]}, {"bufferView": 2, "componentType": 5126, "type": "VEC2", "count": 16, "byteOffset": 0}, {"bufferView": 3, "componentType": 5126, "type": "VEC3", "count": 16, "byteOffset": 0}, {"bufferView": 4, "componentType": 5126, "type": "VEC4", "count": 16, "byteOffset": 0}], "samplers": [{"magFilter": 9729, "minFilter": 9987, "wrapS": 10497, "wrapT": 10497}], "images": [{"uri": "14267839433702832875.jpg", "mimeType": "image/jpeg"}, {"uri": "5823059166183034438.jpg", "mimeType": "image/jpeg"}, {"uri": "13824894030729245199.jpg", "mimeType": "image/jpeg"}], "textures": [{"sampler": 0, "source": 0}, {"sampler": 0, "source": 1}, {"sampler": 0, "source": 2}], "materials": [{"pbrMetallicRoughness": {"baseColorFactor": [0.5879999995231628, 0.5879999995231628, 0.5879999995231628, 1.0], "baseColorTexture": {"index": 1}, "metallicRoughnessTexture": {"index": 2}}, "normalTexture": {"index": 0, "scale": 1.0}}], "meshes": [{"primitives": [{"indices": 0, "material": 0, "mode": 4, "attributes": {"POSITION": 1, "TEXCOORD_0": 2, "NORMAL": 3, "TANGENT": 4}}]}], "scene": 0, "scenes": [{"nodes": [0]}]}