{"asset": {"generator": "Granite glTF 2.0 exporter", "version": "2.0"}, "nodes": [{"mesh": 0, "scale": [0.00800000037997961, 0.00800000037997961, 0.00800000037997961]}], "buffers": [{"byteLength": 36368, "uri": "Sponza81.bin"}], "bufferViews": [{"buffer": 0, "byteLength": 3336, "byteOffset": 0}, {"buffer": 0, "byteLength": 8256, "byteOffset": 3344}, {"buffer": 0, "byteLength": 5504, "byteOffset": 11600}, {"buffer": 0, "byteLength": 8256, "byteOffset": 17104}, {"buffer": 0, "byteLength": 11008, "byteOffset": 25360}], "accessors": [{"bufferView": 0, "componentType": 5123, "type": "SCALAR", "count": 1668, "byteOffset": 0, "min": [0], "max": [687]}, {"bufferView": 1, "componentType": 5126, "type": "VEC3", "count": 688, "byteOffset": 0, "min": [-140.4468994140625, -2.2155001163482666, -651.5385131835938], "max": [1315.5244140625, 716.8505859375, 42.59199905395508]}, {"bufferView": 2, "componentType": 5126, "type": "VEC2", "count": 688, "byteOffset": 0}, {"bufferView": 3, "componentType": 5126, "type": "VEC3", "count": 688, "byteOffset": 0}, {"bufferView": 4, "componentType": 5126, "type": "VEC4", "count": 688, "byteOffset": 0}], "samplers": [{"magFilter": 9729, "minFilter": 9987, "wrapS": 10497, "wrapT": 10497}], "images": [{"uri": "3628158980083700836.jpg", "mimeType": "image/jpeg"}, {"uri": "11490520546946913238.jpg", "mimeType": "image/jpeg"}, {"uri": "3455394979645218238.jpg", "mimeType": "image/jpeg"}], "textures": [{"sampler": 0, "source": 0}, {"sampler": 0, "source": 1}, {"sampler": 0, "source": 2}], "materials": [{"pbrMetallicRoughness": {"baseColorFactor": [0.5879999995231628, 0.5879999995231628, 0.5879999995231628, 1.0], "baseColorTexture": {"index": 1}, "metallicRoughnessTexture": {"index": 2}}, "normalTexture": {"index": 0, "scale": 1.0}}], "meshes": [{"primitives": [{"indices": 0, "material": 0, "mode": 4, "attributes": {"POSITION": 1, "TEXCOORD_0": 2, "NORMAL": 3, "TANGENT": 4}}]}], "scene": 0, "scenes": [{"nodes": [0]}]}