{"asset": {"generator": "Granite glTF 2.0 exporter", "version": "2.0"}, "nodes": [{"mesh": 0, "scale": [0.00800000037997961, 0.00800000037997961, 0.00800000037997961]}], "buffers": [{"byteLength": 1174192, "uri": "Sponza26.bin"}], "bufferViews": [{"buffer": 0, "byteLength": 166776, "byteOffset": 0}, {"buffer": 0, "byteLength": 251844, "byteOffset": 166784}, {"buffer": 0, "byteLength": 167896, "byteOffset": 418640}, {"buffer": 0, "byteLength": 251844, "byteOffset": 586544}, {"buffer": 0, "byteLength": 335792, "byteOffset": 838400}], "accessors": [{"bufferView": 0, "componentType": 5123, "type": "SCALAR", "count": 83388, "byteOffset": 0, "min": [0], "max": [20986]}, {"bufferView": 1, "componentType": 5126, "type": "VEC3", "count": 20987, "byteOffset": 0, "min": [-680.2642211914062, -28.04960060119629, -341.1361999511719], "max": [551.2263793945312, 225.1020965576172, 266.4422912597656]}, {"bufferView": 2, "componentType": 5126, "type": "VEC2", "count": 20987, "byteOffset": 0}, {"bufferView": 3, "componentType": 5126, "type": "VEC3", "count": 20987, "byteOffset": 0}, {"bufferView": 4, "componentType": 5126, "type": "VEC4", "count": 20987, "byteOffset": 0}], "samplers": [{"magFilter": 9729, "minFilter": 9987, "wrapS": 10497, "wrapT": 10497}], "images": [{"uri": "8773302468495022225.jpg", "mimeType": "image/jpeg"}, {"uri": "5061699253647017043.png", "mimeType": "image/png"}, {"uri": "11872827283454512094.jpg", "mimeType": "image/jpeg"}], "textures": [{"sampler": 0, "source": 0}, {"sampler": 0, "source": 1}, {"sampler": 0, "source": 2}], "materials": [{"alphaMode": "MASK", "doubleSided": true, "pbrMetallicRoughness": {"baseColorFactor": [0.5879999995231628, 0.5879999995231628, 0.5879999995231628, 1.0], "baseColorTexture": {"index": 1}, "metallicRoughnessTexture": {"index": 2}}, "normalTexture": {"index": 0, "scale": 1.0}}], "meshes": [{"primitives": [{"indices": 0, "material": 0, "mode": 4, "attributes": {"POSITION": 1, "TEXCOORD_0": 2, "NORMAL": 3, "TANGENT": 4}}]}], "scene": 0, "scenes": [{"nodes": [0]}]}