{"asset": {"generator": "Granite glTF 2.0 exporter", "version": "2.0"}, "nodes": [{"mesh": 0, "scale": [0.00800000037997961, 0.00800000037997961, 0.00800000037997961]}], "buffers": [{"byteLength": 16544, "uri": "Sponza34.bin"}], "bufferViews": [{"buffer": 0, "byteLength": 1452, "byteOffset": 0}, {"buffer": 0, "byteLength": 3768, "byteOffset": 1456}, {"buffer": 0, "byteLength": 2512, "byteOffset": 5232}, {"buffer": 0, "byteLength": 3768, "byteOffset": 7744}, {"buffer": 0, "byteLength": 5024, "byteOffset": 11520}], "accessors": [{"bufferView": 0, "componentType": 5123, "type": "SCALAR", "count": 726, "byteOffset": 0, "min": [0], "max": [313]}, {"bufferView": 1, "componentType": 5126, "type": "VEC3", "count": 314, "byteOffset": 0, "min": [-509.68328857421875, -2.1349000930786133, 554.269775390625], "max": [41.11109924316406, 289.3175048828125, 605.0136108398438]}, {"bufferView": 2, "componentType": 5126, "type": "VEC2", "count": 314, "byteOffset": 0}, {"bufferView": 3, "componentType": 5126, "type": "VEC3", "count": 314, "byteOffset": 0}, {"bufferView": 4, "componentType": 5126, "type": "VEC4", "count": 314, "byteOffset": 0}], "samplers": [{"magFilter": 9729, "minFilter": 9987, "wrapS": 10497, "wrapT": 10497}], "images": [{"uri": "3628158980083700836.jpg", "mimeType": "image/jpeg"}, {"uri": "11490520546946913238.jpg", "mimeType": "image/jpeg"}, {"uri": "3455394979645218238.jpg", "mimeType": "image/jpeg"}], "textures": [{"sampler": 0, "source": 0}, {"sampler": 0, "source": 1}, {"sampler": 0, "source": 2}], "materials": [{"pbrMetallicRoughness": {"baseColorFactor": [0.5879999995231628, 0.5879999995231628, 0.5879999995231628, 1.0], "baseColorTexture": {"index": 1}, "metallicRoughnessTexture": {"index": 2}}, "normalTexture": {"index": 0, "scale": 1.0}}], "meshes": [{"primitives": [{"indices": 0, "material": 0, "mode": 4, "attributes": {"POSITION": 1, "TEXCOORD_0": 2, "NORMAL": 3, "TANGENT": 4}}]}], "scene": 0, "scenes": [{"nodes": [0]}]}