{"asset": {"generator": "Granite glTF 2.0 exporter", "version": "2.0"}, "nodes": [{"mesh": 0, "scale": [0.00800000037997961, 0.00800000037997961, 0.00800000037997961]}], "buffers": [{"byteLength": 303840, "uri": "Sponza47.bin"}], "bufferViews": [{"buffer": 0, "byteLength": 20448, "byteOffset": 0}, {"buffer": 0, "byteLength": 70848, "byteOffset": 20448}, {"buffer": 0, "byteLength": 47232, "byteOffset": 91296}, {"buffer": 0, "byteLength": 70848, "byteOffset": 138528}, {"buffer": 0, "byteLength": 94464, "byteOffset": 209376}], "accessors": [{"bufferView": 0, "componentType": 5123, "type": "SCALAR", "count": 10224, "byteOffset": 0, "min": [0], "max": [5903]}, {"bufferView": 1, "componentType": 5126, "type": "VEC3", "count": 5904, "byteOffset": 0, "min": [-1430.30517578125, 182.6522979736328, -646.9678955078125], "max": [1303.27197265625, 695.3226928710938, 575.7255249023438]}, {"bufferView": 2, "componentType": 5126, "type": "VEC2", "count": 5904, "byteOffset": 0}, {"bufferView": 3, "componentType": 5126, "type": "VEC3", "count": 5904, "byteOffset": 0}, {"bufferView": 4, "componentType": 5126, "type": "VEC4", "count": 5904, "byteOffset": 0}], "samplers": [{"magFilter": 9729, "minFilter": 9987, "wrapS": 10497, "wrapT": 10497}], "images": [{"uri": "6667038893015345571.jpg", "mimeType": "image/jpeg"}, {"uri": "7441062115984513793.jpg", "mimeType": "image/jpeg"}, {"uri": "8114461559286000061.jpg", "mimeType": "image/jpeg"}], "textures": [{"sampler": 0, "source": 0}, {"sampler": 0, "source": 1}, {"sampler": 0, "source": 2}], "materials": [{"pbrMetallicRoughness": {"baseColorFactor": [0.5879999995231628, 0.5879999995231628, 0.5879999995231628, 1.0], "baseColorTexture": {"index": 1}, "metallicRoughnessTexture": {"index": 2}}, "normalTexture": {"index": 0, "scale": 1.0}}], "meshes": [{"primitives": [{"indices": 0, "material": 0, "mode": 4, "attributes": {"POSITION": 1, "TEXCOORD_0": 2, "NORMAL": 3, "TANGENT": 4}}]}], "scene": 0, "scenes": [{"nodes": [0]}]}