{"asset": {"generator": "Granite glTF 2.0 exporter", "version": "2.0"}, "nodes": [{"mesh": 0, "scale": [0.00800000037997961, 0.00800000037997961, 0.00800000037997961]}], "buffers": [{"byteLength": 327744, "uri": "Sponza55.bin"}], "bufferViews": [{"buffer": 0, "byteLength": 22080, "byteOffset": 0}, {"buffer": 0, "byteLength": 76416, "byteOffset": 22080}, {"buffer": 0, "byteLength": 50944, "byteOffset": 98496}, {"buffer": 0, "byteLength": 76416, "byteOffset": 149440}, {"buffer": 0, "byteLength": 101888, "byteOffset": 225856}], "accessors": [{"bufferView": 0, "componentType": 5123, "type": "SCALAR", "count": 11040, "byteOffset": 0, "min": [0], "max": [6367]}, {"bufferView": 1, "componentType": 5126, "type": "VEC3", "count": 6368, "byteOffset": 0, "min": [-1046.2919921875, 507.1398010253906, -315.4476013183594], "max": [917.5026245117188, 695.3228149414062, 243.35009765625]}, {"bufferView": 2, "componentType": 5126, "type": "VEC2", "count": 6368, "byteOffset": 0}, {"bufferView": 3, "componentType": 5126, "type": "VEC3", "count": 6368, "byteOffset": 0}, {"bufferView": 4, "componentType": 5126, "type": "VEC4", "count": 6368, "byteOffset": 0}], "samplers": [{"magFilter": 9729, "minFilter": 9987, "wrapS": 10497, "wrapT": 10497}], "images": [{"uri": "6667038893015345571.jpg", "mimeType": "image/jpeg"}, {"uri": "7441062115984513793.jpg", "mimeType": "image/jpeg"}, {"uri": "8114461559286000061.jpg", "mimeType": "image/jpeg"}], "textures": [{"sampler": 0, "source": 0}, {"sampler": 0, "source": 1}, {"sampler": 0, "source": 2}], "materials": [{"pbrMetallicRoughness": {"baseColorFactor": [0.5879999995231628, 0.5879999995231628, 0.5879999995231628, 1.0], "baseColorTexture": {"index": 1}, "metallicRoughnessTexture": {"index": 2}}, "normalTexture": {"index": 0, "scale": 1.0}}], "meshes": [{"primitives": [{"indices": 0, "material": 0, "mode": 4, "attributes": {"POSITION": 1, "TEXCOORD_0": 2, "NORMAL": 3, "TANGENT": 4}}]}], "scene": 0, "scenes": [{"nodes": [0]}]}