{"asset": {"generator": "Granite glTF 2.0 exporter", "version": "2.0"}, "nodes": [{"mesh": 0, "scale": [0.00800000037997961, 0.00800000037997961, 0.00800000037997961]}], "buffers": [{"byteLength": 222432, "uri": "Sponza61.bin"}], "bufferViews": [{"buffer": 0, "byteLength": 32736, "byteOffset": 0}, {"buffer": 0, "byteLength": 47424, "byteOffset": 32736}, {"buffer": 0, "byteLength": 31616, "byteOffset": 80160}, {"buffer": 0, "byteLength": 47424, "byteOffset": 111776}, {"buffer": 0, "byteLength": 63232, "byteOffset": 159200}], "accessors": [{"bufferView": 0, "componentType": 5123, "type": "SCALAR", "count": 16368, "byteOffset": 0, "min": [0], "max": [3951]}, {"bufferView": 1, "componentType": 5126, "type": "VEC3", "count": 3952, "byteOffset": 0, "min": [-628.6536254882812, 828.8109130859375, -270.8304138183594], "max": [503.1986083984375, 886.1389770507812, 199.3907012939453]}, {"bufferView": 2, "componentType": 5126, "type": "VEC2", "count": 3952, "byteOffset": 0}, {"bufferView": 3, "componentType": 5126, "type": "VEC3", "count": 3952, "byteOffset": 0}, {"bufferView": 4, "componentType": 5126, "type": "VEC4", "count": 3952, "byteOffset": 0}], "samplers": [{"magFilter": 9729, "minFilter": 9987, "wrapS": 10497, "wrapT": 10497}], "images": [{"uri": "2299742237651021498.jpg", "mimeType": "image/jpeg"}, {"uri": "4975155472559461469.jpg", "mimeType": "image/jpeg"}, {"uri": "3371964815757888145.jpg", "mimeType": "image/jpeg"}], "textures": [{"sampler": 0, "source": 0}, {"sampler": 0, "source": 1}, {"sampler": 0, "source": 2}], "materials": [{"pbrMetallicRoughness": {"baseColorFactor": [0.5879999995231628, 0.5879999995231628, 0.5879999995231628, 1.0], "baseColorTexture": {"index": 1}, "metallicRoughnessTexture": {"index": 2}}, "normalTexture": {"index": 0, "scale": 1.0}}], "meshes": [{"primitives": [{"indices": 0, "material": 0, "mode": 4, "attributes": {"POSITION": 1, "TEXCOORD_0": 2, "NORMAL": 3, "TANGENT": 4}}]}], "scene": 0, "scenes": [{"nodes": [0]}]}