{"asset": {"generator": "Granite glTF 2.0 exporter", "version": "2.0"}, "nodes": [{"mesh": 0, "scale": [0.00800000037997961, 0.00800000037997961, 0.00800000037997961]}], "buffers": [{"byteLength": 72400, "uri": "Sponza4.bin"}], "bufferViews": [{"buffer": 0, "byteLength": 13266, "byteOffset": 0}, {"buffer": 0, "byteLength": 14772, "byteOffset": 13280}, {"buffer": 0, "byteLength": 9848, "byteOffset": 28064}, {"buffer": 0, "byteLength": 14772, "byteOffset": 37920}, {"buffer": 0, "byteLength": 19696, "byteOffset": 52704}], "accessors": [{"bufferView": 0, "componentType": 5123, "type": "SCALAR", "count": 6633, "byteOffset": 0, "min": [0], "max": [1230]}, {"bufferView": 1, "componentType": 5126, "type": "VEC3", "count": 1231, "byteOffset": 0, "min": [-990.7388916015625, -0.14010000228881836, -251.64309692382812], "max": [-938.7498779296875, 56.199501037597656, -199.7122039794922]}, {"bufferView": 2, "componentType": 5126, "type": "VEC2", "count": 1231, "byteOffset": 0}, {"bufferView": 3, "componentType": 5126, "type": "VEC3", "count": 1231, "byteOffset": 0}, {"bufferView": 4, "componentType": 5126, "type": "VEC4", "count": 1231, "byteOffset": 0}], "samplers": [{"magFilter": 9729, "minFilter": 9987, "wrapS": 10497, "wrapT": 10497}], "images": [{"uri": "4477655471536070370.jpg", "mimeType": "image/jpeg"}, {"uri": "7268504077753552595.jpg", "mimeType": "image/jpeg"}, {"uri": "8503262930880235456.jpg", "mimeType": "image/jpeg"}], "textures": [{"sampler": 0, "source": 0}, {"sampler": 0, "source": 1}, {"sampler": 0, "source": 2}], "materials": [{"pbrMetallicRoughness": {"baseColorFactor": [0.5879999995231628, 0.5879999995231628, 0.5879999995231628, 1.0], "baseColorTexture": {"index": 1}, "metallicRoughnessTexture": {"index": 2}}, "normalTexture": {"index": 0, "scale": 1.0}}], "meshes": [{"primitives": [{"indices": 0, "material": 0, "mode": 4, "attributes": {"POSITION": 1, "TEXCOORD_0": 2, "NORMAL": 3, "TANGENT": 4}}]}], "scene": 0, "scenes": [{"nodes": [0]}]}