{"asset": {"generator": "Granite glTF 2.0 exporter", "version": "2.0"}, "nodes": [{"mesh": 0, "scale": [0.00800000037997961, 0.00800000037997961, 0.00800000037997961]}], "buffers": [{"byteLength": 1245088, "uri": "Sponza53.bin"}], "bufferViews": [{"buffer": 0, "byteLength": 139248, "byteOffset": 0}, {"buffer": 0, "byteLength": 276456, "byteOffset": 139248}, {"buffer": 0, "byteLength": 184304, "byteOffset": 415712}, {"buffer": 0, "byteLength": 276456, "byteOffset": 600016}, {"buffer": 0, "byteLength": 368608, "byteOffset": 876480}], "accessors": [{"bufferView": 0, "componentType": 5123, "type": "SCALAR", "count": 69624, "byteOffset": 0, "min": [0], "max": [23037]}, {"bufferView": 1, "componentType": 5126, "type": "VEC3", "count": 23038, "byteOffset": 0, "min": [-1037.651611328125, 506.6332092285156, -309.70550537109375], "max": [907.4069213867188, 699.61181640625, 234.77340698242188]}, {"bufferView": 2, "componentType": 5126, "type": "VEC2", "count": 23038, "byteOffset": 0}, {"bufferView": 3, "componentType": 5126, "type": "VEC3", "count": 23038, "byteOffset": 0}, {"bufferView": 4, "componentType": 5126, "type": "VEC4", "count": 23038, "byteOffset": 0}], "samplers": [{"magFilter": 9729, "minFilter": 9987, "wrapS": 10497, "wrapT": 10497}], "images": [{"uri": "7645212358685992005.jpg", "mimeType": "image/jpeg"}, {"uri": "6151467286084645207.jpg", "mimeType": "image/jpeg"}, {"uri": "8783994986360286082.jpg", "mimeType": "image/jpeg"}], "textures": [{"sampler": 0, "source": 0}, {"sampler": 0, "source": 1}, {"sampler": 0, "source": 2}], "materials": [{"pbrMetallicRoughness": {"baseColorFactor": [0.5879999995231628, 0.5879999995231628, 0.5879999995231628, 1.0], "baseColorTexture": {"index": 1}, "metallicRoughnessTexture": {"index": 2}}, "normalTexture": {"index": 0, "scale": 1.0}}], "meshes": [{"primitives": [{"indices": 0, "material": 0, "mode": 4, "attributes": {"POSITION": 1, "TEXCOORD_0": 2, "NORMAL": 3, "TANGENT": 4}}]}], "scene": 0, "scenes": [{"nodes": [0]}]}