{"asset": {"generator": "Granite glTF 2.0 exporter", "version": "2.0"}, "nodes": [{"mesh": 0, "scale": [0.00800000037997961, 0.00800000037997961, 0.00800000037997961]}], "buffers": [{"byteLength": 6544, "uri": "Sponza70.bin"}], "bufferViews": [{"buffer": 0, "byteLength": 672, "byteOffset": 0}, {"buffer": 0, "byteLength": 1464, "byteOffset": 672}, {"buffer": 0, "byteLength": 976, "byteOffset": 2144}, {"buffer": 0, "byteLength": 1464, "byteOffset": 3120}, {"buffer": 0, "byteLength": 1952, "byteOffset": 4592}], "accessors": [{"bufferView": 0, "componentType": 5123, "type": "SCALAR", "count": 336, "byteOffset": 0, "min": [0], "max": [121]}, {"bufferView": 1, "componentType": 5126, "type": "VEC3", "count": 122, "byteOffset": 0, "min": [119.4281997680664, 1226.984619140625, -271.4642028808594], "max": [154.77490234375, 1262.404296875, -255.96710205078125]}, {"bufferView": 2, "componentType": 5126, "type": "VEC2", "count": 122, "byteOffset": 0}, {"bufferView": 3, "componentType": 5126, "type": "VEC3", "count": 122, "byteOffset": 0}, {"bufferView": 4, "componentType": 5126, "type": "VEC4", "count": 122, "byteOffset": 0}], "samplers": [{"magFilter": 9729, "minFilter": 9987, "wrapS": 10497, "wrapT": 10497}], "images": [{"uri": "10388182081421875623.jpg", "mimeType": "image/jpeg"}, {"uri": "15295713303328085182.jpg", "mimeType": "image/jpeg"}, {"uri": "9916269861720640319.jpg", "mimeType": "image/jpeg"}], "textures": [{"sampler": 0, "source": 0}, {"sampler": 0, "source": 1}, {"sampler": 0, "source": 2}], "materials": [{"pbrMetallicRoughness": {"baseColorFactor": [0.5879999995231628, 0.5879999995231628, 0.5879999995231628, 1.0], "baseColorTexture": {"index": 1}, "metallicRoughnessTexture": {"index": 2}}, "normalTexture": {"index": 0, "scale": 1.0}}], "meshes": [{"primitives": [{"indices": 0, "material": 0, "mode": 4, "attributes": {"POSITION": 1, "TEXCOORD_0": 2, "NORMAL": 3, "TANGENT": 4}}]}], "scene": 0, "scenes": [{"nodes": [0]}]}