{"asset": {"generator": "Granite glTF 2.0 exporter", "version": "2.0"}, "nodes": [{"mesh": 0, "scale": [0.00800000037997961, 0.00800000037997961, 0.00800000037997961]}], "buffers": [{"byteLength": 2448, "uri": "Sponza23.bin"}], "bufferViews": [{"buffer": 0, "byteLength": 144, "byteOffset": 0}, {"buffer": 0, "byteLength": 576, "byteOffset": 144}, {"buffer": 0, "byteLength": 384, "byteOffset": 720}, {"buffer": 0, "byteLength": 576, "byteOffset": 1104}, {"buffer": 0, "byteLength": 768, "byteOffset": 1680}], "accessors": [{"bufferView": 0, "componentType": 5123, "type": "SCALAR", "count": 72, "byteOffset": 0, "min": [0], "max": [47]}, {"bufferView": 1, "componentType": 5126, "type": "VEC3", "count": 48, "byteOffset": 0, "min": [-509.6835021972656, 119.80509948730469, 573.1038818359375], "max": [-357.1275939941406, 289.3175048828125, 583.672119140625]}, {"bufferView": 2, "componentType": 5126, "type": "VEC2", "count": 48, "byteOffset": 0}, {"bufferView": 3, "componentType": 5126, "type": "VEC3", "count": 48, "byteOffset": 0}, {"bufferView": 4, "componentType": 5126, "type": "VEC4", "count": 48, "byteOffset": 0}], "samplers": [{"magFilter": 9729, "minFilter": 9987, "wrapS": 10497, "wrapT": 10497}], "images": [{"uri": "16299174074766089871.jpg", "mimeType": "image/jpeg"}, {"uri": "5792855332885324923.jpg", "mimeType": "image/jpeg"}, {"uri": "11968150294050148237.jpg", "mimeType": "image/jpeg"}], "textures": [{"sampler": 0, "source": 0}, {"sampler": 0, "source": 1}, {"sampler": 0, "source": 2}], "materials": [{"pbrMetallicRoughness": {"baseColorFactor": [0.5879999995231628, 0.5879999995231628, 0.5879999995231628, 1.0], "baseColorTexture": {"index": 1}, "metallicRoughnessTexture": {"index": 2}}, "normalTexture": {"index": 0, "scale": 1.0}}], "meshes": [{"primitives": [{"indices": 0, "material": 0, "mode": 4, "attributes": {"POSITION": 1, "TEXCOORD_0": 2, "NORMAL": 3, "TANGENT": 4}}]}], "scene": 0, "scenes": [{"nodes": [0]}]}