{"asset": {"generator": "Granite glTF 2.0 exporter", "version": "2.0"}, "nodes": [{"mesh": 0, "scale": [0.00800000037997961, 0.00800000037997961, 0.00800000037997961]}], "buffers": [{"byteLength": 4720, "uri": "Sponza45.bin"}], "bufferViews": [{"buffer": 0, "byteLength": 300, "byteOffset": 0}, {"buffer": 0, "byteLength": 1104, "byteOffset": 304}, {"buffer": 0, "byteLength": 736, "byteOffset": 1408}, {"buffer": 0, "byteLength": 1104, "byteOffset": 2144}, {"buffer": 0, "byteLength": 1472, "byteOffset": 3248}], "accessors": [{"bufferView": 0, "componentType": 5123, "type": "SCALAR", "count": 150, "byteOffset": 0, "min": [0], "max": [91]}, {"bufferView": 1, "componentType": 5126, "type": "VEC3", "count": 92, "byteOffset": 0, "min": [-1431.898681640625, 415.4613952636719, -641.6024169921875], "max": [1302.190673828125, 424.4659118652344, 575.3004150390625]}, {"bufferView": 2, "componentType": 5126, "type": "VEC2", "count": 92, "byteOffset": 0}, {"bufferView": 3, "componentType": 5126, "type": "VEC3", "count": 92, "byteOffset": 0}, {"bufferView": 4, "componentType": 5126, "type": "VEC4", "count": 92, "byteOffset": 0}], "samplers": [{"magFilter": 9729, "minFilter": 9987, "wrapS": 10497, "wrapT": 10497}], "images": [{"uri": "16299174074766089871.jpg", "mimeType": "image/jpeg"}, {"uri": "5792855332885324923.jpg", "mimeType": "image/jpeg"}, {"uri": "11968150294050148237.jpg", "mimeType": "image/jpeg"}], "textures": [{"sampler": 0, "source": 0}, {"sampler": 0, "source": 1}, {"sampler": 0, "source": 2}], "materials": [{"pbrMetallicRoughness": {"baseColorFactor": [0.5879999995231628, 0.5879999995231628, 0.5879999995231628, 1.0], "baseColorTexture": {"index": 1}, "metallicRoughnessTexture": {"index": 2}}, "normalTexture": {"index": 0, "scale": 1.0}}], "meshes": [{"primitives": [{"indices": 0, "material": 0, "mode": 4, "attributes": {"POSITION": 1, "TEXCOORD_0": 2, "NORMAL": 3, "TANGENT": 4}}]}], "scene": 0, "scenes": [{"nodes": [0]}]}