{"asset": {"generator": "Granite glTF 2.0 exporter", "version": "2.0"}, "nodes": [{"mesh": 0, "scale": [0.00800000037997961, 0.00800000037997961, 0.00800000037997961]}], "buffers": [{"byteLength": 171696, "uri": "Sponza85.bin"}], "bufferViews": [{"buffer": 0, "byteLength": 29742, "byteOffset": 0}, {"buffer": 0, "byteLength": 35484, "byteOffset": 29744}, {"buffer": 0, "byteLength": 23656, "byteOffset": 65232}, {"buffer": 0, "byteLength": 35484, "byteOffset": 88896}, {"buffer": 0, "byteLength": 47312, "byteOffset": 124384}], "accessors": [{"bufferView": 0, "componentType": 5123, "type": "SCALAR", "count": 14871, "byteOffset": 0, "min": [0], "max": [2956]}, {"bufferView": 1, "componentType": 5126, "type": "VEC3", "count": 2957, "byteOffset": 0, "min": [452.6521911621094, 98.67289733886719, -246.83450317382812], "max": [522.6115112304688, 216.9512939453125, -194.3249969482422]}, {"bufferView": 2, "componentType": 5126, "type": "VEC2", "count": 2957, "byteOffset": 0}, {"bufferView": 3, "componentType": 5126, "type": "VEC3", "count": 2957, "byteOffset": 0}, {"bufferView": 4, "componentType": 5126, "type": "VEC4", "count": 2957, "byteOffset": 0}], "samplers": [{"magFilter": 9729, "minFilter": 9987, "wrapS": 10497, "wrapT": 10497}], "images": [{"uri": "3827035219084910048.jpg", "mimeType": "image/jpeg"}, {"uri": "755318871556304029.jpg", "mimeType": "image/jpeg"}, {"uri": "2411100444841994089.jpg", "mimeType": "image/jpeg"}], "textures": [{"sampler": 0, "source": 0}, {"sampler": 0, "source": 1}, {"sampler": 0, "source": 2}], "materials": [{"pbrMetallicRoughness": {"baseColorFactor": [0.5879999995231628, 0.5879999995231628, 0.5879999995231628, 1.0], "baseColorTexture": {"index": 1}, "metallicRoughnessTexture": {"index": 2}}, "normalTexture": {"index": 0, "scale": 1.0}}], "meshes": [{"primitives": [{"indices": 0, "material": 0, "mode": 4, "attributes": {"POSITION": 1, "TEXCOORD_0": 2, "NORMAL": 3, "TANGENT": 4}}]}], "scene": 0, "scenes": [{"nodes": [0]}]}