{"asset": {"generator": "Granite glTF 2.0 exporter", "version": "2.0"}, "nodes": [{"mesh": 0, "scale": [0.00800000037997961, 0.00800000037997961, 0.00800000037997961]}], "buffers": [{"byteLength": 1264, "uri": "Sponza78.bin"}], "bufferViews": [{"buffer": 0, "byteLength": 108, "byteOffset": 0}, {"buffer": 0, "byteLength": 432, "byteOffset": 112}, {"buffer": 0, "byteLength": 288, "byteOffset": 544}, {"buffer": 0, "byteLength": 432, "byteOffset": 832}], "accessors": [{"bufferView": 0, "componentType": 5123, "type": "SCALAR", "count": 54, "byteOffset": 0, "min": [0], "max": [35]}, {"bufferView": 1, "componentType": 5126, "type": "VEC3", "count": 36, "byteOffset": 0, "min": [-119.40730285644531, 256.7309875488281, 568.6583862304688], "max": [-8.262900352478027, 348.1973876953125, 575.5051879882812]}, {"bufferView": 2, "componentType": 5126, "type": "VEC2", "count": 36, "byteOffset": 0}, {"bufferView": 3, "componentType": 5126, "type": "VEC3", "count": 36, "byteOffset": 0}], "samplers": [{"magFilter": 9729, "minFilter": 9987, "wrapS": 10497, "wrapT": 10497}], "images": [{"uri": "white.png", "mimeType": "image/png"}], "textures": [{"sampler": 0, "source": 0}], "materials": [{"pbrMetallicRoughness": {"metallicFactor": 0.0, "baseColorFactor": [0.5879999995231628, 0.5879999995231628, 0.5879999995231628, 1.0], "baseColorTexture": {"index": 0}}}], "meshes": [{"primitives": [{"indices": 0, "material": 0, "mode": 4, "attributes": {"POSITION": 1, "TEXCOORD_0": 2, "NORMAL": 3}}]}], "scene": 0, "scenes": [{"nodes": [0]}]}