{"asset": {"generator": "Granite glTF 2.0 exporter", "version": "2.0"}, "nodes": [{"mesh": 0, "scale": [0.00800000037997961, 0.00800000037997961, 0.00800000037997961]}], "buffers": [{"byteLength": 657648, "uri": "Sponza67.bin"}], "bufferViews": [{"buffer": 0, "byteLength": 86904, "byteOffset": 0}, {"buffer": 0, "byteLength": 142680, "byteOffset": 86912}, {"buffer": 0, "byteLength": 95120, "byteOffset": 229600}, {"buffer": 0, "byteLength": 142680, "byteOffset": 324720}, {"buffer": 0, "byteLength": 190240, "byteOffset": 467408}], "accessors": [{"bufferView": 0, "componentType": 5123, "type": "SCALAR", "count": 43452, "byteOffset": 0, "min": [0], "max": [11889]}, {"bufferView": 1, "componentType": 5126, "type": "VEC3", "count": 11890, "byteOffset": 0, "min": [-1920.9459228515625, 1280.513427734375, -1182.80712890625], "max": [1799.9080810546875, 1429.4332275390625, 1105.426025390625]}, {"bufferView": 2, "componentType": 5126, "type": "VEC2", "count": 11890, "byteOffset": 0}, {"bufferView": 3, "componentType": 5126, "type": "VEC3", "count": 11890, "byteOffset": 0}, {"bufferView": 4, "componentType": 5126, "type": "VEC4", "count": 11890, "byteOffset": 0}], "samplers": [{"magFilter": 9729, "minFilter": 9987, "wrapS": 10497, "wrapT": 10497}], "images": [{"uri": "14118779221266351425.jpg", "mimeType": "image/jpeg"}, {"uri": "2969916736137545357.jpg", "mimeType": "image/jpeg"}, {"uri": "8747919177698443163.jpg", "mimeType": "image/jpeg"}], "textures": [{"sampler": 0, "source": 0}, {"sampler": 0, "source": 1}, {"sampler": 0, "source": 2}], "materials": [{"pbrMetallicRoughness": {"baseColorFactor": [0.5879999995231628, 0.5879999995231628, 0.5879999995231628, 1.0], "baseColorTexture": {"index": 1}, "metallicRoughnessTexture": {"index": 2}}, "normalTexture": {"index": 0, "scale": 1.0}}], "meshes": [{"primitives": [{"indices": 0, "material": 0, "mode": 4, "attributes": {"POSITION": 1, "TEXCOORD_0": 2, "NORMAL": 3, "TANGENT": 4}}]}], "scene": 0, "scenes": [{"nodes": [0]}]}