{"asset": {"generator": "Granite glTF 2.0 exporter", "version": "2.0"}, "nodes": [{"mesh": 0, "scale": [0.00800000037997961, 0.00800000037997961, 0.00800000037997961]}], "buffers": [{"byteLength": 44336, "uri": "Sponza90.bin"}], "bufferViews": [{"buffer": 0, "byteLength": 8172, "byteOffset": 0}, {"buffer": 0, "byteLength": 9036, "byteOffset": 8176}, {"buffer": 0, "byteLength": 6024, "byteOffset": 17216}, {"buffer": 0, "byteLength": 9036, "byteOffset": 23248}, {"buffer": 0, "byteLength": 12048, "byteOffset": 32288}], "accessors": [{"bufferView": 0, "componentType": 5123, "type": "SCALAR", "count": 4086, "byteOffset": 0, "min": [0], "max": [752]}, {"bufferView": 1, "componentType": 5126, "type": "VEC3", "count": 753, "byteOffset": 0, "min": [1277.022705078125, 40.818599700927734, -160.46499633789062], "max": [1299.8668212890625, 306.3245849609375, 88.62660217285156]}, {"bufferView": 2, "componentType": 5126, "type": "VEC2", "count": 753, "byteOffset": 0}, {"bufferView": 3, "componentType": 5126, "type": "VEC3", "count": 753, "byteOffset": 0}, {"bufferView": 4, "componentType": 5126, "type": "VEC4", "count": 753, "byteOffset": 0}], "samplers": [{"magFilter": 9729, "minFilter": 9987, "wrapS": 10497, "wrapT": 10497}], "images": [{"uri": "13982482287905699490.jpg", "mimeType": "image/jpeg"}, {"uri": "8750083169368950601.jpg", "mimeType": "image/jpeg"}, {"uri": "16885566240357350108.jpg", "mimeType": "image/jpeg"}], "textures": [{"sampler": 0, "source": 0}, {"sampler": 0, "source": 1}, {"sampler": 0, "source": 2}], "materials": [{"pbrMetallicRoughness": {"baseColorFactor": [0.5879999995231628, 0.5879999995231628, 0.5879999995231628, 1.0], "baseColorTexture": {"index": 1}, "metallicRoughnessTexture": {"index": 2}}, "normalTexture": {"index": 0, "scale": 1.0}}], "meshes": [{"primitives": [{"indices": 0, "material": 0, "mode": 4, "attributes": {"POSITION": 1, "TEXCOORD_0": 2, "NORMAL": 3, "TANGENT": 4}}]}], "scene": 0, "scenes": [{"nodes": [0]}]}