{"asset": {"generator": "Granite glTF 2.0 exporter", "version": "2.0"}, "nodes": [{"mesh": 0, "scale": [0.00800000037997961, 0.00800000037997961, 0.00800000037997961]}], "buffers": [{"byteLength": 466560, "uri": "Sponza40.bin"}], "bufferViews": [{"buffer": 0, "byteLength": 66240, "byteOffset": 0}, {"buffer": 0, "byteLength": 100080, "byteOffset": 66240}, {"buffer": 0, "byteLength": 66720, "byteOffset": 166320}, {"buffer": 0, "byteLength": 100080, "byteOffset": 233040}, {"buffer": 0, "byteLength": 133440, "byteOffset": 333120}], "accessors": [{"bufferView": 0, "componentType": 5123, "type": "SCALAR", "count": 33120, "byteOffset": 0, "min": [0], "max": [8339]}, {"bufferView": 1, "componentType": 5126, "type": "VEC3", "count": 8340, "byteOffset": 0, "min": [-958.6978149414062, 274.9595947265625, -289.70361328125], "max": [830.2938842773438, 294.114013671875, 209.11500549316406]}, {"bufferView": 2, "componentType": 5126, "type": "VEC2", "count": 8340, "byteOffset": 0}, {"bufferView": 3, "componentType": 5126, "type": "VEC3", "count": 8340, "byteOffset": 0}, {"bufferView": 4, "componentType": 5126, "type": "VEC4", "count": 8340, "byteOffset": 0}], "samplers": [{"magFilter": 9729, "minFilter": 9987, "wrapS": 10497, "wrapT": 10497}], "images": [{"uri": "2299742237651021498.jpg", "mimeType": "image/jpeg"}, {"uri": "4975155472559461469.jpg", "mimeType": "image/jpeg"}, {"uri": "3371964815757888145.jpg", "mimeType": "image/jpeg"}], "textures": [{"sampler": 0, "source": 0}, {"sampler": 0, "source": 1}, {"sampler": 0, "source": 2}], "materials": [{"pbrMetallicRoughness": {"baseColorFactor": [0.5879999995231628, 0.5879999995231628, 0.5879999995231628, 1.0], "baseColorTexture": {"index": 1}, "metallicRoughnessTexture": {"index": 2}}, "normalTexture": {"index": 0, "scale": 1.0}}], "meshes": [{"primitives": [{"indices": 0, "material": 0, "mode": 4, "attributes": {"POSITION": 1, "TEXCOORD_0": 2, "NORMAL": 3, "TANGENT": 4}}]}], "scene": 0, "scenes": [{"nodes": [0]}]}