{"asset": {"generator": "Granite glTF 2.0 exporter", "version": "2.0"}, "nodes": [{"mesh": 0, "scale": [0.00800000037997961, 0.00800000037997961, 0.00800000037997961]}], "buffers": [{"byteLength": 11600, "uri": "Sponza58.bin"}], "bufferViews": [{"buffer": 0, "byteLength": 1224, "byteOffset": 0}, {"buffer": 0, "byteLength": 2592, "byteOffset": 1232}, {"buffer": 0, "byteLength": 1728, "byteOffset": 3824}, {"buffer": 0, "byteLength": 2592, "byteOffset": 5552}, {"buffer": 0, "byteLength": 3456, "byteOffset": 8144}], "accessors": [{"bufferView": 0, "componentType": 5123, "type": "SCALAR", "count": 612, "byteOffset": 0, "min": [0], "max": [215]}, {"bufferView": 1, "componentType": 5126, "type": "VEC3", "count": 216, "byteOffset": 0, "min": [-1002.363525390625, 693.7667846679688, -259.3258056640625], "max": [868.647216796875, 921.728515625, 185.96730041503906]}, {"bufferView": 2, "componentType": 5126, "type": "VEC2", "count": 216, "byteOffset": 0}, {"bufferView": 3, "componentType": 5126, "type": "VEC3", "count": 216, "byteOffset": 0}, {"bufferView": 4, "componentType": 5126, "type": "VEC4", "count": 216, "byteOffset": 0}], "samplers": [{"magFilter": 9729, "minFilter": 9987, "wrapS": 10497, "wrapT": 10497}], "images": [{"uri": "16299174074766089871.jpg", "mimeType": "image/jpeg"}, {"uri": "5792855332885324923.jpg", "mimeType": "image/jpeg"}, {"uri": "11968150294050148237.jpg", "mimeType": "image/jpeg"}], "textures": [{"sampler": 0, "source": 0}, {"sampler": 0, "source": 1}, {"sampler": 0, "source": 2}], "materials": [{"pbrMetallicRoughness": {"baseColorFactor": [0.5879999995231628, 0.5879999995231628, 0.5879999995231628, 1.0], "baseColorTexture": {"index": 1}, "metallicRoughnessTexture": {"index": 2}}, "normalTexture": {"index": 0, "scale": 1.0}}], "meshes": [{"primitives": [{"indices": 0, "material": 0, "mode": 4, "attributes": {"POSITION": 1, "TEXCOORD_0": 2, "NORMAL": 3, "TANGENT": 4}}]}], "scene": 0, "scenes": [{"nodes": [0]}]}