{"asset": {"generator": "Granite glTF 2.0 exporter", "version": "2.0"}, "nodes": [{"mesh": 0, "scale": [0.00800000037997961, 0.00800000037997961, 0.00800000037997961]}], "buffers": [{"byteLength": 816, "uri": "Sponza10.bin"}], "bufferViews": [{"buffer": 0, "byteLength": 48, "byteOffset": 0}, {"buffer": 0, "byteLength": 192, "byteOffset": 48}, {"buffer": 0, "byteLength": 128, "byteOffset": 240}, {"buffer": 0, "byteLength": 192, "byteOffset": 368}, {"buffer": 0, "byteLength": 256, "byteOffset": 560}], "accessors": [{"bufferView": 0, "componentType": 5123, "type": "SCALAR", "count": 24, "byteOffset": 0, "min": [0], "max": [15]}, {"bufferView": 1, "componentType": 5126, "type": "VEC3", "count": 16, "byteOffset": 0, "min": [-644.8781127929688, 133.72129821777344, 141.55499267578125], "max": [-593.4752807617188, 214.3549041748047, 145.12840270996094]}, {"bufferView": 2, "componentType": 5126, "type": "VEC2", "count": 16, "byteOffset": 0}, {"bufferView": 3, "componentType": 5126, "type": "VEC3", "count": 16, "byteOffset": 0}, {"bufferView": 4, "componentType": 5126, "type": "VEC4", "count": 16, "byteOffset": 0}], "samplers": [{"magFilter": 9729, "minFilter": 9987, "wrapS": 10497, "wrapT": 10497}], "images": [{"uri": "14170708867020035030.jpg", "mimeType": "image/jpeg"}, {"uri": "16275776544635328252.png", "mimeType": "image/png"}, {"uri": "1219024358953944284.jpg", "mimeType": "image/jpeg"}], "textures": [{"sampler": 0, "source": 0}, {"sampler": 0, "source": 1}, {"sampler": 0, "source": 2}], "materials": [{"alphaMode": "MASK", "doubleSided": true, "pbrMetallicRoughness": {"baseColorFactor": [0.5879999995231628, 0.5879999995231628, 0.5879999995231628, 1.0], "baseColorTexture": {"index": 1}, "metallicRoughnessTexture": {"index": 2}}, "normalTexture": {"index": 0, "scale": 1.0}}], "meshes": [{"primitives": [{"indices": 0, "material": 0, "mode": 4, "attributes": {"POSITION": 1, "TEXCOORD_0": 2, "NORMAL": 3, "TANGENT": 4}}]}], "scene": 0, "scenes": [{"nodes": [0]}]}