{"asset": {"generator": "Granite glTF 2.0 exporter", "version": "2.0"}, "nodes": [{"mesh": 0, "scale": [0.00800000037997961, 0.00800000037997961, 0.00800000037997961]}], "buffers": [{"byteLength": 148096, "uri": "Sponza18.bin"}], "bufferViews": [{"buffer": 0, "byteLength": 27648, "byteOffset": 0}, {"buffer": 0, "byteLength": 30108, "byteOffset": 27648}, {"buffer": 0, "byteLength": 20072, "byteOffset": 57760}, {"buffer": 0, "byteLength": 30108, "byteOffset": 77840}, {"buffer": 0, "byteLength": 40144, "byteOffset": 107952}], "accessors": [{"bufferView": 0, "componentType": 5123, "type": "SCALAR", "count": 13824, "byteOffset": 0, "min": [0], "max": [2508]}, {"bufferView": 1, "componentType": 5126, "type": "VEC3", "count": 2509, "byteOffset": 0, "min": [-577.6201782226562, -0.30889999866485596, -295.25439453125], "max": [-290.5769958496094, 283.6809997558594, -269.9462890625]}, {"bufferView": 2, "componentType": 5126, "type": "VEC2", "count": 2509, "byteOffset": 0}, {"bufferView": 3, "componentType": 5126, "type": "VEC3", "count": 2509, "byteOffset": 0}, {"bufferView": 4, "componentType": 5126, "type": "VEC4", "count": 2509, "byteOffset": 0}], "samplers": [{"magFilter": 9729, "minFilter": 9987, "wrapS": 10497, "wrapT": 10497}], "images": [{"uri": "6593109234861095314.jpg", "mimeType": "image/jpeg"}, {"uri": "17876391417123941155.jpg", "mimeType": "image/jpeg"}, {"uri": "466164707995436622.jpg", "mimeType": "image/jpeg"}], "textures": [{"sampler": 0, "source": 0}, {"sampler": 0, "source": 1}, {"sampler": 0, "source": 2}], "materials": [{"pbrMetallicRoughness": {"baseColorFactor": [0.5879999995231628, 0.5879999995231628, 0.5879999995231628, 1.0], "baseColorTexture": {"index": 1}, "metallicRoughnessTexture": {"index": 2}}, "normalTexture": {"index": 0, "scale": 1.0}}], "meshes": [{"primitives": [{"indices": 0, "material": 0, "mode": 4, "attributes": {"POSITION": 1, "TEXCOORD_0": 2, "NORMAL": 3, "TANGENT": 4}}]}], "scene": 0, "scenes": [{"nodes": [0]}]}