{"asset": {"generator": "Granite glTF 2.0 exporter", "version": "2.0"}, "nodes": [{"mesh": 0, "scale": [0.00800000037997961, 0.00800000037997961, 0.00800000037997961]}], "buffers": [{"byteLength": 170592, "uri": "Sponza42.bin"}], "bufferViews": [{"buffer": 0, "byteLength": 17376, "byteOffset": 0}, {"buffer": 0, "byteLength": 38304, "byteOffset": 17376}, {"buffer": 0, "byteLength": 25536, "byteOffset": 55680}, {"buffer": 0, "byteLength": 38304, "byteOffset": 81216}, {"buffer": 0, "byteLength": 51072, "byteOffset": 119520}], "accessors": [{"bufferView": 0, "componentType": 5123, "type": "SCALAR", "count": 8688, "byteOffset": 0, "min": [0], "max": [3191]}, {"bufferView": 1, "componentType": 5126, "type": "VEC3", "count": 3192, "byteOffset": 0, "min": [-1041.22900390625, 211.39549255371094, -305.53790283203125], "max": [912.8480834960938, 410.4053039550781, 233.32640075683594]}, {"bufferView": 2, "componentType": 5126, "type": "VEC2", "count": 3192, "byteOffset": 0}, {"bufferView": 3, "componentType": 5126, "type": "VEC3", "count": 3192, "byteOffset": 0}, {"bufferView": 4, "componentType": 5126, "type": "VEC4", "count": 3192, "byteOffset": 0}], "samplers": [{"magFilter": 9729, "minFilter": 9987, "wrapS": 10497, "wrapT": 10497}], "images": [{"uri": "2051777328469649772.jpg", "mimeType": "image/jpeg"}, {"uri": "14650633544276105767.jpg", "mimeType": "image/jpeg"}, {"uri": "4871783166746854860.jpg", "mimeType": "image/jpeg"}], "textures": [{"sampler": 0, "source": 0}, {"sampler": 0, "source": 1}, {"sampler": 0, "source": 2}], "materials": [{"pbrMetallicRoughness": {"baseColorFactor": [0.5879999995231628, 0.5879999995231628, 0.5879999995231628, 1.0], "baseColorTexture": {"index": 1}, "metallicRoughnessTexture": {"index": 2}}, "normalTexture": {"index": 0, "scale": 1.0}}], "meshes": [{"primitives": [{"indices": 0, "material": 0, "mode": 4, "attributes": {"POSITION": 1, "TEXCOORD_0": 2, "NORMAL": 3, "TANGENT": 4}}]}], "scene": 0, "scenes": [{"nodes": [0]}]}