{"asset": {"generator": "Granite glTF 2.0 exporter", "version": "2.0"}, "nodes": [{"mesh": 0, "scale": [0.00800000037997961, 0.00800000037997961, 0.00800000037997961]}], "buffers": [{"byteLength": 189504, "uri": "Sponza21.bin"}], "bufferViews": [{"buffer": 0, "byteLength": 33024, "byteOffset": 0}, {"buffer": 0, "byteLength": 39120, "byteOffset": 33024}, {"buffer": 0, "byteLength": 26080, "byteOffset": 72144}, {"buffer": 0, "byteLength": 39120, "byteOffset": 98224}, {"buffer": 0, "byteLength": 52160, "byteOffset": 137344}], "accessors": [{"bufferView": 0, "componentType": 5123, "type": "SCALAR", "count": 16512, "byteOffset": 0, "min": [0], "max": [3259]}, {"bufferView": 1, "componentType": 5126, "type": "VEC3", "count": 3260, "byteOffset": 0, "min": [-786.898681640625, 339.4429931640625, -324.5262145996094], "max": [-456.96661376953125, 520.5938720703125, -229.40480041503906]}, {"bufferView": 2, "componentType": 5126, "type": "VEC2", "count": 3260, "byteOffset": 0}, {"bufferView": 3, "componentType": 5126, "type": "VEC3", "count": 3260, "byteOffset": 0}, {"bufferView": 4, "componentType": 5126, "type": "VEC4", "count": 3260, "byteOffset": 0}], "samplers": [{"magFilter": 9729, "minFilter": 9987, "wrapS": 10497, "wrapT": 10497}], "images": [{"uri": "2374361008830720677.jpg", "mimeType": "image/jpeg"}, {"uri": "2775690330959970771.jpg", "mimeType": "image/jpeg"}, {"uri": "7815564343179553343.jpg", "mimeType": "image/jpeg"}], "textures": [{"sampler": 0, "source": 0}, {"sampler": 0, "source": 1}, {"sampler": 0, "source": 2}], "materials": [{"pbrMetallicRoughness": {"baseColorFactor": [0.5879999995231628, 0.5879999995231628, 0.5879999995231628, 1.0], "baseColorTexture": {"index": 1}, "metallicRoughnessTexture": {"index": 2}}, "normalTexture": {"index": 0, "scale": 1.0}}], "meshes": [{"primitives": [{"indices": 0, "material": 0, "mode": 4, "attributes": {"POSITION": 1, "TEXCOORD_0": 2, "NORMAL": 3, "TANGENT": 4}}]}], "scene": 0, "scenes": [{"nodes": [0]}]}