{"asset": {"generator": "Granite glTF 2.0 exporter", "version": "2.0"}, "nodes": [{"mesh": 0, "scale": [0.00800000037997961, 0.00800000037997961, 0.00800000037997961]}], "buffers": [{"byteLength": 154736, "uri": "Sponza72.bin"}], "bufferViews": [{"buffer": 0, "byteLength": 29184, "byteOffset": 0}, {"buffer": 0, "byteLength": 31380, "byteOffset": 29184}, {"buffer": 0, "byteLength": 20920, "byteOffset": 60576}, {"buffer": 0, "byteLength": 31380, "byteOffset": 81504}, {"buffer": 0, "byteLength": 41840, "byteOffset": 112896}], "accessors": [{"bufferView": 0, "componentType": 5123, "type": "SCALAR", "count": 14592, "byteOffset": 0, "min": [0], "max": [2614]}, {"bufferView": 1, "componentType": 5126, "type": "VEC3", "count": 2615, "byteOffset": 0, "min": [-204.93739318847656, 0.13050000369548798, 188.90179443359375], "max": [82.35980224609375, 283.0152893066406, 213.4824981689453]}, {"bufferView": 2, "componentType": 5126, "type": "VEC2", "count": 2615, "byteOffset": 0}, {"bufferView": 3, "componentType": 5126, "type": "VEC3", "count": 2615, "byteOffset": 0}, {"bufferView": 4, "componentType": 5126, "type": "VEC4", "count": 2615, "byteOffset": 0}], "samplers": [{"magFilter": 9729, "minFilter": 9987, "wrapS": 10497, "wrapT": 10497}], "images": [{"uri": "6593109234861095314.jpg", "mimeType": "image/jpeg"}, {"uri": "17876391417123941155.jpg", "mimeType": "image/jpeg"}, {"uri": "466164707995436622.jpg", "mimeType": "image/jpeg"}], "textures": [{"sampler": 0, "source": 0}, {"sampler": 0, "source": 1}, {"sampler": 0, "source": 2}], "materials": [{"pbrMetallicRoughness": {"baseColorFactor": [0.5879999995231628, 0.5879999995231628, 0.5879999995231628, 1.0], "baseColorTexture": {"index": 1}, "metallicRoughnessTexture": {"index": 2}}, "normalTexture": {"index": 0, "scale": 1.0}}], "meshes": [{"primitives": [{"indices": 0, "material": 0, "mode": 4, "attributes": {"POSITION": 1, "TEXCOORD_0": 2, "NORMAL": 3, "TANGENT": 4}}]}], "scene": 0, "scenes": [{"nodes": [0]}]}