{"asset": {"generator": "Granite glTF 2.0 exporter", "version": "2.0"}, "nodes": [{"mesh": 0, "scale": [0.00800000037997961, 0.00800000037997961, 0.00800000037997961]}], "buffers": [{"byteLength": 95712, "uri": "Sponza29.bin"}], "bufferViews": [{"buffer": 0, "byteLength": 8160, "byteOffset": 0}, {"buffer": 0, "byteLength": 21888, "byteOffset": 8160}, {"buffer": 0, "byteLength": 14592, "byteOffset": 30048}, {"buffer": 0, "byteLength": 21888, "byteOffset": 44640}, {"buffer": 0, "byteLength": 29184, "byteOffset": 66528}], "accessors": [{"bufferView": 0, "componentType": 5123, "type": "SCALAR", "count": 4080, "byteOffset": 0, "min": [0], "max": [1823]}, {"bufferView": 1, "componentType": 5126, "type": "VEC3", "count": 1824, "byteOffset": 0, "min": [-1057.22021484375, -2.460700035095215, -316.86920166015625], "max": [925.6038208007812, 220.99710083007812, 246.61489868164062]}, {"bufferView": 2, "componentType": 5126, "type": "VEC2", "count": 1824, "byteOffset": 0}, {"bufferView": 3, "componentType": 5126, "type": "VEC3", "count": 1824, "byteOffset": 0}, {"bufferView": 4, "componentType": 5126, "type": "VEC4", "count": 1824, "byteOffset": 0}], "samplers": [{"magFilter": 9729, "minFilter": 9987, "wrapS": 10497, "wrapT": 10497}], "images": [{"uri": "15722799267630235092.jpg", "mimeType": "image/jpeg"}, {"uri": "6047387724914829168.jpg", "mimeType": "image/jpeg"}, {"uri": "8051790464816141987.jpg", "mimeType": "image/jpeg"}], "textures": [{"sampler": 0, "source": 0}, {"sampler": 0, "source": 1}, {"sampler": 0, "source": 2}], "materials": [{"pbrMetallicRoughness": {"baseColorFactor": [0.5879999995231628, 0.5879999995231628, 0.5879999995231628, 1.0], "baseColorTexture": {"index": 1}, "metallicRoughnessTexture": {"index": 2}}, "normalTexture": {"index": 0, "scale": 1.0}}], "meshes": [{"primitives": [{"indices": 0, "material": 0, "mode": 4, "attributes": {"POSITION": 1, "TEXCOORD_0": 2, "NORMAL": 3, "TANGENT": 4}}]}], "scene": 0, "scenes": [{"nodes": [0]}]}