{"asset": {"generator": "Khronos glTF Blender I/O v1.5.17", "version": "2.0"}, "nodes": [{"mesh": 0, "name": "prop_Log_geo_035_bark_log_01_tx_0"}], "buffers": [{"byteLength": 608, "uri": "FlatShack194.bin"}], "bufferViews": [{"buffer": 0, "byteLength": 96, "byteOffset": 0}, {"buffer": 0, "byteLength": 180, "byteOffset": 96}, {"buffer": 0, "byteLength": 180, "byteOffset": 288}, {"buffer": 0, "byteLength": 120, "byteOffset": 480}], "accessors": [{"bufferView": 0, "componentType": 5123, "count": 48, "type": "SCALAR", "byteOffset": 0}, {"bufferView": 1, "componentType": 5126, "count": 15, "max": [3.8191657066345215, 2.4104762077331543, 0.7894811630249023], "min": [3.5667777061462402, 1.7424678802490234, 0.23029422760009766], "type": "VEC3", "byteOffset": 0}, {"bufferView": 2, "componentType": 5126, "count": 15, "type": "VEC3", "byteOffset": 0}, {"bufferView": 3, "componentType": 5126, "count": 15, "type": "VEC2", "byteOffset": 0}], "samplers": [{"magFilter": 9729, "minFilter": 9987}], "images": [{"uri": "textures/Schrub_01_tex_baseColor.png"}], "textures": [{"sampler": 0, "source": 0}], "materials": [{"alphaMode": "BLEND", "doubleSided": true, "name": "Schrub_01_tex", "pbrMetallicRoughness": {"baseColorTexture": {"index": 0}, "metallicFactor": 0, "roughnessFactor": 0.6000000238418579}}], "meshes": [{"primitives": [{"attributes": {"POSITION": 1, "NORMAL": 2, "TEXCOORD_0": 3}, "indices": 0, "material": 0}]}], "scene": 0, "scenes": [{"name": "Scene", "nodes": [0]}]}