{"asset": {"generator": "Khronos glTF Blender I/O v1.5.17", "version": "2.0"}, "nodes": [{"mesh": 0, "name": "prop_Gasttank_geo_003_Gastank_01_tex1_0"}], "buffers": [{"byteLength": 224, "uri": "FlatShack392.bin"}], "bufferViews": [{"buffer": 0, "byteLength": 12, "byteOffset": 0}, {"buffer": 0, "byteLength": 72, "byteOffset": 16}, {"buffer": 0, "byteLength": 72, "byteOffset": 96}, {"buffer": 0, "byteLength": 48, "byteOffset": 176}], "accessors": [{"bufferView": 0, "componentType": 5123, "count": 6, "type": "SCALAR", "byteOffset": 0}, {"bufferView": 1, "componentType": 5126, "count": 6, "max": [-5.341772556304932, 9.839950561523438, 2.944056749343872], "min": [-5.510868549346924, 8.732404708862305, 2.2788617610931396], "type": "VEC3", "byteOffset": 0}, {"bufferView": 2, "componentType": 5126, "count": 6, "type": "VEC3", "byteOffset": 0}, {"bufferView": 3, "componentType": 5126, "count": 6, "type": "VEC2", "byteOffset": 0}], "samplers": [{"magFilter": 9729, "minFilter": 9987}], "images": [{"uri": "textures/Mesh_01_tex_baseColor.png"}], "textures": [{"sampler": 0, "source": 0}], "materials": [{"alphaMode": "BLEND", "doubleSided": true, "name": "Mesh_01_tex", "pbrMetallicRoughness": {"baseColorTexture": {"index": 0}, "metallicFactor": 0, "roughnessFactor": 0.6000000238418579}}], "meshes": [{"primitives": [{"attributes": {"POSITION": 1, "NORMAL": 2, "TEXCOORD_0": 3}, "indices": 0, "material": 0}]}], "scene": 0, "scenes": [{"name": "Scene", "nodes": [0]}]}