{"asset": {"generator": "Khronos glTF Blender I/O v1.5.17", "version": "2.0"}, "nodes": [{"mesh": 0, "name": "Swamp_Bush_geo_043_swamp_bush_01_tex_0"}], "buffers": [{"byteLength": 7920, "uri": "FlatShack124.bin"}], "bufferViews": [{"buffer": 0, "byteLength": 672, "byteOffset": 0}, {"buffer": 0, "byteLength": 2712, "byteOffset": 672}, {"buffer": 0, "byteLength": 2712, "byteOffset": 3392}, {"buffer": 0, "byteLength": 1808, "byteOffset": 6112}], "accessors": [{"bufferView": 0, "componentType": 5123, "count": 336, "type": "SCALAR", "byteOffset": 0}, {"bufferView": 1, "componentType": 5126, "count": 226, "max": [-7.06506872177124, 1.9431562423706055, -0.3015645742416382], "min": [-7.695318222045898, 1.5680564641952515, -0.7254660129547119], "type": "VEC3", "byteOffset": 0}, {"bufferView": 2, "componentType": 5126, "count": 226, "type": "VEC3", "byteOffset": 0}, {"bufferView": 3, "componentType": 5126, "count": 226, "type": "VEC2", "byteOffset": 0}], "samplers": [{"magFilter": 9729, "minFilter": 9987}], "images": [{"uri": "textures/Cardboard_tex_baseColor.png"}], "textures": [{"sampler": 0, "source": 0}], "materials": [{"doubleSided": true, "name": "Cardboard_tex", "pbrMetallicRoughness": {"baseColorTexture": {"index": 0}, "metallicFactor": 0, "roughnessFactor": 0.6000000238418579}}], "meshes": [{"primitives": [{"attributes": {"POSITION": 1, "NORMAL": 2, "TEXCOORD_0": 3}, "indices": 0, "material": 0}]}], "scene": 0, "scenes": [{"name": "Scene", "nodes": [0]}]}