{"asset": {"generator": "Khronos glTF Blender I/O v1.5.17", "version": "2.0"}, "nodes": [{"mesh": 0, "name": "prop_Garbage_geo_004_Garbage_01_tex_0"}], "buffers": [{"byteLength": 4832, "uri": "FlatShack151.bin"}], "bufferViews": [{"buffer": 0, "byteLength": 648, "byteOffset": 0}, {"buffer": 0, "byteLength": 1560, "byteOffset": 656}, {"buffer": 0, "byteLength": 1560, "byteOffset": 2224}, {"buffer": 0, "byteLength": 1040, "byteOffset": 3792}], "accessors": [{"bufferView": 0, "componentType": 5123, "count": 324, "type": "SCALAR", "byteOffset": 0}, {"bufferView": 1, "componentType": 5126, "count": 130, "max": [-9.83704662322998, 1.8780086040496826, 0.1577317714691162], "min": [-10.132495880126953, 1.7148956060409546, -0.37216871976852417], "type": "VEC3", "byteOffset": 0}, {"bufferView": 2, "componentType": 5126, "count": 130, "type": "VEC3", "byteOffset": 0}, {"bufferView": 3, "componentType": 5126, "count": 130, "type": "VEC2", "byteOffset": 0}], "samplers": [{"magFilter": 9729, "minFilter": 9987}], "images": [{"uri": "textures/bark_log_01_tx_baseColor.png"}], "textures": [{"sampler": 0, "source": 0}], "materials": [{"doubleSided": true, "name": "bark_log_01_tx", "pbrMetallicRoughness": {"baseColorTexture": {"index": 0}, "metallicFactor": 0}}], "meshes": [{"primitives": [{"attributes": {"POSITION": 1, "NORMAL": 2, "TEXCOORD_0": 3}, "indices": 0, "material": 0}]}], "scene": 0, "scenes": [{"name": "Scene", "nodes": [0]}]}