{"asset": {"generator": "Khronos glTF Blender I/O v1.5.17", "version": "2.0"}, "nodes": [{"mesh": 0, "name": "House_Deck_geo_001_Wood_old_01_tex_0"}], "buffers": [{"byteLength": 7616, "uri": "FlatShack25.bin"}], "bufferViews": [{"buffer": 0, "byteLength": 1728, "byteOffset": 0}, {"buffer": 0, "byteLength": 2208, "byteOffset": 1728}, {"buffer": 0, "byteLength": 2208, "byteOffset": 3936}, {"buffer": 0, "byteLength": 1472, "byteOffset": 6144}], "accessors": [{"bufferView": 0, "componentType": 5123, "count": 864, "type": "SCALAR", "byteOffset": 0}, {"bufferView": 1, "componentType": 5126, "count": 184, "max": [-2.4050137996673584, 2.4890170097351074, -5.169341087341309], "min": [-2.979109764099121, 1.8363441228866577, -5.713741779327393], "type": "VEC3", "byteOffset": 0}, {"bufferView": 2, "componentType": 5126, "count": 184, "type": "VEC3", "byteOffset": 0}, {"bufferView": 3, "componentType": 5126, "count": 184, "type": "VEC2", "byteOffset": 0}], "samplers": [{"magFilter": 9729, "minFilter": 9987}], "images": [{"uri": "textures/Garbage_01_tex_baseColor.png"}], "textures": [{"sampler": 0, "source": 0}], "materials": [{"doubleSided": true, "name": "Garbage_01_tex", "pbrMetallicRoughness": {"baseColorTexture": {"index": 0}, "metallicFactor": 0, "roughnessFactor": 0.19019541144371033}}], "meshes": [{"primitives": [{"attributes": {"POSITION": 1, "NORMAL": 2, "TEXCOORD_0": 3}, "indices": 0, "material": 0}]}], "scene": 0, "scenes": [{"name": "Scene", "nodes": [0]}]}