{"asset": {"generator": "Khronos glTF Blender I/O v1.5.17", "version": "2.0"}, "nodes": [{"mesh": 0, "name": "prop_Satelite_01_geo_Satelite_frame_03_tex_0"}], "buffers": [{"byteLength": 1776, "uri": "FlatShack418.bin"}], "bufferViews": [{"buffer": 0, "byteLength": 168, "byteOffset": 0}, {"buffer": 0, "byteLength": 480, "byteOffset": 176}, {"buffer": 0, "byteLength": 480, "byteOffset": 656}, {"buffer": 0, "byteLength": 320, "byteOffset": 1136}, {"buffer": 0, "byteLength": 320, "byteOffset": 1456}], "accessors": [{"bufferView": 0, "componentType": 5123, "count": 84, "type": "SCALAR", "byteOffset": 0}, {"bufferView": 1, "componentType": 5126, "count": 40, "max": [-2.158066511154175, 6.898547649383545, 5.603634834289551], "min": [-4.6661248207092285, 5.85856294631958, -0.159423828125], "type": "VEC3", "byteOffset": 0}, {"bufferView": 2, "componentType": 5126, "count": 40, "type": "VEC3", "byteOffset": 0}, {"bufferView": 3, "componentType": 5126, "count": 40, "type": "VEC2", "byteOffset": 0}, {"bufferView": 4, "componentType": 5126, "count": 40, "type": "VEC2", "byteOffset": 0}], "samplers": [{"magFilter": 9729, "minFilter": 9987}], "images": [{"uri": "textures/Wood_old_01_tex_baseColor.png"}], "textures": [{"sampler": 0, "source": 0}], "materials": [{"doubleSided": true, "name": "Wood_old_01_tex", "pbrMetallicRoughness": {"baseColorTexture": {"index": 0}, "metallicFactor": 0, "roughnessFactor": 0.6000000238418579}}], "meshes": [{"primitives": [{"attributes": {"POSITION": 1, "NORMAL": 2, "TEXCOORD_0": 3, "TEXCOORD_1": 4}, "indices": 0, "material": 0}]}], "scene": 0, "scenes": [{"name": "Scene", "nodes": [0]}]}