{"asset": {"generator": "Khronos glTF Blender I/O v1.5.17", "version": "2.0"}, "nodes": [{"mesh": 0, "name": "prop_box_geo_013_Cardboard_tex_0"}], "buffers": [{"byteLength": 34080, "uri": "FlatShack404.bin"}], "bufferViews": [{"buffer": 0, "byteLength": 4896, "byteOffset": 0}, {"buffer": 0, "byteLength": 8748, "byteOffset": 4896}, {"buffer": 0, "byteLength": 8748, "byteOffset": 13648}, {"buffer": 0, "byteLength": 5832, "byteOffset": 22400}, {"buffer": 0, "byteLength": 5832, "byteOffset": 28240}], "accessors": [{"bufferView": 0, "componentType": 5123, "count": 2448, "type": "SCALAR", "byteOffset": 0}, {"bufferView": 1, "componentType": 5126, "count": 729, "max": [1.9543637037277222, 3.595153570175171, 6.693792819976807], "min": [-0.208737313747406, 2.2899465560913086, 5.324868679046631], "type": "VEC3", "byteOffset": 0}, {"bufferView": 2, "componentType": 5126, "count": 729, "type": "VEC3", "byteOffset": 0}, {"bufferView": 3, "componentType": 5126, "count": 729, "type": "VEC2", "byteOffset": 0}, {"bufferView": 4, "componentType": 5126, "count": 729, "type": "VEC2", "byteOffset": 0}], "samplers": [{"magFilter": 9729, "minFilter": 9987}], "images": [{"uri": "textures/Boat_Seats_01_Tex_baseColor.png"}], "textures": [{"sampler": 0, "source": 0}], "materials": [{"doubleSided": true, "name": "Boat_Seats_01_Tex", "pbrMetallicRoughness": {"baseColorTexture": {"index": 0}, "metallicFactor": 0, "roughnessFactor": 0.6000000238418579}}], "meshes": [{"primitives": [{"attributes": {"POSITION": 1, "NORMAL": 2, "TEXCOORD_0": 3, "TEXCOORD_1": 4}, "indices": 0, "material": 0}]}], "scene": 0, "scenes": [{"name": "Scene", "nodes": [0]}]}