{"asset": {"generator": "Khronos glTF Blender I/O v1.5.17", "version": "2.0"}, "nodes": [{"mesh": 0, "name": "prop_box_geo_010_Cardboard_tex_0"}], "buffers": [{"byteLength": 5104, "uri": "FlatShack401.bin"}], "bufferViews": [{"buffer": 0, "byteLength": 744, "byteOffset": 0}, {"buffer": 0, "byteLength": 1632, "byteOffset": 752}, {"buffer": 0, "byteLength": 1632, "byteOffset": 2384}, {"buffer": 0, "byteLength": 1088, "byteOffset": 4016}], "accessors": [{"bufferView": 0, "componentType": 5123, "count": 372, "type": "SCALAR", "byteOffset": 0}, {"bufferView": 1, "componentType": 5126, "count": 136, "max": [-2.2326509952545166, 4.549439430236816, 10.149800300598145], "min": [-14.04141616821289, -0.625447690486908, -2.911205530166626], "type": "VEC3", "byteOffset": 0}, {"bufferView": 2, "componentType": 5126, "count": 136, "type": "VEC3", "byteOffset": 0}, {"bufferView": 3, "componentType": 5126, "count": 136, "type": "VEC2", "byteOffset": 0}], "samplers": [{"magFilter": 9729, "minFilter": 9987}], "images": [{"uri": "textures/Ground_rock_01_tex_baseColor.png"}], "textures": [{"sampler": 0, "source": 0}], "materials": [{"doubleSided": true, "name": "Ground_rock_01_tex", "pbrMetallicRoughness": {"baseColorTexture": {"index": 0}, "metallicFactor": 0, "roughnessFactor": 0.6000000238418579}}], "meshes": [{"primitives": [{"attributes": {"POSITION": 1, "NORMAL": 2, "TEXCOORD_0": 3}, "indices": 0, "material": 0}]}], "scene": 0, "scenes": [{"name": "Scene", "nodes": [0]}]}