{"asset": {"generator": "Khronos glTF Blender I/O v1.5.17", "version": "2.0"}, "nodes": [{"mesh": 0, "name": "Swamp_Bush_geo_033_swamp_bush_01_tex_0"}], "buffers": [{"byteLength": 6256, "uri": "FlatShack114.bin"}], "bufferViews": [{"buffer": 0, "byteLength": 672, "byteOffset": 0}, {"buffer": 0, "byteLength": 2088, "byteOffset": 672}, {"buffer": 0, "byteLength": 2088, "byteOffset": 2768}, {"buffer": 0, "byteLength": 1392, "byteOffset": 4864}], "accessors": [{"bufferView": 0, "componentType": 5123, "count": 336, "type": "SCALAR", "byteOffset": 0}, {"bufferView": 1, "componentType": 5126, "count": 174, "max": [-6.646764278411865, 2.3672709465026855, -0.4899509847164154], "min": [-6.991373062133789, 1.953329086303711, -0.8598670363426208], "type": "VEC3", "byteOffset": 0}, {"bufferView": 2, "componentType": 5126, "count": 174, "type": "VEC3", "byteOffset": 0}, {"bufferView": 3, "componentType": 5126, "count": 174, "type": "VEC2", "byteOffset": 0}], "samplers": [{"magFilter": 9729, "minFilter": 9987}], "images": [{"uri": "textures/Cardboard_tex_baseColor.png"}], "textures": [{"sampler": 0, "source": 0}], "materials": [{"doubleSided": true, "name": "Cardboard_tex", "pbrMetallicRoughness": {"baseColorTexture": {"index": 0}, "metallicFactor": 0, "roughnessFactor": 0.6000000238418579}}], "meshes": [{"primitives": [{"attributes": {"POSITION": 1, "NORMAL": 2, "TEXCOORD_0": 3}, "indices": 0, "material": 0}]}], "scene": 0, "scenes": [{"name": "Scene", "nodes": [0]}]}