{"asset": {"generator": "Khronos glTF Blender I/O v1.5.17", "version": "2.0"}, "nodes": [{"mesh": 0, "name": "fabric_geo_004_fabric_01_0"}], "buffers": [{"byteLength": 33552, "uri": "FlatShack372.bin"}], "bufferViews": [{"buffer": 0, "byteLength": 1866, "byteOffset": 0}, {"buffer": 0, "byteLength": 9492, "byteOffset": 1872}, {"buffer": 0, "byteLength": 9492, "byteOffset": 11376}, {"buffer": 0, "byteLength": 6328, "byteOffset": 20880}, {"buffer": 0, "byteLength": 6328, "byteOffset": 27216}], "accessors": [{"bufferView": 0, "componentType": 5123, "count": 933, "type": "SCALAR", "byteOffset": 0}, {"bufferView": 1, "componentType": 5126, "count": 791, "max": [-10.830150604248047, 7.527681827545166, 2.0905208587646484], "min": [-12.574271202087402, 4.920029640197754, 1.4739537239074707], "type": "VEC3", "byteOffset": 0}, {"bufferView": 2, "componentType": 5126, "count": 791, "type": "VEC3", "byteOffset": 0}, {"bufferView": 3, "componentType": 5126, "count": 791, "type": "VEC2", "byteOffset": 0}, {"bufferView": 4, "componentType": 5126, "count": 791, "type": "VEC2", "byteOffset": 0}], "samplers": [{"magFilter": 9729, "minFilter": 9987}], "images": [{"uri": "textures/House_Parts_01_tex_baseColor.png"}], "textures": [{"sampler": 0, "source": 0}], "materials": [{"doubleSided": true, "name": "House_Parts_01_tex", "pbrMetallicRoughness": {"baseColorTexture": {"index": 0}, "metallicFactor": 0, "roughnessFactor": 0.6000000238418579}}], "meshes": [{"primitives": [{"attributes": {"POSITION": 1, "NORMAL": 2, "TEXCOORD_0": 3, "TEXCOORD_1": 4}, "indices": 0, "material": 0}]}], "scene": 0, "scenes": [{"name": "Scene", "nodes": [0]}]}