{"asset": {"generator": "Khronos glTF Blender I/O v1.5.17", "version": "2.0"}, "nodes": [{"mesh": 0, "name": "Swamp_Bush_geo_017_swamp_bush_01_tex_0"}], "buffers": [{"byteLength": 7616, "uri": "FlatShack98.bin"}], "bufferViews": [{"buffer": 0, "byteLength": 1728, "byteOffset": 0}, {"buffer": 0, "byteLength": 2208, "byteOffset": 1728}, {"buffer": 0, "byteLength": 2208, "byteOffset": 3936}, {"buffer": 0, "byteLength": 1472, "byteOffset": 6144}], "accessors": [{"bufferView": 0, "componentType": 5123, "count": 864, "type": "SCALAR", "byteOffset": 0}, {"bufferView": 1, "componentType": 5126, "count": 184, "max": [-8.47701644897461, 2.015789270401001, -1.483771800994873], "min": [-8.974748611450195, 1.446328043937683, -1.9685535430908203], "type": "VEC3", "byteOffset": 0}, {"bufferView": 2, "componentType": 5126, "count": 184, "type": "VEC3", "byteOffset": 0}, {"bufferView": 3, "componentType": 5126, "count": 184, "type": "VEC2", "byteOffset": 0}], "samplers": [{"magFilter": 9729, "minFilter": 9987}], "images": [{"uri": "textures/Garbage_01_tex_baseColor.png"}], "textures": [{"sampler": 0, "source": 0}], "materials": [{"doubleSided": true, "name": "Garbage_01_tex", "pbrMetallicRoughness": {"baseColorTexture": {"index": 0}, "metallicFactor": 0, "roughnessFactor": 0.19019541144371033}}], "meshes": [{"primitives": [{"attributes": {"POSITION": 1, "NORMAL": 2, "TEXCOORD_0": 3}, "indices": 0, "material": 0}]}], "scene": 0, "scenes": [{"name": "Scene", "nodes": [0]}]}