{"asset": {"generator": "Khronos glTF Blender I/O v1.5.17", "version": "2.0"}, "nodes": [{"mesh": 0, "name": "prop_Oak_leaves_geo_001_Default_Material_0"}], "buffers": [{"byteLength": 15088, "uri": "FlatShack39.bin"}], "bufferViews": [{"buffer": 0, "byteLength": 2280, "byteOffset": 0}, {"buffer": 0, "byteLength": 4788, "byteOffset": 2288}, {"buffer": 0, "byteLength": 4788, "byteOffset": 7088}, {"buffer": 0, "byteLength": 3192, "byteOffset": 11888}], "accessors": [{"bufferView": 0, "componentType": 5123, "count": 1140, "type": "SCALAR", "byteOffset": 0}, {"bufferView": 1, "componentType": 5126, "count": 399, "max": [-3.892230272293091, 6.042044639587402, -2.003587245941162], "min": [-3.962521553039551, 5.92517614364624, -2.073878765106201], "type": "VEC3", "byteOffset": 0}, {"bufferView": 2, "componentType": 5126, "count": 399, "type": "VEC3", "byteOffset": 0}, {"bufferView": 3, "componentType": 5126, "count": 399, "type": "VEC2", "byteOffset": 0}], "samplers": [{"magFilter": 9729, "minFilter": 9987}], "images": [{"uri": "textures/Can_coorslight_tex_baseColor.png"}], "textures": [{"sampler": 0, "source": 0}], "materials": [{"doubleSided": true, "name": "Can_coorslight_tex", "pbrMetallicRoughness": {"baseColorTexture": {"index": 0}, "metallicFactor": 0, "roughnessFactor": 0.6000000238418579}}], "meshes": [{"primitives": [{"attributes": {"POSITION": 1, "NORMAL": 2, "TEXCOORD_0": 3}, "indices": 0, "material": 0}]}], "scene": 0, "scenes": [{"name": "Scene", "nodes": [0]}]}