{"asset": {"generator": "Khronos glTF Blender I/O v1.5.17", "version": "2.0"}, "nodes": [{"mesh": 0, "name": "prop_box_geo_015_Cardboard_tex_0"}], "buffers": [{"byteLength": 577472, "uri": "FlatShack406.bin"}], "bufferViews": [{"buffer": 0, "byteLength": 91248, "byteOffset": 0}, {"buffer": 0, "byteLength": 182328, "byteOffset": 91248}, {"buffer": 0, "byteLength": 182328, "byteOffset": 273584}, {"buffer": 0, "byteLength": 121552, "byteOffset": 455920}], "accessors": [{"bufferView": 0, "componentType": 5123, "count": 45624, "type": "SCALAR", "byteOffset": 0}, {"bufferView": 1, "componentType": 5126, "count": 15194, "max": [5.811893939971924, 14.438556671142578, 12.090535163879395], "min": [-2.1201789379119873, 2.4113314151763916, 2.747229814529419], "type": "VEC3", "byteOffset": 0}, {"bufferView": 2, "componentType": 5126, "count": 15194, "type": "VEC3", "byteOffset": 0}, {"bufferView": 3, "componentType": 5126, "count": 15194, "type": "VEC2", "byteOffset": 0}], "samplers": [{"magFilter": 9729, "minFilter": 9987}], "images": [{"uri": "textures/OakLeaves_01_Tex_baseColor.png"}], "textures": [{"sampler": 0, "source": 0}], "materials": [{"alphaMode": "BLEND", "doubleSided": true, "name": "OakLeaves_01_Tex", "pbrMetallicRoughness": {"baseColorTexture": {"index": 0}, "metallicFactor": 0, "roughnessFactor": 0.6340480446815491}}], "meshes": [{"primitives": [{"attributes": {"POSITION": 1, "NORMAL": 2, "TEXCOORD_0": 3}, "indices": 0, "material": 0}]}], "scene": 0, "scenes": [{"name": "Scene", "nodes": [0]}]}