{"asset": {"generator": "Khronos glTF Blender I/O v1.5.17", "version": "2.0"}, "nodes": [{"mesh": 0, "name": "prop_Chesterfield_01_geo_Chesterfield_01_tex_0"}], "buffers": [{"byteLength": 5312, "uri": "FlatShack424.bin"}], "bufferViews": [{"buffer": 0, "byteLength": 312, "byteOffset": 0}, {"buffer": 0, "byteLength": 1872, "byteOffset": 320}, {"buffer": 0, "byteLength": 1872, "byteOffset": 2192}, {"buffer": 0, "byteLength": 1248, "byteOffset": 4064}], "accessors": [{"bufferView": 0, "componentType": 5123, "count": 156, "type": "SCALAR", "byteOffset": 0}, {"bufferView": 1, "componentType": 5126, "count": 156, "max": [-3.76175856590271, 6.053124904632568, 6.960566520690918], "min": [-7.106345176696777, 5.5296759605407715, -0.0466609001159668], "type": "VEC3", "byteOffset": 0}, {"bufferView": 2, "componentType": 5126, "count": 156, "type": "VEC3", "byteOffset": 0}, {"bufferView": 3, "componentType": 5126, "count": 156, "type": "VEC2", "byteOffset": 0}], "samplers": [{"magFilter": 9729, "minFilter": 9987}], "images": [{"uri": "textures/House_Parts_01_tex_baseColor.png"}], "textures": [{"sampler": 0, "source": 0}], "materials": [{"doubleSided": true, "name": "House_Parts_01_tex", "pbrMetallicRoughness": {"baseColorTexture": {"index": 0}, "metallicFactor": 0, "roughnessFactor": 0.6000000238418579}}], "meshes": [{"primitives": [{"attributes": {"POSITION": 1, "NORMAL": 2, "TEXCOORD_0": 3}, "indices": 0, "material": 0}]}], "scene": 0, "scenes": [{"name": "Scene", "nodes": [0]}]}