{"asset": {"generator": "Khronos glTF Blender I/O v1.5.17", "version": "2.0"}, "nodes": [{"mesh": 0, "name": "Swamp_Bush_geo_056_swamp_bush_01_tex_0"}], "buffers": [{"byteLength": 1472, "uri": "FlatShack137.bin"}], "bufferViews": [{"buffer": 0, "byteLength": 228, "byteOffset": 0}, {"buffer": 0, "byteLength": 456, "byteOffset": 240}, {"buffer": 0, "byteLength": 456, "byteOffset": 704}, {"buffer": 0, "byteLength": 304, "byteOffset": 1168}], "accessors": [{"bufferView": 0, "componentType": 5123, "count": 114, "type": "SCALAR", "byteOffset": 0}, {"bufferView": 1, "componentType": 5126, "count": 38, "max": [4.590088844299316, 2.9442732334136963, 1.9934048652648926], "min": [0.5699985027313232, 1.855196237564087, -1.8871550559997559], "type": "VEC3", "byteOffset": 0}, {"bufferView": 2, "componentType": 5126, "count": 38, "type": "VEC3", "byteOffset": 0}, {"bufferView": 3, "componentType": 5126, "count": 38, "type": "VEC2", "byteOffset": 0}], "samplers": [{"magFilter": 9729, "minFilter": 9987}], "images": [{"uri": "textures/Leaves_02_tex_baseColor.png"}], "textures": [{"sampler": 0, "source": 0}], "materials": [{"alphaMode": "BLEND", "doubleSided": true, "name": "Leaves_02_tex", "pbrMetallicRoughness": {"baseColorTexture": {"index": 0}, "metallicFactor": 0, "roughnessFactor": 0.6000000238418579}}], "meshes": [{"primitives": [{"attributes": {"POSITION": 1, "NORMAL": 2, "TEXCOORD_0": 3}, "indices": 0, "material": 0}]}], "scene": 0, "scenes": [{"name": "Scene", "nodes": [0]}]}