{"asset": {"generator": "Khronos glTF Blender I/O v1.5.17", "version": "2.0"}, "nodes": [{"mesh": 0, "name": "prop_box_geo_012_Cardboard_tex_0"}], "buffers": [{"byteLength": 51904, "uri": "FlatShack403.bin"}], "bufferViews": [{"buffer": 0, "byteLength": 9360, "byteOffset": 0}, {"buffer": 0, "byteLength": 15948, "byteOffset": 9360}, {"buffer": 0, "byteLength": 15948, "byteOffset": 25312}, {"buffer": 0, "byteLength": 10632, "byteOffset": 41264}], "accessors": [{"bufferView": 0, "componentType": 5123, "count": 4680, "type": "SCALAR", "byteOffset": 0}, {"bufferView": 1, "componentType": 5126, "count": 1329, "max": [-2.4472908973693848, 8.75269889831543, 4.8618292808532715], "min": [-5.7271223068237305, 7.508327007293701, 0.018479347229003906], "type": "VEC3", "byteOffset": 0}, {"bufferView": 2, "componentType": 5126, "count": 1329, "type": "VEC3", "byteOffset": 0}, {"bufferView": 3, "componentType": 5126, "count": 1329, "type": "VEC2", "byteOffset": 0}], "samplers": [{"magFilter": 9729, "minFilter": 9987}], "images": [{"uri": "textures/House_Parts_01_tex_baseColor.png"}], "textures": [{"sampler": 0, "source": 0}], "materials": [{"doubleSided": true, "name": "House_Parts_01_tex", "pbrMetallicRoughness": {"baseColorTexture": {"index": 0}, "metallicFactor": 0, "roughnessFactor": 0.6000000238418579}}], "meshes": [{"primitives": [{"attributes": {"POSITION": 1, "NORMAL": 2, "TEXCOORD_0": 3}, "indices": 0, "material": 0}]}], "scene": 0, "scenes": [{"name": "Scene", "nodes": [0]}]}