{"asset": {"generator": "Khronos glTF Blender I/O v1.5.17", "version": "2.0"}, "nodes": [{"mesh": 0, "name": "House_walls_geo_001_Wood_old_01_tex_0"}], "buffers": [{"byteLength": 13360, "uri": "FlatShack12.bin"}], "bufferViews": [{"buffer": 0, "byteLength": 2136, "byteOffset": 0}, {"buffer": 0, "byteLength": 4200, "byteOffset": 2144}, {"buffer": 0, "byteLength": 4200, "byteOffset": 6352}, {"buffer": 0, "byteLength": 2800, "byteOffset": 10560}], "accessors": [{"bufferView": 0, "componentType": 5123, "count": 1068, "type": "SCALAR", "byteOffset": 0}, {"bufferView": 1, "componentType": 5126, "count": 350, "max": [-6.028852462768555, 12.766448974609375, -6.653866767883301], "min": [-10.009178161621094, 5.29140567779541, -11.713264465332031], "type": "VEC3", "byteOffset": 0}, {"bufferView": 2, "componentType": 5126, "count": 350, "type": "VEC3", "byteOffset": 0}, {"bufferView": 3, "componentType": 5126, "count": 350, "type": "VEC2", "byteOffset": 0}], "samplers": [{"magFilter": 9729, "minFilter": 9987}], "materials": [{"alphaMode": "BLEND", "doubleSided": true, "name": "spanishMoss_01_tex", "pbrMetallicRoughness": {"metallicFactor": 0, "roughnessFactor": 0.6000000238418579}}], "meshes": [{"primitives": [{"attributes": {"POSITION": 1, "NORMAL": 2, "TEXCOORD_0": 3}, "indices": 0, "material": 0}]}], "scene": 0, "scenes": [{"name": "Scene", "nodes": [0]}]}