{"asset": {"generator": "Khronos glTF Blender I/O v1.5.17", "version": "2.0"}, "nodes": [{"mesh": 0, "name": "Prop_tvSattelite_geo_001_tv_satelite_Tex_0"}], "buffers": [{"byteLength": 17808, "uri": "FlatShack417.bin"}], "bufferViews": [{"buffer": 0, "byteLength": 1230, "byteOffset": 0}, {"buffer": 0, "byteLength": 4968, "byteOffset": 1232}, {"buffer": 0, "byteLength": 4968, "byteOffset": 6208}, {"buffer": 0, "byteLength": 3312, "byteOffset": 11184}, {"buffer": 0, "byteLength": 3312, "byteOffset": 14496}], "accessors": [{"bufferView": 0, "componentType": 5123, "count": 615, "type": "SCALAR", "byteOffset": 0}, {"bufferView": 1, "componentType": 5126, "count": 414, "max": [-2.158066511154175, 10.80038833618164, 10.8013916015625], "min": [-13.09476089477539, 4.291781425476074, -1.5737504959106445], "type": "VEC3", "byteOffset": 0}, {"bufferView": 2, "componentType": 5126, "count": 414, "type": "VEC3", "byteOffset": 0}, {"bufferView": 3, "componentType": 5126, "count": 414, "type": "VEC2", "byteOffset": 0}, {"bufferView": 4, "componentType": 5126, "count": 414, "type": "VEC2", "byteOffset": 0}], "samplers": [{"magFilter": 9729, "minFilter": 9987}], "images": [{"uri": "textures/Rooftiles_wood_002_baseColor.jpg"}], "textures": [{"sampler": 0, "source": 0}], "materials": [{"doubleSided": true, "name": "Rooftiles_wood_002", "pbrMetallicRoughness": {"baseColorTexture": {"index": 0}, "metallicFactor": 0, "roughnessFactor": 0.6000000238418579}}], "meshes": [{"primitives": [{"attributes": {"POSITION": 1, "NORMAL": 2, "TEXCOORD_0": 3, "TEXCOORD_1": 4}, "indices": 0, "material": 0}]}], "scene": 0, "scenes": [{"name": "Scene", "nodes": [0]}]}