{"asset": {"generator": "Khronos glTF Blender I/O v1.5.17", "version": "2.0"}, "nodes": [{"mesh": 0, "name": "prop_prop_woodenChair_01_woodplanks_Wall_02_tex_0"}], "buffers": [{"byteLength": 1440, "uri": "FlatShack37.bin"}], "bufferViews": [{"buffer": 0, "byteLength": 288, "byteOffset": 0}, {"buffer": 0, "byteLength": 420, "byteOffset": 288}, {"buffer": 0, "byteLength": 420, "byteOffset": 720}, {"buffer": 0, "byteLength": 280, "byteOffset": 1152}], "accessors": [{"bufferView": 0, "componentType": 5123, "count": 144, "type": "SCALAR", "byteOffset": 0}, {"bufferView": 1, "componentType": 5126, "count": 35, "max": [-0.29936179518699646, 4.290761947631836, -4.651671886444092], "min": [-0.6944131851196289, 3.4345998764038086, -5.006539821624756], "type": "VEC3", "byteOffset": 0}, {"bufferView": 2, "componentType": 5126, "count": 35, "type": "VEC3", "byteOffset": 0}, {"bufferView": 3, "componentType": 5126, "count": 35, "type": "VEC2", "byteOffset": 0}], "samplers": [{"magFilter": 9729, "minFilter": 9987}], "images": [{"uri": "textures/fabric_01_baseColor.png"}], "textures": [{"sampler": 0, "source": 0}], "materials": [{"alphaMode": "BLEND", "doubleSided": true, "name": "fabric_01", "pbrMetallicRoughness": {"baseColorTexture": {"index": 0}, "metallicFactor": 0, "roughnessFactor": 0.6000000238418579}}], "meshes": [{"primitives": [{"attributes": {"POSITION": 1, "NORMAL": 2, "TEXCOORD_0": 3}, "indices": 0, "material": 0}]}], "scene": 0, "scenes": [{"name": "Scene", "nodes": [0]}]}