{"asset": {"generator": "Khronos glTF Blender I/O v1.5.17", "version": "2.0"}, "nodes": [{"mesh": 0, "name": "prop_Garbage_geo_001_Garbage_01_tex_0"}], "buffers": [{"byteLength": 13440, "uri": "FlatShack416.bin"}], "bufferViews": [{"buffer": 0, "byteLength": 1152, "byteOffset": 0}, {"buffer": 0, "byteLength": 4608, "byteOffset": 1152}, {"buffer": 0, "byteLength": 4608, "byteOffset": 5760}, {"buffer": 0, "byteLength": 3072, "byteOffset": 10368}], "accessors": [{"bufferView": 0, "componentType": 5123, "count": 576, "type": "SCALAR", "byteOffset": 0}, {"bufferView": 1, "componentType": 5126, "count": 384, "max": [-1.6592662334442139, 2.8807172775268555, 6.5812788009643555], "min": [-2.9326775074005127, 1.6731176376342773, 5.193670272827148], "type": "VEC3", "byteOffset": 0}, {"bufferView": 2, "componentType": 5126, "count": 384, "type": "VEC3", "byteOffset": 0}, {"bufferView": 3, "componentType": 5126, "count": 384, "type": "VEC2", "byteOffset": 0}], "samplers": [{"magFilter": 9729, "minFilter": 9987}], "images": [{"uri": "textures/Rock_01_tex_baseColor.png"}], "textures": [{"sampler": 0, "source": 0}], "materials": [{"doubleSided": true, "name": "Rock_01_tex", "pbrMetallicRoughness": {"baseColorTexture": {"index": 0}, "metallicFactor": 0, "roughnessFactor": 0.6000000238418579}}], "meshes": [{"primitives": [{"attributes": {"POSITION": 1, "NORMAL": 2, "TEXCOORD_0": 3}, "indices": 0, "material": 0}]}], "scene": 0, "scenes": [{"name": "Scene", "nodes": [0]}]}