{"asset": {"generator": "Khronos glTF Blender I/O v1.5.17", "version": "2.0"}, "nodes": [{"mesh": 0, "name": "prop_BBQ_geo_001_BBQ_set_Tex_0"}], "buffers": [{"byteLength": 62656, "uri": "FlatShack391.bin"}], "bufferViews": [{"buffer": 0, "byteLength": 4662, "byteOffset": 0}, {"buffer": 0, "byteLength": 21732, "byteOffset": 4672}, {"buffer": 0, "byteLength": 21732, "byteOffset": 26416}, {"buffer": 0, "byteLength": 14488, "byteOffset": 48160}], "accessors": [{"bufferView": 0, "componentType": 5123, "count": 2331, "type": "SCALAR", "byteOffset": 0}, {"bufferView": 1, "componentType": 5126, "count": 1811, "max": [-2.3970396518707275, 7.970182418823242, 5.86125373840332], "min": [-14.006481170654297, 0.7859816551208496, -2.4382405281066895], "type": "VEC3", "byteOffset": 0}, {"bufferView": 2, "componentType": 5126, "count": 1811, "type": "VEC3", "byteOffset": 0}, {"bufferView": 3, "componentType": 5126, "count": 1811, "type": "VEC2", "byteOffset": 0}], "samplers": [{"magFilter": 9729, "minFilter": 9987}], "images": [{"uri": "textures/Wood_old_01_tex_baseColor.png"}], "textures": [{"sampler": 0, "source": 0}], "materials": [{"doubleSided": true, "name": "Wood_old_01_tex", "pbrMetallicRoughness": {"baseColorTexture": {"index": 0}, "metallicFactor": 0, "roughnessFactor": 0.6000000238418579}}], "meshes": [{"primitives": [{"attributes": {"POSITION": 1, "NORMAL": 2, "TEXCOORD_0": 3}, "indices": 0, "material": 0}]}], "scene": 0, "scenes": [{"name": "Scene", "nodes": [0]}]}