{"asset": {"generator": "Khronos glTF Blender I/O v1.5.17", "version": "2.0"}, "nodes": [{"mesh": 0, "name": "House_walls_geo_001_Rooftiles_wood_002_0"}], "buffers": [{"byteLength": 1680, "uri": "FlatShack10.bin"}], "bufferViews": [{"buffer": 0, "byteLength": 132, "byteOffset": 0}, {"buffer": 0, "byteLength": 564, "byteOffset": 144}, {"buffer": 0, "byteLength": 564, "byteOffset": 720}, {"buffer": 0, "byteLength": 376, "byteOffset": 1296}], "accessors": [{"bufferView": 0, "componentType": 5123, "count": 66, "type": "SCALAR", "byteOffset": 0}, {"bufferView": 1, "componentType": 5126, "count": 47, "max": [-4.756280899047852, 1.8790192604064941, -5.343727111816406], "min": [-9.384757995605469, 1.5183889865875244, -10.720704078674316], "type": "VEC3", "byteOffset": 0}, {"bufferView": 2, "componentType": 5126, "count": 47, "type": "VEC3", "byteOffset": 0}, {"bufferView": 3, "componentType": 5126, "count": 47, "type": "VEC2", "byteOffset": 0}], "samplers": [{"magFilter": 9729, "minFilter": 9987}], "images": [{"uri": "textures/Leaves_01_tex_baseColor.png"}], "textures": [{"sampler": 0, "source": 0}], "materials": [{"alphaMode": "BLEND", "doubleSided": true, "name": "Leaves_01_tex", "pbrMetallicRoughness": {"baseColorTexture": {"index": 0}, "metallicFactor": 0, "roughnessFactor": 0.6000000238418579}}], "meshes": [{"primitives": [{"attributes": {"POSITION": 1, "NORMAL": 2, "TEXCOORD_0": 3}, "indices": 0, "material": 0}]}], "scene": 0, "scenes": [{"name": "Scene", "nodes": [0]}]}