{"asset": {"generator": "Khronos glTF Blender I/O v1.5.17", "version": "2.0"}, "nodes": [{"mesh": 0, "name": "Swamp_Bush_geo_044_swamp_bush_01_tex_0"}], "buffers": [{"byteLength": 3088, "uri": "FlatShack125.bin"}], "bufferViews": [{"buffer": 0, "byteLength": 396, "byteOffset": 0}, {"buffer": 0, "byteLength": 996, "byteOffset": 400}, {"buffer": 0, "byteLength": 996, "byteOffset": 1408}, {"buffer": 0, "byteLength": 664, "byteOffset": 2416}], "accessors": [{"bufferView": 0, "componentType": 5123, "count": 198, "type": "SCALAR", "byteOffset": 0}, {"bufferView": 1, "componentType": 5126, "count": 83, "max": [9.871540069580078, 2.0093259811401367, 10.149800300598145], "min": [-1.3766422271728516, -0.6254521012306213, -10.167319297790527], "type": "VEC3", "byteOffset": 0}, {"bufferView": 2, "componentType": 5126, "count": 83, "type": "VEC3", "byteOffset": 0}, {"bufferView": 3, "componentType": 5126, "count": 83, "type": "VEC2", "byteOffset": 0}], "samplers": [{"magFilter": 9729, "minFilter": 9987}], "images": [{"uri": "textures/ground_water_edge_01_tex_baseColor.png"}], "textures": [{"sampler": 0, "source": 0}], "materials": [{"doubleSided": true, "name": "ground_water_edge_01_tex", "pbrMetallicRoughness": {"baseColorTexture": {"index": 0}, "metallicFactor": 0, "roughnessFactor": 0.6000000238418579}}], "meshes": [{"primitives": [{"attributes": {"POSITION": 1, "NORMAL": 2, "TEXCOORD_0": 3}, "indices": 0, "material": 0}]}], "scene": 0, "scenes": [{"name": "Scene", "nodes": [0]}]}