{"asset": {"generator": "Khronos glTF Blender I/O v1.5.17", "version": "2.0"}, "nodes": [{"mesh": 0, "name": "prop_Garbage_geo_002_Garbage_01_tex_0"}], "buffers": [{"byteLength": 1888, "uri": "FlatShack149.bin"}], "bufferViews": [{"buffer": 0, "byteLength": 216, "byteOffset": 0}, {"buffer": 0, "byteLength": 612, "byteOffset": 224}, {"buffer": 0, "byteLength": 612, "byteOffset": 848}, {"buffer": 0, "byteLength": 408, "byteOffset": 1472}], "accessors": [{"bufferView": 0, "componentType": 5123, "count": 108, "type": "SCALAR", "byteOffset": 0}, {"bufferView": 1, "componentType": 5126, "count": 51, "max": [4.455981254577637, 3.320652961730957, 2.7372241020202637], "min": [-0.5465383529663086, 1.8736129999160767, -2.5252628326416016], "type": "VEC3", "byteOffset": 0}, {"bufferView": 2, "componentType": 5126, "count": 51, "type": "VEC3", "byteOffset": 0}, {"bufferView": 3, "componentType": 5126, "count": 51, "type": "VEC2", "byteOffset": 0}], "samplers": [{"magFilter": 9729, "minFilter": 9987}], "images": [{"uri": "textures/Leaves_01_tex_baseColor.png"}], "textures": [{"sampler": 0, "source": 0}], "materials": [{"alphaMode": "BLEND", "doubleSided": true, "name": "Leaves_01_tex", "pbrMetallicRoughness": {"baseColorTexture": {"index": 0}, "metallicFactor": 0, "roughnessFactor": 0.6000000238418579}}], "meshes": [{"primitives": [{"attributes": {"POSITION": 1, "NORMAL": 2, "TEXCOORD_0": 3}, "indices": 0, "material": 0}]}], "scene": 0, "scenes": [{"name": "Scene", "nodes": [0]}]}