{"asset": {"generator": "Khronos glTF Blender I/O v1.5.17", "version": "2.0"}, "nodes": [{"mesh": 0, "name": "prop_rock_geo_013_Rock_01_tex_0"}], "buffers": [{"byteLength": 2496, "uri": "FlatShack388.bin"}], "bufferViews": [{"buffer": 0, "byteLength": 192, "byteOffset": 0}, {"buffer": 0, "byteLength": 864, "byteOffset": 192}, {"buffer": 0, "byteLength": 864, "byteOffset": 1056}, {"buffer": 0, "byteLength": 576, "byteOffset": 1920}], "accessors": [{"bufferView": 0, "componentType": 5123, "count": 96, "type": "SCALAR", "byteOffset": 0}, {"bufferView": 1, "componentType": 5126, "count": 72, "max": [0.9796805381774902, 14.3323974609375, 7.6871466636657715], "min": [-0.05189812183380127, 13.936141967773438, 5.881122589111328], "type": "VEC3", "byteOffset": 0}, {"bufferView": 2, "componentType": 5126, "count": 72, "type": "VEC3", "byteOffset": 0}, {"bufferView": 3, "componentType": 5126, "count": 72, "type": "VEC2", "byteOffset": 0}], "samplers": [{"magFilter": 9729, "minFilter": 9987}], "materials": [{"doubleSided": true, "name": "Default_Material", "pbrMetallicRoughness": {"baseColorFactor": [0.5, 0.5, 0.5, 1], "metallicFactor": 0, "roughnessFactor": 0.6000000238418579}}], "meshes": [{"primitives": [{"attributes": {"POSITION": 1, "NORMAL": 2, "TEXCOORD_0": 3}, "indices": 0, "material": 0}]}], "scene": 0, "scenes": [{"name": "Scene", "nodes": [0]}]}