{"asset": {"generator": "Khronos glTF Blender I/O v1.5.17", "version": "2.0"}, "nodes": [{"mesh": 0, "name": "prop_washline_geo_001_Metal_roofplates_01_tex_0"}], "buffers": [{"byteLength": 3056, "uri": "FlatShack375.bin"}], "bufferViews": [{"buffer": 0, "byteLength": 162, "byteOffset": 0}, {"buffer": 0, "byteLength": 852, "byteOffset": 176}, {"buffer": 0, "byteLength": 852, "byteOffset": 1040}, {"buffer": 0, "byteLength": 568, "byteOffset": 1904}, {"buffer": 0, "byteLength": 568, "byteOffset": 2480}], "accessors": [{"bufferView": 0, "componentType": 5123, "count": 81, "type": "SCALAR", "byteOffset": 0}, {"bufferView": 1, "componentType": 5126, "count": 71, "max": [-6.009720802307129, 7.71494722366333, 2.017871379852295], "min": [-12.84610366821289, 4.516663074493408, 0.2859516143798828], "type": "VEC3", "byteOffset": 0}, {"bufferView": 2, "componentType": 5126, "count": 71, "type": "VEC3", "byteOffset": 0}, {"bufferView": 3, "componentType": 5126, "count": 71, "type": "VEC2", "byteOffset": 0}, {"bufferView": 4, "componentType": 5126, "count": 71, "type": "VEC2", "byteOffset": 0}], "samplers": [{"magFilter": 9729, "minFilter": 9987}], "images": [{"uri": "textures/woodplanks_Wall_02_tex_baseColor.jpg"}], "textures": [{"sampler": 0, "source": 0}], "materials": [{"doubleSided": true, "name": "woodplanks_Wall_02_tex", "pbrMetallicRoughness": {"baseColorTexture": {"index": 0}, "metallicFactor": 0, "roughnessFactor": 0.6000000238418579}}], "meshes": [{"primitives": [{"attributes": {"POSITION": 1, "NORMAL": 2, "TEXCOORD_0": 3, "TEXCOORD_1": 4}, "indices": 0, "material": 0}]}], "scene": 0, "scenes": [{"name": "Scene", "nodes": [0]}]}