{"asset": {"generator": "Khronos glTF Blender I/O v1.5.17", "version": "2.0"}, "nodes": [{"mesh": 0, "name": "Swamp_Bush_geo_035_swamp_bush_01_tex_0"}], "buffers": [{"byteLength": 8352, "uri": "FlatShack116.bin"}], "bufferViews": [{"buffer": 0, "byteLength": 672, "byteOffset": 0}, {"buffer": 0, "byteLength": 2880, "byteOffset": 672}, {"buffer": 0, "byteLength": 2880, "byteOffset": 3552}, {"buffer": 0, "byteLength": 1920, "byteOffset": 6432}], "accessors": [{"bufferView": 0, "componentType": 5123, "count": 336, "type": "SCALAR", "byteOffset": 0}, {"bufferView": 1, "componentType": 5126, "count": 240, "max": [-6.701565265655518, 1.843958854675293, -0.4797596037387848], "min": [-7.008018493652344, 1.578662395477295, -0.7700254321098328], "type": "VEC3", "byteOffset": 0}, {"bufferView": 2, "componentType": 5126, "count": 240, "type": "VEC3", "byteOffset": 0}, {"bufferView": 3, "componentType": 5126, "count": 240, "type": "VEC2", "byteOffset": 0}], "samplers": [{"magFilter": 9729, "minFilter": 9987}], "images": [{"uri": "textures/Cardboard_tex_baseColor.png"}], "textures": [{"sampler": 0, "source": 0}], "materials": [{"doubleSided": true, "name": "Cardboard_tex", "pbrMetallicRoughness": {"baseColorTexture": {"index": 0}, "metallicFactor": 0, "roughnessFactor": 0.6000000238418579}}], "meshes": [{"primitives": [{"attributes": {"POSITION": 1, "NORMAL": 2, "TEXCOORD_0": 3}, "indices": 0, "material": 0}]}], "scene": 0, "scenes": [{"name": "Scene", "nodes": [0]}]}