{"asset": {"generator": "Khronos glTF Blender I/O v1.5.17", "version": "2.0"}, "nodes": [{"mesh": 0, "name": "Vehicle_Airboat_geo_001_Metal_Perforated_01_tex_0"}], "buffers": [{"byteLength": 15792, "uri": "FlatShack34.bin"}], "bufferViews": [{"buffer": 0, "byteLength": 2520, "byteOffset": 0}, {"buffer": 0, "byteLength": 4968, "byteOffset": 2528}, {"buffer": 0, "byteLength": 4968, "byteOffset": 7504}, {"buffer": 0, "byteLength": 3312, "byteOffset": 12480}], "accessors": [{"bufferView": 0, "componentType": 5123, "count": 1260, "type": "SCALAR", "byteOffset": 0}, {"bufferView": 1, "componentType": 5126, "count": 414, "max": [0.12276962399482727, 3.1649677753448486, -5.657302379608154], "min": [0.005320968106389046, 3.090195655822754, -5.727593898773193], "type": "VEC3", "byteOffset": 0}, {"bufferView": 2, "componentType": 5126, "count": 414, "type": "VEC3", "byteOffset": 0}, {"bufferView": 3, "componentType": 5126, "count": 414, "type": "VEC2", "byteOffset": 0}], "samplers": [{"magFilter": 9729, "minFilter": 9987}], "images": [{"uri": "textures/Can_coorslight_tex_baseColor.png"}], "textures": [{"sampler": 0, "source": 0}], "materials": [{"doubleSided": true, "name": "Can_coorslight_tex", "pbrMetallicRoughness": {"baseColorTexture": {"index": 0}, "metallicFactor": 0, "roughnessFactor": 0.6000000238418579}}], "meshes": [{"primitives": [{"attributes": {"POSITION": 1, "NORMAL": 2, "TEXCOORD_0": 3}, "indices": 0, "material": 0}]}], "scene": 0, "scenes": [{"name": "Scene", "nodes": [0]}]}