{"asset": {"generator": "Khronos glTF Blender I/O v1.5.17", "version": "2.0"}, "nodes": [{"mesh": 0, "name": "Vehicle_Airboat_geo_001_Boat_Seats_01_Tex_0"}], "buffers": [{"byteLength": 15728, "uri": "FlatShack33.bin"}], "bufferViews": [{"buffer": 0, "byteLength": 2280, "byteOffset": 0}, {"buffer": 0, "byteLength": 5040, "byteOffset": 2288}, {"buffer": 0, "byteLength": 5040, "byteOffset": 7328}, {"buffer": 0, "byteLength": 3360, "byteOffset": 12368}], "accessors": [{"bufferView": 0, "componentType": 5123, "count": 1140, "type": "SCALAR", "byteOffset": 0}, {"bufferView": 1, "componentType": 5126, "count": 420, "max": [-0.11489341408014297, 3.2144882678985596, -5.65220832824707], "min": [-0.18518471717834473, 3.0976195335388184, -5.722499847412109], "type": "VEC3", "byteOffset": 0}, {"bufferView": 2, "componentType": 5126, "count": 420, "type": "VEC3", "byteOffset": 0}, {"bufferView": 3, "componentType": 5126, "count": 420, "type": "VEC2", "byteOffset": 0}], "samplers": [{"magFilter": 9729, "minFilter": 9987}], "images": [{"uri": "textures/Can_Bud_tex_baseColor.png"}], "textures": [{"sampler": 0, "source": 0}], "materials": [{"doubleSided": true, "name": "Can_Bud_tex", "pbrMetallicRoughness": {"baseColorTexture": {"index": 0}, "metallicFactor": 0, "roughnessFactor": 0.6000000238418579}}], "meshes": [{"primitives": [{"attributes": {"POSITION": 1, "NORMAL": 2, "TEXCOORD_0": 3}, "indices": 0, "material": 0}]}], "scene": 0, "scenes": [{"name": "Scene", "nodes": [0]}]}