{"asset": {"generator": "Khronos glTF Blender I/O v1.5.17", "version": "2.0"}, "nodes": [{"mesh": 0, "name": "prop_box_geo_019_Cardboard_tex_0"}], "buffers": [{"byteLength": 258240, "uri": "FlatShack410.bin"}], "bufferViews": [{"buffer": 0, "byteLength": 26688, "byteOffset": 0}, {"buffer": 0, "byteLength": 86820, "byteOffset": 26688}, {"buffer": 0, "byteLength": 86820, "byteOffset": 113520}, {"buffer": 0, "byteLength": 57880, "byteOffset": 200352}], "accessors": [{"bufferView": 0, "componentType": 5123, "count": 13344, "type": "SCALAR", "byteOffset": 0}, {"bufferView": 1, "componentType": 5126, "count": 7235, "max": [5.481790065765381, 14.406327247619629, 11.876788139343262], "min": [-1.9124319553375244, 0.8001617789268494, 3.176011085510254], "type": "VEC3", "byteOffset": 0}, {"bufferView": 2, "componentType": 5126, "count": 7235, "type": "VEC3", "byteOffset": 0}, {"bufferView": 3, "componentType": 5126, "count": 7235, "type": "VEC2", "byteOffset": 0}], "samplers": [{"magFilter": 9729, "minFilter": 9987}], "images": [{"uri": "textures/Tree_Oak_01_tex_baseColor.png"}], "textures": [{"sampler": 0, "source": 0}], "materials": [{"doubleSided": true, "name": "Tree_Oak_01_tex", "pbrMetallicRoughness": {"baseColorTexture": {"index": 0}, "metallicFactor": 0, "roughnessFactor": 0.6000000238418579}}], "meshes": [{"primitives": [{"attributes": {"POSITION": 1, "NORMAL": 2, "TEXCOORD_0": 3}, "indices": 0, "material": 0}]}], "scene": 0, "scenes": [{"name": "Scene", "nodes": [0]}]}