{"asset": {"generator": "Khronos glTF Blender I/O v1.5.17", "version": "2.0"}, "nodes": [{"mesh": 0, "name": "prop_Log_geo_036_bark_log_01_tx_0.001"}], "buffers": [{"byteLength": 15296, "uri": "FlatShack294.bin"}], "bufferViews": [{"buffer": 0, "byteLength": 2280, "byteOffset": 0}, {"buffer": 0, "byteLength": 4872, "byteOffset": 2288}, {"buffer": 0, "byteLength": 4872, "byteOffset": 7168}, {"buffer": 0, "byteLength": 3248, "byteOffset": 12048}], "accessors": [{"bufferView": 0, "componentType": 5123, "count": 1140, "type": "SCALAR", "byteOffset": 0}, {"bufferView": 1, "componentType": 5126, "count": 406, "max": [-9.856584548950195, 5.569369792938232, 0.5489515066146851], "min": [-9.926876068115234, 5.45250129699707, 0.4786602258682251], "type": "VEC3", "byteOffset": 0}, {"bufferView": 2, "componentType": 5126, "count": 406, "type": "VEC3", "byteOffset": 0}, {"bufferView": 3, "componentType": 5126, "count": 406, "type": "VEC2", "byteOffset": 0}], "samplers": [{"magFilter": 9729, "minFilter": 9987}], "images": [{"uri": "textures/Can_coorslight_tex_baseColor.png"}], "textures": [{"sampler": 0, "source": 0}], "materials": [{"doubleSided": true, "name": "Can_coorslight_tex", "pbrMetallicRoughness": {"baseColorTexture": {"index": 0}, "metallicFactor": 0, "roughnessFactor": 0.6000000238418579}}], "meshes": [{"primitives": [{"attributes": {"POSITION": 1, "NORMAL": 2, "TEXCOORD_0": 3}, "indices": 0, "material": 0}]}], "scene": 0, "scenes": [{"name": "Scene", "nodes": [0]}]}