{"asset": {"generator": "Khronos glTF Blender I/O v1.5.17", "version": "2.0"}, "nodes": [{"mesh": 0, "name": "House_walls_geo_001_woodplanks_Wall_02_tex_0"}], "buffers": [{"byteLength": 183440, "uri": "FlatShack11.bin"}], "bufferViews": [{"buffer": 0, "byteLength": 28944, "byteOffset": 0}, {"buffer": 0, "byteLength": 57924, "byteOffset": 28944}, {"buffer": 0, "byteLength": 57924, "byteOffset": 86880}, {"buffer": 0, "byteLength": 38616, "byteOffset": 144816}], "accessors": [{"bufferView": 0, "componentType": 5123, "count": 14472, "type": "SCALAR", "byteOffset": 0}, {"bufferView": 1, "componentType": 5126, "count": 4827, "max": [-5.885200500488281, 12.323311805725098, -6.992883682250977], "min": [-10.365509033203125, 5.8951263427734375, -11.874561309814453], "type": "VEC3", "byteOffset": 0}, {"bufferView": 2, "componentType": 5126, "count": 4827, "type": "VEC3", "byteOffset": 0}, {"bufferView": 3, "componentType": 5126, "count": 4827, "type": "VEC2", "byteOffset": 0}], "samplers": [{"magFilter": 9729, "minFilter": 9987}], "materials": [{"alphaMode": "BLEND", "doubleSided": true, "name": "Plant_OakLeaves_01_Tex", "pbrMetallicRoughness": {"metallicFactor": 0, "roughnessFactor": 0.6000000238418579}}], "meshes": [{"primitives": [{"attributes": {"POSITION": 1, "NORMAL": 2, "TEXCOORD_0": 3}, "indices": 0, "material": 0}]}], "scene": 0, "scenes": [{"name": "Scene", "nodes": [0]}]}