{"asset": {"generator": "Khronos glTF Blender I/O v1.5.17", "version": "2.0"}, "nodes": [{"mesh": 0, "name": "Staircase_01_geo1_staircase_01_tex_0"}], "buffers": [{"byteLength": 10256, "uri": "FlatShack30.bin"}], "bufferViews": [{"buffer": 0, "byteLength": 696, "byteOffset": 0}, {"buffer": 0, "byteLength": 3576, "byteOffset": 704}, {"buffer": 0, "byteLength": 3576, "byteOffset": 4288}, {"buffer": 0, "byteLength": 2384, "byteOffset": 7872}], "accessors": [{"bufferView": 0, "componentType": 5123, "count": 348, "type": "SCALAR", "byteOffset": 0}, {"bufferView": 1, "componentType": 5126, "count": 298, "max": [-1.100468635559082, 3.213775157928467, -4.8732194900512695], "min": [-2.468705892562866, 1.8864281177520752, -6.079019069671631], "type": "VEC3", "byteOffset": 0}, {"bufferView": 2, "componentType": 5126, "count": 298, "type": "VEC3", "byteOffset": 0}, {"bufferView": 3, "componentType": 5126, "count": 298, "type": "VEC2", "byteOffset": 0}], "samplers": [{"magFilter": 9729, "minFilter": 9987}], "images": [{"uri": "textures/staircase_01_tex_baseColor.png"}], "textures": [{"sampler": 0, "source": 0}], "materials": [{"doubleSided": true, "name": "staircase_01_tex", "pbrMetallicRoughness": {"baseColorTexture": {"index": 0}, "metallicFactor": 0, "roughnessFactor": 0.4820437431335449}}], "meshes": [{"primitives": [{"attributes": {"POSITION": 1, "NORMAL": 2, "TEXCOORD_0": 3}, "indices": 0, "material": 0}]}], "scene": 0, "scenes": [{"name": "Scene", "nodes": [0]}]}