{"asset": {"generator": "Khronos glTF Blender I/O v1.5.17", "version": "2.0"}, "nodes": [{"mesh": 0, "name": "prop_box_geo_016_Cardboard_tex_0"}], "buffers": [{"byteLength": 577712, "uri": "FlatShack407.bin"}], "bufferViews": [{"buffer": 0, "byteLength": 91230, "byteOffset": 0}, {"buffer": 0, "byteLength": 182424, "byteOffset": 91232}, {"buffer": 0, "byteLength": 182424, "byteOffset": 273664}, {"buffer": 0, "byteLength": 121616, "byteOffset": 456096}], "accessors": [{"bufferView": 0, "componentType": 5123, "count": 45615, "type": "SCALAR", "byteOffset": 0}, {"bufferView": 1, "componentType": 5126, "count": 15202, "max": [-6.673385143280029, 18.01131820678711, 12.91739559173584], "min": [-15.819660186767578, 5.98409366607666, 4.830118179321289], "type": "VEC3", "byteOffset": 0}, {"bufferView": 2, "componentType": 5126, "count": 15202, "type": "VEC3", "byteOffset": 0}, {"bufferView": 3, "componentType": 5126, "count": 15202, "type": "VEC2", "byteOffset": 0}], "samplers": [{"magFilter": 9729, "minFilter": 9987}], "images": [{"uri": "textures/OakLeaves_01_Tex_baseColor.png"}], "textures": [{"sampler": 0, "source": 0}], "materials": [{"alphaMode": "BLEND", "doubleSided": true, "name": "OakLeaves_01_Tex", "pbrMetallicRoughness": {"baseColorTexture": {"index": 0}, "metallicFactor": 0, "roughnessFactor": 0.6340480446815491}}], "meshes": [{"primitives": [{"attributes": {"POSITION": 1, "NORMAL": 2, "TEXCOORD_0": 3}, "indices": 0, "material": 0}]}], "scene": 0, "scenes": [{"name": "Scene", "nodes": [0]}]}