{"asset": {"generator": "Khronos glTF Blender I/O v1.5.17", "version": "2.0"}, "nodes": [{"mesh": 0, "name": "prop_electricalpole_geo_001_Parts_electricalpoll_01_tex_0"}], "buffers": [{"byteLength": 688, "uri": "FlatShack420.bin"}], "bufferViews": [{"buffer": 0, "byteLength": 96, "byteOffset": 0}, {"buffer": 0, "byteLength": 216, "byteOffset": 96}, {"buffer": 0, "byteLength": 216, "byteOffset": 320}, {"buffer": 0, "byteLength": 144, "byteOffset": 544}], "accessors": [{"bufferView": 0, "componentType": 5123, "count": 48, "type": "SCALAR", "byteOffset": 0}, {"bufferView": 1, "componentType": 5126, "count": 18, "max": [-7.998483657836914, 8.265155792236328, 9.850234985351562], "min": [-10.959747314453125, 7.248832702636719, 6.515517234802246], "type": "VEC3", "byteOffset": 0}, {"bufferView": 2, "componentType": 5126, "count": 18, "type": "VEC3", "byteOffset": 0}, {"bufferView": 3, "componentType": 5126, "count": 18, "type": "VEC2", "byteOffset": 0}], "samplers": [{"magFilter": 9729, "minFilter": 9987}], "images": [{"uri": "textures/Leaves_02_tex_baseColor.png"}], "textures": [{"sampler": 0, "source": 0}], "materials": [{"alphaMode": "BLEND", "doubleSided": true, "name": "Leaves_02_tex", "pbrMetallicRoughness": {"baseColorTexture": {"index": 0}, "metallicFactor": 0, "roughnessFactor": 0.6000000238418579}}], "meshes": [{"primitives": [{"attributes": {"POSITION": 1, "NORMAL": 2, "TEXCOORD_0": 3}, "indices": 0, "material": 0}]}], "scene": 0, "scenes": [{"name": "Scene", "nodes": [0]}]}