{"asset": {"generator": "Khronos glTF Blender I/O v1.5.17", "version": "2.0"}, "nodes": [{"mesh": 0, "name": "Plants_Schrubs_01_geo_004_Schrub_01_tex_0"}], "buffers": [{"byteLength": 27760, "uri": "FlatShack66.bin"}], "bufferViews": [{"buffer": 0, "byteLength": 4500, "byteOffset": 0}, {"buffer": 0, "byteLength": 8712, "byteOffset": 4512}, {"buffer": 0, "byteLength": 8712, "byteOffset": 13232}, {"buffer": 0, "byteLength": 5808, "byteOffset": 21952}], "accessors": [{"bufferView": 0, "componentType": 5123, "count": 2250, "type": "SCALAR", "byteOffset": 0}, {"bufferView": 1, "componentType": 5126, "count": 726, "max": [2.6193671226501465, 2.8458781242370605, -3.8985655307769775], "min": [1.1355302333831787, 1.8714888095855713, -5.5133280754089355], "type": "VEC3", "byteOffset": 0}, {"bufferView": 2, "componentType": 5126, "count": 726, "type": "VEC3", "byteOffset": 0}, {"bufferView": 3, "componentType": 5126, "count": 726, "type": "VEC2", "byteOffset": 0}], "samplers": [{"magFilter": 9729, "minFilter": 9987}], "images": [{"uri": "textures/Chesterfield_01_tex_normal.png"}, {"uri": "textures/Chesterfield_01_tex_baseColor.png"}], "textures": [{"sampler": 0, "source": 0}, {"sampler": 0, "source": 1}], "materials": [{"doubleSided": true, "name": "Chesterfield_01_tex", "normalTexture": {"index": 0}, "pbrMetallicRoughness": {"baseColorTexture": {"index": 1}, "metallicFactor": 0, "roughnessFactor": 0.6000000238418579}}], "meshes": [{"primitives": [{"attributes": {"POSITION": 1, "NORMAL": 2, "TEXCOORD_0": 3}, "indices": 0, "material": 0}]}], "scene": 0, "scenes": [{"name": "Scene", "nodes": [0]}]}