{"asset": {"generator": "Khronos glTF Blender I/O v1.5.17", "version": "2.0"}, "nodes": [{"mesh": 0, "name": "prop_box_geo_014_Cardboard_tex_0"}], "buffers": [{"byteLength": 3952, "uri": "FlatShack405.bin"}], "bufferViews": [{"buffer": 0, "byteLength": 336, "byteOffset": 0}, {"buffer": 0, "byteLength": 1080, "byteOffset": 336}, {"buffer": 0, "byteLength": 1080, "byteOffset": 1424}, {"buffer": 0, "byteLength": 720, "byteOffset": 2512}, {"buffer": 0, "byteLength": 720, "byteOffset": 3232}], "accessors": [{"bufferView": 0, "componentType": 5123, "count": 168, "type": "SCALAR", "byteOffset": 0}, {"bufferView": 1, "componentType": 5126, "count": 90, "max": [-2.1265957355499268, 7.957431316375732, 5.694304466247559], "min": [-6.463091850280762, 7.104855537414551, -2.0274620056152344], "type": "VEC3", "byteOffset": 0}, {"bufferView": 2, "componentType": 5126, "count": 90, "type": "VEC3", "byteOffset": 0}, {"bufferView": 3, "componentType": 5126, "count": 90, "type": "VEC2", "byteOffset": 0}, {"bufferView": 4, "componentType": 5126, "count": 90, "type": "VEC2", "byteOffset": 0}], "samplers": [{"magFilter": 9729, "minFilter": 9987}], "images": [{"uri": "textures/Metal_roofplates_01_tex_baseColor.jpg"}], "textures": [{"sampler": 0, "source": 0}], "materials": [{"doubleSided": true, "name": "Metal_roofplates_01_tex", "pbrMetallicRoughness": {"baseColorTexture": {"index": 0}, "metallicFactor": 0, "roughnessFactor": 0.6462084054946899}}], "meshes": [{"primitives": [{"attributes": {"POSITION": 1, "NORMAL": 2, "TEXCOORD_0": 3, "TEXCOORD_1": 4}, "indices": 0, "material": 0}]}], "scene": 0, "scenes": [{"name": "Scene", "nodes": [0]}]}