{"asset": {"generator": "Khronos glTF Blender I/O v1.5.17", "version": "2.0"}, "nodes": [{"mesh": 0, "name": "prop_Log_geo_094_bark_log_01_tx_0"}], "buffers": [{"byteLength": 8400, "uri": "FlatShack249.bin"}], "bufferViews": [{"buffer": 0, "byteLength": 672, "byteOffset": 0}, {"buffer": 0, "byteLength": 2892, "byteOffset": 672}, {"buffer": 0, "byteLength": 2892, "byteOffset": 3568}, {"buffer": 0, "byteLength": 1928, "byteOffset": 6464}], "accessors": [{"bufferView": 0, "componentType": 5123, "count": 336, "type": "SCALAR", "byteOffset": 0}, {"bufferView": 1, "componentType": 5126, "count": 241, "max": [-7.410284996032715, 2.2740254402160645, 0.10468366742134094], "min": [-7.738056659698486, 1.9447221755981445, -0.1855725795030594], "type": "VEC3", "byteOffset": 0}, {"bufferView": 2, "componentType": 5126, "count": 241, "type": "VEC3", "byteOffset": 0}, {"bufferView": 3, "componentType": 5126, "count": 241, "type": "VEC2", "byteOffset": 0}], "samplers": [{"magFilter": 9729, "minFilter": 9987}], "images": [{"uri": "textures/Cardboard_tex_baseColor.png"}], "textures": [{"sampler": 0, "source": 0}], "materials": [{"doubleSided": true, "name": "Cardboard_tex", "pbrMetallicRoughness": {"baseColorTexture": {"index": 0}, "metallicFactor": 0, "roughnessFactor": 0.6000000238418579}}], "meshes": [{"primitives": [{"attributes": {"POSITION": 1, "NORMAL": 2, "TEXCOORD_0": 3}, "indices": 0, "material": 0}]}], "scene": 0, "scenes": [{"name": "Scene", "nodes": [0]}]}