{"asset": {"generator": "Khronos glTF Blender I/O v1.5.17", "version": "2.0"}, "nodes": [{"mesh": 0, "name": "prop_box_geo_022_Cardboard_tex_0"}], "buffers": [{"byteLength": 148736, "uri": "FlatShack413.bin"}], "bufferViews": [{"buffer": 0, "byteLength": 22656, "byteOffset": 0}, {"buffer": 0, "byteLength": 37812, "byteOffset": 22656}, {"buffer": 0, "byteLength": 37812, "byteOffset": 60480}, {"buffer": 0, "byteLength": 25208, "byteOffset": 98304}, {"buffer": 0, "byteLength": 25208, "byteOffset": 123520}], "accessors": [{"bufferView": 0, "componentType": 5123, "count": 11328, "type": "SCALAR", "byteOffset": 0}, {"bufferView": 1, "componentType": 5126, "count": 3151, "max": [0.008051611483097076, 3.4105398654937744, 6.1840949058532715], "min": [-0.8613209128379822, 2.1672117710113525, 4.86777925491333], "type": "VEC3", "byteOffset": 0}, {"bufferView": 2, "componentType": 5126, "count": 3151, "type": "VEC3", "byteOffset": 0}, {"bufferView": 3, "componentType": 5126, "count": 3151, "type": "VEC2", "byteOffset": 0}, {"bufferView": 4, "componentType": 5126, "count": 3151, "type": "VEC2", "byteOffset": 0}], "samplers": [{"magFilter": 9729, "minFilter": 9987}], "images": [{"uri": "textures/Engine_01_tex_baseColor.png"}], "textures": [{"sampler": 0, "source": 0}], "materials": [{"doubleSided": true, "name": "Engine_01_tex", "pbrMetallicRoughness": {"baseColorTexture": {"index": 0}, "metallicFactor": 0, "roughnessFactor": 0.6000000238418579}}], "meshes": [{"primitives": [{"attributes": {"POSITION": 1, "NORMAL": 2, "TEXCOORD_0": 3, "TEXCOORD_1": 4}, "indices": 0, "material": 0}]}], "scene": 0, "scenes": [{"name": "Scene", "nodes": [0]}]}