{"asset": {"generator": "Khronos glTF Blender I/O v1.5.17", "version": "2.0"}, "nodes": [{"mesh": 0, "name": "Ground_geo_001_ground_water_edge_01_tex_0"}], "buffers": [{"byteLength": 53936, "uri": "FlatShack2.bin"}], "bufferViews": [{"buffer": 0, "byteLength": 11946, "byteOffset": 0}, {"buffer": 0, "byteLength": 15732, "byteOffset": 11952}, {"buffer": 0, "byteLength": 15732, "byteOffset": 27696}, {"buffer": 0, "byteLength": 10488, "byteOffset": 43440}], "accessors": [{"bufferView": 0, "componentType": 5123, "count": 5973, "type": "SCALAR", "byteOffset": 0}, {"bufferView": 1, "componentType": 5126, "count": 1311, "max": [-4.941048622131348, 12.270181655883789, -6.046045303344727], "min": [-10.16547966003418, 1.0890690088272095, -10.835003852844238], "type": "VEC3", "byteOffset": 0}, {"bufferView": 2, "componentType": 5126, "count": 1311, "type": "VEC3", "byteOffset": 0}, {"bufferView": 3, "componentType": 5126, "count": 1311, "type": "VEC2", "byteOffset": 0}], "samplers": [{"magFilter": 9729, "minFilter": 9987}], "images": [{"uri": "textures/Tree_01_tex_baseColor.png"}], "textures": [{"sampler": 0, "source": 0}], "materials": [{"doubleSided": true, "name": "Tree_01_tex", "pbrMetallicRoughness": {"baseColorTexture": {"index": 0}, "metallicFactor": 0, "roughnessFactor": 0.6000000238418579}}], "meshes": [{"primitives": [{"attributes": {"POSITION": 1, "NORMAL": 2, "TEXCOORD_0": 3}, "indices": 0, "material": 0}]}], "scene": 0, "scenes": [{"name": "Scene", "nodes": [0]}]}