{"asset": {"generator": "Khronos glTF Blender I/O v1.5.17", "version": "2.0"}, "nodes": [{"mesh": 0, "name": "prop_Log_geo_065_bark_log_01_tx_0"}], "buffers": [{"byteLength": 4832, "uri": "FlatShack222.bin"}], "bufferViews": [{"buffer": 0, "byteLength": 648, "byteOffset": 0}, {"buffer": 0, "byteLength": 1560, "byteOffset": 656}, {"buffer": 0, "byteLength": 1560, "byteOffset": 2224}, {"buffer": 0, "byteLength": 1040, "byteOffset": 3792}], "accessors": [{"bufferView": 0, "componentType": 5123, "count": 324, "type": "SCALAR", "byteOffset": 0}, {"bufferView": 1, "componentType": 5126, "count": 130, "max": [-10.784158706665039, 1.8415851593017578, 0.5018420219421387], "min": [-11.076489448547363, 1.700778841972351, -0.13393108546733856], "type": "VEC3", "byteOffset": 0}, {"bufferView": 2, "componentType": 5126, "count": 130, "type": "VEC3", "byteOffset": 0}, {"bufferView": 3, "componentType": 5126, "count": 130, "type": "VEC2", "byteOffset": 0}], "samplers": [{"magFilter": 9729, "minFilter": 9987}], "images": [{"uri": "textures/bark_log_01_tx_baseColor.png"}], "textures": [{"sampler": 0, "source": 0}], "materials": [{"doubleSided": true, "name": "bark_log_01_tx", "pbrMetallicRoughness": {"baseColorTexture": {"index": 0}, "metallicFactor": 0}}], "meshes": [{"primitives": [{"attributes": {"POSITION": 1, "NORMAL": 2, "TEXCOORD_0": 3}, "indices": 0, "material": 0}]}], "scene": 0, "scenes": [{"name": "Scene", "nodes": [0]}]}