{"asset": {"generator": "Khronos glTF Blender I/O v1.5.17", "version": "2.0"}, "nodes": [{"mesh": 0, "name": "Vehicle_Airboat_geo_001_Boat_main_tex_0"}], "buffers": [{"byteLength": 2848, "uri": "FlatShack32.bin"}], "bufferViews": [{"buffer": 0, "byteLength": 408, "byteOffset": 0}, {"buffer": 0, "byteLength": 912, "byteOffset": 416}, {"buffer": 0, "byteLength": 912, "byteOffset": 1328}, {"buffer": 0, "byteLength": 608, "byteOffset": 2240}], "accessors": [{"bufferView": 0, "componentType": 5123, "count": 204, "type": "SCALAR", "byteOffset": 0}, {"bufferView": 1, "componentType": 5126, "count": 76, "max": [-2.0849390029907227, 2.1609935760498047, -0.9726228713989258], "min": [-14.04141616821289, -0.6254448294639587, -10.167319297790527], "type": "VEC3", "byteOffset": 0}, {"bufferView": 2, "componentType": 5126, "count": 76, "type": "VEC3", "byteOffset": 0}, {"bufferView": 3, "componentType": 5126, "count": 76, "type": "VEC2", "byteOffset": 0}], "samplers": [{"magFilter": 9729, "minFilter": 9987}], "images": [{"uri": "textures/Mud_Tracks_tex_baseColor.png"}], "textures": [{"sampler": 0, "source": 0}], "materials": [{"doubleSided": true, "name": "Mud_Tracks_tex", "pbrMetallicRoughness": {"baseColorTexture": {"index": 0}, "metallicFactor": 0, "roughnessFactor": 0.6000000238418579}}], "meshes": [{"primitives": [{"attributes": {"POSITION": 1, "NORMAL": 2, "TEXCOORD_0": 3}, "indices": 0, "material": 0}]}], "scene": 0, "scenes": [{"name": "Scene", "nodes": [0]}]}