{"asset": {"generator": "Khronos glTF Blender I/O v1.5.17", "version": "2.0"}, "nodes": [{"mesh": 0, "name": "prop_box_geo_008_Cardboard_tex_0"}], "buffers": [{"byteLength": 5584, "uri": "FlatShack399.bin"}], "bufferViews": [{"buffer": 0, "byteLength": 1152, "byteOffset": 0}, {"buffer": 0, "byteLength": 1656, "byteOffset": 1152}, {"buffer": 0, "byteLength": 1656, "byteOffset": 2816}, {"buffer": 0, "byteLength": 1104, "byteOffset": 4480}], "accessors": [{"bufferView": 0, "componentType": 5123, "count": 576, "type": "SCALAR", "byteOffset": 0}, {"bufferView": 1, "componentType": 5126, "count": 138, "max": [-12.44981861114502, 6.168079376220703, 8.001362800598145], "min": [-13.929275512695312, 2.921751022338867, 5.515048027038574], "type": "VEC3", "byteOffset": 0}, {"bufferView": 2, "componentType": 5126, "count": 138, "type": "VEC3", "byteOffset": 0}, {"bufferView": 3, "componentType": 5126, "count": 138, "type": "VEC2", "byteOffset": 0}], "samplers": [{"magFilter": 9729, "minFilter": 9987}], "images": [{"uri": "textures/Rock_01_tex_baseColor.png"}], "textures": [{"sampler": 0, "source": 0}], "materials": [{"doubleSided": true, "name": "Rock_01_tex", "pbrMetallicRoughness": {"baseColorTexture": {"index": 0}, "metallicFactor": 0, "roughnessFactor": 0.6000000238418579}}], "meshes": [{"primitives": [{"attributes": {"POSITION": 1, "NORMAL": 2, "TEXCOORD_0": 3}, "indices": 0, "material": 0}]}], "scene": 0, "scenes": [{"name": "Scene", "nodes": [0]}]}