{"asset": {"generator": "Khronos glTF Blender I/O v1.5.17", "version": "2.0"}, "nodes": [{"mesh": 0, "name": "prop_Log_geo_100_bark_log_01_tx_0"}], "buffers": [{"byteLength": 13440, "uri": "FlatShack255.bin"}], "bufferViews": [{"buffer": 0, "byteLength": 1152, "byteOffset": 0}, {"buffer": 0, "byteLength": 4608, "byteOffset": 1152}, {"buffer": 0, "byteLength": 4608, "byteOffset": 5760}, {"buffer": 0, "byteLength": 3072, "byteOffset": 10368}], "accessors": [{"bufferView": 0, "componentType": 5123, "count": 576, "type": "SCALAR", "byteOffset": 0}, {"bufferView": 1, "componentType": 5126, "count": 384, "max": [6.339240074157715, 1.9345697164535522, 2.519580364227295], "min": [5.169965744018555, 0.6031169891357422, 1.4525940418243408], "type": "VEC3", "byteOffset": 0}, {"bufferView": 2, "componentType": 5126, "count": 384, "type": "VEC3", "byteOffset": 0}, {"bufferView": 3, "componentType": 5126, "count": 384, "type": "VEC2", "byteOffset": 0}], "samplers": [{"magFilter": 9729, "minFilter": 9987}], "images": [{"uri": "textures/Rock_01_tex_baseColor.png"}], "textures": [{"sampler": 0, "source": 0}], "materials": [{"doubleSided": true, "name": "Rock_01_tex", "pbrMetallicRoughness": {"baseColorTexture": {"index": 0}, "metallicFactor": 0, "roughnessFactor": 0.6000000238418579}}], "meshes": [{"primitives": [{"attributes": {"POSITION": 1, "NORMAL": 2, "TEXCOORD_0": 3}, "indices": 0, "material": 0}]}], "scene": 0, "scenes": [{"name": "Scene", "nodes": [0]}]}