{"asset": {"generator": "Khronos glTF Blender I/O v1.5.17", "version": "2.0"}, "nodes": [{"mesh": 0, "name": "prop_rock_geo_001_Rock_01_tex_0"}], "buffers": [{"byteLength": 13440, "uri": "FlatShack376.bin"}], "bufferViews": [{"buffer": 0, "byteLength": 1152, "byteOffset": 0}, {"buffer": 0, "byteLength": 4608, "byteOffset": 1152}, {"buffer": 0, "byteLength": 4608, "byteOffset": 5760}, {"buffer": 0, "byteLength": 3072, "byteOffset": 10368}], "accessors": [{"bufferView": 0, "componentType": 5123, "count": 576, "type": "SCALAR", "byteOffset": 0}, {"bufferView": 1, "componentType": 5126, "count": 384, "max": [-4.685680389404297, 1.894747257232666, 1.1987495422363281], "min": [-5.209479808807373, 1.4841116666793823, 0.5427665710449219], "type": "VEC3", "byteOffset": 0}, {"bufferView": 2, "componentType": 5126, "count": 384, "type": "VEC3", "byteOffset": 0}, {"bufferView": 3, "componentType": 5126, "count": 384, "type": "VEC2", "byteOffset": 0}], "samplers": [{"magFilter": 9729, "minFilter": 9987}], "images": [{"uri": "textures/Rock_01_tex_baseColor.png"}], "textures": [{"sampler": 0, "source": 0}], "materials": [{"doubleSided": true, "name": "Rock_01_tex", "pbrMetallicRoughness": {"baseColorTexture": {"index": 0}, "metallicFactor": 0, "roughnessFactor": 0.6000000238418579}}], "meshes": [{"primitives": [{"attributes": {"POSITION": 1, "NORMAL": 2, "TEXCOORD_0": 3}, "indices": 0, "material": 0}]}], "scene": 0, "scenes": [{"name": "Scene", "nodes": [0]}]}