{"asset": {"generator": "Khronos glTF Blender I/O v1.5.17", "version": "2.0"}, "nodes": [{"mesh": 0, "name": "Swamp_Bush_geo_019_swamp_bush_01_tex_0"}], "buffers": [{"byteLength": 53104, "uri": "FlatShack100.bin"}], "bufferViews": [{"buffer": 0, "byteLength": 3612, "byteOffset": 0}, {"buffer": 0, "byteLength": 18552, "byteOffset": 3616}, {"buffer": 0, "byteLength": 18552, "byteOffset": 22176}, {"buffer": 0, "byteLength": 12368, "byteOffset": 40736}], "accessors": [{"bufferView": 0, "componentType": 5123, "count": 1806, "type": "SCALAR", "byteOffset": 0}, {"bufferView": 1, "componentType": 5126, "count": 1546, "max": [-6.7309651374816895, 4.698864459991455, -0.20476770401000977], "min": [-11.698247909545898, 1.4445619583129883, -2.860949993133545], "type": "VEC3", "byteOffset": 0}, {"bufferView": 2, "componentType": 5126, "count": 1546, "type": "VEC3", "byteOffset": 0}, {"bufferView": 3, "componentType": 5126, "count": 1546, "type": "VEC2", "byteOffset": 0}], "samplers": [{"magFilter": 9729, "minFilter": 9987}], "images": [{"uri": "textures/Wood_old_01_tex_baseColor.png"}], "textures": [{"sampler": 0, "source": 0}], "materials": [{"doubleSided": true, "name": "Wood_old_01_tex", "pbrMetallicRoughness": {"baseColorTexture": {"index": 0}, "metallicFactor": 0, "roughnessFactor": 0.6000000238418579}}], "meshes": [{"primitives": [{"attributes": {"POSITION": 1, "NORMAL": 2, "TEXCOORD_0": 3}, "indices": 0, "material": 0}]}], "scene": 0, "scenes": [{"name": "Scene", "nodes": [0]}]}