{"asset": {"generator": "Khronos glTF Blender I/O v1.5.17", "version": "2.0"}, "nodes": [{"mesh": 0, "name": "prop_Log_geo_019_bark_log_01_tx_0.001"}], "buffers": [{"byteLength": 4800, "uri": "FlatShack277.bin"}], "bufferViews": [{"buffer": 0, "byteLength": 648, "byteOffset": 0}, {"buffer": 0, "byteLength": 1548, "byteOffset": 656}, {"buffer": 0, "byteLength": 1548, "byteOffset": 2208}, {"buffer": 0, "byteLength": 1032, "byteOffset": 3760}], "accessors": [{"bufferView": 0, "componentType": 5123, "count": 324, "type": "SCALAR", "byteOffset": 0}, {"bufferView": 1, "componentType": 5126, "count": 129, "max": [-9.849228858947754, 1.8944172859191895, 1.0863388776779175], "min": [-10.144678115844727, 1.7313042879104614, 0.5564383864402771], "type": "VEC3", "byteOffset": 0}, {"bufferView": 2, "componentType": 5126, "count": 129, "type": "VEC3", "byteOffset": 0}, {"bufferView": 3, "componentType": 5126, "count": 129, "type": "VEC2", "byteOffset": 0}], "samplers": [{"magFilter": 9729, "minFilter": 9987}], "images": [{"uri": "textures/bark_log_01_tx_baseColor.png"}], "textures": [{"sampler": 0, "source": 0}], "materials": [{"doubleSided": true, "name": "bark_log_01_tx", "pbrMetallicRoughness": {"baseColorTexture": {"index": 0}, "metallicFactor": 0}}], "meshes": [{"primitives": [{"attributes": {"POSITION": 1, "NORMAL": 2, "TEXCOORD_0": 3}, "indices": 0, "material": 0}]}], "scene": 0, "scenes": [{"name": "Scene", "nodes": [0]}]}