{"asset": {"generator": "Khronos glTF Blender I/O v1.5.17", "version": "2.0"}, "nodes": [{"mesh": 0, "name": "prop_Log_geo_082_bark_log_01_tx_0"}], "buffers": [{"byteLength": 512, "uri": "FlatShack237.bin"}], "bufferViews": [{"buffer": 0, "byteLength": 24, "byteOffset": 0}, {"buffer": 0, "byteLength": 144, "byteOffset": 32}, {"buffer": 0, "byteLength": 144, "byteOffset": 176}, {"buffer": 0, "byteLength": 96, "byteOffset": 320}, {"buffer": 0, "byteLength": 96, "byteOffset": 416}], "accessors": [{"bufferView": 0, "componentType": 5123, "count": 12, "type": "SCALAR", "byteOffset": 0}, {"bufferView": 1, "componentType": 5126, "count": 12, "max": [-12.242932319641113, 4.28050422668457, 0.3472560942173004], "min": [-12.35237979888916, 3.862945318222046, 0.31943443417549133], "type": "VEC3", "byteOffset": 0}, {"bufferView": 2, "componentType": 5126, "count": 12, "type": "VEC3", "byteOffset": 0}, {"bufferView": 3, "componentType": 5126, "count": 12, "type": "VEC2", "byteOffset": 0}, {"bufferView": 4, "componentType": 5123, "count": 12, "normalized": true, "type": "VEC4", "byteOffset": 0}], "samplers": [{"magFilter": 9729, "minFilter": 9987}], "images": [{"uri": "textures/chain_01_Tex_baseColor.png"}], "textures": [{"sampler": 0, "source": 0}], "materials": [{"alphaMode": "BLEND", "doubleSided": true, "name": "chain_01_Tex", "pbrMetallicRoughness": {"baseColorTexture": {"index": 0}, "metallicFactor": 0, "roughnessFactor": 0.6000000238418579}}], "meshes": [{"primitives": [{"attributes": {"POSITION": 1, "NORMAL": 2, "TEXCOORD_0": 3, "COLOR_0": 1556}, "indices": 0, "material": 0}]}], "scene": 0, "scenes": [{"name": "Scene", "nodes": [0]}]}