{"asset": {"generator": "Khronos glTF Blender I/O v1.5.17", "version": "2.0"}, "nodes": [{"mesh": 0, "name": "prop_Pallette_geo_005_woodpallet_01_tex_0"}], "buffers": [{"byteLength": 4832, "uri": "FlatShack158.bin"}], "bufferViews": [{"buffer": 0, "byteLength": 648, "byteOffset": 0}, {"buffer": 0, "byteLength": 1560, "byteOffset": 656}, {"buffer": 0, "byteLength": 1560, "byteOffset": 2224}, {"buffer": 0, "byteLength": 1040, "byteOffset": 3792}], "accessors": [{"bufferView": 0, "componentType": 5123, "count": 324, "type": "SCALAR", "byteOffset": 0}, {"bufferView": 1, "componentType": 5126, "count": 130, "max": [-9.224215507507324, 2.1855876445770264, 0.10986268520355225], "min": [-9.519664764404297, 2.022474527359009, -0.42003780603408813], "type": "VEC3", "byteOffset": 0}, {"bufferView": 2, "componentType": 5126, "count": 130, "type": "VEC3", "byteOffset": 0}, {"bufferView": 3, "componentType": 5126, "count": 130, "type": "VEC2", "byteOffset": 0}], "samplers": [{"magFilter": 9729, "minFilter": 9987}], "images": [{"uri": "textures/bark_log_01_tx_baseColor.png"}], "textures": [{"sampler": 0, "source": 0}], "materials": [{"doubleSided": true, "name": "bark_log_01_tx", "pbrMetallicRoughness": {"baseColorTexture": {"index": 0}, "metallicFactor": 0}}], "meshes": [{"primitives": [{"attributes": {"POSITION": 1, "NORMAL": 2, "TEXCOORD_0": 3}, "indices": 0, "material": 0}]}], "scene": 0, "scenes": [{"name": "Scene", "nodes": [0]}]}