{"asset": {"generator": "Khronos glTF Blender I/O v1.5.17", "version": "2.0"}, "nodes": [{"mesh": 0, "name": "Vehicle_Airboat_geo_001_Engine_01_tex_0"}], "buffers": [{"byteLength": 87648, "uri": "FlatShack35.bin"}], "bufferViews": [{"buffer": 0, "byteLength": 11304, "byteOffset": 0}, {"buffer": 0, "byteLength": 28620, "byteOffset": 11312}, {"buffer": 0, "byteLength": 28620, "byteOffset": 39936}, {"buffer": 0, "byteLength": 19080, "byteOffset": 68560}], "accessors": [{"bufferView": 0, "componentType": 5123, "count": 5652, "type": "SCALAR", "byteOffset": 0}, {"bufferView": 1, "componentType": 5126, "count": 2385, "max": [0.35062211751937866, 3.0976195335388184, -5.501044273376465], "min": [-0.33612459897994995, 1.8460278511047363, -6.1343817710876465], "type": "VEC3", "byteOffset": 0}, {"bufferView": 2, "componentType": 5126, "count": 2385, "type": "VEC3", "byteOffset": 0}, {"bufferView": 3, "componentType": 5126, "count": 2385, "type": "VEC2", "byteOffset": 0}], "samplers": [{"magFilter": 9729, "minFilter": 9987}], "images": [{"uri": "textures/BBQ_set_Tex_baseColor.png"}], "textures": [{"sampler": 0, "source": 0}], "materials": [{"doubleSided": true, "name": "BBQ_set_Tex", "pbrMetallicRoughness": {"baseColorTexture": {"index": 0}, "metallicFactor": 0, "roughnessFactor": 0.6000000238418579}}], "meshes": [{"primitives": [{"attributes": {"POSITION": 1, "NORMAL": 2, "TEXCOORD_0": 3}, "indices": 0, "material": 0}]}], "scene": 0, "scenes": [{"name": "Scene", "nodes": [0]}]}