{"asset": {"generator": "Khronos glTF Blender I/O v1.5.17", "version": "2.0"}, "nodes": [{"mesh": 0, "name": "prop_box_geo_004_Cardboard_tex_0"}], "buffers": [{"byteLength": 848, "uri": "FlatShack395.bin"}], "bufferViews": [{"buffer": 0, "byteLength": 72, "byteOffset": 0}, {"buffer": 0, "byteLength": 276, "byteOffset": 80}, {"buffer": 0, "byteLength": 276, "byteOffset": 368}, {"buffer": 0, "byteLength": 184, "byteOffset": 656}], "accessors": [{"bufferView": 0, "componentType": 5123, "count": 36, "type": "SCALAR", "byteOffset": 0}, {"bufferView": 1, "componentType": 5126, "count": 23, "max": [3.7075798511505127, 2.5798025131225586, 7.332546710968018], "min": [1.097562551498413, 1.9346262216567993, 5.267895698547363], "type": "VEC3", "byteOffset": 0}, {"bufferView": 2, "componentType": 5126, "count": 23, "type": "VEC3", "byteOffset": 0}, {"bufferView": 3, "componentType": 5126, "count": 23, "type": "VEC2", "byteOffset": 0}], "samplers": [{"magFilter": 9729, "minFilter": 9987}], "images": [{"uri": "textures/Leaves_01_tex_baseColor.png"}], "textures": [{"sampler": 0, "source": 0}], "materials": [{"alphaMode": "BLEND", "doubleSided": true, "name": "Leaves_01_tex", "pbrMetallicRoughness": {"baseColorTexture": {"index": 0}, "metallicFactor": 0, "roughnessFactor": 0.6000000238418579}}], "meshes": [{"primitives": [{"attributes": {"POSITION": 1, "NORMAL": 2, "TEXCOORD_0": 3}, "indices": 0, "material": 0}]}], "scene": 0, "scenes": [{"name": "Scene", "nodes": [0]}]}