{"asset": {"generator": "Khronos glTF Blender I/O v1.5.17", "version": "2.0"}, "nodes": [{"mesh": 0, "name": "prop_box_geo_011_Cardboard_tex_0"}], "buffers": [{"byteLength": 5648, "uri": "FlatShack402.bin"}], "bufferViews": [{"buffer": 0, "byteLength": 420, "byteOffset": 0}, {"buffer": 0, "byteLength": 1560, "byteOffset": 432}, {"buffer": 0, "byteLength": 1560, "byteOffset": 2000}, {"buffer": 0, "byteLength": 1040, "byteOffset": 3568}, {"buffer": 0, "byteLength": 1040, "byteOffset": 4608}], "accessors": [{"bufferView": 0, "componentType": 5123, "count": 210, "type": "SCALAR", "byteOffset": 0}, {"bufferView": 1, "componentType": 5126, "count": 130, "max": [1.8340433835983276, 3.719517230987549, 6.544246196746826], "min": [-1.0635241270065308, 1.5799157619476318, 4.542779445648193], "type": "VEC3", "byteOffset": 0}, {"bufferView": 2, "componentType": 5126, "count": 130, "type": "VEC3", "byteOffset": 0}, {"bufferView": 3, "componentType": 5126, "count": 130, "type": "VEC2", "byteOffset": 0}, {"bufferView": 4, "componentType": 5126, "count": 130, "type": "VEC2", "byteOffset": 0}], "samplers": [{"magFilter": 9729, "minFilter": 9987}], "images": [{"uri": "textures/Metal_Perforated_01_tex_baseColor.png"}], "textures": [{"sampler": 0, "source": 0}], "materials": [{"alphaMode": "BLEND", "doubleSided": true, "name": "Metal_Perforated_01_tex", "pbrMetallicRoughness": {"baseColorTexture": {"index": 0}, "metallicFactor": 0, "roughnessFactor": 0.6000000238418579}}], "meshes": [{"primitives": [{"attributes": {"POSITION": 1, "NORMAL": 2, "TEXCOORD_0": 3, "TEXCOORD_1": 4}, "indices": 0, "material": 0}]}], "scene": 0, "scenes": [{"name": "Scene", "nodes": [0]}]}