{"asset": {"generator": "Khronos glTF Blender I/O v1.5.17", "version": "2.0"}, "nodes": [{"mesh": 0, "name": "Plants_Schrubs_01_geo_003_Schrub_01_tex_0"}], "buffers": [{"byteLength": 10528, "uri": "FlatShack65.bin"}], "bufferViews": [{"buffer": 0, "byteLength": 2460, "byteOffset": 0}, {"buffer": 0, "byteLength": 3024, "byteOffset": 2464}, {"buffer": 0, "byteLength": 3024, "byteOffset": 5488}, {"buffer": 0, "byteLength": 2016, "byteOffset": 8512}], "accessors": [{"bufferView": 0, "componentType": 5123, "count": 1230, "type": "SCALAR", "byteOffset": 0}, {"bufferView": 1, "componentType": 5126, "count": 252, "max": [2.3067588806152344, 5.020132064819336, -2.062162399291992], "min": [-1.1845849752426147, 4.245431423187256, -5.561369895935059], "type": "VEC3", "byteOffset": 0}, {"bufferView": 2, "componentType": 5126, "count": 252, "type": "VEC3", "byteOffset": 0}, {"bufferView": 3, "componentType": 5126, "count": 252, "type": "VEC2", "byteOffset": 0}], "samplers": [{"magFilter": 9729, "minFilter": 9987}], "images": [{"uri": "textures/Metal_roofplates_01_tex_baseColor.jpg"}], "textures": [{"sampler": 0, "source": 0}], "materials": [{"doubleSided": true, "name": "Metal_roofplates_01_tex", "pbrMetallicRoughness": {"baseColorTexture": {"index": 0}, "metallicFactor": 0, "roughnessFactor": 0.6462084054946899}}], "meshes": [{"primitives": [{"attributes": {"POSITION": 1, "NORMAL": 2, "TEXCOORD_0": 3}, "indices": 0, "material": 0}]}], "scene": 0, "scenes": [{"name": "Scene", "nodes": [0]}]}