{"asset": {"generator": "Khronos glTF Blender I/O v1.5.17", "version": "2.0"}, "nodes": [{"mesh": 0, "name": "prop_Oak_leaves_geo_002_OakLeaves_01_Tex_0"}], "buffers": [{"byteLength": 10352, "uri": "FlatShack45.bin"}], "bufferViews": [{"buffer": 0, "byteLength": 696, "byteOffset": 0}, {"buffer": 0, "byteLength": 3612, "byteOffset": 704}, {"buffer": 0, "byteLength": 3612, "byteOffset": 4320}, {"buffer": 0, "byteLength": 2408, "byteOffset": 7936}], "accessors": [{"bufferView": 0, "componentType": 5123, "count": 348, "type": "SCALAR", "byteOffset": 0}, {"bufferView": 1, "componentType": 5126, "count": 301, "max": [3.53055477142334, 3.14733624458313, -5.9607462882995605], "min": [2.1623175144195557, 1.8199892044067383, -7.166545867919922], "type": "VEC3", "byteOffset": 0}, {"bufferView": 2, "componentType": 5126, "count": 301, "type": "VEC3", "byteOffset": 0}, {"bufferView": 3, "componentType": 5126, "count": 301, "type": "VEC2", "byteOffset": 0}], "samplers": [{"magFilter": 9729, "minFilter": 9987}], "images": [{"uri": "textures/staircase_01_tex_baseColor.png"}], "textures": [{"sampler": 0, "source": 0}], "materials": [{"doubleSided": true, "name": "staircase_01_tex", "pbrMetallicRoughness": {"baseColorTexture": {"index": 0}, "metallicFactor": 0, "roughnessFactor": 0.4820437431335449}}], "meshes": [{"primitives": [{"attributes": {"POSITION": 1, "NORMAL": 2, "TEXCOORD_0": 3}, "indices": 0, "material": 0}]}], "scene": 0, "scenes": [{"name": "Scene", "nodes": [0]}]}