{"asset": {"generator": "Khronos glTF Blender I/O v1.5.17", "version": "2.0"}, "nodes": [{"mesh": 0, "name": "Swamp_Bush_geo_004_swamp_bush_01_tex_0"}], "buffers": [{"byteLength": 1440, "uri": "FlatShack85.bin"}], "bufferViews": [{"buffer": 0, "byteLength": 288, "byteOffset": 0}, {"buffer": 0, "byteLength": 420, "byteOffset": 288}, {"buffer": 0, "byteLength": 420, "byteOffset": 720}, {"buffer": 0, "byteLength": 280, "byteOffset": 1152}], "accessors": [{"bufferView": 0, "componentType": 5123, "count": 144, "type": "SCALAR", "byteOffset": 0}, {"bufferView": 1, "componentType": 5126, "count": 35, "max": [1.2291797399520874, 4.587145805358887, -3.128218173980713], "min": [0.8625844717025757, 3.9269983768463135, -3.4880199432373047], "type": "VEC3", "byteOffset": 0}, {"bufferView": 2, "componentType": 5126, "count": 35, "type": "VEC3", "byteOffset": 0}, {"bufferView": 3, "componentType": 5126, "count": 35, "type": "VEC2", "byteOffset": 0}], "samplers": [{"magFilter": 9729, "minFilter": 9987}], "images": [{"uri": "textures/fabric_01_baseColor.png"}], "textures": [{"sampler": 0, "source": 0}], "materials": [{"alphaMode": "BLEND", "doubleSided": true, "name": "fabric_01", "pbrMetallicRoughness": {"baseColorTexture": {"index": 0}, "metallicFactor": 0, "roughnessFactor": 0.6000000238418579}}], "meshes": [{"primitives": [{"attributes": {"POSITION": 1, "NORMAL": 2, "TEXCOORD_0": 3}, "indices": 0, "material": 0}]}], "scene": 0, "scenes": [{"name": "Scene", "nodes": [0]}]}