{"asset": {"generator": "Khronos glTF Blender I/O v1.5.17", "version": "2.0"}, "nodes": [{"mesh": 0, "name": "Staircase_01_geo_staircase_01_tex_0"}], "buffers": [{"byteLength": 1344, "uri": "FlatShack29.bin"}], "bufferViews": [{"buffer": 0, "byteLength": 228, "byteOffset": 0}, {"buffer": 0, "byteLength": 408, "byteOffset": 240}, {"buffer": 0, "byteLength": 408, "byteOffset": 656}, {"buffer": 0, "byteLength": 272, "byteOffset": 1072}], "accessors": [{"bufferView": 0, "componentType": 5123, "count": 114, "type": "SCALAR", "byteOffset": 0}, {"bufferView": 1, "componentType": 5126, "count": 34, "max": [1.5387308597564697, 1.9482355117797852, 0.000582277774810791], "min": [-12.701279640197754, 1.445115089416504, -9.45848274230957], "type": "VEC3", "byteOffset": 0}, {"bufferView": 2, "componentType": 5126, "count": 34, "type": "VEC3", "byteOffset": 0}, {"bufferView": 3, "componentType": 5126, "count": 34, "type": "VEC2", "byteOffset": 0}], "samplers": [{"magFilter": 9729, "minFilter": 9987}], "images": [{"uri": "textures/Mud_tracks_Circle_tex_baseColor.png"}], "textures": [{"sampler": 0, "source": 0}], "materials": [{"doubleSided": true, "name": "Mud_tracks_Circle_tex", "pbrMetallicRoughness": {"baseColorTexture": {"index": 0}, "metallicFactor": 0}}], "meshes": [{"primitives": [{"attributes": {"POSITION": 1, "NORMAL": 2, "TEXCOORD_0": 3}, "indices": 0, "material": 0}]}], "scene": 0, "scenes": [{"name": "Scene", "nodes": [0]}]}