{"asset": {"generator": "Khronos glTF Blender I/O v1.5.17", "version": "2.0"}, "nodes": [{"mesh": 0, "name": "AC_02_geo_AC_01_tex_0"}], "buffers": [{"byteLength": 174288, "uri": "FlatShack27.bin"}], "bufferViews": [{"buffer": 0, "byteLength": 26052, "byteOffset": 0}, {"buffer": 0, "byteLength": 55572, "byteOffset": 26064}, {"buffer": 0, "byteLength": 55572, "byteOffset": 81648}, {"buffer": 0, "byteLength": 37048, "byteOffset": 137232}], "accessors": [{"bufferView": 0, "componentType": 5123, "count": 13026, "type": "SCALAR", "byteOffset": 0}, {"bufferView": 1, "componentType": 5126, "count": 4631, "max": [6.874292373657227, 5.115322589874268, -5.044831275939941], "min": [-5.679862976074219, 1.8598743677139282, -10.623753547668457], "type": "VEC3", "byteOffset": 0}, {"bufferView": 2, "componentType": 5126, "count": 4631, "type": "VEC3", "byteOffset": 0}, {"bufferView": 3, "componentType": 5126, "count": 4631, "type": "VEC2", "byteOffset": 0}], "samplers": [{"magFilter": 9729, "minFilter": 9987}], "images": [{"uri": "textures/MobilHome_01_Tex_baseColor.png"}], "textures": [{"sampler": 0, "source": 0}], "materials": [{"doubleSided": true, "name": "MobilHome_01_Tex", "pbrMetallicRoughness": {"baseColorTexture": {"index": 0}, "metallicFactor": 0, "roughnessFactor": 0.6000000238418579}}], "meshes": [{"primitives": [{"attributes": {"POSITION": 1, "NORMAL": 2, "TEXCOORD_0": 3}, "indices": 0, "material": 0}]}], "scene": 0, "scenes": [{"name": "Scene", "nodes": [0]}]}