{"asset": {"generator": "Khronos glTF Blender I/O v1.5.17", "version": "2.0"}, "nodes": [{"mesh": 0, "name": "Schrubs_01_geo_Schrub_01_tex_0"}], "buffers": [{"byteLength": 32976, "uri": "FlatShack148.bin"}], "bufferViews": [{"buffer": 0, "byteLength": 5106, "byteOffset": 0}, {"buffer": 0, "byteLength": 10440, "byteOffset": 5120}, {"buffer": 0, "byteLength": 10440, "byteOffset": 15568}, {"buffer": 0, "byteLength": 6960, "byteOffset": 26016}], "accessors": [{"bufferView": 0, "componentType": 5123, "count": 2553, "type": "SCALAR", "byteOffset": 0}, {"bufferView": 1, "componentType": 5126, "count": 870, "max": [3.709155559539795, 3.3145642280578613, 2.274921417236328], "min": [-1.6371288299560547, 1.8633372783660889, -2.2765564918518066], "type": "VEC3", "byteOffset": 0}, {"bufferView": 2, "componentType": 5126, "count": 870, "type": "VEC3", "byteOffset": 0}, {"bufferView": 3, "componentType": 5126, "count": 870, "type": "VEC2", "byteOffset": 0}], "samplers": [{"magFilter": 9729, "minFilter": 9987}], "images": [{"uri": "textures/ChevyNova_01_tex_baseColor.png"}], "textures": [{"sampler": 0, "source": 0}], "materials": [{"doubleSided": true, "name": "ChevyNova_01_tex", "pbrMetallicRoughness": {"baseColorTexture": {"index": 0}, "metallicFactor": 0, "roughnessFactor": 0.6000000238418579}}], "meshes": [{"primitives": [{"attributes": {"POSITION": 1, "NORMAL": 2, "TEXCOORD_0": 3}, "indices": 0, "material": 0}]}], "scene": 0, "scenes": [{"name": "Scene", "nodes": [0]}]}