{"asset": {"generator": "Khronos glTF Blender I/O v1.5.17", "version": "2.0"}, "nodes": [{"mesh": 0, "name": "Plants_Schrubs_01_geo_010_Schrub_01_tex_0"}], "buffers": [{"byteLength": 15264, "uri": "FlatShack72.bin"}], "bufferViews": [{"buffer": 0, "byteLength": 2280, "byteOffset": 0}, {"buffer": 0, "byteLength": 4860, "byteOffset": 2288}, {"buffer": 0, "byteLength": 4860, "byteOffset": 7152}, {"buffer": 0, "byteLength": 3240, "byteOffset": 12016}], "accessors": [{"bufferView": 0, "componentType": 5123, "count": 1140, "type": "SCALAR", "byteOffset": 0}, {"bufferView": 1, "componentType": 5126, "count": 405, "max": [1.8777477741241455, 2.9485373497009277, -4.101715087890625], "min": [1.8074564933776855, 2.8316686153411865, -4.172006607055664], "type": "VEC3", "byteOffset": 0}, {"bufferView": 2, "componentType": 5126, "count": 405, "type": "VEC3", "byteOffset": 0}, {"bufferView": 3, "componentType": 5126, "count": 405, "type": "VEC2", "byteOffset": 0}], "samplers": [{"magFilter": 9729, "minFilter": 9987}], "images": [{"uri": "textures/Can_Bud_tex_baseColor.png"}], "textures": [{"sampler": 0, "source": 0}], "materials": [{"doubleSided": true, "name": "Can_Bud_tex", "pbrMetallicRoughness": {"baseColorTexture": {"index": 0}, "metallicFactor": 0, "roughnessFactor": 0.6000000238418579}}], "meshes": [{"primitives": [{"attributes": {"POSITION": 1, "NORMAL": 2, "TEXCOORD_0": 3}, "indices": 0, "material": 0}]}], "scene": 0, "scenes": [{"name": "Scene", "nodes": [0]}]}