{"asset": {"generator": "Khronos glTF Blender I/O v1.5.17", "version": "2.0"}, "nodes": [{"mesh": 0, "name": "prop_Oak_leaves_geo_001_OakLeaves_01_Tex_0"}], "buffers": [{"byteLength": 15264, "uri": "FlatShack40.bin"}], "bufferViews": [{"buffer": 0, "byteLength": 2760, "byteOffset": 0}, {"buffer": 0, "byteLength": 4680, "byteOffset": 2768}, {"buffer": 0, "byteLength": 4680, "byteOffset": 7456}, {"buffer": 0, "byteLength": 3120, "byteOffset": 12144}], "accessors": [{"bufferView": 0, "componentType": 5123, "count": 1380, "type": "SCALAR", "byteOffset": 0}, {"bufferView": 1, "componentType": 5126, "count": 390, "max": [-0.200384259223938, 1.9049623012542725, -5.1390156745910645], "min": [-0.32849183678627014, 1.8391481637954712, -5.212983131408691], "type": "VEC3", "byteOffset": 0}, {"bufferView": 2, "componentType": 5126, "count": 390, "type": "VEC3", "byteOffset": 0}, {"bufferView": 3, "componentType": 5126, "count": 390, "type": "VEC2", "byteOffset": 0}], "samplers": [{"magFilter": 9729, "minFilter": 9987}], "images": [{"uri": "textures/Can_Bud_tex_baseColor.png"}], "textures": [{"sampler": 0, "source": 0}], "materials": [{"doubleSided": true, "name": "Can_Bud_tex", "pbrMetallicRoughness": {"baseColorTexture": {"index": 0}, "metallicFactor": 0, "roughnessFactor": 0.6000000238418579}}], "meshes": [{"primitives": [{"attributes": {"POSITION": 1, "NORMAL": 2, "TEXCOORD_0": 3}, "indices": 0, "material": 0}]}], "scene": 0, "scenes": [{"name": "Scene", "nodes": [0]}]}