{"asset": {"generator": "Khronos glTF Blender I/O v1.5.17", "version": "2.0"}, "nodes": [{"mesh": 0, "name": "Swamp_Bush_geo_031_swamp_bush_01_tex_0"}], "buffers": [{"byteLength": 5968, "uri": "FlatShack112.bin"}], "bufferViews": [{"buffer": 0, "byteLength": 672, "byteOffset": 0}, {"buffer": 0, "byteLength": 1980, "byteOffset": 672}, {"buffer": 0, "byteLength": 1980, "byteOffset": 2656}, {"buffer": 0, "byteLength": 1320, "byteOffset": 4640}], "accessors": [{"bufferView": 0, "componentType": 5123, "count": 336, "type": "SCALAR", "byteOffset": 0}, {"bufferView": 1, "componentType": 5126, "count": 165, "max": [-6.108982563018799, 2.2389414310455322, -0.4268408417701721], "min": [-6.865253448486328, 1.5806989669799805, -1.0160704851150513], "type": "VEC3", "byteOffset": 0}, {"bufferView": 2, "componentType": 5126, "count": 165, "type": "VEC3", "byteOffset": 0}, {"bufferView": 3, "componentType": 5126, "count": 165, "type": "VEC2", "byteOffset": 0}], "samplers": [{"magFilter": 9729, "minFilter": 9987}], "images": [{"uri": "textures/Cardboard_tex_baseColor.png"}], "textures": [{"sampler": 0, "source": 0}], "materials": [{"doubleSided": true, "name": "Cardboard_tex", "pbrMetallicRoughness": {"baseColorTexture": {"index": 0}, "metallicFactor": 0, "roughnessFactor": 0.6000000238418579}}], "meshes": [{"primitives": [{"attributes": {"POSITION": 1, "NORMAL": 2, "TEXCOORD_0": 3}, "indices": 0, "material": 0}]}], "scene": 0, "scenes": [{"name": "Scene", "nodes": [0]}]}