{"asset": {"generator": "Khronos glTF Blender I/O v1.5.17", "version": "2.0"}, "nodes": [{"mesh": 0, "name": "prop_Log_geo_102_bark_log_01_tx_0.001"}], "buffers": [{"byteLength": 86624, "uri": "FlatShack356.bin"}], "bufferViews": [{"buffer": 0, "byteLength": 12000, "byteOffset": 0}, {"buffer": 0, "byteLength": 27984, "byteOffset": 12000}, {"buffer": 0, "byteLength": 27984, "byteOffset": 39984}, {"buffer": 0, "byteLength": 18656, "byteOffset": 67968}], "accessors": [{"bufferView": 0, "componentType": 5123, "count": 6000, "type": "SCALAR", "byteOffset": 0}, {"bufferView": 1, "componentType": 5126, "count": 2332, "max": [-9.698787689208984, 6.048802375793457, 1.1982524394989014], "min": [-10.40815544128418, 4.938183784484863, 0.2914860248565674], "type": "VEC3", "byteOffset": 0}, {"bufferView": 2, "componentType": 5126, "count": 2332, "type": "VEC3", "byteOffset": 0}, {"bufferView": 3, "componentType": 5126, "count": 2332, "type": "VEC2", "byteOffset": 0}], "samplers": [{"magFilter": 9729, "minFilter": 9987}], "images": [{"uri": "textures/woodplanks_Wall_02_tex_baseColor.jpg"}], "textures": [{"sampler": 0, "source": 0}], "materials": [{"doubleSided": true, "name": "woodplanks_Wall_02_tex", "pbrMetallicRoughness": {"baseColorTexture": {"index": 0}, "metallicFactor": 0, "roughnessFactor": 0.6000000238418579}}], "meshes": [{"primitives": [{"attributes": {"POSITION": 1, "NORMAL": 2, "TEXCOORD_0": 3}, "indices": 0, "material": 0}]}], "scene": 0, "scenes": [{"name": "Scene", "nodes": [0]}]}