{"asset": {"generator": "Khronos glTF Blender I/O v1.5.17", "version": "2.0"}, "nodes": [{"mesh": 0, "name": "prop_Gasttank_geo_002_Gastank_01_tex1_0"}], "buffers": [{"byteLength": 9936, "uri": "FlatShack423.bin"}], "bufferViews": [{"buffer": 0, "byteLength": 1992, "byteOffset": 0}, {"buffer": 0, "byteLength": 2976, "byteOffset": 2000}, {"buffer": 0, "byteLength": 2976, "byteOffset": 4976}, {"buffer": 0, "byteLength": 1984, "byteOffset": 7952}], "accessors": [{"bufferView": 0, "componentType": 5123, "count": 996, "type": "SCALAR", "byteOffset": 0}, {"bufferView": 1, "componentType": 5126, "count": 248, "max": [-3.5294198989868164, 6.862799167633057, 11.102298736572266], "min": [-10.5975980758667, 4.107358932495117, 9.154683113098145], "type": "VEC3", "byteOffset": 0}, {"bufferView": 2, "componentType": 5126, "count": 248, "type": "VEC3", "byteOffset": 0}, {"bufferView": 3, "componentType": 5126, "count": 248, "type": "VEC2", "byteOffset": 0}], "samplers": [{"magFilter": 9729, "minFilter": 9987}], "materials": [{"doubleSided": true, "name": "standardSurface2", "pbrMetallicRoughness": {"metallicFactor": 0, "roughnessFactor": 0.6000000238418579}}], "meshes": [{"primitives": [{"attributes": {"POSITION": 1, "NORMAL": 2, "TEXCOORD_0": 3}, "indices": 0, "material": 0}]}], "scene": 0, "scenes": [{"name": "Scene", "nodes": [0]}]}