{"asset": {"generator": "Khronos glTF Blender I/O v1.5.17", "version": "2.0"}, "nodes": [{"mesh": 0, "name": "Plants_Schrubs_01_geo_012_Schrub_01_tex_0"}], "buffers": [{"byteLength": 688, "uri": "FlatShack73.bin"}], "bufferViews": [{"buffer": 0, "byteLength": 84, "byteOffset": 0}, {"buffer": 0, "byteLength": 216, "byteOffset": 96}, {"buffer": 0, "byteLength": 216, "byteOffset": 320}, {"buffer": 0, "byteLength": 144, "byteOffset": 544}], "accessors": [{"bufferView": 0, "componentType": 5123, "count": 42, "type": "SCALAR", "byteOffset": 0}, {"bufferView": 1, "componentType": 5126, "count": 18, "max": [1.0100033283233643, 2.612577199935913, -0.4009256362915039], "min": [-3.3205018043518066, 1.8814787864685059, -5.637293815612793], "type": "VEC3", "byteOffset": 0}, {"bufferView": 2, "componentType": 5126, "count": 18, "type": "VEC3", "byteOffset": 0}, {"bufferView": 3, "componentType": 5126, "count": 18, "type": "VEC2", "byteOffset": 0}], "samplers": [{"magFilter": 9729, "minFilter": 9987}], "images": [{"uri": "textures/Schrub_01_tex_baseColor.png"}], "textures": [{"sampler": 0, "source": 0}], "materials": [{"alphaMode": "BLEND", "doubleSided": true, "name": "Schrub_01_tex", "pbrMetallicRoughness": {"baseColorTexture": {"index": 0}, "metallicFactor": 0, "roughnessFactor": 0.6000000238418579}}], "meshes": [{"primitives": [{"attributes": {"POSITION": 1, "NORMAL": 2, "TEXCOORD_0": 3}, "indices": 0, "material": 0}]}], "scene": 0, "scenes": [{"name": "Scene", "nodes": [0]}]}