{"asset": {"generator": "Khronos glTF Blender I/O v1.5.17", "version": "2.0"}, "nodes": [{"mesh": 0, "name": "Swamp_Bush_geo_024_swamp_bush_01_tex_0"}], "buffers": [{"byteLength": 1728, "uri": "FlatShack105.bin"}], "bufferViews": [{"buffer": 0, "byteLength": 360, "byteOffset": 0}, {"buffer": 0, "byteLength": 504, "byteOffset": 368}, {"buffer": 0, "byteLength": 504, "byteOffset": 880}, {"buffer": 0, "byteLength": 336, "byteOffset": 1392}], "accessors": [{"bufferView": 0, "componentType": 5123, "count": 180, "type": "SCALAR", "byteOffset": 0}, {"bufferView": 1, "componentType": 5126, "count": 42, "max": [-7.395116806030273, 7.822739124298096, -0.9166806936264038], "min": [-8.602417945861816, 6.856106281280518, -1.2813173532485962], "type": "VEC3", "byteOffset": 0}, {"bufferView": 2, "componentType": 5126, "count": 42, "type": "VEC3", "byteOffset": 0}, {"bufferView": 3, "componentType": 5126, "count": 42, "type": "VEC2", "byteOffset": 0}], "samplers": [{"magFilter": 9729, "minFilter": 9987}], "images": [{"uri": "textures/fabric_01_baseColor.png"}], "textures": [{"sampler": 0, "source": 0}], "materials": [{"alphaMode": "BLEND", "doubleSided": true, "name": "fabric_01", "pbrMetallicRoughness": {"baseColorTexture": {"index": 0}, "metallicFactor": 0, "roughnessFactor": 0.6000000238418579}}], "meshes": [{"primitives": [{"attributes": {"POSITION": 1, "NORMAL": 2, "TEXCOORD_0": 3}, "indices": 0, "material": 0}]}], "scene": 0, "scenes": [{"name": "Scene", "nodes": [0]}]}