{"asset": {"generator": "Khronos glTF Blender I/O v1.5.17", "version": "2.0"}, "nodes": [{"mesh": 0, "name": "prop_BoxingBag_geo_001_Leather_01_tex_0"}], "buffers": [{"byteLength": 41040, "uri": "FlatShack414.bin"}], "bufferViews": [{"buffer": 0, "byteLength": 2424, "byteOffset": 0}, {"buffer": 0, "byteLength": 14472, "byteOffset": 2432}, {"buffer": 0, "byteLength": 14472, "byteOffset": 16912}, {"buffer": 0, "byteLength": 9648, "byteOffset": 31392}], "accessors": [{"bufferView": 0, "componentType": 5123, "count": 1212, "type": "SCALAR", "byteOffset": 0}, {"bufferView": 1, "componentType": 5126, "count": 1206, "max": [-3.9412593841552734, 9.880313873291016, 9.460087776184082], "min": [-12.694117546081543, 4.816403865814209, 0.0005168914794921875], "type": "VEC3", "byteOffset": 0}, {"bufferView": 2, "componentType": 5126, "count": 1206, "type": "VEC3", "byteOffset": 0}, {"bufferView": 3, "componentType": 5126, "count": 1206, "type": "VEC2", "byteOffset": 0}], "samplers": [{"magFilter": 9729, "minFilter": 9987}], "images": [{"uri": "textures/House_Parts_01_tex_baseColor.png"}], "textures": [{"sampler": 0, "source": 0}], "materials": [{"doubleSided": true, "name": "House_Parts_01_tex", "pbrMetallicRoughness": {"baseColorTexture": {"index": 0}, "metallicFactor": 0, "roughnessFactor": 0.6000000238418579}}], "meshes": [{"primitives": [{"attributes": {"POSITION": 1, "NORMAL": 2, "TEXCOORD_0": 3}, "indices": 0, "material": 0}]}], "scene": 0, "scenes": [{"name": "Scene", "nodes": [0]}]}