{"asset": {"generator": "Khronos glTF Blender I/O v1.5.17", "version": "2.0"}, "nodes": [{"mesh": 0, "name": "prop_Tree_birk_geo_002_Tree_01_tex_0"}], "buffers": [{"byteLength": 3264, "uri": "FlatShack49.bin"}], "bufferViews": [{"buffer": 0, "byteLength": 192, "byteOffset": 0}, {"buffer": 0, "byteLength": 1152, "byteOffset": 192}, {"buffer": 0, "byteLength": 1152, "byteOffset": 1344}, {"buffer": 0, "byteLength": 768, "byteOffset": 2496}], "accessors": [{"bufferView": 0, "componentType": 5123, "count": 96, "type": "SCALAR", "byteOffset": 0}, {"bufferView": 1, "componentType": 5126, "count": 96, "max": [4.30771541595459, 2.8173937797546387, -6.691806793212891], "min": [3.36531925201416, 1.8173937797546387, -7.3474626541137695], "type": "VEC3", "byteOffset": 0}, {"bufferView": 2, "componentType": 5126, "count": 96, "type": "VEC3", "byteOffset": 0}, {"bufferView": 3, "componentType": 5126, "count": 96, "type": "VEC2", "byteOffset": 0}], "samplers": [{"magFilter": 9729, "minFilter": 9987}], "images": [{"uri": "textures/AC_01_tex_baseColor.png"}], "textures": [{"sampler": 0, "source": 0}], "materials": [{"doubleSided": true, "name": "AC_01_tex", "pbrMetallicRoughness": {"baseColorTexture": {"index": 0}, "metallicFactor": 0, "roughnessFactor": 0.6000000238418579}}], "meshes": [{"primitives": [{"attributes": {"POSITION": 1, "NORMAL": 2, "TEXCOORD_0": 3}, "indices": 0, "material": 0}]}], "scene": 0, "scenes": [{"name": "Scene", "nodes": [0]}]}