{"asset": {"generator": "Khronos glTF Blender I/O v1.5.17", "version": "2.0"}, "nodes": [{"mesh": 0, "name": "Plants_Schrubs_01_geo_002_Schrub_01_tex_0"}], "buffers": [{"byteLength": 240, "uri": "FlatShack64.bin"}], "bufferViews": [{"buffer": 0, "byteLength": 24, "byteOffset": 0}, {"buffer": 0, "byteLength": 72, "byteOffset": 32}, {"buffer": 0, "byteLength": 72, "byteOffset": 112}, {"buffer": 0, "byteLength": 48, "byteOffset": 192}], "accessors": [{"bufferView": 0, "componentType": 5123, "count": 12, "type": "SCALAR", "byteOffset": 0}, {"bufferView": 1, "componentType": 5126, "count": 6, "max": [2.7250382900238037, 2.310184955596924, -5.054511070251465], "min": [2.4245402812957764, 1.836113452911377, -5.270700454711914], "type": "VEC3", "byteOffset": 0}, {"bufferView": 2, "componentType": 5126, "count": 6, "type": "VEC3", "byteOffset": 0}, {"bufferView": 3, "componentType": 5126, "count": 6, "type": "VEC2", "byteOffset": 0}], "samplers": [{"magFilter": 9729, "minFilter": 9987}], "images": [{"uri": "textures/swamp_bush_01_tex_baseColor.png"}], "textures": [{"sampler": 0, "source": 0}], "materials": [{"alphaMode": "BLEND", "doubleSided": true, "name": "swamp_bush_01_tex", "pbrMetallicRoughness": {"baseColorTexture": {"index": 0}, "metallicFactor": 0, "roughnessFactor": 0.6000000238418579}}], "meshes": [{"primitives": [{"attributes": {"POSITION": 1, "NORMAL": 2, "TEXCOORD_0": 3}, "indices": 0, "material": 0}]}], "scene": 0, "scenes": [{"name": "Scene", "nodes": [0]}]}