{"asset": {"generator": "Khronos glTF Blender I/O v1.5.17", "version": "2.0"}, "nodes": [{"mesh": 0, "name": "prop_box_geo_007_Cardboard_tex_0"}], "buffers": [{"byteLength": 111712, "uri": "FlatShack398.bin"}], "bufferViews": [{"buffer": 0, "byteLength": 10008, "byteOffset": 0}, {"buffer": 0, "byteLength": 30504, "byteOffset": 10016}, {"buffer": 0, "byteLength": 30504, "byteOffset": 40528}, {"buffer": 0, "byteLength": 20336, "byteOffset": 71040}, {"buffer": 0, "byteLength": 20336, "byteOffset": 91376}], "accessors": [{"bufferView": 0, "componentType": 5123, "count": 5004, "type": "SCALAR", "byteOffset": 0}, {"bufferView": 1, "componentType": 5126, "count": 2542, "max": [3.929413318634033, 3.703934907913208, 7.29095983505249], "min": [-1.220150351524353, 1.4197890758514404, 4.403581142425537], "type": "VEC3", "byteOffset": 0}, {"bufferView": 2, "componentType": 5126, "count": 2542, "type": "VEC3", "byteOffset": 0}, {"bufferView": 3, "componentType": 5126, "count": 2542, "type": "VEC2", "byteOffset": 0}, {"bufferView": 4, "componentType": 5126, "count": 2542, "type": "VEC2", "byteOffset": 0}], "samplers": [{"magFilter": 9729, "minFilter": 9987}], "images": [{"uri": "textures/Boat_main_tex_baseColor.png"}], "textures": [{"sampler": 0, "source": 0}], "materials": [{"doubleSided": true, "name": "Boat_main_tex", "pbrMetallicRoughness": {"baseColorTexture": {"index": 0}, "metallicFactor": 0, "roughnessFactor": 0.6000000238418579}}], "meshes": [{"primitives": [{"attributes": {"POSITION": 1, "NORMAL": 2, "TEXCOORD_0": 3, "TEXCOORD_1": 4}, "indices": 0, "material": 0}]}], "scene": 0, "scenes": [{"name": "Scene", "nodes": [0]}]}