{"asset": {"generator": "Khronos glTF Blender I/O v1.5.17", "version": "2.0"}, "nodes": [{"mesh": 0, "name": "prop_box_geo_021_Cardboard_tex_0"}], "buffers": [{"byteLength": 8912, "uri": "FlatShack412.bin"}], "bufferViews": [{"buffer": 0, "byteLength": 846, "byteOffset": 0}, {"buffer": 0, "byteLength": 3012, "byteOffset": 848}, {"buffer": 0, "byteLength": 3012, "byteOffset": 3872}, {"buffer": 0, "byteLength": 2008, "byteOffset": 6896}], "accessors": [{"bufferView": 0, "componentType": 5123, "count": 423, "type": "SCALAR", "byteOffset": 0}, {"bufferView": 1, "componentType": 5126, "count": 251, "max": [-3.6527769565582275, 10.89344596862793, 11.052854537963867], "min": [-13.274852752685547, 6.865253925323486, -1.5464935302734375], "type": "VEC3", "byteOffset": 0}, {"bufferView": 2, "componentType": 5126, "count": 251, "type": "VEC3", "byteOffset": 0}, {"bufferView": 3, "componentType": 5126, "count": 251, "type": "VEC2", "byteOffset": 0}], "samplers": [{"magFilter": 9729, "minFilter": 9987}], "images": [{"uri": "textures/Metal_roofplates_01_tex_baseColor.jpg"}], "textures": [{"sampler": 0, "source": 0}], "materials": [{"doubleSided": true, "name": "Metal_roofplates_01_tex", "pbrMetallicRoughness": {"baseColorTexture": {"index": 0}, "metallicFactor": 0, "roughnessFactor": 0.6462084054946899}}], "meshes": [{"primitives": [{"attributes": {"POSITION": 1, "NORMAL": 2, "TEXCOORD_0": 3}, "indices": 0, "material": 0}]}], "scene": 0, "scenes": [{"name": "Scene", "nodes": [0]}]}