{"asset": {"generator": "Khronos glTF Blender I/O v1.5.17", "version": "2.0"}, "nodes": [{"mesh": 0, "name": "prop_electricalpole_geo_001_treebark_01_tex_0"}], "buffers": [{"byteLength": 5584, "uri": "FlatShack421.bin"}], "bufferViews": [{"buffer": 0, "byteLength": 1152, "byteOffset": 0}, {"buffer": 0, "byteLength": 1656, "byteOffset": 1152}, {"buffer": 0, "byteLength": 1656, "byteOffset": 2816}, {"buffer": 0, "byteLength": 1104, "byteOffset": 4480}], "accessors": [{"bufferView": 0, "componentType": 5123, "count": 576, "type": "SCALAR", "byteOffset": 0}, {"bufferView": 1, "componentType": 5126, "count": 138, "max": [-1.0967075824737549, 3.3031201362609863, 9.974363327026367], "min": [-2.925760507583618, 0.8949728012084961, 6.826419353485107], "type": "VEC3", "byteOffset": 0}, {"bufferView": 2, "componentType": 5126, "count": 138, "type": "VEC3", "byteOffset": 0}, {"bufferView": 3, "componentType": 5126, "count": 138, "type": "VEC2", "byteOffset": 0}], "samplers": [{"magFilter": 9729, "minFilter": 9987}], "images": [{"uri": "textures/Rock_01_tex_baseColor.png"}], "textures": [{"sampler": 0, "source": 0}], "materials": [{"doubleSided": true, "name": "Rock_01_tex", "pbrMetallicRoughness": {"baseColorTexture": {"index": 0}, "metallicFactor": 0, "roughnessFactor": 0.6000000238418579}}], "meshes": [{"primitives": [{"attributes": {"POSITION": 1, "NORMAL": 2, "TEXCOORD_0": 3}, "indices": 0, "material": 0}]}], "scene": 0, "scenes": [{"name": "Scene", "nodes": [0]}]}