{"asset": {"generator": "Khronos glTF Blender I/O v1.5.17", "version": "2.0"}, "nodes": [{"mesh": 0, "name": "prop_Log_geo_009_bark_log_01_tx_0.001"}], "buffers": [{"byteLength": 78784, "uri": "FlatShack267.bin"}], "bufferViews": [{"buffer": 0, "byteLength": 17004, "byteOffset": 0}, {"buffer": 0, "byteLength": 23160, "byteOffset": 17008}, {"buffer": 0, "byteLength": 23160, "byteOffset": 40176}, {"buffer": 0, "byteLength": 15440, "byteOffset": 63344}], "accessors": [{"bufferView": 0, "componentType": 5123, "count": 8502, "type": "SCALAR", "byteOffset": 0}, {"bufferView": 1, "componentType": 5126, "count": 1930, "max": [-5.439662933349609, 9.553620338439941, 0.2736819088459015], "min": [-6.047570705413818, 6.898785591125488, -0.23432445526123047], "type": "VEC3", "byteOffset": 0}, {"bufferView": 2, "componentType": 5126, "count": 1930, "type": "VEC3", "byteOffset": 0}, {"bufferView": 3, "componentType": 5126, "count": 1930, "type": "VEC2", "byteOffset": 0}], "samplers": [{"magFilter": 9729, "minFilter": 9987}], "images": [{"uri": "textures/tv_satelite_Tex_baseColor.png"}], "textures": [{"sampler": 0, "source": 0}], "materials": [{"doubleSided": true, "name": "tv_satelite_Tex", "pbrMetallicRoughness": {"baseColorTexture": {"index": 0}, "metallicFactor": 0, "roughnessFactor": 0.29355835914611816}}], "meshes": [{"primitives": [{"attributes": {"POSITION": 1, "NORMAL": 2, "TEXCOORD_0": 3}, "indices": 0, "material": 0}]}], "scene": 0, "scenes": [{"name": "Scene", "nodes": [0]}]}