{"asset": {"generator": "Khronos glTF Blender I/O v1.5.17", "version": "2.0"}, "nodes": [{"mesh": 0, "name": "Swamp_Bush_geo_027_swamp_bush_01_tex_0"}], "buffers": [{"byteLength": 352, "uri": "FlatShack108.bin"}], "bufferViews": [{"buffer": 0, "byteLength": 48, "byteOffset": 0}, {"buffer": 0, "byteLength": 108, "byteOffset": 48}, {"buffer": 0, "byteLength": 108, "byteOffset": 160}, {"buffer": 0, "byteLength": 72, "byteOffset": 272}], "accessors": [{"bufferView": 0, "componentType": 5123, "count": 24, "type": "SCALAR", "byteOffset": 0}, {"bufferView": 1, "componentType": 5126, "count": 9, "max": [-12.164892196655273, 2.4277617931365967, -0.8085410594940186], "min": [-12.785850524902344, 1.6552259922027588, -1.209554672241211], "type": "VEC3", "byteOffset": 0}, {"bufferView": 2, "componentType": 5126, "count": 9, "type": "VEC3", "byteOffset": 0}, {"bufferView": 3, "componentType": 5126, "count": 9, "type": "VEC2", "byteOffset": 0}], "samplers": [{"magFilter": 9729, "minFilter": 9987}], "images": [{"uri": "textures/swamp_bush_01_tex_baseColor.png"}], "textures": [{"sampler": 0, "source": 0}], "materials": [{"alphaMode": "BLEND", "doubleSided": true, "name": "swamp_bush_01_tex", "pbrMetallicRoughness": {"baseColorTexture": {"index": 0}, "metallicFactor": 0, "roughnessFactor": 0.6000000238418579}}], "meshes": [{"primitives": [{"attributes": {"POSITION": 1, "NORMAL": 2, "TEXCOORD_0": 3}, "indices": 0, "material": 0}]}], "scene": 0, "scenes": [{"name": "Scene", "nodes": [0]}]}