{"asset": {"generator": "Khronos glTF Blender I/O v1.5.17", "version": "2.0"}, "nodes": [{"mesh": 0, "name": "prop_rock_geo_008_Rock_01_tex_0"}], "buffers": [{"byteLength": 224, "uri": "FlatShack383.bin"}], "bufferViews": [{"buffer": 0, "byteLength": 12, "byteOffset": 0}, {"buffer": 0, "byteLength": 72, "byteOffset": 16}, {"buffer": 0, "byteLength": 72, "byteOffset": 96}, {"buffer": 0, "byteLength": 48, "byteOffset": 176}], "accessors": [{"bufferView": 0, "componentType": 5123, "count": 6, "type": "SCALAR", "byteOffset": 0}, {"bufferView": 1, "componentType": 5126, "count": 6, "max": [-12.16169548034668, 9.802214622497559, 4.682211875915527], "min": [-12.332887649536133, 8.6947021484375, 4.0087714195251465], "type": "VEC3", "byteOffset": 0}, {"bufferView": 2, "componentType": 5126, "count": 6, "type": "VEC3", "byteOffset": 0}, {"bufferView": 3, "componentType": 5126, "count": 6, "type": "VEC2", "byteOffset": 0}], "samplers": [{"magFilter": 9729, "minFilter": 9987}], "images": [{"uri": "textures/Mesh_01_tex_baseColor.png"}], "textures": [{"sampler": 0, "source": 0}], "materials": [{"alphaMode": "BLEND", "doubleSided": true, "name": "Mesh_01_tex", "pbrMetallicRoughness": {"baseColorTexture": {"index": 0}, "metallicFactor": 0, "roughnessFactor": 0.6000000238418579}}], "meshes": [{"primitives": [{"attributes": {"POSITION": 1, "NORMAL": 2, "TEXCOORD_0": 3}, "indices": 0, "material": 0}]}], "scene": 0, "scenes": [{"name": "Scene", "nodes": [0]}]}