{"asset": {"generator": "Khronos glTF Blender I/O v1.5.17", "version": "2.0"}, "nodes": [{"mesh": 0, "name": "Ground_geo_001_Ground_moss_01_tex_0"}], "buffers": [{"byteLength": 63344, "uri": "FlatShack0.bin"}], "bufferViews": [{"buffer": 0, "byteLength": 6888, "byteOffset": 0}, {"buffer": 0, "byteLength": 21168, "byteOffset": 6896}, {"buffer": 0, "byteLength": 21168, "byteOffset": 28064}, {"buffer": 0, "byteLength": 14112, "byteOffset": 49232}], "accessors": [{"bufferView": 0, "componentType": 5123, "count": 3444, "type": "SCALAR", "byteOffset": 0}, {"bufferView": 1, "componentType": 5126, "count": 1764, "max": [-3.3632893562316895, 7.0537309646606445, -6.5753984451293945], "min": [-4.663087368011475, 4.672718048095703, -8.340755462646484], "type": "VEC3", "byteOffset": 0}, {"bufferView": 2, "componentType": 5126, "count": 1764, "type": "VEC3", "byteOffset": 0}, {"bufferView": 3, "componentType": 5126, "count": 1764, "type": "VEC2", "byteOffset": 0}], "samplers": [{"magFilter": 9729, "minFilter": 9987}], "images": [{"uri": "textures/Satelite_frame_03_tex_baseColor.png"}], "textures": [{"sampler": 0, "source": 0}], "materials": [{"doubleSided": true, "name": "Satelite_frame_03_tex", "pbrMetallicRoughness": {"baseColorTexture": {"index": 0}, "metallicFactor": 0, "roughnessFactor": 0.6000000238418579}}], "meshes": [{"primitives": [{"attributes": {"POSITION": 1, "NORMAL": 2, "TEXCOORD_0": 3}, "indices": 0, "material": 0}]}], "scene": 0, "scenes": [{"name": "Scene", "nodes": [0]}]}