{"asset": {"generator": "Khronos glTF Blender I/O v1.5.17", "version": "2.0"}, "nodes": [{"mesh": 0, "name": "prop_Log_geo_009_bark_log_01_tx_0"}], "buffers": [{"byteLength": 313024, "uri": "FlatShack168.bin"}], "bufferViews": [{"buffer": 0, "byteLength": 44808, "byteOffset": 0}, {"buffer": 0, "byteLength": 100572, "byteOffset": 44816}, {"buffer": 0, "byteLength": 100572, "byteOffset": 145392}, {"buffer": 0, "byteLength": 67048, "byteOffset": 245968}], "accessors": [{"bufferView": 0, "componentType": 5123, "count": 22404, "type": "SCALAR", "byteOffset": 0}, {"bufferView": 1, "componentType": 5126, "count": 8381, "max": [-8.218469619750977, 13.298022270202637, 3.59173846244812], "min": [-12.622483253479004, 0.8087989091873169, -3.7709031105041504], "type": "VEC3", "byteOffset": 0}, {"bufferView": 2, "componentType": 5126, "count": 8381, "type": "VEC3", "byteOffset": 0}, {"bufferView": 3, "componentType": 5126, "count": 8381, "type": "VEC2", "byteOffset": 0}], "samplers": [{"magFilter": 9729, "minFilter": 9987}], "images": [{"uri": "textures/Parts_electricalpoll_01_tex_baseColor.png"}], "textures": [{"sampler": 0, "source": 0}], "materials": [{"doubleSided": true, "name": "Parts_electricalpoll_01_tex", "pbrMetallicRoughness": {"baseColorTexture": {"index": 0}, "metallicFactor": 0, "roughnessFactor": 0.46988338232040405}}], "meshes": [{"primitives": [{"attributes": {"POSITION": 1, "NORMAL": 2, "TEXCOORD_0": 3}, "indices": 0, "material": 0}]}], "scene": 0, "scenes": [{"name": "Scene", "nodes": [0]}]}