{"asset": {"generator": "Khronos glTF Blender I/O v1.5.17", "version": "2.0"}, "nodes": [{"mesh": 0, "name": "prop_rock_geo_015_Rock_01_tex_0"}], "buffers": [{"byteLength": 3952, "uri": "FlatShack390.bin"}], "bufferViews": [{"buffer": 0, "byteLength": 288, "byteOffset": 0}, {"buffer": 0, "byteLength": 1368, "byteOffset": 288}, {"buffer": 0, "byteLength": 1368, "byteOffset": 1664}, {"buffer": 0, "byteLength": 912, "byteOffset": 3040}], "accessors": [{"bufferView": 0, "componentType": 5123, "count": 144, "type": "SCALAR", "byteOffset": 0}, {"bufferView": 1, "componentType": 5126, "count": 114, "max": [-9.800873756408691, 17.90515899658203, 10.48271369934082], "min": [-11.697646141052246, 16.054229736328125, 6.9944305419921875], "type": "VEC3", "byteOffset": 0}, {"bufferView": 2, "componentType": 5126, "count": 114, "type": "VEC3", "byteOffset": 0}, {"bufferView": 3, "componentType": 5126, "count": 114, "type": "VEC2", "byteOffset": 0}], "samplers": [{"magFilter": 9729, "minFilter": 9987}], "materials": [{"doubleSided": true, "name": "Default_Material", "pbrMetallicRoughness": {"baseColorFactor": [0.5, 0.5, 0.5, 1], "metallicFactor": 0, "roughnessFactor": 0.6000000238418579}}], "meshes": [{"primitives": [{"attributes": {"POSITION": 1, "NORMAL": 2, "TEXCOORD_0": 3}, "indices": 0, "material": 0}]}], "scene": 0, "scenes": [{"name": "Scene", "nodes": [0]}]}