{"asset": {"generator": "Khronos glTF Blender I/O v1.5.17", "version": "2.0"}, "nodes": [{"mesh": 0, "name": "Swamp_Bush_geo_065_swamp_bush_01_tex_0"}], "buffers": [{"byteLength": 62496, "uri": "FlatShack146.bin"}], "bufferViews": [{"buffer": 0, "byteLength": 13974, "byteOffset": 0}, {"buffer": 0, "byteLength": 18192, "byteOffset": 13984}, {"buffer": 0, "byteLength": 18192, "byteOffset": 32176}, {"buffer": 0, "byteLength": 12128, "byteOffset": 50368}], "accessors": [{"bufferView": 0, "componentType": 5123, "count": 6987, "type": "SCALAR", "byteOffset": 0}, {"bufferView": 1, "componentType": 5126, "count": 1516, "max": [3.042161464691162, 8.893370628356934, 2.378384590148926], "min": [-0.2982311248779297, 1.8781205415725708, -2.4579885005950928], "type": "VEC3", "byteOffset": 0}, {"bufferView": 2, "componentType": 5126, "count": 1516, "type": "VEC3", "byteOffset": 0}, {"bufferView": 3, "componentType": 5126, "count": 1516, "type": "VEC2", "byteOffset": 0}], "samplers": [{"magFilter": 9729, "minFilter": 9987}], "images": [{"uri": "textures/Tree_01_tex_baseColor.png"}], "textures": [{"sampler": 0, "source": 0}], "materials": [{"doubleSided": true, "name": "Tree_01_tex", "pbrMetallicRoughness": {"baseColorTexture": {"index": 0}, "metallicFactor": 0, "roughnessFactor": 0.6000000238418579}}], "meshes": [{"primitives": [{"attributes": {"POSITION": 1, "NORMAL": 2, "TEXCOORD_0": 3}, "indices": 0, "material": 0}]}], "scene": 0, "scenes": [{"name": "Scene", "nodes": [0]}]}