{"asset": {"generator": "Khronos glTF Blender I/O v1.5.17", "version": "2.0"}, "nodes": [{"mesh": 0, "name": "prop_box_geo_017_Cardboard_tex_0"}], "buffers": [{"byteLength": 70448, "uri": "FlatShack408.bin"}], "bufferViews": [{"buffer": 0, "byteLength": 11952, "byteOffset": 0}, {"buffer": 0, "byteLength": 21936, "byteOffset": 11952}, {"buffer": 0, "byteLength": 21936, "byteOffset": 33888}, {"buffer": 0, "byteLength": 14624, "byteOffset": 55824}], "accessors": [{"bufferView": 0, "componentType": 5123, "count": 5976, "type": "SCALAR", "byteOffset": 0}, {"bufferView": 1, "componentType": 5126, "count": 1828, "max": [6.287738800048828, 14.34279727935791, 12.554198265075684], "min": [-2.7140212059020996, 1.324695110321045, 2.563044548034668], "type": "VEC3", "byteOffset": 0}, {"bufferView": 2, "componentType": 5126, "count": 1828, "type": "VEC3", "byteOffset": 0}, {"bufferView": 3, "componentType": 5126, "count": 1828, "type": "VEC2", "byteOffset": 0}], "samplers": [{"magFilter": 9729, "minFilter": 9987}], "images": [{"uri": "textures/SpanishMoss_01_tex_baseColor.png"}], "textures": [{"sampler": 0, "source": 0}], "materials": [{"alphaMode": "BLEND", "doubleSided": true, "name": "SpanishMoss_01_tex", "pbrMetallicRoughness": {"baseColorTexture": {"index": 0}, "metallicFactor": 0, "roughnessFactor": 0.6000000238418579}}], "meshes": [{"primitives": [{"attributes": {"POSITION": 1, "NORMAL": 2, "TEXCOORD_0": 3}, "indices": 0, "material": 0}]}], "scene": 0, "scenes": [{"name": "Scene", "nodes": [0]}]}