{"asset": {"generator": "Khronos glTF Blender I/O v1.5.17", "version": "2.0"}, "nodes": [{"mesh": 0, "name": "Vehicle_ChevyNova_01_geo_ChevyNova_01_tex_0"}], "buffers": [{"byteLength": 15344, "uri": "FlatShack31.bin"}], "bufferViews": [{"buffer": 0, "byteLength": 2280, "byteOffset": 0}, {"buffer": 0, "byteLength": 4896, "byteOffset": 2288}, {"buffer": 0, "byteLength": 4896, "byteOffset": 7184}, {"buffer": 0, "byteLength": 3264, "byteOffset": 12080}], "accessors": [{"bufferView": 0, "componentType": 5123, "count": 1140, "type": "SCALAR", "byteOffset": 0}, {"bufferView": 1, "componentType": 5126, "count": 408, "max": [-4.134433269500732, 6.044388294219971, -2.0945053100585938], "min": [-4.204724311828613, 5.927519798278809, -2.164796829223633], "type": "VEC3", "byteOffset": 0}, {"bufferView": 2, "componentType": 5126, "count": 408, "type": "VEC3", "byteOffset": 0}, {"bufferView": 3, "componentType": 5126, "count": 408, "type": "VEC2", "byteOffset": 0}], "samplers": [{"magFilter": 9729, "minFilter": 9987}], "images": [{"uri": "textures/Can_Bud_tex_baseColor.png"}], "textures": [{"sampler": 0, "source": 0}], "materials": [{"doubleSided": true, "name": "Can_Bud_tex", "pbrMetallicRoughness": {"baseColorTexture": {"index": 0}, "metallicFactor": 0, "roughnessFactor": 0.6000000238418579}}], "meshes": [{"primitives": [{"attributes": {"POSITION": 1, "NORMAL": 2, "TEXCOORD_0": 3}, "indices": 0, "material": 0}]}], "scene": 0, "scenes": [{"name": "Scene", "nodes": [0]}]}