{"asset": {"generator": "Khronos glTF Blender I/O v1.5.17", "version": "2.0"}, "nodes": [{"mesh": 0, "name": "prop_box_geo_001_Cardboard_tex_0"}], "buffers": [{"byteLength": 7616, "uri": "FlatShack394.bin"}], "bufferViews": [{"buffer": 0, "byteLength": 1728, "byteOffset": 0}, {"buffer": 0, "byteLength": 2208, "byteOffset": 1728}, {"buffer": 0, "byteLength": 2208, "byteOffset": 3936}, {"buffer": 0, "byteLength": 1472, "byteOffset": 6144}], "accessors": [{"bufferView": 0, "componentType": 5123, "count": 864, "type": "SCALAR", "byteOffset": 0}, {"bufferView": 1, "componentType": 5126, "count": 184, "max": [-5.772292137145996, 5.543091297149658, 0.15745557844638824], "min": [-6.320217132568359, 4.897035598754883, -0.39323025941848755], "type": "VEC3", "byteOffset": 0}, {"bufferView": 2, "componentType": 5126, "count": 184, "type": "VEC3", "byteOffset": 0}, {"bufferView": 3, "componentType": 5126, "count": 184, "type": "VEC2", "byteOffset": 0}], "samplers": [{"magFilter": 9729, "minFilter": 9987}], "images": [{"uri": "textures/Garbage_01_tex_baseColor.png"}], "textures": [{"sampler": 0, "source": 0}], "materials": [{"doubleSided": true, "name": "Garbage_01_tex", "pbrMetallicRoughness": {"baseColorTexture": {"index": 0}, "metallicFactor": 0, "roughnessFactor": 0.19019541144371033}}], "meshes": [{"primitives": [{"attributes": {"POSITION": 1, "NORMAL": 2, "TEXCOORD_0": 3}, "indices": 0, "material": 0}]}], "scene": 0, "scenes": [{"name": "Scene", "nodes": [0]}]}