{"asset": {"generator": "Khronos glTF Blender I/O v1.5.17", "version": "2.0"}, "nodes": [{"mesh": 0, "name": "prop_Log_geo_016_bark_log_01_tx_0"}], "buffers": [{"byteLength": 2320, "uri": "FlatShack175.bin"}], "bufferViews": [{"buffer": 0, "byteLength": 144, "byteOffset": 0}, {"buffer": 0, "byteLength": 816, "byteOffset": 144}, {"buffer": 0, "byteLength": 816, "byteOffset": 960}, {"buffer": 0, "byteLength": 544, "byteOffset": 1776}], "accessors": [{"bufferView": 0, "componentType": 5123, "count": 72, "type": "SCALAR", "byteOffset": 0}, {"bufferView": 1, "componentType": 5126, "count": 68, "max": [9.865222930908203, 1.5634536743164062, 10.122906684875488], "min": [-12.8075590133667, -0.5815902352333069, -10.141215324401855], "type": "VEC3", "byteOffset": 0}, {"bufferView": 2, "componentType": 5126, "count": 68, "type": "VEC3", "byteOffset": 0}, {"bufferView": 3, "componentType": 5126, "count": 68, "type": "VEC2", "byteOffset": 0}], "samplers": [{"magFilter": 9729, "minFilter": 9987}], "materials": [{"alphaMode": "BLEND", "doubleSided": true, "name": "Water_swamp_01_tex", "pbrMetallicRoughness": {"baseColorFactor": [1, 1, 1, 0.2631574869155884], "metallicFactor": 0, "roughnessFactor": 0.3117988705635071}}], "meshes": [{"primitives": [{"attributes": {"POSITION": 1, "NORMAL": 2, "TEXCOORD_0": 3}, "indices": 0, "material": 0}]}], "scene": 0, "scenes": [{"name": "Scene", "nodes": [0]}]}