{"asset": {"generator": "Khronos glTF Blender I/O v1.5.17", "version": "2.0"}, "nodes": [{"mesh": 0, "name": "prop_Log_geo_086_bark_log_01_tx_0"}], "buffers": [{"byteLength": 6560, "uri": "FlatShack241.bin"}], "bufferViews": [{"buffer": 0, "byteLength": 672, "byteOffset": 0}, {"buffer": 0, "byteLength": 2208, "byteOffset": 672}, {"buffer": 0, "byteLength": 2208, "byteOffset": 2880}, {"buffer": 0, "byteLength": 1472, "byteOffset": 5088}], "accessors": [{"bufferView": 0, "componentType": 5123, "count": 336, "type": "SCALAR", "byteOffset": 0}, {"bufferView": 1, "componentType": 5126, "count": 184, "max": [-13.175637245178223, 5.344693183898926, 0.8233901858329773], "min": [-13.850317001342773, 4.9877142906188965, 0.2636258006095886], "type": "VEC3", "byteOffset": 0}, {"bufferView": 2, "componentType": 5126, "count": 184, "type": "VEC3", "byteOffset": 0}, {"bufferView": 3, "componentType": 5126, "count": 184, "type": "VEC2", "byteOffset": 0}], "samplers": [{"magFilter": 9729, "minFilter": 9987}], "images": [{"uri": "textures/Cardboard_tex_baseColor.png"}], "textures": [{"sampler": 0, "source": 0}], "materials": [{"doubleSided": true, "name": "Cardboard_tex", "pbrMetallicRoughness": {"baseColorTexture": {"index": 0}, "metallicFactor": 0, "roughnessFactor": 0.6000000238418579}}], "meshes": [{"primitives": [{"attributes": {"POSITION": 1, "NORMAL": 2, "TEXCOORD_0": 3}, "indices": 0, "material": 0}]}], "scene": 0, "scenes": [{"name": "Scene", "nodes": [0]}]}