{"asset": {"generator": "Khronos glTF Blender I/O v1.5.17", "version": "2.0"}, "nodes": [{"mesh": 0, "name": "prop_Log_geo_078_bark_log_01_tx_0"}], "buffers": [{"byteLength": 13472, "uri": "FlatShack233.bin"}], "bufferViews": [{"buffer": 0, "byteLength": 1944, "byteOffset": 0}, {"buffer": 0, "byteLength": 3456, "byteOffset": 1952}, {"buffer": 0, "byteLength": 3456, "byteOffset": 5408}, {"buffer": 0, "byteLength": 2304, "byteOffset": 8864}, {"buffer": 0, "byteLength": 2304, "byteOffset": 11168}], "accessors": [{"bufferView": 0, "componentType": 5123, "count": 972, "type": "SCALAR", "byteOffset": 0}, {"bufferView": 1, "componentType": 5126, "count": 288, "max": [-12.112520217895508, 3.9368739128112793, 0.5200399160385132], "min": [-12.49089527130127, 1.9522745609283447, 0.1370454728603363], "type": "VEC3", "byteOffset": 0}, {"bufferView": 2, "componentType": 5126, "count": 288, "type": "VEC3", "byteOffset": 0}, {"bufferView": 3, "componentType": 5126, "count": 288, "type": "VEC2", "byteOffset": 0}, {"bufferView": 4, "componentType": 5123, "count": 288, "normalized": true, "type": "VEC4", "byteOffset": 0}], "samplers": [{"magFilter": 9729, "minFilter": 9987}], "images": [{"uri": "textures/Leather_01_tex_baseColor.png"}], "textures": [{"sampler": 0, "source": 0}], "materials": [{"doubleSided": true, "name": "Leather_01_tex", "pbrMetallicRoughness": {"baseColorTexture": {"index": 0}, "metallicFactor": 0, "roughnessFactor": 0.6887696385383606}}], "meshes": [{"primitives": [{"attributes": {"POSITION": 1, "NORMAL": 2, "TEXCOORD_0": 3, "COLOR_0": 1551}, "indices": 0, "material": 0}]}], "scene": 0, "scenes": [{"name": "Scene", "nodes": [0]}]}