{"asset": {"generator": "Khronos glTF Blender I/O v1.5.17", "version": "2.0"}, "nodes": [{"mesh": 0, "name": "prop_Log_geo_088_bark_log_01_tx_0"}], "buffers": [{"byteLength": 8096, "uri": "FlatShack243.bin"}], "bufferViews": [{"buffer": 0, "byteLength": 672, "byteOffset": 0}, {"buffer": 0, "byteLength": 2784, "byteOffset": 672}, {"buffer": 0, "byteLength": 2784, "byteOffset": 3456}, {"buffer": 0, "byteLength": 1856, "byteOffset": 6240}], "accessors": [{"bufferView": 0, "componentType": 5123, "count": 336, "type": "SCALAR", "byteOffset": 0}, {"bufferView": 1, "componentType": 5126, "count": 232, "max": [-7.426316261291504, 2.6726531982421875, -0.06987586617469788], "min": [-7.73276948928833, 2.261840581893921, -0.36014172434806824], "type": "VEC3", "byteOffset": 0}, {"bufferView": 2, "componentType": 5126, "count": 232, "type": "VEC3", "byteOffset": 0}, {"bufferView": 3, "componentType": 5126, "count": 232, "type": "VEC2", "byteOffset": 0}], "samplers": [{"magFilter": 9729, "minFilter": 9987}], "images": [{"uri": "textures/Cardboard_tex_baseColor.png"}], "textures": [{"sampler": 0, "source": 0}], "materials": [{"doubleSided": true, "name": "Cardboard_tex", "pbrMetallicRoughness": {"baseColorTexture": {"index": 0}, "metallicFactor": 0, "roughnessFactor": 0.6000000238418579}}], "meshes": [{"primitives": [{"attributes": {"POSITION": 1, "NORMAL": 2, "TEXCOORD_0": 3}, "indices": 0, "material": 0}]}], "scene": 0, "scenes": [{"name": "Scene", "nodes": [0]}]}