{"asset": {"generator": "Khronos glTF Blender I/O v1.5.17", "version": "2.0"}, "nodes": [{"mesh": 0, "name": "prop_Oak_leaves_geo_002_SpanishMoss_01_tex_0"}], "buffers": [{"byteLength": 20752, "uri": "FlatShack43.bin"}], "bufferViews": [{"buffer": 0, "byteLength": 2520, "byteOffset": 0}, {"buffer": 0, "byteLength": 6828, "byteOffset": 2528}, {"buffer": 0, "byteLength": 6828, "byteOffset": 9360}, {"buffer": 0, "byteLength": 4552, "byteOffset": 16192}], "accessors": [{"bufferView": 0, "componentType": 5123, "count": 1260, "type": "SCALAR", "byteOffset": 0}, {"bufferView": 1, "componentType": 5126, "count": 569, "max": [6.219030380249023, 2.7098965644836426, -8.666001319885254], "min": [5.915472030639648, 2.3048746585845947, -8.969558715820312], "type": "VEC3", "byteOffset": 0}, {"bufferView": 2, "componentType": 5126, "count": 569, "type": "VEC3", "byteOffset": 0}, {"bufferView": 3, "componentType": 5126, "count": 569, "type": "VEC2", "byteOffset": 0}], "samplers": [{"magFilter": 9729, "minFilter": 9987}], "images": [{"uri": "textures/Gastank_01_tex1_baseColor.png"}], "textures": [{"sampler": 0, "source": 0}], "materials": [{"doubleSided": true, "name": "Gastank_01_tex1", "pbrMetallicRoughness": {"baseColorTexture": {"index": 0}, "metallicFactor": 0, "roughnessFactor": 0.6000000238418579}}], "meshes": [{"primitives": [{"attributes": {"POSITION": 1, "NORMAL": 2, "TEXCOORD_0": 3}, "indices": 0, "material": 0}]}], "scene": 0, "scenes": [{"name": "Scene", "nodes": [0]}]}