{"asset": {"generator": "Khronos glTF Blender I/O v1.5.17", "version": "2.0"}, "nodes": [{"mesh": 0, "name": "Swamp_Bush_geo_051_swamp_bush_01_tex_0"}], "buffers": [{"byteLength": 144, "uri": "FlatShack132.bin"}], "bufferViews": [{"buffer": 0, "byteLength": 12, "byteOffset": 0}, {"buffer": 0, "byteLength": 48, "byteOffset": 16}, {"buffer": 0, "byteLength": 48, "byteOffset": 64}, {"buffer": 0, "byteLength": 32, "byteOffset": 112}], "accessors": [{"bufferView": 0, "componentType": 5123, "count": 6, "type": "SCALAR", "byteOffset": 0}, {"bufferView": 1, "componentType": 5126, "count": 4, "max": [-5.964301109313965, 9.491758346557617, 0.6446282863616943], "min": [-7.2601399421691895, 7.862356185913086, -1.560457706451416], "type": "VEC3", "byteOffset": 0}, {"bufferView": 2, "componentType": 5126, "count": 4, "type": "VEC3", "byteOffset": 0}, {"bufferView": 3, "componentType": 5126, "count": 4, "type": "VEC2", "byteOffset": 0}], "samplers": [{"magFilter": 9729, "minFilter": 9987}], "images": [{"uri": "textures/Wooden_beams_01_Roof_baseColor.jpg"}], "textures": [{"sampler": 0, "source": 0}], "materials": [{"doubleSided": true, "name": "Wooden_beams_01_Roof", "pbrMetallicRoughness": {"baseColorTexture": {"index": 0}, "metallicFactor": 0, "roughnessFactor": 0.6000000238418579}}], "meshes": [{"primitives": [{"attributes": {"POSITION": 1, "NORMAL": 2, "TEXCOORD_0": 3}, "indices": 0, "material": 0}]}], "scene": 0, "scenes": [{"name": "Scene", "nodes": [0]}]}