{"asset": {"generator": "Khronos glTF Blender I/O v1.5.17", "version": "2.0"}, "nodes": [{"mesh": 0, "name": "prop_Log_geo_096_bark_log_01_tx_0"}], "buffers": [{"byteLength": 11872, "uri": "FlatShack251.bin"}], "bufferViews": [{"buffer": 0, "byteLength": 1884, "byteOffset": 0}, {"buffer": 0, "byteLength": 3744, "byteOffset": 1888}, {"buffer": 0, "byteLength": 3744, "byteOffset": 5632}, {"buffer": 0, "byteLength": 2496, "byteOffset": 9376}], "accessors": [{"bufferView": 0, "componentType": 5123, "count": 942, "type": "SCALAR", "byteOffset": 0}, {"bufferView": 1, "componentType": 5126, "count": 312, "max": [8.163471221923828, 4.563321113586426, 10.149800300598145], "min": [-14.04141616821289, -0.6254478096961975, -10.167319297790527], "type": "VEC3", "byteOffset": 0}, {"bufferView": 2, "componentType": 5126, "count": 312, "type": "VEC3", "byteOffset": 0}, {"bufferView": 3, "componentType": 5126, "count": 312, "type": "VEC2", "byteOffset": 0}], "samplers": [{"magFilter": 9729, "minFilter": 9987}], "images": [{"uri": "textures/Ground_moss_01_tex_baseColor.png"}], "textures": [{"sampler": 0, "source": 0}], "materials": [{"doubleSided": true, "name": "Ground_moss_01_tex", "pbrMetallicRoughness": {"baseColorTexture": {"index": 0}, "metallicFactor": 0}}], "meshes": [{"primitives": [{"attributes": {"POSITION": 1, "NORMAL": 2, "TEXCOORD_0": 3}, "indices": 0, "material": 0}]}], "scene": 0, "scenes": [{"name": "Scene", "nodes": [0]}]}