{"asset": {"generator": "Khronos glTF Blender I/O v1.5.17", "version": "2.0"}, "nodes": [{"mesh": 0, "name": "prop_Tree_birk_geo_001_Tree_01_tex_0"}], "buffers": [{"byteLength": 20832, "uri": "FlatShack36.bin"}], "bufferViews": [{"buffer": 0, "byteLength": 2520, "byteOffset": 0}, {"buffer": 0, "byteLength": 6864, "byteOffset": 2528}, {"buffer": 0, "byteLength": 6864, "byteOffset": 9392}, {"buffer": 0, "byteLength": 4576, "byteOffset": 16256}], "accessors": [{"bufferView": 0, "componentType": 5123, "count": 1260, "type": "SCALAR", "byteOffset": 0}, {"bufferView": 1, "componentType": 5126, "count": 572, "max": [0.47409820556640625, 2.2301952838897705, -6.038463592529297], "min": [0.1740606129169464, 1.8251733779907227, -6.3385009765625], "type": "VEC3", "byteOffset": 0}, {"bufferView": 2, "componentType": 5126, "count": 572, "type": "VEC3", "byteOffset": 0}, {"bufferView": 3, "componentType": 5126, "count": 572, "type": "VEC2", "byteOffset": 0}], "samplers": [{"magFilter": 9729, "minFilter": 9987}], "images": [{"uri": "textures/Gastank_01_tex1_baseColor.png"}], "textures": [{"sampler": 0, "source": 0}], "materials": [{"doubleSided": true, "name": "Gastank_01_tex1", "pbrMetallicRoughness": {"baseColorTexture": {"index": 0}, "metallicFactor": 0, "roughnessFactor": 0.6000000238418579}}], "meshes": [{"primitives": [{"attributes": {"POSITION": 1, "NORMAL": 2, "TEXCOORD_0": 3}, "indices": 0, "material": 0}]}], "scene": 0, "scenes": [{"name": "Scene", "nodes": [0]}]}