{"asset": {"generator": "Khronos glTF Blender I/O v1.5.17", "version": "2.0"}, "nodes": [{"mesh": 0, "name": "prop_Log_geo_093_bark_log_01_tx_0"}], "buffers": [{"byteLength": 5904, "uri": "FlatShack248.bin"}], "bufferViews": [{"buffer": 0, "byteLength": 780, "byteOffset": 0}, {"buffer": 0, "byteLength": 1920, "byteOffset": 784}, {"buffer": 0, "byteLength": 1920, "byteOffset": 2704}, {"buffer": 0, "byteLength": 1280, "byteOffset": 4624}], "accessors": [{"bufferView": 0, "componentType": 5123, "count": 390, "type": "SCALAR", "byteOffset": 0}, {"bufferView": 1, "componentType": 5126, "count": 160, "max": [9.871540069580078, 1.6713881492614746, 10.149800300598145], "min": [0.9245144724845886, -0.6254661679267883, -7.507726669311523], "type": "VEC3", "byteOffset": 0}, {"bufferView": 2, "componentType": 5126, "count": 160, "type": "VEC3", "byteOffset": 0}, {"bufferView": 3, "componentType": 5126, "count": 160, "type": "VEC2", "byteOffset": 0}], "samplers": [{"magFilter": 9729, "minFilter": 9987}], "images": [{"uri": "textures/Ground_water_01_tex_baseColor.png"}], "textures": [{"sampler": 0, "source": 0}], "materials": [{"doubleSided": true, "name": "Ground_water_01_tex", "pbrMetallicRoughness": {"baseColorTexture": {"index": 0}, "metallicFactor": 0, "roughnessFactor": 0.6000000238418579}}], "meshes": [{"primitives": [{"attributes": {"POSITION": 1, "NORMAL": 2, "TEXCOORD_0": 3}, "indices": 0, "material": 0}]}], "scene": 0, "scenes": [{"name": "Scene", "nodes": [0]}]}