{"asset": {"generator": "Khronos glTF Blender I/O v1.5.17", "version": "2.0"}, "nodes": [{"mesh": 0, "name": "Swamp_Bush_geo_012_swamp_bush_01_tex_0"}], "buffers": [{"byteLength": 21376, "uri": "FlatShack93.bin"}], "bufferViews": [{"buffer": 0, "byteLength": 4674, "byteOffset": 0}, {"buffer": 0, "byteLength": 6252, "byteOffset": 4688}, {"buffer": 0, "byteLength": 6252, "byteOffset": 10944}, {"buffer": 0, "byteLength": 4168, "byteOffset": 17200}], "accessors": [{"bufferView": 0, "componentType": 5123, "count": 2337, "type": "SCALAR", "byteOffset": 0}, {"bufferView": 1, "componentType": 5126, "count": 521, "max": [8.92886734008789, 3.4301719665527344, -3.2488858699798584], "min": [6.78367805480957, 0.1593174934387207, -5.913529396057129], "type": "VEC3", "byteOffset": 0}, {"bufferView": 2, "componentType": 5126, "count": 521, "type": "VEC3", "byteOffset": 0}, {"bufferView": 3, "componentType": 5126, "count": 521, "type": "VEC2", "byteOffset": 0}], "samplers": [{"magFilter": 9729, "minFilter": 9987}], "images": [{"uri": "textures/Tree_01_tex_baseColor.png"}], "textures": [{"sampler": 0, "source": 0}], "materials": [{"doubleSided": true, "name": "Tree_01_tex", "pbrMetallicRoughness": {"baseColorTexture": {"index": 0}, "metallicFactor": 0, "roughnessFactor": 0.6000000238418579}}], "meshes": [{"primitives": [{"attributes": {"POSITION": 1, "NORMAL": 2, "TEXCOORD_0": 3}, "indices": 0, "material": 0}]}], "scene": 0, "scenes": [{"name": "Scene", "nodes": [0]}]}