{"asset": {"generator": "Khronos glTF Blender I/O v1.5.17", "version": "2.0"}, "nodes": [{"mesh": 0, "name": "prop_Gasttank_geo_001_Gastank_01_tex1_0"}], "buffers": [{"byteLength": 1680, "uri": "FlatShack422.bin"}], "bufferViews": [{"buffer": 0, "byteLength": 132, "byteOffset": 0}, {"buffer": 0, "byteLength": 564, "byteOffset": 144}, {"buffer": 0, "byteLength": 564, "byteOffset": 720}, {"buffer": 0, "byteLength": 376, "byteOffset": 1296}], "accessors": [{"bufferView": 0, "componentType": 5123, "count": 66, "type": "SCALAR", "byteOffset": 0}, {"bufferView": 1, "componentType": 5126, "count": 47, "max": [-5.738862991333008, 8.38793659210205, 9.995224952697754], "min": [-11.587381362915039, 6.947516918182373, 5.909543991088867], "type": "VEC3", "byteOffset": 0}, {"bufferView": 2, "componentType": 5126, "count": 47, "type": "VEC3", "byteOffset": 0}, {"bufferView": 3, "componentType": 5126, "count": 47, "type": "VEC2", "byteOffset": 0}], "samplers": [{"magFilter": 9729, "minFilter": 9987}], "images": [{"uri": "textures/Leaves_01_tex_baseColor.png"}], "textures": [{"sampler": 0, "source": 0}], "materials": [{"alphaMode": "BLEND", "doubleSided": true, "name": "Leaves_01_tex", "pbrMetallicRoughness": {"baseColorTexture": {"index": 0}, "metallicFactor": 0, "roughnessFactor": 0.6000000238418579}}], "meshes": [{"primitives": [{"attributes": {"POSITION": 1, "NORMAL": 2, "TEXCOORD_0": 3}, "indices": 0, "material": 0}]}], "scene": 0, "scenes": [{"name": "Scene", "nodes": [0]}]}