{"asset": {"generator": "Khronos glTF Blender I/O v1.5.17", "version": "2.0"}, "nodes": [{"mesh": 0, "name": "prop_Satelite_01_geo_Dish_02_tex_0"}], "buffers": [{"byteLength": 1792, "uri": "FlatShack419.bin"}], "bufferViews": [{"buffer": 0, "byteLength": 84, "byteOffset": 0}, {"buffer": 0, "byteLength": 504, "byteOffset": 96}, {"buffer": 0, "byteLength": 504, "byteOffset": 608}, {"buffer": 0, "byteLength": 336, "byteOffset": 1120}, {"buffer": 0, "byteLength": 336, "byteOffset": 1456}], "accessors": [{"bufferView": 0, "componentType": 5123, "count": 42, "type": "SCALAR", "byteOffset": 0}, {"bufferView": 1, "componentType": 5126, "count": 42, "max": [-2.1965155601501465, 6.848547458648682, 5.603634834289551], "min": [-4.632412910461426, 5.908563137054443, -0.1224660873413086], "type": "VEC3", "byteOffset": 0}, {"bufferView": 2, "componentType": 5126, "count": 42, "type": "VEC3", "byteOffset": 0}, {"bufferView": 3, "componentType": 5126, "count": 42, "type": "VEC2", "byteOffset": 0}, {"bufferView": 4, "componentType": 5126, "count": 42, "type": "VEC2", "byteOffset": 0}], "samplers": [{"magFilter": 9729, "minFilter": 9987}], "images": [{"uri": "textures/window_mesh_01_tex_baseColor.png"}], "textures": [{"sampler": 0, "source": 0}], "materials": [{"alphaMode": "BLEND", "doubleSided": true, "name": "window_mesh_01_tex", "pbrMetallicRoughness": {"baseColorFactor": [1, 1, 1, 0.8468540906906128], "baseColorTexture": {"index": 0}, "metallicFactor": 0, "roughnessFactor": 0.6000000238418579}}], "meshes": [{"primitives": [{"attributes": {"POSITION": 1, "NORMAL": 2, "TEXCOORD_0": 3, "TEXCOORD_1": 4}, "indices": 0, "material": 0}]}], "scene": 0, "scenes": [{"name": "Scene", "nodes": [0]}]}