{"asset": {"generator": "Khronos glTF Blender I/O v1.5.17", "version": "2.0"}, "nodes": [{"mesh": 0, "name": "AC_01_geo_AC_01_tex_0"}], "buffers": [{"byteLength": 15264, "uri": "FlatShack28.bin"}], "bufferViews": [{"buffer": 0, "byteLength": 2760, "byteOffset": 0}, {"buffer": 0, "byteLength": 4680, "byteOffset": 2768}, {"buffer": 0, "byteLength": 4680, "byteOffset": 7456}, {"buffer": 0, "byteLength": 3120, "byteOffset": 12144}], "accessors": [{"bufferView": 0, "componentType": 5123, "count": 1380, "type": "SCALAR", "byteOffset": 0}, {"bufferView": 1, "componentType": 5126, "count": 390, "max": [-4.279549598693848, 5.998209476470947, -2.1019976139068604], "min": [-4.407657146453857, 5.9323954582214355, -2.1759653091430664], "type": "VEC3", "byteOffset": 0}, {"bufferView": 2, "componentType": 5126, "count": 390, "type": "VEC3", "byteOffset": 0}, {"bufferView": 3, "componentType": 5126, "count": 390, "type": "VEC2", "byteOffset": 0}], "samplers": [{"magFilter": 9729, "minFilter": 9987}], "images": [{"uri": "textures/Can_Bud_tex_baseColor.png"}], "textures": [{"sampler": 0, "source": 0}], "materials": [{"doubleSided": true, "name": "Can_Bud_tex", "pbrMetallicRoughness": {"baseColorTexture": {"index": 0}, "metallicFactor": 0, "roughnessFactor": 0.6000000238418579}}], "meshes": [{"primitives": [{"attributes": {"POSITION": 1, "NORMAL": 2, "TEXCOORD_0": 3}, "indices": 0, "material": 0}]}], "scene": 0, "scenes": [{"name": "Scene", "nodes": [0]}]}