{"asset": {"generator": "Khronos glTF Blender I/O v1.5.17", "version": "2.0"}, "nodes": [{"mesh": 0, "name": "fabric_geo_003_fabric_01_0"}], "buffers": [{"byteLength": 25216, "uri": "FlatShack371.bin"}], "bufferViews": [{"buffer": 0, "byteLength": 1536, "byteOffset": 0}, {"buffer": 0, "byteLength": 8880, "byteOffset": 1536}, {"buffer": 0, "byteLength": 8880, "byteOffset": 10416}, {"buffer": 0, "byteLength": 5920, "byteOffset": 19296}], "accessors": [{"bufferView": 0, "componentType": 5123, "count": 768, "type": "SCALAR", "byteOffset": 0}, {"bufferView": 1, "componentType": 5126, "count": 740, "max": [-12.748723030090332, 6.12764835357666, 2.4454379081726074], "min": [-13.179396629333496, 4.92890739440918, 1.5750606060028076], "type": "VEC3", "byteOffset": 0}, {"bufferView": 2, "componentType": 5126, "count": 740, "type": "VEC3", "byteOffset": 0}, {"bufferView": 3, "componentType": 5126, "count": 740, "type": "VEC2", "byteOffset": 0}], "samplers": [{"magFilter": 9729, "minFilter": 9987}], "images": [{"uri": "textures/woodpallet_01_tex_baseColor.png"}], "textures": [{"sampler": 0, "source": 0}], "materials": [{"doubleSided": true, "name": "woodpallet_01_tex", "pbrMetallicRoughness": {"baseColorTexture": {"index": 0}, "metallicFactor": 0, "roughnessFactor": 0.6000000238418579}}], "meshes": [{"primitives": [{"attributes": {"POSITION": 1, "NORMAL": 2, "TEXCOORD_0": 3}, "indices": 0, "material": 0}]}], "scene": 0, "scenes": [{"name": "Scene", "nodes": [0]}]}