{"asset": {"generator": "Khronos glTF Blender I/O v1.5.17", "version": "2.0"}, "nodes": [{"mesh": 0, "name": "Ground_geo_001_Ground_rock_01_tex_0"}], "buffers": [{"byteLength": 6896, "uri": "FlatShack1.bin"}], "bufferViews": [{"buffer": 0, "byteLength": 1440, "byteOffset": 0}, {"buffer": 0, "byteLength": 2040, "byteOffset": 1440}, {"buffer": 0, "byteLength": 2040, "byteOffset": 3488}, {"buffer": 0, "byteLength": 1360, "byteOffset": 5536}], "accessors": [{"bufferView": 0, "componentType": 5123, "count": 720, "type": "SCALAR", "byteOffset": 0}, {"bufferView": 1, "componentType": 5126, "count": 170, "max": [-3.38840389251709, 7.053930282592773, -6.589912414550781], "min": [-4.639155864715576, 5.416627883911133, -8.319661140441895], "type": "VEC3", "byteOffset": 0}, {"bufferView": 2, "componentType": 5126, "count": 170, "type": "VEC3", "byteOffset": 0}, {"bufferView": 3, "componentType": 5126, "count": 170, "type": "VEC2", "byteOffset": 0}], "samplers": [{"magFilter": 9729, "minFilter": 9987}], "images": [{"uri": "textures/Dish_02_tex_baseColor.png"}], "textures": [{"sampler": 0, "source": 0}], "materials": [{"alphaMode": "BLEND", "doubleSided": true, "name": "Dish_02_tex", "pbrMetallicRoughness": {"baseColorTexture": {"index": 0}, "metallicFactor": 0, "roughnessFactor": 0.6000000238418579}}], "meshes": [{"primitives": [{"attributes": {"POSITION": 1, "NORMAL": 2, "TEXCOORD_0": 3}, "indices": 0, "material": 0}]}], "scene": 0, "scenes": [{"name": "Scene", "nodes": [0]}]}