{"asset": {"generator": "Khronos glTF Blender I/O v1.5.17", "version": "2.0"}, "nodes": [{"mesh": 0, "name": "prop_Log_geo_056_bark_log_01_tx_0"}], "buffers": [{"byteLength": 23776, "uri": "FlatShack214.bin"}], "bufferViews": [{"buffer": 0, "byteLength": 5202, "byteOffset": 0}, {"buffer": 0, "byteLength": 6948, "byteOffset": 5216}, {"buffer": 0, "byteLength": 6948, "byteOffset": 12176}, {"buffer": 0, "byteLength": 4632, "byteOffset": 19136}], "accessors": [{"bufferView": 0, "componentType": 5123, "count": 2601, "type": "SCALAR", "byteOffset": 0}, {"bufferView": 1, "componentType": 5126, "count": 579, "max": [9.393924713134766, 2.313591480255127, 3.5240888595581055], "min": [6.591958999633789, -0.5583946704864502, -1.0300722122192383], "type": "VEC3", "byteOffset": 0}, {"bufferView": 2, "componentType": 5126, "count": 579, "type": "VEC3", "byteOffset": 0}, {"bufferView": 3, "componentType": 5126, "count": 579, "type": "VEC2", "byteOffset": 0}], "samplers": [{"magFilter": 9729, "minFilter": 9987}], "images": [{"uri": "textures/Tree_01_tex_baseColor.png"}], "textures": [{"sampler": 0, "source": 0}], "materials": [{"doubleSided": true, "name": "Tree_01_tex", "pbrMetallicRoughness": {"baseColorTexture": {"index": 0}, "metallicFactor": 0, "roughnessFactor": 0.6000000238418579}}], "meshes": [{"primitives": [{"attributes": {"POSITION": 1, "NORMAL": 2, "TEXCOORD_0": 3}, "indices": 0, "material": 0}]}], "scene": 0, "scenes": [{"name": "Scene", "nodes": [0]}]}