{"extensionsRequired": ["KHR_materials_pbrSpecularGlossiness"], "extensionsUsed": ["KHR_materials_pbrSpecularGlossiness"], "asset": {"generator": "Sketchfab (OSG glTF plugin)", "version": "2.0"}, "nodes": [{"mesh": 0, "name": ""}], "buffers": [{"byteLength": 7216, "uri": "FutureHouse18.bin"}], "bufferViews": [{"buffer": 0, "byteLength": 1344, "byteOffset": 0}, {"buffer": 0, "byteLength": 1464, "byteOffset": 1344}, {"buffer": 0, "byteLength": 1464, "byteOffset": 2816}, {"buffer": 0, "byteLength": 1952, "byteOffset": 4288}, {"buffer": 0, "byteLength": 976, "byteOffset": 6240}], "accessors": [{"bufferView": 0, "byteOffset": 0, "componentType": 5125, "count": 336, "max": [121], "min": [0], "type": "SCALAR"}, {"bufferView": 1, "byteOffset": 0, "componentType": 5126, "count": 122, "max": [1, 0.9384658336639404, 1], "min": [-0.9999964833259583, -0.9668973684310913, -1], "type": "VEC3"}, {"bufferView": 2, "byteOffset": 0, "componentType": 5126, "count": 122, "max": [0.0020625300239771605, 2.091480016708374, 0.026664599776268005], "min": [-1.5514299869537354, -0.5706890225410461, 0.013624699786305428], "type": "VEC3"}, {"bufferView": 3, "byteOffset": 0, "componentType": 5126, "count": 122, "max": [1, 4.326313501223922e-05, 1, 1], "min": [0, -9.027570195030421e-05, 0, -1], "type": "VEC4"}, {"bufferView": 4, "byteOffset": 0, "componentType": 5126, "count": 122, "max": [0.8681060075759888, 0.9985349774360657], "min": [0, 0], "type": "VEC2"}], "samplers": [{"magFilter": 9729, "minFilter": 9987, "wrapS": 10497, "wrapT": 10497}], "images": [{"uri": "textures/Porcelain_233_diffuse.jpg"}], "textures": [{"sampler": 0, "source": 0}], "materials": [{"doubleSided": true, "emissiveFactor": [0, 0, 0], "extensions": {"KHR_materials_pbrSpecularGlossiness": {"diffuseFactor": [1, 1, 1, 1], "diffuseTexture": {"index": 0, "texCoord": 0}, "glossinessFactor": 0.8, "specularFactor": [0, 0, 0]}}, "name": "Porcelain #3"}], "meshes": [{"primitives": [{"attributes": {"NORMAL": 1, "POSITION": 2, "TANGENT": 3, "TEXCOORD_0": 4}, "indices": 0, "material": 0, "mode": 4}]}], "scene": 0, "scenes": [{"name": "OSG_Scene", "nodes": [0]}]}