{"extensionsRequired": ["KHR_materials_pbrSpecularGlossiness"], "extensionsUsed": ["KHR_materials_pbrSpecularGlossiness"], "asset": {"generator": "Sketchfab (OSG glTF plugin)", "version": "2.0"}, "nodes": [{"mesh": 0, "name": ""}], "buffers": [{"byteLength": 683328, "uri": "FutureHouse25.bin"}], "bufferViews": [{"buffer": 0, "byteLength": 203232, "byteOffset": 0}, {"buffer": 0, "byteLength": 144024, "byteOffset": 203232}, {"buffer": 0, "byteLength": 144024, "byteOffset": 347264}, {"buffer": 0, "byteLength": 192032, "byteOffset": 491296}], "accessors": [{"bufferView": 0, "byteOffset": 0, "componentType": 5125, "count": 50808, "max": [12001], "min": [0], "type": "SCALAR"}, {"bufferView": 1, "byteOffset": 0, "componentType": 5126, "count": 12002, "max": [1, 1, 0.9999892711639404], "min": [-1, -1, -1], "type": "VEC3"}, {"bufferView": 2, "byteOffset": 0, "componentType": 5126, "count": 12002, "max": [1.3925700187683105, 2.805030107498169, 1.24521005153656], "min": [-0.994983971118927, -0.8386330008506775, 0.013624699786305428], "type": "VEC3"}, {"bufferView": 3, "byteOffset": 0, "componentType": 5126, "count": 12002, "max": [1, 1, 1, 1], "min": [-1, -1, -1, -1], "type": "VEC4"}], "samplers": [{"magFilter": 9729, "minFilter": 9987, "wrapS": 10497, "wrapT": 10497}], "materials": [{"doubleSided": true, "emissiveFactor": [0, 0, 0], "extensions": {"KHR_materials_pbrSpecularGlossiness": {"diffuseFactor": [1, 1, 1, 1], "glossinessFactor": 0.8, "specularFactor": [0, 0, 0]}}, "name": "Paint Matte White #3"}], "meshes": [{"primitives": [{"attributes": {"NORMAL": 1, "POSITION": 2, "TANGENT": 3}, "indices": 0, "material": 0, "mode": 4}]}], "scene": 0, "scenes": [{"name": "OSG_Scene", "nodes": [0]}]}