{"extensionsRequired": ["KHR_materials_pbrSpecularGlossiness"], "extensionsUsed": ["KHR_materials_pbrSpecularGlossiness"], "asset": {"generator": "Sketchfab (OSG glTF plugin)", "version": "2.0"}, "nodes": [{"mesh": 0, "name": ""}], "buffers": [{"byteLength": 43824, "uri": "FutureHouse20.bin"}], "bufferViews": [{"buffer": 0, "byteLength": 10416, "byteOffset": 0}, {"buffer": 0, "byteLength": 8352, "byteOffset": 10416}, {"buffer": 0, "byteLength": 8352, "byteOffset": 18768}, {"buffer": 0, "byteLength": 11136, "byteOffset": 27120}, {"buffer": 0, "byteLength": 5568, "byteOffset": 38256}], "accessors": [{"bufferView": 0, "byteOffset": 0, "componentType": 5125, "count": 2604, "max": [695], "min": [0], "type": "SCALAR"}, {"bufferView": 1, "byteOffset": 0, "componentType": 5126, "count": 696, "max": [0.9999982714653015, 0.9999982118606567, 0.9999991655349731], "min": [-0.9999955296516418, -0.9999992251396179, -0.9999991655349731], "type": "VEC3"}, {"bufferView": 2, "byteOffset": 0, "componentType": 5126, "count": 696, "max": [0.8936049938201904, 1.4010000228881836, 0.22600899636745453], "min": [0.046011701226234436, 0.7490019798278809, 0.14288799464702606], "type": "VEC3"}, {"bufferView": 3, "byteOffset": 0, "componentType": 5126, "count": 696, "max": [1, 1, 1, 1], "min": [-0.9999995827674866, -0.9999995231628418, -1, -1], "type": "VEC4"}, {"bufferView": 4, "byteOffset": 0, "componentType": 5126, "count": 696, "max": [0.8097090125083923, 0.9985349774360657], "min": [0, 0], "type": "VEC2"}], "samplers": [{"magFilter": 9729, "minFilter": 9987, "wrapS": 10497, "wrapT": 10497}], "images": [{"uri": "textures/Cloth_Weave_Beige_diffuse.jpg"}], "textures": [{"sampler": 0, "source": 0}], "materials": [{"doubleSided": true, "emissiveFactor": [0, 0, 0], "extensions": {"KHR_materials_pbrSpecularGlossiness": {"diffuseFactor": [1, 1, 1, 1], "diffuseTexture": {"index": 0, "texCoord": 0}, "glossinessFactor": 0.53, "specularFactor": [0, 0, 0]}}, "name": "Cloth Weave Beige"}], "meshes": [{"primitives": [{"attributes": {"NORMAL": 1, "POSITION": 2, "TANGENT": 3, "TEXCOORD_0": 4}, "indices": 0, "material": 0, "mode": 4}]}], "scene": 0, "scenes": [{"name": "OSG_Scene", "nodes": [0]}]}