{"extensionsRequired": ["KHR_materials_pbrSpecularGlossiness"], "extensionsUsed": ["KHR_materials_pbrSpecularGlossiness"], "asset": {"generator": "Sketchfab (OSG glTF plugin)", "version": "2.0"}, "nodes": [{"mesh": 0, "name": ""}], "buffers": [{"byteLength": 17760, "uri": "FutureHouse23.bin"}], "bufferViews": [{"buffer": 0, "byteLength": 4536, "byteOffset": 0}, {"buffer": 0, "byteLength": 3960, "byteOffset": 4544}, {"buffer": 0, "byteLength": 3960, "byteOffset": 8512}, {"buffer": 0, "byteLength": 5280, "byteOffset": 12480}], "accessors": [{"bufferView": 0, "byteOffset": 0, "componentType": 5125, "count": 1134, "max": [329], "min": [0], "type": "SCALAR"}, {"bufferView": 1, "byteOffset": 0, "componentType": 5126, "count": 330, "max": [0.9890528321266174, 0.9879522919654846, 0.999897301197052], "min": [-0.9889950156211853, -0.9884234666824341, -0.999845027923584], "type": "VEC3"}, {"bufferView": 2, "byteOffset": 0, "componentType": 5126, "count": 330, "max": [-1.4687299728393555, 0.6615430116653442, 0.8474259972572327], "min": [-1.524940013885498, 0.3077169954776764, 0.48956099152565], "type": "VEC3"}, {"bufferView": 3, "byteOffset": 0, "componentType": 5126, "count": 330, "max": [0.9886001348495483, 0.40337857604026794, 0.7090625762939453, 1], "min": [-0.008136043325066566, -0.2077636569738388, -1, -1], "type": "VEC4"}], "samplers": [{"magFilter": 9729, "minFilter": 9987, "wrapS": 10497, "wrapT": 10497}], "materials": [{"doubleSided": true, "emissiveFactor": [0, 0, 0], "extensions": {"KHR_materials_pbrSpecularGlossiness": {"diffuseFactor": [0.6128662499, 0.6128662499, 0.6128662499, 1], "glossinessFactor": 0.8, "specularFactor": [1, 1, 1]}}, "name": "Chrome Polished"}], "meshes": [{"primitives": [{"attributes": {"NORMAL": 1, "POSITION": 2, "TANGENT": 3}, "indices": 0, "material": 0, "mode": 4}]}], "scene": 0, "scenes": [{"name": "OSG_Scene", "nodes": [0]}]}