{"extensionsRequired": ["KHR_materials_pbrSpecularGlossiness"], "extensionsUsed": ["KHR_materials_pbrSpecularGlossiness"], "asset": {"generator": "Sketchfab (OSG glTF plugin)", "version": "2.0"}, "nodes": [{"mesh": 0, "name": ""}], "buffers": [{"byteLength": 294784, "uri": "FutureHouse16.bin"}], "bufferViews": [{"buffer": 0, "byteLength": 79752, "byteOffset": 0}, {"buffer": 0, "byteLength": 64500, "byteOffset": 79760}, {"buffer": 0, "byteLength": 64500, "byteOffset": 144272}, {"buffer": 0, "byteLength": 86000, "byteOffset": 208784}], "accessors": [{"bufferView": 0, "byteOffset": 0, "componentType": 5125, "count": 19938, "max": [5374], "min": [0], "type": "SCALAR"}, {"bufferView": 1, "byteOffset": 0, "componentType": 5126, "count": 5375, "max": [0.9999988079071045, 0.9999118447303772, 0.9990390539169312], "min": [-0.9999572038650513, -0.9998687505722046, -0.9990578293800354], "type": "VEC3"}, {"bufferView": 2, "byteOffset": 0, "componentType": 5126, "count": 5375, "max": [1.209939956665039, 2.4619300365448, 1.2879999876022339], "min": [-1.2945899963378906, -2.0674099922180176, 1.0981099605560303], "type": "VEC3"}, {"bufferView": 3, "byteOffset": 0, "componentType": 5126, "count": 5375, "max": [1, 0.9999560713768005, 0.9999123215675354, 1], "min": [-0.12859447300434113, -0.12581436336040497, -0.0831337571144104, -1], "type": "VEC4"}], "samplers": [{"magFilter": 9729, "minFilter": 9987, "wrapS": 10497, "wrapT": 10497}], "materials": [{"doubleSided": true, "emissiveFactor": [1, 1, 1], "extensions": {"KHR_materials_pbrSpecularGlossiness": {"diffuseFactor": [0.5, 0.5, 0.5, 1], "glossinessFactor": 0.8, "specularFactor": [0, 0, 0]}}, "name": "Area Light 100W Neutral"}], "meshes": [{"primitives": [{"attributes": {"NORMAL": 1, "POSITION": 2, "TANGENT": 3}, "indices": 0, "material": 0, "mode": 4}]}], "scene": 0, "scenes": [{"name": "OSG_Scene", "nodes": [0]}]}