{"extensionsRequired": ["KHR_materials_pbrSpecularGlossiness"], "extensionsUsed": ["KHR_materials_pbrSpecularGlossiness"], "asset": {"generator": "Sketchfab (OSG glTF plugin)", "version": "2.0"}, "nodes": [{"mesh": 0, "name": ""}], "buffers": [{"byteLength": 83216, "uri": "FutureHouse22.bin"}], "bufferViews": [{"buffer": 0, "byteLength": 19320, "byteOffset": 0}, {"buffer": 0, "byteLength": 19164, "byteOffset": 19328}, {"buffer": 0, "byteLength": 19164, "byteOffset": 38496}, {"buffer": 0, "byteLength": 25552, "byteOffset": 57664}], "accessors": [{"bufferView": 0, "byteOffset": 0, "componentType": 5125, "count": 4830, "max": [1596], "min": [0], "type": "SCALAR"}, {"bufferView": 1, "byteOffset": 0, "componentType": 5126, "count": 1597, "max": [1, 1, 1], "min": [-1, -1, -1], "type": "VEC3"}, {"bufferView": 2, "byteOffset": 0, "componentType": 5126, "count": 1597, "max": [0.33310601115226746, 2.0102899074554443, 0.7790589928627014], "min": [-0.5920869708061218, -0.2901569902896881, 0.013624699786305428], "type": "VEC3"}, {"bufferView": 3, "byteOffset": 0, "componentType": 5126, "count": 1597, "max": [1, 1, 1, 1], "min": [-0.8913543820381165, -0.9999980330467224, -1, -1], "type": "VEC4"}], "samplers": [{"magFilter": 9729, "minFilter": 9987, "wrapS": 10497, "wrapT": 10497}], "materials": [{"doubleSided": true, "emissiveFactor": [0, 0, 0], "extensions": {"KHR_materials_pbrSpecularGlossiness": {"diffuseFactor": [0.968627, 0.968627, 0.968627, 1], "glossinessFactor": 0.8, "specularFactor": [0, 0, 0]}}, "name": "Porcelain"}], "meshes": [{"primitives": [{"attributes": {"NORMAL": 1, "POSITION": 2, "TANGENT": 3}, "indices": 0, "material": 0, "mode": 4}]}], "scene": 0, "scenes": [{"name": "OSG_Scene", "nodes": [0]}]}