{"extensionsRequired": ["KHR_materials_pbrSpecularGlossiness"], "extensionsUsed": ["KHR_materials_pbrSpecularGlossiness"], "asset": {"generator": "Sketchfab (OSG glTF plugin)", "version": "2.0"}, "nodes": [{"mesh": 0, "name": ""}], "buffers": [{"byteLength": 51440, "uri": "FutureHouse6.bin"}], "bufferViews": [{"buffer": 0, "byteLength": 11664, "byteOffset": 0}, {"buffer": 0, "byteLength": 11928, "byteOffset": 11664}, {"buffer": 0, "byteLength": 11928, "byteOffset": 23600}, {"buffer": 0, "byteLength": 15904, "byteOffset": 35536}], "accessors": [{"bufferView": 0, "byteOffset": 0, "componentType": 5125, "count": 2916, "max": [993], "min": [0], "type": "SCALAR"}, {"bufferView": 1, "byteOffset": 0, "componentType": 5126, "count": 994, "max": [0.9999954700469971, 0.9999954700469971, 1], "min": [-0.9999954700469971, -0.9998477101325989, -1], "type": "VEC3"}, {"bufferView": 2, "byteOffset": 0, "componentType": 5126, "count": 994, "max": [-1.1789400577545166, -1.052590012550354, 0.3783490061759949], "min": [-1.410889983177185, -1.3713300228118896, 0.3522689938545227], "type": "VEC3"}, {"bufferView": 3, "byteOffset": 0, "componentType": 5126, "count": 994, "max": [0.9999954104423523, 0.9999954700469971, 1, 1], "min": [-0.9999817609786987, -0.9999954104423523, -0.001509147696197033, -1], "type": "VEC4"}], "samplers": [{"magFilter": 9729, "minFilter": 9987, "wrapS": 10497, "wrapT": 10497}], "materials": [{"doubleSided": true, "emissiveFactor": [0, 0, 0], "extensions": {"KHR_materials_pbrSpecularGlossiness": {"diffuseFactor": [0, 0, 0, 1], "glossinessFactor": 0.8, "specularFactor": [0, 0, 0]}}, "name": "Steel"}], "meshes": [{"primitives": [{"attributes": {"NORMAL": 1, "POSITION": 2, "TANGENT": 3}, "indices": 0, "material": 0, "mode": 4}]}], "scene": 0, "scenes": [{"name": "OSG_Scene", "nodes": [0]}]}