{"asset": {"generator": "Khronos glTF Blender I/O v1.5.17", "version": "2.0"}, "nodes": [{"mesh": 0, "name": "Mesh45_FrontColor_0"}], "buffers": [{"byteLength": 343808, "uri": "FlatCity120.bin"}], "bufferViews": [{"buffer": 0, "byteLength": 11004, "byteOffset": 0}, {"buffer": 0, "byteLength": 45372, "byteOffset": 11008}, {"buffer": 0, "byteLength": 45372, "byteOffset": 56384}, {"buffer": 0, "byteLength": 30248, "byteOffset": 101760}, {"buffer": 0, "byteLength": 30248, "byteOffset": 132016}, {"buffer": 0, "byteLength": 30248, "byteOffset": 162272}, {"buffer": 0, "byteLength": 30248, "byteOffset": 192528}, {"buffer": 0, "byteLength": 30248, "byteOffset": 222784}, {"buffer": 0, "byteLength": 30248, "byteOffset": 253040}, {"buffer": 0, "byteLength": 30248, "byteOffset": 283296}, {"buffer": 0, "byteLength": 30248, "byteOffset": 313552}], "accessors": [{"bufferView": 0, "componentType": 5123, "count": 5502, "type": "SCALAR", "byteOffset": 0}, {"bufferView": 1, "componentType": 5126, "count": 3781, "max": [-14.933601379394531, -0.11192402243614197, 12.530948638916016], "min": [-24.93360137939453, -0.12159302830696106, 2.5309486389160156], "type": "VEC3", "byteOffset": 0}, {"bufferView": 2, "componentType": 5126, "count": 3781, "type": "VEC3", "byteOffset": 0}, {"bufferView": 3, "componentType": 5126, "count": 3781, "type": "VEC2", "byteOffset": 0}, {"bufferView": 4, "componentType": 5126, "count": 3781, "type": "VEC2", "byteOffset": 0}, {"bufferView": 5, "componentType": 5126, "count": 3781, "type": "VEC2", "byteOffset": 0}, {"bufferView": 6, "componentType": 5126, "count": 3781, "type": "VEC2", "byteOffset": 0}, {"bufferView": 7, "componentType": 5126, "count": 3781, "type": "VEC2", "byteOffset": 0}, {"bufferView": 8, "componentType": 5126, "count": 3781, "type": "VEC2", "byteOffset": 0}, {"bufferView": 9, "componentType": 5126, "count": 3781, "type": "VEC2", "byteOffset": 0}, {"bufferView": 10, "componentType": 5126, "count": 3781, "type": "VEC2", "byteOffset": 0}], "materials": [{"name": "M_0135_DarkGray", "pbrMetallicRoughness": {"baseColorFactor": [0.3176470100879669, 0.3176470100879669, 0.3176470100879669, 1], "metallicFactor": 0, "roughnessFactor": 0.9302135109901428}}], "meshes": [{"primitives": [{"attributes": {"POSITION": 1, "NORMAL": 2, "TEXCOORD_0": 3, "TEXCOORD_1": 4, "TEXCOORD_2": 5, "TEXCOORD_3": 6, "TEXCOORD_4": 7, "TEXCOORD_5": 8, "TEXCOORD_6": 9, "TEXCOORD_7": 10}, "indices": 0, "material": 0}]}], "scene": 0, "scenes": [{"name": "Scene", "nodes": [0]}]}