{"asset": {"generator": "Khronos glTF Blender I/O v1.5.17", "version": "2.0"}, "nodes": [{"mesh": 0, "name": "Mesh16_M_0130_Gainsboro_0"}], "buffers": [{"byteLength": 14352, "uri": "FlatCity38.bin"}], "bufferViews": [{"buffer": 0, "byteLength": 456, "byteOffset": 0}, {"buffer": 0, "byteLength": 1884, "byteOffset": 464}, {"buffer": 0, "byteLength": 1884, "byteOffset": 2352}, {"buffer": 0, "byteLength": 1256, "byteOffset": 4240}, {"buffer": 0, "byteLength": 1256, "byteOffset": 5504}, {"buffer": 0, "byteLength": 1256, "byteOffset": 6768}, {"buffer": 0, "byteLength": 1256, "byteOffset": 8032}, {"buffer": 0, "byteLength": 1256, "byteOffset": 9296}, {"buffer": 0, "byteLength": 1256, "byteOffset": 10560}, {"buffer": 0, "byteLength": 1256, "byteOffset": 11824}, {"buffer": 0, "byteLength": 1256, "byteOffset": 13088}], "accessors": [{"bufferView": 0, "componentType": 5123, "count": 228, "type": "SCALAR", "byteOffset": 0}, {"bufferView": 1, "componentType": 5126, "count": 157, "max": [-10.95663833618164, 2.0923590660095215, 22.35153579711914], "min": [-12.058464050292969, 1.9420889616012573, 21.29023551940918], "type": "VEC3", "byteOffset": 0}, {"bufferView": 2, "componentType": 5126, "count": 157, "type": "VEC3", "byteOffset": 0}, {"bufferView": 3, "componentType": 5126, "count": 157, "type": "VEC2", "byteOffset": 0}, {"bufferView": 4, "componentType": 5126, "count": 157, "type": "VEC2", "byteOffset": 0}, {"bufferView": 5, "componentType": 5126, "count": 157, "type": "VEC2", "byteOffset": 0}, {"bufferView": 6, "componentType": 5126, "count": 157, "type": "VEC2", "byteOffset": 0}, {"bufferView": 7, "componentType": 5126, "count": 157, "type": "VEC2", "byteOffset": 0}, {"bufferView": 8, "componentType": 5126, "count": 157, "type": "VEC2", "byteOffset": 0}, {"bufferView": 9, "componentType": 5126, "count": 157, "type": "VEC2", "byteOffset": 0}, {"bufferView": 10, "componentType": 5126, "count": 157, "type": "VEC2", "byteOffset": 0}], "materials": [{"name": "M_0130_Gainsboro", "pbrMetallicRoughness": {"baseColorFactor": [0.8627449870109558, 0.8627449870109558, 0.8627449870109558, 1], "metallicFactor": 0, "roughnessFactor": 0.9685046672821045}}], "meshes": [{"primitives": [{"attributes": {"POSITION": 1, "NORMAL": 2, "TEXCOORD_0": 3, "TEXCOORD_1": 4, "TEXCOORD_2": 5, "TEXCOORD_3": 6, "TEXCOORD_4": 7, "TEXCOORD_5": 8, "TEXCOORD_6": 9, "TEXCOORD_7": 10}, "indices": 0, "material": 0}]}], "scene": 0, "scenes": [{"name": "Scene", "nodes": [0]}]}