{"asset": {"generator": "Khronos glTF Blender I/O v1.5.17", "version": "2.0"}, "nodes": [{"mesh": 0, "name": "Mesh4_M_0130_Gainsboro_0"}], "buffers": [{"byteLength": 196416, "uri": "FlatCity6.bin"}], "bufferViews": [{"buffer": 0, "byteLength": 5106, "byteOffset": 0}, {"buffer": 0, "byteLength": 26076, "byteOffset": 5120}, {"buffer": 0, "byteLength": 26076, "byteOffset": 31200}, {"buffer": 0, "byteLength": 17384, "byteOffset": 57280}, {"buffer": 0, "byteLength": 17384, "byteOffset": 74672}, {"buffer": 0, "byteLength": 17384, "byteOffset": 92064}, {"buffer": 0, "byteLength": 17384, "byteOffset": 109456}, {"buffer": 0, "byteLength": 17384, "byteOffset": 126848}, {"buffer": 0, "byteLength": 17384, "byteOffset": 144240}, {"buffer": 0, "byteLength": 17384, "byteOffset": 161632}, {"buffer": 0, "byteLength": 17384, "byteOffset": 179024}], "accessors": [{"bufferView": 0, "componentType": 5123, "count": 2553, "type": "SCALAR", "byteOffset": 0}, {"bufferView": 1, "componentType": 5126, "count": 2173, "max": [4.869775772094727, 2.421888828277588, 11.971908569335938], "min": [-4.711566925048828, -0.12167003750801086, 2.8117523193359375], "type": "VEC3", "byteOffset": 0}, {"bufferView": 2, "componentType": 5126, "count": 2173, "type": "VEC3", "byteOffset": 0}, {"bufferView": 3, "componentType": 5126, "count": 2173, "type": "VEC2", "byteOffset": 0}, {"bufferView": 4, "componentType": 5126, "count": 2173, "type": "VEC2", "byteOffset": 0}, {"bufferView": 5, "componentType": 5126, "count": 2173, "type": "VEC2", "byteOffset": 0}, {"bufferView": 6, "componentType": 5126, "count": 2173, "type": "VEC2", "byteOffset": 0}, {"bufferView": 7, "componentType": 5126, "count": 2173, "type": "VEC2", "byteOffset": 0}, {"bufferView": 8, "componentType": 5126, "count": 2173, "type": "VEC2", "byteOffset": 0}, {"bufferView": 9, "componentType": 5126, "count": 2173, "type": "VEC2", "byteOffset": 0}, {"bufferView": 10, "componentType": 5126, "count": 2173, "type": "VEC2", "byteOffset": 0}], "materials": [{"name": "M_0137_Black", "pbrMetallicRoughness": {"baseColorFactor": [0, 0, 0, 1], "metallicFactor": 0, "roughnessFactor": 0}}], "meshes": [{"primitives": [{"attributes": {"POSITION": 1, "NORMAL": 2, "TEXCOORD_0": 3, "TEXCOORD_1": 4, "TEXCOORD_2": 5, "TEXCOORD_3": 6, "TEXCOORD_4": 7, "TEXCOORD_5": 8, "TEXCOORD_6": 9, "TEXCOORD_7": 10}, "indices": 0, "material": 0}]}], "scene": 0, "scenes": [{"name": "Scene", "nodes": [0]}]}