{"asset": {"generator": "Khronos glTF Blender I/O v1.5.17", "version": "2.0"}, "nodes": [{"mesh": 0, "name": "Mesh141_M_0137_Black_0"}], "buffers": [{"byteLength": 7424, "uri": "FlatCity393.bin"}], "bufferViews": [{"buffer": 0, "byteLength": 192, "byteOffset": 0}, {"buffer": 0, "byteLength": 984, "byteOffset": 192}, {"buffer": 0, "byteLength": 984, "byteOffset": 1184}, {"buffer": 0, "byteLength": 656, "byteOffset": 2176}, {"buffer": 0, "byteLength": 656, "byteOffset": 2832}, {"buffer": 0, "byteLength": 656, "byteOffset": 3488}, {"buffer": 0, "byteLength": 656, "byteOffset": 4144}, {"buffer": 0, "byteLength": 656, "byteOffset": 4800}, {"buffer": 0, "byteLength": 656, "byteOffset": 5456}, {"buffer": 0, "byteLength": 656, "byteOffset": 6112}, {"buffer": 0, "byteLength": 656, "byteOffset": 6768}], "accessors": [{"bufferView": 0, "componentType": 5123, "count": 96, "type": "SCALAR", "byteOffset": 0}, {"bufferView": 1, "componentType": 5126, "count": 82, "max": [-40.327796936035156, 2.8433685302734375, -10.665596008300781], "min": [-44.24242401123047, 2.760495662689209, -14.58022689819336], "type": "VEC3", "byteOffset": 0}, {"bufferView": 2, "componentType": 5126, "count": 82, "type": "VEC3", "byteOffset": 0}, {"bufferView": 3, "componentType": 5126, "count": 82, "type": "VEC2", "byteOffset": 0}, {"bufferView": 4, "componentType": 5126, "count": 82, "type": "VEC2", "byteOffset": 0}, {"bufferView": 5, "componentType": 5126, "count": 82, "type": "VEC2", "byteOffset": 0}, {"bufferView": 6, "componentType": 5126, "count": 82, "type": "VEC2", "byteOffset": 0}, {"bufferView": 7, "componentType": 5126, "count": 82, "type": "VEC2", "byteOffset": 0}, {"bufferView": 8, "componentType": 5126, "count": 82, "type": "VEC2", "byteOffset": 0}, {"bufferView": 9, "componentType": 5126, "count": 82, "type": "VEC2", "byteOffset": 0}, {"bufferView": 10, "componentType": 5126, "count": 82, "type": "VEC2", "byteOffset": 0}], "materials": [{"name": "FrontColor", "pbrMetallicRoughness": {"baseColorFactor": [0.5684521794319153, 0.5684521794319153, 0.5684521794319153, 1], "metallicFactor": 0.17196325957775116, "roughnessFactor": 0.47536954283714294}}], "meshes": [{"primitives": [{"attributes": {"POSITION": 1, "NORMAL": 2, "TEXCOORD_0": 3, "TEXCOORD_1": 4, "TEXCOORD_2": 5, "TEXCOORD_3": 6, "TEXCOORD_4": 7, "TEXCOORD_5": 8, "TEXCOORD_6": 9, "TEXCOORD_7": 10}, "indices": 0, "material": 0}]}], "scene": 0, "scenes": [{"name": "Scene", "nodes": [0]}]}