{"asset": {"generator": "Khronos glTF Blender I/O v1.5.17", "version": "2.0"}, "nodes": [{"mesh": 0, "name": "Mesh146_FrontColor_0"}], "buffers": [{"byteLength": 10496, "uri": "FlatCity409.bin"}], "bufferViews": [{"buffer": 0, "byteLength": 288, "byteOffset": 0}, {"buffer": 0, "byteLength": 1392, "byteOffset": 288}, {"buffer": 0, "byteLength": 1392, "byteOffset": 1680}, {"buffer": 0, "byteLength": 928, "byteOffset": 3072}, {"buffer": 0, "byteLength": 928, "byteOffset": 4000}, {"buffer": 0, "byteLength": 928, "byteOffset": 4928}, {"buffer": 0, "byteLength": 928, "byteOffset": 5856}, {"buffer": 0, "byteLength": 928, "byteOffset": 6784}, {"buffer": 0, "byteLength": 928, "byteOffset": 7712}, {"buffer": 0, "byteLength": 928, "byteOffset": 8640}, {"buffer": 0, "byteLength": 928, "byteOffset": 9568}], "accessors": [{"bufferView": 0, "componentType": 5123, "count": 144, "type": "SCALAR", "byteOffset": 0}, {"bufferView": 1, "componentType": 5126, "count": 116, "max": [-40.327796936035156, 2.0146384239196777, -10.665596008300781], "min": [-44.24242401123047, 1.848892331123352, -14.58022689819336], "type": "VEC3", "byteOffset": 0}, {"bufferView": 2, "componentType": 5126, "count": 116, "type": "VEC3", "byteOffset": 0}, {"bufferView": 3, "componentType": 5126, "count": 116, "type": "VEC2", "byteOffset": 0}, {"bufferView": 4, "componentType": 5126, "count": 116, "type": "VEC2", "byteOffset": 0}, {"bufferView": 5, "componentType": 5126, "count": 116, "type": "VEC2", "byteOffset": 0}, {"bufferView": 6, "componentType": 5126, "count": 116, "type": "VEC2", "byteOffset": 0}, {"bufferView": 7, "componentType": 5126, "count": 116, "type": "VEC2", "byteOffset": 0}, {"bufferView": 8, "componentType": 5126, "count": 116, "type": "VEC2", "byteOffset": 0}, {"bufferView": 9, "componentType": 5126, "count": 116, "type": "VEC2", "byteOffset": 0}, {"bufferView": 10, "componentType": 5126, "count": 116, "type": "VEC2", "byteOffset": 0}], "materials": [{"name": "M_0131_Silver", "pbrMetallicRoughness": {"baseColorFactor": [0.7529410123825073, 0.7529410123825073, 0.7529410123825073, 1], "metallicFactor": 0, "roughnessFactor": 0.9302135109901428}}], "meshes": [{"primitives": [{"attributes": {"POSITION": 1, "NORMAL": 2, "TEXCOORD_0": 3, "TEXCOORD_1": 4, "TEXCOORD_2": 5, "TEXCOORD_3": 6, "TEXCOORD_4": 7, "TEXCOORD_5": 8, "TEXCOORD_6": 9, "TEXCOORD_7": 10}, "indices": 0, "material": 0}]}], "scene": 0, "scenes": [{"name": "Scene", "nodes": [0]}]}