{"asset": {"generator": "Khronos glTF Blender I/O v1.5.17", "version": "2.0"}, "nodes": [{"mesh": 0, "name": "Mesh229_M_0135_DarkGray_0"}], "buffers": [{"byteLength": 3440, "uri": "FlatCity607.bin"}], "bufferViews": [{"buffer": 0, "byteLength": 108, "byteOffset": 0}, {"buffer": 0, "byteLength": 444, "byteOffset": 112}, {"buffer": 0, "byteLength": 444, "byteOffset": 560}, {"buffer": 0, "byteLength": 296, "byteOffset": 1008}, {"buffer": 0, "byteLength": 296, "byteOffset": 1312}, {"buffer": 0, "byteLength": 296, "byteOffset": 1616}, {"buffer": 0, "byteLength": 296, "byteOffset": 1920}, {"buffer": 0, "byteLength": 296, "byteOffset": 2224}, {"buffer": 0, "byteLength": 296, "byteOffset": 2528}, {"buffer": 0, "byteLength": 296, "byteOffset": 2832}, {"buffer": 0, "byteLength": 296, "byteOffset": 3136}], "accessors": [{"bufferView": 0, "componentType": 5123, "count": 54, "type": "SCALAR", "byteOffset": 0}, {"bufferView": 1, "componentType": 5126, "count": 37, "max": [3.2920913696289062, 1.3899518251419067, -7.649372100830078], "min": [-4.221549987792969, 0.0757555365562439, -9.666679382324219], "type": "VEC3", "byteOffset": 0}, {"bufferView": 2, "componentType": 5126, "count": 37, "type": "VEC3", "byteOffset": 0}, {"bufferView": 3, "componentType": 5126, "count": 37, "type": "VEC2", "byteOffset": 0}, {"bufferView": 4, "componentType": 5126, "count": 37, "type": "VEC2", "byteOffset": 0}, {"bufferView": 5, "componentType": 5126, "count": 37, "type": "VEC2", "byteOffset": 0}, {"bufferView": 6, "componentType": 5126, "count": 37, "type": "VEC2", "byteOffset": 0}, {"bufferView": 7, "componentType": 5126, "count": 37, "type": "VEC2", "byteOffset": 0}, {"bufferView": 8, "componentType": 5126, "count": 37, "type": "VEC2", "byteOffset": 0}, {"bufferView": 9, "componentType": 5126, "count": 37, "type": "VEC2", "byteOffset": 0}, {"bufferView": 10, "componentType": 5126, "count": 37, "type": "VEC2", "byteOffset": 0}], "materials": [{"emissiveFactor": [1, 0.20742511749267578, 1], "name": "M_0127_Magenta", "pbrMetallicRoughness": {"baseColorFactor": [1, 0, 1, 1], "metallicFactor": 0, "roughnessFactor": 0.9302135109901428}}], "meshes": [{"primitives": [{"attributes": {"POSITION": 1, "NORMAL": 2, "TEXCOORD_0": 3, "TEXCOORD_1": 4, "TEXCOORD_2": 5, "TEXCOORD_3": 6, "TEXCOORD_4": 7, "TEXCOORD_5": 8, "TEXCOORD_6": 9, "TEXCOORD_7": 10}, "indices": 0, "material": 0}]}], "scene": 0, "scenes": [{"name": "Scene", "nodes": [0]}]}