{"asset": {"generator": "Khronos glTF Blender I/O v1.5.17", "version": "2.0"}, "nodes": [{"mesh": 0, "name": "Mesh227_M_0136_Charcoal_0"}], "buffers": [{"byteLength": 30736, "uri": "FlatCity604.bin"}], "bufferViews": [{"buffer": 0, "byteLength": 816, "byteOffset": 0}, {"buffer": 0, "byteLength": 4080, "byteOffset": 816}, {"buffer": 0, "byteLength": 4080, "byteOffset": 4896}, {"buffer": 0, "byteLength": 2720, "byteOffset": 8976}, {"buffer": 0, "byteLength": 2720, "byteOffset": 11696}, {"buffer": 0, "byteLength": 2720, "byteOffset": 14416}, {"buffer": 0, "byteLength": 2720, "byteOffset": 17136}, {"buffer": 0, "byteLength": 2720, "byteOffset": 19856}, {"buffer": 0, "byteLength": 2720, "byteOffset": 22576}, {"buffer": 0, "byteLength": 2720, "byteOffset": 25296}, {"buffer": 0, "byteLength": 2720, "byteOffset": 28016}], "accessors": [{"bufferView": 0, "componentType": 5123, "count": 408, "type": "SCALAR", "byteOffset": 0}, {"bufferView": 1, "componentType": 5126, "count": 340, "max": [2.5454139709472656, 3.246732711791992, -9.344390869140625], "min": [-4.499889373779297, -0.1546640396118164, -16.49697494506836], "type": "VEC3", "byteOffset": 0}, {"bufferView": 2, "componentType": 5126, "count": 340, "type": "VEC3", "byteOffset": 0}, {"bufferView": 3, "componentType": 5126, "count": 340, "type": "VEC2", "byteOffset": 0}, {"bufferView": 4, "componentType": 5126, "count": 340, "type": "VEC2", "byteOffset": 0}, {"bufferView": 5, "componentType": 5126, "count": 340, "type": "VEC2", "byteOffset": 0}, {"bufferView": 6, "componentType": 5126, "count": 340, "type": "VEC2", "byteOffset": 0}, {"bufferView": 7, "componentType": 5126, "count": 340, "type": "VEC2", "byteOffset": 0}, {"bufferView": 8, "componentType": 5126, "count": 340, "type": "VEC2", "byteOffset": 0}, {"bufferView": 9, "componentType": 5126, "count": 340, "type": "VEC2", "byteOffset": 0}, {"bufferView": 10, "componentType": 5126, "count": 340, "type": "VEC2", "byteOffset": 0}], "materials": [{"name": "M_0087_Cyan", "pbrMetallicRoughness": {"baseColorFactor": [0, 1, 1, 1], "metallicFactor": 0, "roughnessFactor": 0.9302135109901428}}], "meshes": [{"primitives": [{"attributes": {"POSITION": 1, "NORMAL": 2, "TEXCOORD_0": 3, "TEXCOORD_1": 4, "TEXCOORD_2": 5, "TEXCOORD_3": 6, "TEXCOORD_4": 7, "TEXCOORD_5": 8, "TEXCOORD_6": 9, "TEXCOORD_7": 10}, "indices": 0, "material": 0}]}], "scene": 0, "scenes": [{"name": "Scene", "nodes": [0]}]}