{"asset": {"generator": "Khronos glTF Blender I/O v1.5.17", "version": "2.0"}, "nodes": [{"mesh": 0, "name": "Mesh150_FrontColor_0"}], "buffers": [{"byteLength": 10144, "uri": "FlatCity421.bin"}], "bufferViews": [{"buffer": 0, "byteLength": 288, "byteOffset": 0}, {"buffer": 0, "byteLength": 1344, "byteOffset": 288}, {"buffer": 0, "byteLength": 1344, "byteOffset": 1632}, {"buffer": 0, "byteLength": 896, "byteOffset": 2976}, {"buffer": 0, "byteLength": 896, "byteOffset": 3872}, {"buffer": 0, "byteLength": 896, "byteOffset": 4768}, {"buffer": 0, "byteLength": 896, "byteOffset": 5664}, {"buffer": 0, "byteLength": 896, "byteOffset": 6560}, {"buffer": 0, "byteLength": 896, "byteOffset": 7456}, {"buffer": 0, "byteLength": 896, "byteOffset": 8352}, {"buffer": 0, "byteLength": 896, "byteOffset": 9248}], "accessors": [{"bufferView": 0, "componentType": 5123, "count": 144, "type": "SCALAR", "byteOffset": 0}, {"bufferView": 1, "componentType": 5126, "count": 112, "max": [-40.327796936035156, 1.3516544103622437, -10.665596008300781], "min": [-44.24242401123047, 1.1859081983566284, -14.58022689819336], "type": "VEC3", "byteOffset": 0}, {"bufferView": 2, "componentType": 5126, "count": 112, "type": "VEC3", "byteOffset": 0}, {"bufferView": 3, "componentType": 5126, "count": 112, "type": "VEC2", "byteOffset": 0}, {"bufferView": 4, "componentType": 5126, "count": 112, "type": "VEC2", "byteOffset": 0}, {"bufferView": 5, "componentType": 5126, "count": 112, "type": "VEC2", "byteOffset": 0}, {"bufferView": 6, "componentType": 5126, "count": 112, "type": "VEC2", "byteOffset": 0}, {"bufferView": 7, "componentType": 5126, "count": 112, "type": "VEC2", "byteOffset": 0}, {"bufferView": 8, "componentType": 5126, "count": 112, "type": "VEC2", "byteOffset": 0}, {"bufferView": 9, "componentType": 5126, "count": 112, "type": "VEC2", "byteOffset": 0}, {"bufferView": 10, "componentType": 5126, "count": 112, "type": "VEC2", "byteOffset": 0}], "materials": [{"name": "M_0131_Silver", "pbrMetallicRoughness": {"baseColorFactor": [0.7529410123825073, 0.7529410123825073, 0.7529410123825073, 1], "metallicFactor": 0, "roughnessFactor": 0.9302135109901428}}], "meshes": [{"primitives": [{"attributes": {"POSITION": 1, "NORMAL": 2, "TEXCOORD_0": 3, "TEXCOORD_1": 4, "TEXCOORD_2": 5, "TEXCOORD_3": 6, "TEXCOORD_4": 7, "TEXCOORD_5": 8, "TEXCOORD_6": 9, "TEXCOORD_7": 10}, "indices": 0, "material": 0}]}], "scene": 0, "scenes": [{"name": "Scene", "nodes": [0]}]}