{"asset": {"generator": "Khronos glTF Blender I/O v1.5.17", "version": "2.0"}, "nodes": [{"mesh": 0, "name": "Mesh231_M_0135_DarkGray_0"}], "buffers": [{"byteLength": 328064, "uri": "FlatCity612.bin"}], "bufferViews": [{"buffer": 0, "byteLength": 10200, "byteOffset": 0}, {"buffer": 0, "byteLength": 43344, "byteOffset": 10208}, {"buffer": 0, "byteLength": 43344, "byteOffset": 53552}, {"buffer": 0, "byteLength": 28896, "byteOffset": 96896}, {"buffer": 0, "byteLength": 28896, "byteOffset": 125792}, {"buffer": 0, "byteLength": 28896, "byteOffset": 154688}, {"buffer": 0, "byteLength": 28896, "byteOffset": 183584}, {"buffer": 0, "byteLength": 28896, "byteOffset": 212480}, {"buffer": 0, "byteLength": 28896, "byteOffset": 241376}, {"buffer": 0, "byteLength": 28896, "byteOffset": 270272}, {"buffer": 0, "byteLength": 28896, "byteOffset": 299168}], "accessors": [{"bufferView": 0, "componentType": 5123, "count": 5100, "type": "SCALAR", "byteOffset": 0}, {"bufferView": 1, "componentType": 5126, "count": 3612, "max": [5.066398620605469, 0.8444921970367432, -7.46905517578125], "min": [-4.933601379394531, -0.1469159722328186, -17.469058990478516], "type": "VEC3", "byteOffset": 0}, {"bufferView": 2, "componentType": 5126, "count": 3612, "type": "VEC3", "byteOffset": 0}, {"bufferView": 3, "componentType": 5126, "count": 3612, "type": "VEC2", "byteOffset": 0}, {"bufferView": 4, "componentType": 5126, "count": 3612, "type": "VEC2", "byteOffset": 0}, {"bufferView": 5, "componentType": 5126, "count": 3612, "type": "VEC2", "byteOffset": 0}, {"bufferView": 6, "componentType": 5126, "count": 3612, "type": "VEC2", "byteOffset": 0}, {"bufferView": 7, "componentType": 5126, "count": 3612, "type": "VEC2", "byteOffset": 0}, {"bufferView": 8, "componentType": 5126, "count": 3612, "type": "VEC2", "byteOffset": 0}, {"bufferView": 9, "componentType": 5126, "count": 3612, "type": "VEC2", "byteOffset": 0}, {"bufferView": 10, "componentType": 5126, "count": 3612, "type": "VEC2", "byteOffset": 0}], "materials": [{"name": "M_0131_Silver", "pbrMetallicRoughness": {"baseColorFactor": [0.7529410123825073, 0.7529410123825073, 0.7529410123825073, 1], "metallicFactor": 0, "roughnessFactor": 0.9302135109901428}}], "meshes": [{"primitives": [{"attributes": {"POSITION": 1, "NORMAL": 2, "TEXCOORD_0": 3, "TEXCOORD_1": 4, "TEXCOORD_2": 5, "TEXCOORD_3": 6, "TEXCOORD_4": 7, "TEXCOORD_5": 8, "TEXCOORD_6": 9, "TEXCOORD_7": 10}, "indices": 0, "material": 0}]}], "scene": 0, "scenes": [{"name": "Scene", "nodes": [0]}]}