{"asset": {"generator": "Khronos glTF Blender I/O v1.5.17", "version": "2.0"}, "nodes": [{"mesh": 0, "name": "Mesh208_M_0136_Charcoal_0"}], "buffers": [{"byteLength": 595952, "uri": "FlatCity566.bin"}], "bufferViews": [{"buffer": 0, "byteLength": 17802, "byteOffset": 0}, {"buffer": 0, "byteLength": 78828, "byteOffset": 17808}, {"buffer": 0, "byteLength": 78828, "byteOffset": 96640}, {"buffer": 0, "byteLength": 52552, "byteOffset": 175472}, {"buffer": 0, "byteLength": 52552, "byteOffset": 228032}, {"buffer": 0, "byteLength": 52552, "byteOffset": 280592}, {"buffer": 0, "byteLength": 52552, "byteOffset": 333152}, {"buffer": 0, "byteLength": 52552, "byteOffset": 385712}, {"buffer": 0, "byteLength": 52552, "byteOffset": 438272}, {"buffer": 0, "byteLength": 52552, "byteOffset": 490832}, {"buffer": 0, "byteLength": 52552, "byteOffset": 543392}], "accessors": [{"bufferView": 0, "componentType": 5123, "count": 8901, "type": "SCALAR", "byteOffset": 0}, {"bufferView": 1, "componentType": 5126, "count": 6569, "max": [15.066398620605469, 0.6456661224365234, -7.46905517578125], "min": [5.066398620605469, -0.12159302830696106, -17.469058990478516], "type": "VEC3", "byteOffset": 0}, {"bufferView": 2, "componentType": 5126, "count": 6569, "type": "VEC3", "byteOffset": 0}, {"bufferView": 3, "componentType": 5126, "count": 6569, "type": "VEC2", "byteOffset": 0}, {"bufferView": 4, "componentType": 5126, "count": 6569, "type": "VEC2", "byteOffset": 0}, {"bufferView": 5, "componentType": 5126, "count": 6569, "type": "VEC2", "byteOffset": 0}, {"bufferView": 6, "componentType": 5126, "count": 6569, "type": "VEC2", "byteOffset": 0}, {"bufferView": 7, "componentType": 5126, "count": 6569, "type": "VEC2", "byteOffset": 0}, {"bufferView": 8, "componentType": 5126, "count": 6569, "type": "VEC2", "byteOffset": 0}, {"bufferView": 9, "componentType": 5126, "count": 6569, "type": "VEC2", "byteOffset": 0}, {"bufferView": 10, "componentType": 5126, "count": 6569, "type": "VEC2", "byteOffset": 0}], "materials": [{"name": "M_0135_DarkGray", "pbrMetallicRoughness": {"baseColorFactor": [0.3176470100879669, 0.3176470100879669, 0.3176470100879669, 1], "metallicFactor": 0, "roughnessFactor": 0.9302135109901428}}], "meshes": [{"primitives": [{"attributes": {"POSITION": 1, "NORMAL": 2, "TEXCOORD_0": 3, "TEXCOORD_1": 4, "TEXCOORD_2": 5, "TEXCOORD_3": 6, "TEXCOORD_4": 7, "TEXCOORD_5": 8, "TEXCOORD_6": 9, "TEXCOORD_7": 10}, "indices": 0, "material": 0}]}], "scene": 0, "scenes": [{"name": "Scene", "nodes": [0]}]}