{"asset": {"generator": "Khronos glTF Blender I/O v1.5.17", "version": "2.0"}, "nodes": [{"mesh": 0, "name": "Mesh99_M_0131_Silver_0"}], "buffers": [{"byteLength": 58416, "uri": "FlatCity277.bin"}], "bufferViews": [{"buffer": 0, "byteLength": 1740, "byteOffset": 0}, {"buffer": 0, "byteLength": 7728, "byteOffset": 1744}, {"buffer": 0, "byteLength": 7728, "byteOffset": 9472}, {"buffer": 0, "byteLength": 5152, "byteOffset": 17200}, {"buffer": 0, "byteLength": 5152, "byteOffset": 22352}, {"buffer": 0, "byteLength": 5152, "byteOffset": 27504}, {"buffer": 0, "byteLength": 5152, "byteOffset": 32656}, {"buffer": 0, "byteLength": 5152, "byteOffset": 37808}, {"buffer": 0, "byteLength": 5152, "byteOffset": 42960}, {"buffer": 0, "byteLength": 5152, "byteOffset": 48112}, {"buffer": 0, "byteLength": 5152, "byteOffset": 53264}], "accessors": [{"bufferView": 0, "componentType": 5123, "count": 870, "type": "SCALAR", "byteOffset": 0}, {"bufferView": 1, "componentType": 5126, "count": 644, "max": [-15.023307800292969, -0.10982504487037659, 2.4412384033203125], "min": [-24.754188537597656, -0.10982504487037659, -7.289638519287109], "type": "VEC3", "byteOffset": 0}, {"bufferView": 2, "componentType": 5126, "count": 644, "type": "VEC3", "byteOffset": 0}, {"bufferView": 3, "componentType": 5126, "count": 644, "type": "VEC2", "byteOffset": 0}, {"bufferView": 4, "componentType": 5126, "count": 644, "type": "VEC2", "byteOffset": 0}, {"bufferView": 5, "componentType": 5126, "count": 644, "type": "VEC2", "byteOffset": 0}, {"bufferView": 6, "componentType": 5126, "count": 644, "type": "VEC2", "byteOffset": 0}, {"bufferView": 7, "componentType": 5126, "count": 644, "type": "VEC2", "byteOffset": 0}, {"bufferView": 8, "componentType": 5126, "count": 644, "type": "VEC2", "byteOffset": 0}, {"bufferView": 9, "componentType": 5126, "count": 644, "type": "VEC2", "byteOffset": 0}, {"bufferView": 10, "componentType": 5126, "count": 644, "type": "VEC2", "byteOffset": 0}], "materials": [{"name": "M_0069_LimeGreen", "pbrMetallicRoughness": {"baseColorFactor": [0.19607800245285034, 0.8039219975471497, 0.19607800245285034, 1], "metallicFactor": 0, "roughnessFactor": 0.9302135109901428}}], "meshes": [{"primitives": [{"attributes": {"POSITION": 1, "NORMAL": 2, "TEXCOORD_0": 3, "TEXCOORD_1": 4, "TEXCOORD_2": 5, "TEXCOORD_3": 6, "TEXCOORD_4": 7, "TEXCOORD_5": 8, "TEXCOORD_6": 9, "TEXCOORD_7": 10}, "indices": 0, "material": 0}]}], "scene": 0, "scenes": [{"name": "Scene", "nodes": [0]}]}