{"asset": {"generator": "Khronos glTF Blender I/O v1.5.17", "version": "2.0"}, "nodes": [{"mesh": 0, "name": "Mesh78_M_0135_DarkGray_0"}], "buffers": [{"byteLength": 6336, "uri": "FlatCity223.bin"}], "bufferViews": [{"buffer": 0, "byteLength": 192, "byteOffset": 0}, {"buffer": 0, "byteLength": 828, "byteOffset": 192}, {"buffer": 0, "byteLength": 828, "byteOffset": 1024}, {"buffer": 0, "byteLength": 552, "byteOffset": 1856}, {"buffer": 0, "byteLength": 552, "byteOffset": 2416}, {"buffer": 0, "byteLength": 552, "byteOffset": 2976}, {"buffer": 0, "byteLength": 552, "byteOffset": 3536}, {"buffer": 0, "byteLength": 552, "byteOffset": 4096}, {"buffer": 0, "byteLength": 552, "byteOffset": 4656}, {"buffer": 0, "byteLength": 552, "byteOffset": 5216}, {"buffer": 0, "byteLength": 552, "byteOffset": 5776}], "accessors": [{"bufferView": 0, "componentType": 5123, "count": 96, "type": "SCALAR", "byteOffset": 0}, {"bufferView": 1, "componentType": 5126, "count": 69, "max": [24.37521743774414, 3.174860954284668, -0.6602363586425781], "min": [20.460590362548828, 3.0919876098632812, -4.574863433837891], "type": "VEC3", "byteOffset": 0}, {"bufferView": 2, "componentType": 5126, "count": 69, "type": "VEC3", "byteOffset": 0}, {"bufferView": 3, "componentType": 5126, "count": 69, "type": "VEC2", "byteOffset": 0}, {"bufferView": 4, "componentType": 5126, "count": 69, "type": "VEC2", "byteOffset": 0}, {"bufferView": 5, "componentType": 5126, "count": 69, "type": "VEC2", "byteOffset": 0}, {"bufferView": 6, "componentType": 5126, "count": 69, "type": "VEC2", "byteOffset": 0}, {"bufferView": 7, "componentType": 5126, "count": 69, "type": "VEC2", "byteOffset": 0}, {"bufferView": 8, "componentType": 5126, "count": 69, "type": "VEC2", "byteOffset": 0}, {"bufferView": 9, "componentType": 5126, "count": 69, "type": "VEC2", "byteOffset": 0}, {"bufferView": 10, "componentType": 5126, "count": 69, "type": "VEC2", "byteOffset": 0}], "materials": [{"name": "FrontColor", "pbrMetallicRoughness": {"baseColorFactor": [0.5684521794319153, 0.5684521794319153, 0.5684521794319153, 1], "metallicFactor": 0.17196325957775116, "roughnessFactor": 0.47536954283714294}}], "meshes": [{"primitives": [{"attributes": {"POSITION": 1, "NORMAL": 2, "TEXCOORD_0": 3, "TEXCOORD_1": 4, "TEXCOORD_2": 5, "TEXCOORD_3": 6, "TEXCOORD_4": 7, "TEXCOORD_5": 8, "TEXCOORD_6": 9, "TEXCOORD_7": 10}, "indices": 0, "material": 0}]}], "scene": 0, "scenes": [{"name": "Scene", "nodes": [0]}]}