{"asset": {"generator": "Khronos glTF Blender I/O v1.5.17", "version": "2.0"}, "nodes": [{"mesh": 0, "name": "Mesh14_M_0130_Gainsboro_0"}], "buffers": [{"byteLength": 14544, "uri": "FlatCity26.bin"}], "bufferViews": [{"buffer": 0, "byteLength": 456, "byteOffset": 0}, {"buffer": 0, "byteLength": 1908, "byteOffset": 464}, {"buffer": 0, "byteLength": 1908, "byteOffset": 2384}, {"buffer": 0, "byteLength": 1272, "byteOffset": 4304}, {"buffer": 0, "byteLength": 1272, "byteOffset": 5584}, {"buffer": 0, "byteLength": 1272, "byteOffset": 6864}, {"buffer": 0, "byteLength": 1272, "byteOffset": 8144}, {"buffer": 0, "byteLength": 1272, "byteOffset": 9424}, {"buffer": 0, "byteLength": 1272, "byteOffset": 10704}, {"buffer": 0, "byteLength": 1272, "byteOffset": 11984}, {"buffer": 0, "byteLength": 1272, "byteOffset": 13264}], "accessors": [{"bufferView": 0, "componentType": 5123, "count": 228, "type": "SCALAR", "byteOffset": 0}, {"bufferView": 1, "componentType": 5126, "count": 159, "max": [-10.95663833618164, 1.1907386779785156, 22.35153579711914], "min": [-12.058464050292969, 1.040468692779541, 21.29023551940918], "type": "VEC3", "byteOffset": 0}, {"bufferView": 2, "componentType": 5126, "count": 159, "type": "VEC3", "byteOffset": 0}, {"bufferView": 3, "componentType": 5126, "count": 159, "type": "VEC2", "byteOffset": 0}, {"bufferView": 4, "componentType": 5126, "count": 159, "type": "VEC2", "byteOffset": 0}, {"bufferView": 5, "componentType": 5126, "count": 159, "type": "VEC2", "byteOffset": 0}, {"bufferView": 6, "componentType": 5126, "count": 159, "type": "VEC2", "byteOffset": 0}, {"bufferView": 7, "componentType": 5126, "count": 159, "type": "VEC2", "byteOffset": 0}, {"bufferView": 8, "componentType": 5126, "count": 159, "type": "VEC2", "byteOffset": 0}, {"bufferView": 9, "componentType": 5126, "count": 159, "type": "VEC2", "byteOffset": 0}, {"bufferView": 10, "componentType": 5126, "count": 159, "type": "VEC2", "byteOffset": 0}], "materials": [{"name": "M_0130_Gainsboro", "pbrMetallicRoughness": {"baseColorFactor": [0.8627449870109558, 0.8627449870109558, 0.8627449870109558, 1], "metallicFactor": 0, "roughnessFactor": 0.9685046672821045}}], "meshes": [{"primitives": [{"attributes": {"POSITION": 1, "NORMAL": 2, "TEXCOORD_0": 3, "TEXCOORD_1": 4, "TEXCOORD_2": 5, "TEXCOORD_3": 6, "TEXCOORD_4": 7, "TEXCOORD_5": 8, "TEXCOORD_6": 9, "TEXCOORD_7": 10}, "indices": 0, "material": 0}]}], "scene": 0, "scenes": [{"name": "Scene", "nodes": [0]}]}