{"asset": {"generator": "Khronos glTF Blender I/O v1.5.17", "version": "2.0"}, "nodes": [{"mesh": 0, "name": "Mesh145_M_0131_Silver_0"}], "buffers": [{"byteLength": 4912, "uri": "FlatCity404.bin"}], "bufferViews": [{"buffer": 0, "byteLength": 132, "byteOffset": 0}, {"buffer": 0, "byteLength": 648, "byteOffset": 144}, {"buffer": 0, "byteLength": 648, "byteOffset": 800}, {"buffer": 0, "byteLength": 432, "byteOffset": 1456}, {"buffer": 0, "byteLength": 432, "byteOffset": 1888}, {"buffer": 0, "byteLength": 432, "byteOffset": 2320}, {"buffer": 0, "byteLength": 432, "byteOffset": 2752}, {"buffer": 0, "byteLength": 432, "byteOffset": 3184}, {"buffer": 0, "byteLength": 432, "byteOffset": 3616}, {"buffer": 0, "byteLength": 432, "byteOffset": 4048}, {"buffer": 0, "byteLength": 432, "byteOffset": 4480}], "accessors": [{"bufferView": 0, "componentType": 5123, "count": 66, "type": "SCALAR", "byteOffset": 0}, {"bufferView": 1, "componentType": 5126, "count": 54, "max": [-40.369842529296875, 2.34613037109375, -10.707645416259766], "min": [-44.20037078857422, 2.180384635925293, -14.53818130493164], "type": "VEC3", "byteOffset": 0}, {"bufferView": 2, "componentType": 5126, "count": 54, "type": "VEC3", "byteOffset": 0}, {"bufferView": 3, "componentType": 5126, "count": 54, "type": "VEC2", "byteOffset": 0}, {"bufferView": 4, "componentType": 5126, "count": 54, "type": "VEC2", "byteOffset": 0}, {"bufferView": 5, "componentType": 5126, "count": 54, "type": "VEC2", "byteOffset": 0}, {"bufferView": 6, "componentType": 5126, "count": 54, "type": "VEC2", "byteOffset": 0}, {"bufferView": 7, "componentType": 5126, "count": 54, "type": "VEC2", "byteOffset": 0}, {"bufferView": 8, "componentType": 5126, "count": 54, "type": "VEC2", "byteOffset": 0}, {"bufferView": 9, "componentType": 5126, "count": 54, "type": "VEC2", "byteOffset": 0}, {"bufferView": 10, "componentType": 5126, "count": 54, "type": "VEC2", "byteOffset": 0}], "materials": [{"name": "M_0137_Black", "pbrMetallicRoughness": {"baseColorFactor": [0, 0, 0, 1], "metallicFactor": 0, "roughnessFactor": 0}}], "meshes": [{"primitives": [{"attributes": {"POSITION": 1, "NORMAL": 2, "TEXCOORD_0": 3, "TEXCOORD_1": 4, "TEXCOORD_2": 5, "TEXCOORD_3": 6, "TEXCOORD_4": 7, "TEXCOORD_5": 8, "TEXCOORD_6": 9, "TEXCOORD_7": 10}, "indices": 0, "material": 0}]}], "scene": 0, "scenes": [{"name": "Scene", "nodes": [0]}]}