{"asset": {"generator": "Khronos glTF Blender I/O v1.5.17", "version": "2.0"}, "nodes": [{"mesh": 0, "name": "Mesh8_M_0137_Black_0"}], "buffers": [{"byteLength": 2000, "uri": "FlatCity15.bin"}], "bufferViews": [{"buffer": 0, "byteLength": 66, "byteOffset": 0}, {"buffer": 0, "byteLength": 252, "byteOffset": 80}, {"buffer": 0, "byteLength": 252, "byteOffset": 336}, {"buffer": 0, "byteLength": 168, "byteOffset": 592}, {"buffer": 0, "byteLength": 168, "byteOffset": 768}, {"buffer": 0, "byteLength": 168, "byteOffset": 944}, {"buffer": 0, "byteLength": 168, "byteOffset": 1120}, {"buffer": 0, "byteLength": 168, "byteOffset": 1296}, {"buffer": 0, "byteLength": 168, "byteOffset": 1472}, {"buffer": 0, "byteLength": 168, "byteOffset": 1648}, {"buffer": 0, "byteLength": 168, "byteOffset": 1824}], "accessors": [{"bufferView": 0, "componentType": 5123, "count": 33, "type": "SCALAR", "byteOffset": 0}, {"bufferView": 1, "componentType": 5126, "count": 21, "max": [-4.933601379394531, -0.10982504487037659, 25.30774688720703], "min": [-14.933601379394531, -0.11949405074119568, 22.53095245361328], "type": "VEC3", "byteOffset": 0}, {"bufferView": 2, "componentType": 5126, "count": 21, "type": "VEC3", "byteOffset": 0}, {"bufferView": 3, "componentType": 5126, "count": 21, "type": "VEC2", "byteOffset": 0}, {"bufferView": 4, "componentType": 5126, "count": 21, "type": "VEC2", "byteOffset": 0}, {"bufferView": 5, "componentType": 5126, "count": 21, "type": "VEC2", "byteOffset": 0}, {"bufferView": 6, "componentType": 5126, "count": 21, "type": "VEC2", "byteOffset": 0}, {"bufferView": 7, "componentType": 5126, "count": 21, "type": "VEC2", "byteOffset": 0}, {"bufferView": 8, "componentType": 5126, "count": 21, "type": "VEC2", "byteOffset": 0}, {"bufferView": 9, "componentType": 5126, "count": 21, "type": "VEC2", "byteOffset": 0}, {"bufferView": 10, "componentType": 5126, "count": 21, "type": "VEC2", "byteOffset": 0}], "materials": [{"name": "M_0135_DarkGray", "pbrMetallicRoughness": {"baseColorFactor": [0.3176470100879669, 0.3176470100879669, 0.3176470100879669, 1], "metallicFactor": 0, "roughnessFactor": 0.9302135109901428}}], "meshes": [{"primitives": [{"attributes": {"POSITION": 1, "NORMAL": 2, "TEXCOORD_0": 3, "TEXCOORD_1": 4, "TEXCOORD_2": 5, "TEXCOORD_3": 6, "TEXCOORD_4": 7, "TEXCOORD_5": 8, "TEXCOORD_6": 9, "TEXCOORD_7": 10}, "indices": 0, "material": 0}]}], "scene": 0, "scenes": [{"name": "Scene", "nodes": [0]}]}