{"asset": {"generator": "Khronos glTF Blender I/O v1.5.17", "version": "2.0"}, "nodes": [{"mesh": 0, "name": "Mesh130_M_0137_Black_0"}], "buffers": [{"byteLength": 56960, "uri": "FlatCity363.bin"}], "bufferViews": [{"buffer": 0, "byteLength": 1686, "byteOffset": 0}, {"buffer": 0, "byteLength": 7536, "byteOffset": 1696}, {"buffer": 0, "byteLength": 7536, "byteOffset": 9232}, {"buffer": 0, "byteLength": 5024, "byteOffset": 16768}, {"buffer": 0, "byteLength": 5024, "byteOffset": 21792}, {"buffer": 0, "byteLength": 5024, "byteOffset": 26816}, {"buffer": 0, "byteLength": 5024, "byteOffset": 31840}, {"buffer": 0, "byteLength": 5024, "byteOffset": 36864}, {"buffer": 0, "byteLength": 5024, "byteOffset": 41888}, {"buffer": 0, "byteLength": 5024, "byteOffset": 46912}, {"buffer": 0, "byteLength": 5024, "byteOffset": 51936}], "accessors": [{"bufferView": 0, "componentType": 5123, "count": 843, "type": "SCALAR", "byteOffset": 0}, {"bufferView": 1, "componentType": 5126, "count": 628, "max": [14.976690292358398, 3.2583117485046387, 2.4412384033203125], "min": [5.167631149291992, -0.11001846194267273, -7.395618438720703], "type": "VEC3", "byteOffset": 0}, {"bufferView": 2, "componentType": 5126, "count": 628, "type": "VEC3", "byteOffset": 0}, {"bufferView": 3, "componentType": 5126, "count": 628, "type": "VEC2", "byteOffset": 0}, {"bufferView": 4, "componentType": 5126, "count": 628, "type": "VEC2", "byteOffset": 0}, {"bufferView": 5, "componentType": 5126, "count": 628, "type": "VEC2", "byteOffset": 0}, {"bufferView": 6, "componentType": 5126, "count": 628, "type": "VEC2", "byteOffset": 0}, {"bufferView": 7, "componentType": 5126, "count": 628, "type": "VEC2", "byteOffset": 0}, {"bufferView": 8, "componentType": 5126, "count": 628, "type": "VEC2", "byteOffset": 0}, {"bufferView": 9, "componentType": 5126, "count": 628, "type": "VEC2", "byteOffset": 0}, {"bufferView": 10, "componentType": 5126, "count": 628, "type": "VEC2", "byteOffset": 0}], "materials": [{"name": "M_0069_LimeGreen", "pbrMetallicRoughness": {"baseColorFactor": [0.19607800245285034, 0.8039219975471497, 0.19607800245285034, 1], "metallicFactor": 0, "roughnessFactor": 0.9302135109901428}}], "meshes": [{"primitives": [{"attributes": {"POSITION": 1, "NORMAL": 2, "TEXCOORD_0": 3, "TEXCOORD_1": 4, "TEXCOORD_2": 5, "TEXCOORD_3": 6, "TEXCOORD_4": 7, "TEXCOORD_5": 8, "TEXCOORD_6": 9, "TEXCOORD_7": 10}, "indices": 0, "material": 0}]}], "scene": 0, "scenes": [{"name": "Scene", "nodes": [0]}]}