{"asset": {"generator": "Khronos glTF Blender I/O v1.5.17", "version": "2.0"}, "nodes": [{"mesh": 0, "name": "Mesh41_M_0137_Black_0"}], "buffers": [{"byteLength": 2704, "uri": "FlatCity107.bin"}], "bufferViews": [{"buffer": 0, "byteLength": 66, "byteOffset": 0}, {"buffer": 0, "byteLength": 348, "byteOffset": 80}, {"buffer": 0, "byteLength": 348, "byteOffset": 432}, {"buffer": 0, "byteLength": 232, "byteOffset": 784}, {"buffer": 0, "byteLength": 232, "byteOffset": 1024}, {"buffer": 0, "byteLength": 232, "byteOffset": 1264}, {"buffer": 0, "byteLength": 232, "byteOffset": 1504}, {"buffer": 0, "byteLength": 232, "byteOffset": 1744}, {"buffer": 0, "byteLength": 232, "byteOffset": 1984}, {"buffer": 0, "byteLength": 232, "byteOffset": 2224}, {"buffer": 0, "byteLength": 232, "byteOffset": 2464}], "accessors": [{"bufferView": 0, "componentType": 5123, "count": 33, "type": "SCALAR", "byteOffset": 0}, {"bufferView": 1, "componentType": 5126, "count": 29, "max": [-10.754371643066406, 1.2396043539047241, 8.37994384765625], "min": [-13.282596588134766, 1.1784172058105469, 5.851718902587891], "type": "VEC3", "byteOffset": 0}, {"bufferView": 2, "componentType": 5126, "count": 29, "type": "VEC3", "byteOffset": 0}, {"bufferView": 3, "componentType": 5126, "count": 29, "type": "VEC2", "byteOffset": 0}, {"bufferView": 4, "componentType": 5126, "count": 29, "type": "VEC2", "byteOffset": 0}, {"bufferView": 5, "componentType": 5126, "count": 29, "type": "VEC2", "byteOffset": 0}, {"bufferView": 6, "componentType": 5126, "count": 29, "type": "VEC2", "byteOffset": 0}, {"bufferView": 7, "componentType": 5126, "count": 29, "type": "VEC2", "byteOffset": 0}, {"bufferView": 8, "componentType": 5126, "count": 29, "type": "VEC2", "byteOffset": 0}, {"bufferView": 9, "componentType": 5126, "count": 29, "type": "VEC2", "byteOffset": 0}, {"bufferView": 10, "componentType": 5126, "count": 29, "type": "VEC2", "byteOffset": 0}], "materials": [{"name": "M_0137_Black", "pbrMetallicRoughness": {"baseColorFactor": [0, 0, 0, 1], "metallicFactor": 0, "roughnessFactor": 0}}], "meshes": [{"primitives": [{"attributes": {"POSITION": 1, "NORMAL": 2, "TEXCOORD_0": 3, "TEXCOORD_1": 4, "TEXCOORD_2": 5, "TEXCOORD_3": 6, "TEXCOORD_4": 7, "TEXCOORD_5": 8, "TEXCOORD_6": 9, "TEXCOORD_7": 10}, "indices": 0, "material": 0}]}], "scene": 0, "scenes": [{"name": "Scene", "nodes": [0]}]}