{"asset": {"generator": "Khronos glTF Blender I/O v1.5.17", "version": "2.0"}, "nodes": [{"mesh": 0, "name": "Mesh99_M_0137_Black_0"}], "buffers": [{"byteLength": 1604000, "uri": "FlatCity278.bin"}], "bufferViews": [{"buffer": 0, "byteLength": 51678, "byteOffset": 0}, {"buffer": 0, "byteLength": 211680, "byteOffset": 51680}, {"buffer": 0, "byteLength": 211680, "byteOffset": 263360}, {"buffer": 0, "byteLength": 141120, "byteOffset": 475040}, {"buffer": 0, "byteLength": 141120, "byteOffset": 616160}, {"buffer": 0, "byteLength": 141120, "byteOffset": 757280}, {"buffer": 0, "byteLength": 141120, "byteOffset": 898400}, {"buffer": 0, "byteLength": 141120, "byteOffset": 1039520}, {"buffer": 0, "byteLength": 141120, "byteOffset": 1180640}, {"buffer": 0, "byteLength": 141120, "byteOffset": 1321760}, {"buffer": 0, "byteLength": 141120, "byteOffset": 1462880}], "accessors": [{"bufferView": 0, "componentType": 5123, "count": 25839, "type": "SCALAR", "byteOffset": 0}, {"bufferView": 1, "componentType": 5126, "count": 17640, "max": [25.06639862060547, 5.231984615325928, 2.5309486389160156], "min": [15.066398620605469, -0.5328661203384399, -7.46905517578125], "type": "VEC3", "byteOffset": 0}, {"bufferView": 2, "componentType": 5126, "count": 17640, "type": "VEC3", "byteOffset": 0}, {"bufferView": 3, "componentType": 5126, "count": 17640, "type": "VEC2", "byteOffset": 0}, {"bufferView": 4, "componentType": 5126, "count": 17640, "type": "VEC2", "byteOffset": 0}, {"bufferView": 5, "componentType": 5126, "count": 17640, "type": "VEC2", "byteOffset": 0}, {"bufferView": 6, "componentType": 5126, "count": 17640, "type": "VEC2", "byteOffset": 0}, {"bufferView": 7, "componentType": 5126, "count": 17640, "type": "VEC2", "byteOffset": 0}, {"bufferView": 8, "componentType": 5126, "count": 17640, "type": "VEC2", "byteOffset": 0}, {"bufferView": 9, "componentType": 5126, "count": 17640, "type": "VEC2", "byteOffset": 0}, {"bufferView": 10, "componentType": 5126, "count": 17640, "type": "VEC2", "byteOffset": 0}], "materials": [{"name": "FrontColor", "pbrMetallicRoughness": {"baseColorFactor": [0.5684521794319153, 0.5684521794319153, 0.5684521794319153, 1], "metallicFactor": 0.17196325957775116, "roughnessFactor": 0.47536954283714294}}], "meshes": [{"primitives": [{"attributes": {"POSITION": 1, "NORMAL": 2, "TEXCOORD_0": 3, "TEXCOORD_1": 4, "TEXCOORD_2": 5, "TEXCOORD_3": 6, "TEXCOORD_4": 7, "TEXCOORD_5": 8, "TEXCOORD_6": 9, "TEXCOORD_7": 10}, "indices": 0, "material": 0}]}], "scene": 0, "scenes": [{"name": "Scene", "nodes": [0]}]}