{"asset": {"generator": "Khronos glTF Blender I/O v1.5.17", "version": "2.0"}, "nodes": [{"mesh": 0, "name": "Mesh200_M_0131_Silver_0"}], "buffers": [{"byteLength": 9248, "uri": "FlatCity547.bin"}], "bufferViews": [{"buffer": 0, "byteLength": 288, "byteOffset": 0}, {"buffer": 0, "byteLength": 1212, "byteOffset": 288}, {"buffer": 0, "byteLength": 1212, "byteOffset": 1504}, {"buffer": 0, "byteLength": 808, "byteOffset": 2720}, {"buffer": 0, "byteLength": 808, "byteOffset": 3536}, {"buffer": 0, "byteLength": 808, "byteOffset": 4352}, {"buffer": 0, "byteLength": 808, "byteOffset": 5168}, {"buffer": 0, "byteLength": 808, "byteOffset": 5984}, {"buffer": 0, "byteLength": 808, "byteOffset": 6800}, {"buffer": 0, "byteLength": 808, "byteOffset": 7616}, {"buffer": 0, "byteLength": 808, "byteOffset": 8432}], "accessors": [{"bufferView": 0, "componentType": 5123, "count": 144, "type": "SCALAR", "byteOffset": 0}, {"bufferView": 1, "componentType": 5126, "count": 101, "max": [4.375217437744141, 1.0201622247695923, -0.3632469177246094], "min": [0.4605903625488281, 0.8544162511825562, -4.277873992919922], "type": "VEC3", "byteOffset": 0}, {"bufferView": 2, "componentType": 5126, "count": 101, "type": "VEC3", "byteOffset": 0}, {"bufferView": 3, "componentType": 5126, "count": 101, "type": "VEC2", "byteOffset": 0}, {"bufferView": 4, "componentType": 5126, "count": 101, "type": "VEC2", "byteOffset": 0}, {"bufferView": 5, "componentType": 5126, "count": 101, "type": "VEC2", "byteOffset": 0}, {"bufferView": 6, "componentType": 5126, "count": 101, "type": "VEC2", "byteOffset": 0}, {"bufferView": 7, "componentType": 5126, "count": 101, "type": "VEC2", "byteOffset": 0}, {"bufferView": 8, "componentType": 5126, "count": 101, "type": "VEC2", "byteOffset": 0}, {"bufferView": 9, "componentType": 5126, "count": 101, "type": "VEC2", "byteOffset": 0}, {"bufferView": 10, "componentType": 5126, "count": 101, "type": "VEC2", "byteOffset": 0}], "materials": [{"name": "M_0131_Silver", "pbrMetallicRoughness": {"baseColorFactor": [0.7529410123825073, 0.7529410123825073, 0.7529410123825073, 1], "metallicFactor": 0, "roughnessFactor": 0.9302135109901428}}], "meshes": [{"primitives": [{"attributes": {"POSITION": 1, "NORMAL": 2, "TEXCOORD_0": 3, "TEXCOORD_1": 4, "TEXCOORD_2": 5, "TEXCOORD_3": 6, "TEXCOORD_4": 7, "TEXCOORD_5": 8, "TEXCOORD_6": 9, "TEXCOORD_7": 10}, "indices": 0, "material": 0}]}], "scene": 0, "scenes": [{"name": "Scene", "nodes": [0]}]}