{"asset": {"generator": "Khronos glTF Blender I/O v1.5.17", "version": "2.0"}, "nodes": [{"mesh": 0, "name": "Mesh39_M_0131_Silver_0"}], "buffers": [{"byteLength": 240192, "uri": "FlatCity100.bin"}], "bufferViews": [{"buffer": 0, "byteLength": 6450, "byteOffset": 0}, {"buffer": 0, "byteLength": 31860, "byteOffset": 6464}, {"buffer": 0, "byteLength": 31860, "byteOffset": 38336}, {"buffer": 0, "byteLength": 21240, "byteOffset": 70208}, {"buffer": 0, "byteLength": 21240, "byteOffset": 91456}, {"buffer": 0, "byteLength": 21240, "byteOffset": 112704}, {"buffer": 0, "byteLength": 21240, "byteOffset": 133952}, {"buffer": 0, "byteLength": 21240, "byteOffset": 155200}, {"buffer": 0, "byteLength": 21240, "byteOffset": 176448}, {"buffer": 0, "byteLength": 21240, "byteOffset": 197696}, {"buffer": 0, "byteLength": 21240, "byteOffset": 218944}], "accessors": [{"bufferView": 0, "componentType": 5123, "count": 3225, "type": "SCALAR", "byteOffset": 0}, {"bufferView": 1, "componentType": 5126, "count": 2655, "max": [-4.933601379394531, 5.633901596069336, 12.530948638916016], "min": [-14.933601379394531, -0.10982504487037659, 2.5309486389160156], "type": "VEC3", "byteOffset": 0}, {"bufferView": 2, "componentType": 5126, "count": 2655, "type": "VEC3", "byteOffset": 0}, {"bufferView": 3, "componentType": 5126, "count": 2655, "type": "VEC2", "byteOffset": 0}, {"bufferView": 4, "componentType": 5126, "count": 2655, "type": "VEC2", "byteOffset": 0}, {"bufferView": 5, "componentType": 5126, "count": 2655, "type": "VEC2", "byteOffset": 0}, {"bufferView": 6, "componentType": 5126, "count": 2655, "type": "VEC2", "byteOffset": 0}, {"bufferView": 7, "componentType": 5126, "count": 2655, "type": "VEC2", "byteOffset": 0}, {"bufferView": 8, "componentType": 5126, "count": 2655, "type": "VEC2", "byteOffset": 0}, {"bufferView": 9, "componentType": 5126, "count": 2655, "type": "VEC2", "byteOffset": 0}, {"bufferView": 10, "componentType": 5126, "count": 2655, "type": "VEC2", "byteOffset": 0}], "materials": [{"name": "M_0135_DarkGray", "pbrMetallicRoughness": {"baseColorFactor": [0.3176470100879669, 0.3176470100879669, 0.3176470100879669, 1], "metallicFactor": 0, "roughnessFactor": 0.9302135109901428}}], "meshes": [{"primitives": [{"attributes": {"POSITION": 1, "NORMAL": 2, "TEXCOORD_0": 3, "TEXCOORD_1": 4, "TEXCOORD_2": 5, "TEXCOORD_3": 6, "TEXCOORD_4": 7, "TEXCOORD_5": 8, "TEXCOORD_6": 9, "TEXCOORD_7": 10}, "indices": 0, "material": 0}]}], "scene": 0, "scenes": [{"name": "Scene", "nodes": [0]}]}