{"asset": {"generator": "Khronos glTF Blender I/O v1.5.17", "version": "2.0"}, "nodes": [{"mesh": 0, "name": "Mesh100_M_0131_Silver_0"}], "buffers": [{"byteLength": 1367200, "uri": "FlatCity280.bin"}], "bufferViews": [{"buffer": 0, "byteLength": 38940, "byteOffset": 0}, {"buffer": 0, "byteLength": 181116, "byteOffset": 38944}, {"buffer": 0, "byteLength": 181116, "byteOffset": 220064}, {"buffer": 0, "byteLength": 120744, "byteOffset": 401184}, {"buffer": 0, "byteLength": 120744, "byteOffset": 521936}, {"buffer": 0, "byteLength": 120744, "byteOffset": 642688}, {"buffer": 0, "byteLength": 120744, "byteOffset": 763440}, {"buffer": 0, "byteLength": 120744, "byteOffset": 884192}, {"buffer": 0, "byteLength": 120744, "byteOffset": 1004944}, {"buffer": 0, "byteLength": 120744, "byteOffset": 1125696}, {"buffer": 0, "byteLength": 120744, "byteOffset": 1246448}], "accessors": [{"bufferView": 0, "componentType": 5123, "count": 19470, "type": "SCALAR", "byteOffset": 0}, {"bufferView": 1, "componentType": 5126, "count": 15093, "max": [-14.933601379394531, 1.152474284172058, 2.5309486389160156], "min": [-24.93360137939453, -0.5328661203384399, -7.46905517578125], "type": "VEC3", "byteOffset": 0}, {"bufferView": 2, "componentType": 5126, "count": 15093, "type": "VEC3", "byteOffset": 0}, {"bufferView": 3, "componentType": 5126, "count": 15093, "type": "VEC2", "byteOffset": 0}, {"bufferView": 4, "componentType": 5126, "count": 15093, "type": "VEC2", "byteOffset": 0}, {"bufferView": 5, "componentType": 5126, "count": 15093, "type": "VEC2", "byteOffset": 0}, {"bufferView": 6, "componentType": 5126, "count": 15093, "type": "VEC2", "byteOffset": 0}, {"bufferView": 7, "componentType": 5126, "count": 15093, "type": "VEC2", "byteOffset": 0}, {"bufferView": 8, "componentType": 5126, "count": 15093, "type": "VEC2", "byteOffset": 0}, {"bufferView": 9, "componentType": 5126, "count": 15093, "type": "VEC2", "byteOffset": 0}, {"bufferView": 10, "componentType": 5126, "count": 15093, "type": "VEC2", "byteOffset": 0}], "materials": [{"name": "FrontColor", "pbrMetallicRoughness": {"baseColorFactor": [0.5684521794319153, 0.5684521794319153, 0.5684521794319153, 1], "metallicFactor": 0.17196325957775116, "roughnessFactor": 0.47536954283714294}}], "meshes": [{"primitives": [{"attributes": {"POSITION": 1, "NORMAL": 2, "TEXCOORD_0": 3, "TEXCOORD_1": 4, "TEXCOORD_2": 5, "TEXCOORD_3": 6, "TEXCOORD_4": 7, "TEXCOORD_5": 8, "TEXCOORD_6": 9, "TEXCOORD_7": 10}, "indices": 0, "material": 0}]}], "scene": 0, "scenes": [{"name": "Scene", "nodes": [0]}]}