{"asset": {"generator": "Khronos glTF Blender I/O v1.5.17", "version": "2.0"}, "nodes": [{"mesh": 0, "name": "Mesh206_M_0136_Charcoal_0"}], "buffers": [{"byteLength": 34832, "uri": "FlatCity562.bin"}], "bufferViews": [{"buffer": 0, "byteLength": 1230, "byteOffset": 0}, {"buffer": 0, "byteLength": 4572, "byteOffset": 1232}, {"buffer": 0, "byteLength": 4572, "byteOffset": 5808}, {"buffer": 0, "byteLength": 3048, "byteOffset": 10384}, {"buffer": 0, "byteLength": 3048, "byteOffset": 13440}, {"buffer": 0, "byteLength": 3048, "byteOffset": 16496}, {"buffer": 0, "byteLength": 3048, "byteOffset": 19552}, {"buffer": 0, "byteLength": 3048, "byteOffset": 22608}, {"buffer": 0, "byteLength": 3048, "byteOffset": 25664}, {"buffer": 0, "byteLength": 3048, "byteOffset": 28720}, {"buffer": 0, "byteLength": 3048, "byteOffset": 31776}], "accessors": [{"bufferView": 0, "componentType": 5123, "count": 615, "type": "SCALAR", "byteOffset": 0}, {"bufferView": 1, "componentType": 5126, "count": 381, "max": [20.06639862060547, -0.10982504487037659, -17.474422454833984], "min": [15.066398620605469, -0.5328661203384399, -22.474422454833984], "type": "VEC3", "byteOffset": 0}, {"bufferView": 2, "componentType": 5126, "count": 381, "type": "VEC3", "byteOffset": 0}, {"bufferView": 3, "componentType": 5126, "count": 381, "type": "VEC2", "byteOffset": 0}, {"bufferView": 4, "componentType": 5126, "count": 381, "type": "VEC2", "byteOffset": 0}, {"bufferView": 5, "componentType": 5126, "count": 381, "type": "VEC2", "byteOffset": 0}, {"bufferView": 6, "componentType": 5126, "count": 381, "type": "VEC2", "byteOffset": 0}, {"bufferView": 7, "componentType": 5126, "count": 381, "type": "VEC2", "byteOffset": 0}, {"bufferView": 8, "componentType": 5126, "count": 381, "type": "VEC2", "byteOffset": 0}, {"bufferView": 9, "componentType": 5126, "count": 381, "type": "VEC2", "byteOffset": 0}, {"bufferView": 10, "componentType": 5126, "count": 381, "type": "VEC2", "byteOffset": 0}], "materials": [{"name": "FrontColor", "pbrMetallicRoughness": {"baseColorFactor": [0.5684521794319153, 0.5684521794319153, 0.5684521794319153, 1], "metallicFactor": 0.17196325957775116, "roughnessFactor": 0.47536954283714294}}], "meshes": [{"primitives": [{"attributes": {"POSITION": 1, "NORMAL": 2, "TEXCOORD_0": 3, "TEXCOORD_1": 4, "TEXCOORD_2": 5, "TEXCOORD_3": 6, "TEXCOORD_4": 7, "TEXCOORD_5": 8, "TEXCOORD_6": 9, "TEXCOORD_7": 10}, "indices": 0, "material": 0}]}], "scene": 0, "scenes": [{"name": "Scene", "nodes": [0]}]}