{"asset": {"generator": "Khronos glTF Blender I/O v1.5.17", "version": "2.0"}, "nodes": [{"mesh": 0, "name": "Mesh158_FrontColor_0"}], "buffers": [{"byteLength": 35376, "uri": "FlatCity445.bin"}], "bufferViews": [{"buffer": 0, "byteLength": 1230, "byteOffset": 0}, {"buffer": 0, "byteLength": 4656, "byteOffset": 1232}, {"buffer": 0, "byteLength": 4656, "byteOffset": 5888}, {"buffer": 0, "byteLength": 3104, "byteOffset": 10544}, {"buffer": 0, "byteLength": 3104, "byteOffset": 13648}, {"buffer": 0, "byteLength": 3104, "byteOffset": 16752}, {"buffer": 0, "byteLength": 3104, "byteOffset": 19856}, {"buffer": 0, "byteLength": 3104, "byteOffset": 22960}, {"buffer": 0, "byteLength": 3104, "byteOffset": 26064}, {"buffer": 0, "byteLength": 3104, "byteOffset": 29168}, {"buffer": 0, "byteLength": 3104, "byteOffset": 32272}], "accessors": [{"bufferView": 0, "componentType": 5123, "count": 615, "type": "SCALAR", "byteOffset": 0}, {"bufferView": 1, "componentType": 5126, "count": 388, "max": [30.06639862060547, -0.10982504487037659, -7.46905517578125], "min": [25.06639862060547, -0.5328661203384399, -12.46905517578125], "type": "VEC3", "byteOffset": 0}, {"bufferView": 2, "componentType": 5126, "count": 388, "type": "VEC3", "byteOffset": 0}, {"bufferView": 3, "componentType": 5126, "count": 388, "type": "VEC2", "byteOffset": 0}, {"bufferView": 4, "componentType": 5126, "count": 388, "type": "VEC2", "byteOffset": 0}, {"bufferView": 5, "componentType": 5126, "count": 388, "type": "VEC2", "byteOffset": 0}, {"bufferView": 6, "componentType": 5126, "count": 388, "type": "VEC2", "byteOffset": 0}, {"bufferView": 7, "componentType": 5126, "count": 388, "type": "VEC2", "byteOffset": 0}, {"bufferView": 8, "componentType": 5126, "count": 388, "type": "VEC2", "byteOffset": 0}, {"bufferView": 9, "componentType": 5126, "count": 388, "type": "VEC2", "byteOffset": 0}, {"bufferView": 10, "componentType": 5126, "count": 388, "type": "VEC2", "byteOffset": 0}], "materials": [{"name": "FrontColor", "pbrMetallicRoughness": {"baseColorFactor": [0.5684521794319153, 0.5684521794319153, 0.5684521794319153, 1], "metallicFactor": 0.17196325957775116, "roughnessFactor": 0.47536954283714294}}], "meshes": [{"primitives": [{"attributes": {"POSITION": 1, "NORMAL": 2, "TEXCOORD_0": 3, "TEXCOORD_1": 4, "TEXCOORD_2": 5, "TEXCOORD_3": 6, "TEXCOORD_4": 7, "TEXCOORD_5": 8, "TEXCOORD_6": 9, "TEXCOORD_7": 10}, "indices": 0, "material": 0}]}], "scene": 0, "scenes": [{"name": "Scene", "nodes": [0]}]}