{"asset": {"generator": "Khronos glTF Blender I/O v1.5.17", "version": "2.0"}, "nodes": [{"mesh": 0, "name": "Mesh120_M_0137_Black_0"}], "buffers": [{"byteLength": 5264, "uri": "FlatCity343.bin"}], "bufferViews": [{"buffer": 0, "byteLength": 132, "byteOffset": 0}, {"buffer": 0, "byteLength": 696, "byteOffset": 144}, {"buffer": 0, "byteLength": 696, "byteOffset": 848}, {"buffer": 0, "byteLength": 464, "byteOffset": 1552}, {"buffer": 0, "byteLength": 464, "byteOffset": 2016}, {"buffer": 0, "byteLength": 464, "byteOffset": 2480}, {"buffer": 0, "byteLength": 464, "byteOffset": 2944}, {"buffer": 0, "byteLength": 464, "byteOffset": 3408}, {"buffer": 0, "byteLength": 464, "byteOffset": 3872}, {"buffer": 0, "byteLength": 464, "byteOffset": 4336}, {"buffer": 0, "byteLength": 464, "byteOffset": 4800}], "accessors": [{"bufferView": 0, "componentType": 5123, "count": 66, "type": "SCALAR", "byteOffset": 0}, {"bufferView": 1, "componentType": 5126, "count": 58, "max": [-10.369842529296875, 1.1859081983566284, -0.7022857666015625], "min": [-14.200370788574219, 1.0201622247695923, -4.532814025878906], "type": "VEC3", "byteOffset": 0}, {"bufferView": 2, "componentType": 5126, "count": 58, "type": "VEC3", "byteOffset": 0}, {"bufferView": 3, "componentType": 5126, "count": 58, "type": "VEC2", "byteOffset": 0}, {"bufferView": 4, "componentType": 5126, "count": 58, "type": "VEC2", "byteOffset": 0}, {"bufferView": 5, "componentType": 5126, "count": 58, "type": "VEC2", "byteOffset": 0}, {"bufferView": 6, "componentType": 5126, "count": 58, "type": "VEC2", "byteOffset": 0}, {"bufferView": 7, "componentType": 5126, "count": 58, "type": "VEC2", "byteOffset": 0}, {"bufferView": 8, "componentType": 5126, "count": 58, "type": "VEC2", "byteOffset": 0}, {"bufferView": 9, "componentType": 5126, "count": 58, "type": "VEC2", "byteOffset": 0}, {"bufferView": 10, "componentType": 5126, "count": 58, "type": "VEC2", "byteOffset": 0}], "materials": [{"name": "M_0137_Black", "pbrMetallicRoughness": {"baseColorFactor": [0, 0, 0, 1], "metallicFactor": 0, "roughnessFactor": 0}}], "meshes": [{"primitives": [{"attributes": {"POSITION": 1, "NORMAL": 2, "TEXCOORD_0": 3, "TEXCOORD_1": 4, "TEXCOORD_2": 5, "TEXCOORD_3": 6, "TEXCOORD_4": 7, "TEXCOORD_5": 8, "TEXCOORD_6": 9, "TEXCOORD_7": 10}, "indices": 0, "material": 0}]}], "scene": 0, "scenes": [{"name": "Scene", "nodes": [0]}]}