{"asset": {"generator": "Khronos glTF Blender I/O v1.5.17", "version": "2.0"}, "nodes": [{"mesh": 0, "name": "Mesh34_FrontColor_0"}], "buffers": [{"byteLength": 1824, "uri": "FlatCity87.bin"}], "bufferViews": [{"buffer": 0, "byteLength": 60, "byteOffset": 0}, {"buffer": 0, "byteLength": 240, "byteOffset": 64}, {"buffer": 0, "byteLength": 240, "byteOffset": 304}, {"buffer": 0, "byteLength": 160, "byteOffset": 544}, {"buffer": 0, "byteLength": 160, "byteOffset": 704}, {"buffer": 0, "byteLength": 160, "byteOffset": 864}, {"buffer": 0, "byteLength": 160, "byteOffset": 1024}, {"buffer": 0, "byteLength": 160, "byteOffset": 1184}, {"buffer": 0, "byteLength": 160, "byteOffset": 1344}, {"buffer": 0, "byteLength": 160, "byteOffset": 1504}, {"buffer": 0, "byteLength": 160, "byteOffset": 1664}], "accessors": [{"bufferView": 0, "componentType": 5123, "count": 30, "type": "SCALAR", "byteOffset": 0}, {"bufferView": 1, "componentType": 5126, "count": 20, "max": [-14.933601379394531, -0.10015600919723511, 22.53095245361328], "min": [-17.71039581298828, -0.10982504487037659, 12.530948638916016], "type": "VEC3", "byteOffset": 0}, {"bufferView": 2, "componentType": 5126, "count": 20, "type": "VEC3", "byteOffset": 0}, {"bufferView": 3, "componentType": 5126, "count": 20, "type": "VEC2", "byteOffset": 0}, {"bufferView": 4, "componentType": 5126, "count": 20, "type": "VEC2", "byteOffset": 0}, {"bufferView": 5, "componentType": 5126, "count": 20, "type": "VEC2", "byteOffset": 0}, {"bufferView": 6, "componentType": 5126, "count": 20, "type": "VEC2", "byteOffset": 0}, {"bufferView": 7, "componentType": 5126, "count": 20, "type": "VEC2", "byteOffset": 0}, {"bufferView": 8, "componentType": 5126, "count": 20, "type": "VEC2", "byteOffset": 0}, {"bufferView": 9, "componentType": 5126, "count": 20, "type": "VEC2", "byteOffset": 0}, {"bufferView": 10, "componentType": 5126, "count": 20, "type": "VEC2", "byteOffset": 0}], "materials": [{"name": "M_0135_DarkGray", "pbrMetallicRoughness": {"baseColorFactor": [0.3176470100879669, 0.3176470100879669, 0.3176470100879669, 1], "metallicFactor": 0, "roughnessFactor": 0.9302135109901428}}], "meshes": [{"primitives": [{"attributes": {"POSITION": 1, "NORMAL": 2, "TEXCOORD_0": 3, "TEXCOORD_1": 4, "TEXCOORD_2": 5, "TEXCOORD_3": 6, "TEXCOORD_4": 7, "TEXCOORD_5": 8, "TEXCOORD_6": 9, "TEXCOORD_7": 10}, "indices": 0, "material": 0}]}], "scene": 0, "scenes": [{"name": "Scene", "nodes": [0]}]}