{"asset": {"generator": "Khronos glTF Blender I/O v1.5.17", "version": "2.0"}, "nodes": [{"mesh": 0, "name": "Mesh160_M_0137_Black_0"}], "buffers": [{"byteLength": 367776, "uri": "FlatCity450.bin"}], "bufferViews": [{"buffer": 0, "byteLength": 11004, "byteOffset": 0}, {"buffer": 0, "byteLength": 48648, "byteOffset": 11008}, {"buffer": 0, "byteLength": 48648, "byteOffset": 59664}, {"buffer": 0, "byteLength": 32432, "byteOffset": 108320}, {"buffer": 0, "byteLength": 32432, "byteOffset": 140752}, {"buffer": 0, "byteLength": 32432, "byteOffset": 173184}, {"buffer": 0, "byteLength": 32432, "byteOffset": 205616}, {"buffer": 0, "byteLength": 32432, "byteOffset": 238048}, {"buffer": 0, "byteLength": 32432, "byteOffset": 270480}, {"buffer": 0, "byteLength": 32432, "byteOffset": 302912}, {"buffer": 0, "byteLength": 32432, "byteOffset": 335344}], "accessors": [{"bufferView": 0, "componentType": 5123, "count": 5502, "type": "SCALAR", "byteOffset": 0}, {"bufferView": 1, "componentType": 5126, "count": 4054, "max": [-24.93360137939453, -0.10982504487037659, -7.46905517578125], "min": [-34.93360137939453, -0.11949405074119568, -17.469058990478516], "type": "VEC3", "byteOffset": 0}, {"bufferView": 2, "componentType": 5126, "count": 4054, "type": "VEC3", "byteOffset": 0}, {"bufferView": 3, "componentType": 5126, "count": 4054, "type": "VEC2", "byteOffset": 0}, {"bufferView": 4, "componentType": 5126, "count": 4054, "type": "VEC2", "byteOffset": 0}, {"bufferView": 5, "componentType": 5126, "count": 4054, "type": "VEC2", "byteOffset": 0}, {"bufferView": 6, "componentType": 5126, "count": 4054, "type": "VEC2", "byteOffset": 0}, {"bufferView": 7, "componentType": 5126, "count": 4054, "type": "VEC2", "byteOffset": 0}, {"bufferView": 8, "componentType": 5126, "count": 4054, "type": "VEC2", "byteOffset": 0}, {"bufferView": 9, "componentType": 5126, "count": 4054, "type": "VEC2", "byteOffset": 0}, {"bufferView": 10, "componentType": 5126, "count": 4054, "type": "VEC2", "byteOffset": 0}], "materials": [{"name": "M_0135_DarkGray", "pbrMetallicRoughness": {"baseColorFactor": [0.3176470100879669, 0.3176470100879669, 0.3176470100879669, 1], "metallicFactor": 0, "roughnessFactor": 0.9302135109901428}}], "meshes": [{"primitives": [{"attributes": {"POSITION": 1, "NORMAL": 2, "TEXCOORD_0": 3, "TEXCOORD_1": 4, "TEXCOORD_2": 5, "TEXCOORD_3": 6, "TEXCOORD_4": 7, "TEXCOORD_5": 8, "TEXCOORD_6": 9, "TEXCOORD_7": 10}, "indices": 0, "material": 0}]}], "scene": 0, "scenes": [{"name": "Scene", "nodes": [0]}]}