{"asset": {"generator": "Khronos glTF Blender I/O v1.5.17", "version": "2.0"}, "nodes": [{"mesh": 0, "name": "Mesh81_M_0130_Gainsboro_0"}], "buffers": [{"byteLength": 11360, "uri": "FlatCity228.bin"}], "bufferViews": [{"buffer": 0, "byteLength": 288, "byteOffset": 0}, {"buffer": 0, "byteLength": 1500, "byteOffset": 288}, {"buffer": 0, "byteLength": 1500, "byteOffset": 1792}, {"buffer": 0, "byteLength": 1000, "byteOffset": 3296}, {"buffer": 0, "byteLength": 1000, "byteOffset": 4304}, {"buffer": 0, "byteLength": 1000, "byteOffset": 5312}, {"buffer": 0, "byteLength": 1000, "byteOffset": 6320}, {"buffer": 0, "byteLength": 1000, "byteOffset": 7328}, {"buffer": 0, "byteLength": 1000, "byteOffset": 8336}, {"buffer": 0, "byteLength": 1000, "byteOffset": 9344}, {"buffer": 0, "byteLength": 1000, "byteOffset": 10352}], "accessors": [{"bufferView": 0, "componentType": 5123, "count": 144, "type": "SCALAR", "byteOffset": 0}, {"bufferView": 1, "componentType": 5126, "count": 125, "max": [24.37521743774414, 3.0091147422790527, -0.6602363586425781], "min": [20.460590362548828, 2.8433685302734375, -4.574863433837891], "type": "VEC3", "byteOffset": 0}, {"bufferView": 2, "componentType": 5126, "count": 125, "type": "VEC3", "byteOffset": 0}, {"bufferView": 3, "componentType": 5126, "count": 125, "type": "VEC2", "byteOffset": 0}, {"bufferView": 4, "componentType": 5126, "count": 125, "type": "VEC2", "byteOffset": 0}, {"bufferView": 5, "componentType": 5126, "count": 125, "type": "VEC2", "byteOffset": 0}, {"bufferView": 6, "componentType": 5126, "count": 125, "type": "VEC2", "byteOffset": 0}, {"bufferView": 7, "componentType": 5126, "count": 125, "type": "VEC2", "byteOffset": 0}, {"bufferView": 8, "componentType": 5126, "count": 125, "type": "VEC2", "byteOffset": 0}, {"bufferView": 9, "componentType": 5126, "count": 125, "type": "VEC2", "byteOffset": 0}, {"bufferView": 10, "componentType": 5126, "count": 125, "type": "VEC2", "byteOffset": 0}], "materials": [{"name": "M_0131_Silver", "pbrMetallicRoughness": {"baseColorFactor": [0.7529410123825073, 0.7529410123825073, 0.7529410123825073, 1], "metallicFactor": 0, "roughnessFactor": 0.9302135109901428}}], "meshes": [{"primitives": [{"attributes": {"POSITION": 1, "NORMAL": 2, "TEXCOORD_0": 3, "TEXCOORD_1": 4, "TEXCOORD_2": 5, "TEXCOORD_3": 6, "TEXCOORD_4": 7, "TEXCOORD_5": 8, "TEXCOORD_6": 9, "TEXCOORD_7": 10}, "indices": 0, "material": 0}]}], "scene": 0, "scenes": [{"name": "Scene", "nodes": [0]}]}