{"asset": {"generator": "Khronos glTF Blender I/O v1.5.17", "version": "2.0"}, "nodes": [{"mesh": 0, "name": "Mesh46_M_0131_Silver_0"}], "buffers": [{"byteLength": 995136, "uri": "FlatCity121.bin"}], "bufferViews": [{"buffer": 0, "byteLength": 31698, "byteOffset": 0}, {"buffer": 0, "byteLength": 131364, "byteOffset": 31712}, {"buffer": 0, "byteLength": 131364, "byteOffset": 163088}, {"buffer": 0, "byteLength": 87576, "byteOffset": 294464}, {"buffer": 0, "byteLength": 87576, "byteOffset": 382048}, {"buffer": 0, "byteLength": 87576, "byteOffset": 469632}, {"buffer": 0, "byteLength": 87576, "byteOffset": 557216}, {"buffer": 0, "byteLength": 87576, "byteOffset": 644800}, {"buffer": 0, "byteLength": 87576, "byteOffset": 732384}, {"buffer": 0, "byteLength": 87576, "byteOffset": 819968}, {"buffer": 0, "byteLength": 87576, "byteOffset": 907552}], "accessors": [{"bufferView": 0, "componentType": 5123, "count": 15849, "type": "SCALAR", "byteOffset": 0}, {"bufferView": 1, "componentType": 5126, "count": 10947, "max": [-14.933601379394531, 1.065810203552246, 12.530948638916016], "min": [-24.93360137939453, -0.5349650979042053, 2.5309486389160156], "type": "VEC3", "byteOffset": 0}, {"bufferView": 2, "componentType": 5126, "count": 10947, "type": "VEC3", "byteOffset": 0}, {"bufferView": 3, "componentType": 5126, "count": 10947, "type": "VEC2", "byteOffset": 0}, {"bufferView": 4, "componentType": 5126, "count": 10947, "type": "VEC2", "byteOffset": 0}, {"bufferView": 5, "componentType": 5126, "count": 10947, "type": "VEC2", "byteOffset": 0}, {"bufferView": 6, "componentType": 5126, "count": 10947, "type": "VEC2", "byteOffset": 0}, {"bufferView": 7, "componentType": 5126, "count": 10947, "type": "VEC2", "byteOffset": 0}, {"bufferView": 8, "componentType": 5126, "count": 10947, "type": "VEC2", "byteOffset": 0}, {"bufferView": 9, "componentType": 5126, "count": 10947, "type": "VEC2", "byteOffset": 0}, {"bufferView": 10, "componentType": 5126, "count": 10947, "type": "VEC2", "byteOffset": 0}], "materials": [{"name": "FrontColor", "pbrMetallicRoughness": {"baseColorFactor": [0.5684521794319153, 0.5684521794319153, 0.5684521794319153, 1], "metallicFactor": 0.17196325957775116, "roughnessFactor": 0.47536954283714294}}], "meshes": [{"primitives": [{"attributes": {"POSITION": 1, "NORMAL": 2, "TEXCOORD_0": 3, "TEXCOORD_1": 4, "TEXCOORD_2": 5, "TEXCOORD_3": 6, "TEXCOORD_4": 7, "TEXCOORD_5": 8, "TEXCOORD_6": 9, "TEXCOORD_7": 10}, "indices": 0, "material": 0}]}], "scene": 0, "scenes": [{"name": "Scene", "nodes": [0]}]}