{"asset": {"generator": "Khronos glTF Blender I/O v1.5.17", "version": "2.0"}, "nodes": [{"mesh": 0, "name": "Mesh24_M_0137_Black_0"}], "buffers": [{"byteLength": 35040, "uri": "FlatCity55.bin"}], "bufferViews": [{"buffer": 0, "byteLength": 1242, "byteOffset": 0}, {"buffer": 0, "byteLength": 4596, "byteOffset": 1248}, {"buffer": 0, "byteLength": 4596, "byteOffset": 5856}, {"buffer": 0, "byteLength": 3064, "byteOffset": 10464}, {"buffer": 0, "byteLength": 3064, "byteOffset": 13536}, {"buffer": 0, "byteLength": 3064, "byteOffset": 16608}, {"buffer": 0, "byteLength": 3064, "byteOffset": 19680}, {"buffer": 0, "byteLength": 3064, "byteOffset": 22752}, {"buffer": 0, "byteLength": 3064, "byteOffset": 25824}, {"buffer": 0, "byteLength": 3064, "byteOffset": 28896}, {"buffer": 0, "byteLength": 3064, "byteOffset": 31968}], "accessors": [{"bufferView": 0, "componentType": 5123, "count": 621, "type": "SCALAR", "byteOffset": 0}, {"bufferView": 1, "componentType": 5126, "count": 383, "max": [-14.933601379394531, -0.10015600919723511, 27.53095245361328], "min": [-19.93360137939453, -0.5231971144676208, 22.53095245361328], "type": "VEC3", "byteOffset": 0}, {"bufferView": 2, "componentType": 5126, "count": 383, "type": "VEC3", "byteOffset": 0}, {"bufferView": 3, "componentType": 5126, "count": 383, "type": "VEC2", "byteOffset": 0}, {"bufferView": 4, "componentType": 5126, "count": 383, "type": "VEC2", "byteOffset": 0}, {"bufferView": 5, "componentType": 5126, "count": 383, "type": "VEC2", "byteOffset": 0}, {"bufferView": 6, "componentType": 5126, "count": 383, "type": "VEC2", "byteOffset": 0}, {"bufferView": 7, "componentType": 5126, "count": 383, "type": "VEC2", "byteOffset": 0}, {"bufferView": 8, "componentType": 5126, "count": 383, "type": "VEC2", "byteOffset": 0}, {"bufferView": 9, "componentType": 5126, "count": 383, "type": "VEC2", "byteOffset": 0}, {"bufferView": 10, "componentType": 5126, "count": 383, "type": "VEC2", "byteOffset": 0}], "materials": [{"name": "FrontColor", "pbrMetallicRoughness": {"baseColorFactor": [0.5684521794319153, 0.5684521794319153, 0.5684521794319153, 1], "metallicFactor": 0.17196325957775116, "roughnessFactor": 0.47536954283714294}}], "meshes": [{"primitives": [{"attributes": {"POSITION": 1, "NORMAL": 2, "TEXCOORD_0": 3, "TEXCOORD_1": 4, "TEXCOORD_2": 5, "TEXCOORD_3": 6, "TEXCOORD_4": 7, "TEXCOORD_5": 8, "TEXCOORD_6": 9, "TEXCOORD_7": 10}, "indices": 0, "material": 0}]}], "scene": 0, "scenes": [{"name": "Scene", "nodes": [0]}]}