{"asset": {"generator": "Khronos glTF Blender I/O v1.5.17", "version": "2.0"}, "nodes": [{"mesh": 0, "name": "Mesh232_FrontColor_0"}], "buffers": [{"byteLength": 6560, "uri": "FlatCity613.bin"}], "bufferViews": [{"buffer": 0, "byteLength": 210, "byteOffset": 0}, {"buffer": 0, "byteLength": 852, "byteOffset": 224}, {"buffer": 0, "byteLength": 852, "byteOffset": 1088}, {"buffer": 0, "byteLength": 568, "byteOffset": 1952}, {"buffer": 0, "byteLength": 568, "byteOffset": 2528}, {"buffer": 0, "byteLength": 568, "byteOffset": 3104}, {"buffer": 0, "byteLength": 568, "byteOffset": 3680}, {"buffer": 0, "byteLength": 568, "byteOffset": 4256}, {"buffer": 0, "byteLength": 568, "byteOffset": 4832}, {"buffer": 0, "byteLength": 568, "byteOffset": 5408}, {"buffer": 0, "byteLength": 568, "byteOffset": 5984}], "accessors": [{"bufferView": 0, "componentType": 5123, "count": 105, "type": "SCALAR", "byteOffset": 0}, {"bufferView": 1, "componentType": 5126, "count": 71, "max": [5.066398620605469, -0.10982504487037659, -17.474422454833984], "min": [-4.933601379394531, -0.5328661203384399, -22.474422454833984], "type": "VEC3", "byteOffset": 0}, {"bufferView": 2, "componentType": 5126, "count": 71, "type": "VEC3", "byteOffset": 0}, {"bufferView": 3, "componentType": 5126, "count": 71, "type": "VEC2", "byteOffset": 0}, {"bufferView": 4, "componentType": 5126, "count": 71, "type": "VEC2", "byteOffset": 0}, {"bufferView": 5, "componentType": 5126, "count": 71, "type": "VEC2", "byteOffset": 0}, {"bufferView": 6, "componentType": 5126, "count": 71, "type": "VEC2", "byteOffset": 0}, {"bufferView": 7, "componentType": 5126, "count": 71, "type": "VEC2", "byteOffset": 0}, {"bufferView": 8, "componentType": 5126, "count": 71, "type": "VEC2", "byteOffset": 0}, {"bufferView": 9, "componentType": 5126, "count": 71, "type": "VEC2", "byteOffset": 0}, {"bufferView": 10, "componentType": 5126, "count": 71, "type": "VEC2", "byteOffset": 0}], "materials": [{"name": "FrontColor", "pbrMetallicRoughness": {"baseColorFactor": [0.5684521794319153, 0.5684521794319153, 0.5684521794319153, 1], "metallicFactor": 0.17196325957775116, "roughnessFactor": 0.47536954283714294}}], "meshes": [{"primitives": [{"attributes": {"POSITION": 1, "NORMAL": 2, "TEXCOORD_0": 3, "TEXCOORD_1": 4, "TEXCOORD_2": 5, "TEXCOORD_3": 6, "TEXCOORD_4": 7, "TEXCOORD_5": 8, "TEXCOORD_6": 9, "TEXCOORD_7": 10}, "indices": 0, "material": 0}]}], "scene": 0, "scenes": [{"name": "Scene", "nodes": [0]}]}