{"asset": {"generator": "Khronos glTF Blender I/O v1.5.17", "version": "2.0"}, "nodes": [{"mesh": 0, "name": "Mesh138_FrontColor_0"}], "buffers": [{"byteLength": 41312, "uri": "FlatCity386.bin"}], "bufferViews": [{"buffer": 0, "byteLength": 1338, "byteOffset": 0}, {"buffer": 0, "byteLength": 5448, "byteOffset": 1344}, {"buffer": 0, "byteLength": 5448, "byteOffset": 6800}, {"buffer": 0, "byteLength": 3632, "byteOffset": 12256}, {"buffer": 0, "byteLength": 3632, "byteOffset": 15888}, {"buffer": 0, "byteLength": 3632, "byteOffset": 19520}, {"buffer": 0, "byteLength": 3632, "byteOffset": 23152}, {"buffer": 0, "byteLength": 3632, "byteOffset": 26784}, {"buffer": 0, "byteLength": 3632, "byteOffset": 30416}, {"buffer": 0, "byteLength": 3632, "byteOffset": 34048}, {"buffer": 0, "byteLength": 3632, "byteOffset": 37680}], "accessors": [{"bufferView": 0, "componentType": 5123, "count": 669, "type": "SCALAR", "byteOffset": 0}, {"bufferView": 1, "componentType": 5126, "count": 454, "max": [-38.20323181152344, 4.870538234710693, -7.653831481933594], "min": [-44.754188537597656, -0.10982504487037659, -17.078556060791016], "type": "VEC3", "byteOffset": 0}, {"bufferView": 2, "componentType": 5126, "count": 454, "type": "VEC3", "byteOffset": 0}, {"bufferView": 3, "componentType": 5126, "count": 454, "type": "VEC2", "byteOffset": 0}, {"bufferView": 4, "componentType": 5126, "count": 454, "type": "VEC2", "byteOffset": 0}, {"bufferView": 5, "componentType": 5126, "count": 454, "type": "VEC2", "byteOffset": 0}, {"bufferView": 6, "componentType": 5126, "count": 454, "type": "VEC2", "byteOffset": 0}, {"bufferView": 7, "componentType": 5126, "count": 454, "type": "VEC2", "byteOffset": 0}, {"bufferView": 8, "componentType": 5126, "count": 454, "type": "VEC2", "byteOffset": 0}, {"bufferView": 9, "componentType": 5126, "count": 454, "type": "VEC2", "byteOffset": 0}, {"bufferView": 10, "componentType": 5126, "count": 454, "type": "VEC2", "byteOffset": 0}], "materials": [{"name": "M_0069_LimeGreen", "pbrMetallicRoughness": {"baseColorFactor": [0.19607800245285034, 0.8039219975471497, 0.19607800245285034, 1], "metallicFactor": 0, "roughnessFactor": 0.9302135109901428}}], "meshes": [{"primitives": [{"attributes": {"POSITION": 1, "NORMAL": 2, "TEXCOORD_0": 3, "TEXCOORD_1": 4, "TEXCOORD_2": 5, "TEXCOORD_3": 6, "TEXCOORD_4": 7, "TEXCOORD_5": 8, "TEXCOORD_6": 9, "TEXCOORD_7": 10}, "indices": 0, "material": 0}]}], "scene": 0, "scenes": [{"name": "Scene", "nodes": [0]}]}