{"asset": {"generator": "Khronos glTF Blender I/O v1.5.17", "version": "2.0"}, "nodes": [{"mesh": 0, "name": "Mesh53_M_0131_Silver_0"}], "buffers": [{"byteLength": 12656, "uri": "FlatCity142.bin"}], "bufferViews": [{"buffer": 0, "byteLength": 336, "byteOffset": 0}, {"buffer": 0, "byteLength": 1668, "byteOffset": 336}, {"buffer": 0, "byteLength": 1668, "byteOffset": 2016}, {"buffer": 0, "byteLength": 1112, "byteOffset": 3696}, {"buffer": 0, "byteLength": 1112, "byteOffset": 4816}, {"buffer": 0, "byteLength": 1112, "byteOffset": 5936}, {"buffer": 0, "byteLength": 1112, "byteOffset": 7056}, {"buffer": 0, "byteLength": 1112, "byteOffset": 8176}, {"buffer": 0, "byteLength": 1112, "byteOffset": 9296}, {"buffer": 0, "byteLength": 1112, "byteOffset": 10416}, {"buffer": 0, "byteLength": 1112, "byteOffset": 11536}], "accessors": [{"bufferView": 0, "componentType": 5123, "count": 168, "type": "SCALAR", "byteOffset": 0}, {"bufferView": 1, "componentType": 5126, "count": 139, "max": [23.066265106201172, 0.36989110708236694, 7.3774261474609375], "min": [21.952423095703125, -0.10982504487037659, 5.737560272216797], "type": "VEC3", "byteOffset": 0}, {"bufferView": 2, "componentType": 5126, "count": 139, "type": "VEC3", "byteOffset": 0}, {"bufferView": 3, "componentType": 5126, "count": 139, "type": "VEC2", "byteOffset": 0}, {"bufferView": 4, "componentType": 5126, "count": 139, "type": "VEC2", "byteOffset": 0}, {"bufferView": 5, "componentType": 5126, "count": 139, "type": "VEC2", "byteOffset": 0}, {"bufferView": 6, "componentType": 5126, "count": 139, "type": "VEC2", "byteOffset": 0}, {"bufferView": 7, "componentType": 5126, "count": 139, "type": "VEC2", "byteOffset": 0}, {"bufferView": 8, "componentType": 5126, "count": 139, "type": "VEC2", "byteOffset": 0}, {"bufferView": 9, "componentType": 5126, "count": 139, "type": "VEC2", "byteOffset": 0}, {"bufferView": 10, "componentType": 5126, "count": 139, "type": "VEC2", "byteOffset": 0}], "materials": [{"name": "FrontColor", "pbrMetallicRoughness": {"baseColorFactor": [0.5684521794319153, 0.5684521794319153, 0.5684521794319153, 1], "metallicFactor": 0.17196325957775116, "roughnessFactor": 0.47536954283714294}}], "meshes": [{"primitives": [{"attributes": {"POSITION": 1, "NORMAL": 2, "TEXCOORD_0": 3, "TEXCOORD_1": 4, "TEXCOORD_2": 5, "TEXCOORD_3": 6, "TEXCOORD_4": 7, "TEXCOORD_5": 8, "TEXCOORD_6": 9, "TEXCOORD_7": 10}, "indices": 0, "material": 0}]}], "scene": 0, "scenes": [{"name": "Scene", "nodes": [0]}]}