{"asset": {"generator": "Khronos glTF Blender I/O v1.5.17", "version": "2.0"}, "nodes": [{"mesh": 0, "name": "Mesh38_M_0137_Black_0"}], "buffers": [{"byteLength": 57488, "uri": "FlatCity98.bin"}], "bufferViews": [{"buffer": 0, "byteLength": 1680, "byteOffset": 0}, {"buffer": 0, "byteLength": 7608, "byteOffset": 1680}, {"buffer": 0, "byteLength": 7608, "byteOffset": 9296}, {"buffer": 0, "byteLength": 5072, "byteOffset": 16912}, {"buffer": 0, "byteLength": 5072, "byteOffset": 21984}, {"buffer": 0, "byteLength": 5072, "byteOffset": 27056}, {"buffer": 0, "byteLength": 5072, "byteOffset": 32128}, {"buffer": 0, "byteLength": 5072, "byteOffset": 37200}, {"buffer": 0, "byteLength": 5072, "byteOffset": 42272}, {"buffer": 0, "byteLength": 5072, "byteOffset": 47344}, {"buffer": 0, "byteLength": 5072, "byteOffset": 52416}], "accessors": [{"bufferView": 0, "componentType": 5123, "count": 840, "type": "SCALAR", "byteOffset": 0}, {"bufferView": 1, "componentType": 5126, "count": 634, "max": [14.965166091918945, 3.2583117485046387, 12.441240310668945], "min": [5.156105041503906, -0.11001846194267273, 2.6043853759765625], "type": "VEC3", "byteOffset": 0}, {"bufferView": 2, "componentType": 5126, "count": 634, "type": "VEC3", "byteOffset": 0}, {"bufferView": 3, "componentType": 5126, "count": 634, "type": "VEC2", "byteOffset": 0}, {"bufferView": 4, "componentType": 5126, "count": 634, "type": "VEC2", "byteOffset": 0}, {"bufferView": 5, "componentType": 5126, "count": 634, "type": "VEC2", "byteOffset": 0}, {"bufferView": 6, "componentType": 5126, "count": 634, "type": "VEC2", "byteOffset": 0}, {"bufferView": 7, "componentType": 5126, "count": 634, "type": "VEC2", "byteOffset": 0}, {"bufferView": 8, "componentType": 5126, "count": 634, "type": "VEC2", "byteOffset": 0}, {"bufferView": 9, "componentType": 5126, "count": 634, "type": "VEC2", "byteOffset": 0}, {"bufferView": 10, "componentType": 5126, "count": 634, "type": "VEC2", "byteOffset": 0}], "materials": [{"name": "M_0069_LimeGreen", "pbrMetallicRoughness": {"baseColorFactor": [0.19607800245285034, 0.8039219975471497, 0.19607800245285034, 1], "metallicFactor": 0, "roughnessFactor": 0.9302135109901428}}], "meshes": [{"primitives": [{"attributes": {"POSITION": 1, "NORMAL": 2, "TEXCOORD_0": 3, "TEXCOORD_1": 4, "TEXCOORD_2": 5, "TEXCOORD_3": 6, "TEXCOORD_4": 7, "TEXCOORD_5": 8, "TEXCOORD_6": 9, "TEXCOORD_7": 10}, "indices": 0, "material": 0}]}], "scene": 0, "scenes": [{"name": "Scene", "nodes": [0]}]}