{"asset": {"generator": "Khronos glTF Blender I/O v1.5.17", "version": "2.0"}, "nodes": [{"mesh": 0, "name": "Mesh38_M_0131_Silver_0"}], "buffers": [{"byteLength": 4207120, "uri": "FlatCity97.bin"}], "bufferViews": [{"buffer": 0, "byteLength": 116868, "byteOffset": 0}, {"buffer": 0, "byteLength": 557748, "byteOffset": 116880}, {"buffer": 0, "byteLength": 557748, "byteOffset": 674640}, {"buffer": 0, "byteLength": 371832, "byteOffset": 1232400}, {"buffer": 0, "byteLength": 371832, "byteOffset": 1604240}, {"buffer": 0, "byteLength": 371832, "byteOffset": 1976080}, {"buffer": 0, "byteLength": 371832, "byteOffset": 2347920}, {"buffer": 0, "byteLength": 371832, "byteOffset": 2719760}, {"buffer": 0, "byteLength": 371832, "byteOffset": 3091600}, {"buffer": 0, "byteLength": 371832, "byteOffset": 3463440}, {"buffer": 0, "byteLength": 371832, "byteOffset": 3835280}], "accessors": [{"bufferView": 0, "componentType": 5123, "count": 58434, "type": "SCALAR", "byteOffset": 0}, {"bufferView": 1, "componentType": 5126, "count": 46479, "max": [15.066398620605469, 3.2583117485046387, 12.530948638916016], "min": [5.066394805908203, -0.5328661203384399, 2.5309486389160156], "type": "VEC3", "byteOffset": 0}, {"bufferView": 2, "componentType": 5126, "count": 46479, "type": "VEC3", "byteOffset": 0}, {"bufferView": 3, "componentType": 5126, "count": 46479, "type": "VEC2", "byteOffset": 0}, {"bufferView": 4, "componentType": 5126, "count": 46479, "type": "VEC2", "byteOffset": 0}, {"bufferView": 5, "componentType": 5126, "count": 46479, "type": "VEC2", "byteOffset": 0}, {"bufferView": 6, "componentType": 5126, "count": 46479, "type": "VEC2", "byteOffset": 0}, {"bufferView": 7, "componentType": 5126, "count": 46479, "type": "VEC2", "byteOffset": 0}, {"bufferView": 8, "componentType": 5126, "count": 46479, "type": "VEC2", "byteOffset": 0}, {"bufferView": 9, "componentType": 5126, "count": 46479, "type": "VEC2", "byteOffset": 0}, {"bufferView": 10, "componentType": 5126, "count": 46479, "type": "VEC2", "byteOffset": 0}], "materials": [{"name": "M_0130_Gainsboro", "pbrMetallicRoughness": {"baseColorFactor": [0.8627449870109558, 0.8627449870109558, 0.8627449870109558, 1], "metallicFactor": 0, "roughnessFactor": 0.9685046672821045}}], "meshes": [{"primitives": [{"attributes": {"POSITION": 1, "NORMAL": 2, "TEXCOORD_0": 3, "TEXCOORD_1": 4, "TEXCOORD_2": 5, "TEXCOORD_3": 6, "TEXCOORD_4": 7, "TEXCOORD_5": 8, "TEXCOORD_6": 9, "TEXCOORD_7": 10}, "indices": 0, "material": 0}]}], "scene": 0, "scenes": [{"name": "Scene", "nodes": [0]}]}