{"asset": {"generator": "Khronos glTF Blender I/O v1.5.17", "version": "2.0"}, "nodes": [{"mesh": 0, "name": "Mesh230_M_0135_DarkGray_0"}], "buffers": [{"byteLength": 194832, "uri": "FlatCity609.bin"}], "bufferViews": [{"buffer": 0, "byteLength": 5100, "byteOffset": 0}, {"buffer": 0, "byteLength": 25860, "byteOffset": 5104}, {"buffer": 0, "byteLength": 25860, "byteOffset": 30976}, {"buffer": 0, "byteLength": 17240, "byteOffset": 56848}, {"buffer": 0, "byteLength": 17240, "byteOffset": 74096}, {"buffer": 0, "byteLength": 17240, "byteOffset": 91344}, {"buffer": 0, "byteLength": 17240, "byteOffset": 108592}, {"buffer": 0, "byteLength": 17240, "byteOffset": 125840}, {"buffer": 0, "byteLength": 17240, "byteOffset": 143088}, {"buffer": 0, "byteLength": 17240, "byteOffset": 160336}, {"buffer": 0, "byteLength": 17240, "byteOffset": 177584}], "accessors": [{"bufferView": 0, "componentType": 5123, "count": 2550, "type": "SCALAR", "byteOffset": 0}, {"bufferView": 1, "componentType": 5126, "count": 2155, "max": [4.869775772094727, 2.421888828277588, -7.749858856201172], "min": [-4.711566925048828, -0.12167003750801086, -16.910018920898438], "type": "VEC3", "byteOffset": 0}, {"bufferView": 2, "componentType": 5126, "count": 2155, "type": "VEC3", "byteOffset": 0}, {"bufferView": 3, "componentType": 5126, "count": 2155, "type": "VEC2", "byteOffset": 0}, {"bufferView": 4, "componentType": 5126, "count": 2155, "type": "VEC2", "byteOffset": 0}, {"bufferView": 5, "componentType": 5126, "count": 2155, "type": "VEC2", "byteOffset": 0}, {"bufferView": 6, "componentType": 5126, "count": 2155, "type": "VEC2", "byteOffset": 0}, {"bufferView": 7, "componentType": 5126, "count": 2155, "type": "VEC2", "byteOffset": 0}, {"bufferView": 8, "componentType": 5126, "count": 2155, "type": "VEC2", "byteOffset": 0}, {"bufferView": 9, "componentType": 5126, "count": 2155, "type": "VEC2", "byteOffset": 0}, {"bufferView": 10, "componentType": 5126, "count": 2155, "type": "VEC2", "byteOffset": 0}], "materials": [{"name": "M_0137_Black", "pbrMetallicRoughness": {"baseColorFactor": [0, 0, 0, 1], "metallicFactor": 0, "roughnessFactor": 0}}], "meshes": [{"primitives": [{"attributes": {"POSITION": 1, "NORMAL": 2, "TEXCOORD_0": 3, "TEXCOORD_1": 4, "TEXCOORD_2": 5, "TEXCOORD_3": 6, "TEXCOORD_4": 7, "TEXCOORD_5": 8, "TEXCOORD_6": 9, "TEXCOORD_7": 10}, "indices": 0, "material": 0}]}], "scene": 0, "scenes": [{"name": "Scene", "nodes": [0]}]}