{"asset": {"generator": "Khronos glTF Blender I/O v1.5.17", "version": "2.0"}, "nodes": [{"mesh": 0, "name": "Mesh185_M_0087_Cyan_0"}], "buffers": [{"byteLength": 1107632, "uri": "FlatCity510.bin"}], "bufferViews": [{"buffer": 0, "byteLength": 31758, "byteOffset": 0}, {"buffer": 0, "byteLength": 146700, "byteOffset": 31760}, {"buffer": 0, "byteLength": 146700, "byteOffset": 178464}, {"buffer": 0, "byteLength": 97800, "byteOffset": 325168}, {"buffer": 0, "byteLength": 97800, "byteOffset": 422976}, {"buffer": 0, "byteLength": 97800, "byteOffset": 520784}, {"buffer": 0, "byteLength": 97800, "byteOffset": 618592}, {"buffer": 0, "byteLength": 97800, "byteOffset": 716400}, {"buffer": 0, "byteLength": 97800, "byteOffset": 814208}, {"buffer": 0, "byteLength": 97800, "byteOffset": 912016}, {"buffer": 0, "byteLength": 97800, "byteOffset": 1009824}], "accessors": [{"bufferView": 0, "componentType": 5123, "count": 15879, "type": "SCALAR", "byteOffset": 0}, {"bufferView": 1, "componentType": 5126, "count": 12225, "max": [25.06639862060547, 1.0679092407226562, -7.46905517578125], "min": [15.066398620605469, -0.5328661203384399, -17.469058990478516], "type": "VEC3", "byteOffset": 0}, {"bufferView": 2, "componentType": 5126, "count": 12225, "type": "VEC3", "byteOffset": 0}, {"bufferView": 3, "componentType": 5126, "count": 12225, "type": "VEC2", "byteOffset": 0}, {"bufferView": 4, "componentType": 5126, "count": 12225, "type": "VEC2", "byteOffset": 0}, {"bufferView": 5, "componentType": 5126, "count": 12225, "type": "VEC2", "byteOffset": 0}, {"bufferView": 6, "componentType": 5126, "count": 12225, "type": "VEC2", "byteOffset": 0}, {"bufferView": 7, "componentType": 5126, "count": 12225, "type": "VEC2", "byteOffset": 0}, {"bufferView": 8, "componentType": 5126, "count": 12225, "type": "VEC2", "byteOffset": 0}, {"bufferView": 9, "componentType": 5126, "count": 12225, "type": "VEC2", "byteOffset": 0}, {"bufferView": 10, "componentType": 5126, "count": 12225, "type": "VEC2", "byteOffset": 0}], "materials": [{"name": "FrontColor", "pbrMetallicRoughness": {"baseColorFactor": [0.5684521794319153, 0.5684521794319153, 0.5684521794319153, 1], "metallicFactor": 0.17196325957775116, "roughnessFactor": 0.47536954283714294}}], "meshes": [{"primitives": [{"attributes": {"POSITION": 1, "NORMAL": 2, "TEXCOORD_0": 3, "TEXCOORD_1": 4, "TEXCOORD_2": 5, "TEXCOORD_3": 6, "TEXCOORD_4": 7, "TEXCOORD_5": 8, "TEXCOORD_6": 9, "TEXCOORD_7": 10}, "indices": 0, "material": 0}]}], "scene": 0, "scenes": [{"name": "Scene", "nodes": [0]}]}