{"asset": {"generator": "Khronos glTF Blender I/O v1.5.17", "version": "2.0"}, "nodes": [{"mesh": 0, "name": "Mesh43_M_0137_Black_0"}], "buffers": [{"byteLength": 16656, "uri": "FlatCity113.bin"}], "bufferViews": [{"buffer": 0, "byteLength": 456, "byteOffset": 0}, {"buffer": 0, "byteLength": 2196, "byteOffset": 464}, {"buffer": 0, "byteLength": 2196, "byteOffset": 2672}, {"buffer": 0, "byteLength": 1464, "byteOffset": 4880}, {"buffer": 0, "byteLength": 1464, "byteOffset": 6352}, {"buffer": 0, "byteLength": 1464, "byteOffset": 7824}, {"buffer": 0, "byteLength": 1464, "byteOffset": 9296}, {"buffer": 0, "byteLength": 1464, "byteOffset": 10768}, {"buffer": 0, "byteLength": 1464, "byteOffset": 12240}, {"buffer": 0, "byteLength": 1464, "byteOffset": 13712}, {"buffer": 0, "byteLength": 1464, "byteOffset": 15184}], "accessors": [{"bufferView": 0, "componentType": 5123, "count": 228, "type": "SCALAR", "byteOffset": 0}, {"bufferView": 1, "componentType": 5126, "count": 183, "max": [9.043359756469727, 0.7399287223815918, 3.7716636657714844], "min": [7.941535949707031, 0.5896586179733276, 2.7103652954101562], "type": "VEC3", "byteOffset": 0}, {"bufferView": 2, "componentType": 5126, "count": 183, "type": "VEC3", "byteOffset": 0}, {"bufferView": 3, "componentType": 5126, "count": 183, "type": "VEC2", "byteOffset": 0}, {"bufferView": 4, "componentType": 5126, "count": 183, "type": "VEC2", "byteOffset": 0}, {"bufferView": 5, "componentType": 5126, "count": 183, "type": "VEC2", "byteOffset": 0}, {"bufferView": 6, "componentType": 5126, "count": 183, "type": "VEC2", "byteOffset": 0}, {"bufferView": 7, "componentType": 5126, "count": 183, "type": "VEC2", "byteOffset": 0}, {"bufferView": 8, "componentType": 5126, "count": 183, "type": "VEC2", "byteOffset": 0}, {"bufferView": 9, "componentType": 5126, "count": 183, "type": "VEC2", "byteOffset": 0}, {"bufferView": 10, "componentType": 5126, "count": 183, "type": "VEC2", "byteOffset": 0}], "materials": [{"name": "M_0130_Gainsboro", "pbrMetallicRoughness": {"baseColorFactor": [0.8627449870109558, 0.8627449870109558, 0.8627449870109558, 1], "metallicFactor": 0, "roughnessFactor": 0.9685046672821045}}], "meshes": [{"primitives": [{"attributes": {"POSITION": 1, "NORMAL": 2, "TEXCOORD_0": 3, "TEXCOORD_1": 4, "TEXCOORD_2": 5, "TEXCOORD_3": 6, "TEXCOORD_4": 7, "TEXCOORD_5": 8, "TEXCOORD_6": 9, "TEXCOORD_7": 10}, "indices": 0, "material": 0}]}], "scene": 0, "scenes": [{"name": "Scene", "nodes": [0]}]}