{"asset": {"generator": "Khronos glTF Blender I/O v1.5.17", "version": "2.0"}, "nodes": [{"mesh": 0, "name": "Mesh132_M_0137_Black_0"}], "buffers": [{"byteLength": 563312, "uri": "FlatCity367.bin"}], "bufferViews": [{"buffer": 0, "byteLength": 17004, "byteOffset": 0}, {"buffer": 0, "byteLength": 74484, "byteOffset": 17008}, {"buffer": 0, "byteLength": 74484, "byteOffset": 91504}, {"buffer": 0, "byteLength": 49656, "byteOffset": 166000}, {"buffer": 0, "byteLength": 49656, "byteOffset": 215664}, {"buffer": 0, "byteLength": 49656, "byteOffset": 265328}, {"buffer": 0, "byteLength": 49656, "byteOffset": 314992}, {"buffer": 0, "byteLength": 49656, "byteOffset": 364656}, {"buffer": 0, "byteLength": 49656, "byteOffset": 414320}, {"buffer": 0, "byteLength": 49656, "byteOffset": 463984}, {"buffer": 0, "byteLength": 49656, "byteOffset": 513648}], "accessors": [{"bufferView": 0, "componentType": 5123, "count": 8502, "type": "SCALAR", "byteOffset": 0}, {"bufferView": 1, "componentType": 5126, "count": 6207, "max": [-4.933601379394531, -0.10982504487037659, 2.5309486389160156], "min": [-14.933601379394531, -0.12068304419517517, -7.46905517578125], "type": "VEC3", "byteOffset": 0}, {"bufferView": 2, "componentType": 5126, "count": 6207, "type": "VEC3", "byteOffset": 0}, {"bufferView": 3, "componentType": 5126, "count": 6207, "type": "VEC2", "byteOffset": 0}, {"bufferView": 4, "componentType": 5126, "count": 6207, "type": "VEC2", "byteOffset": 0}, {"bufferView": 5, "componentType": 5126, "count": 6207, "type": "VEC2", "byteOffset": 0}, {"bufferView": 6, "componentType": 5126, "count": 6207, "type": "VEC2", "byteOffset": 0}, {"bufferView": 7, "componentType": 5126, "count": 6207, "type": "VEC2", "byteOffset": 0}, {"bufferView": 8, "componentType": 5126, "count": 6207, "type": "VEC2", "byteOffset": 0}, {"bufferView": 9, "componentType": 5126, "count": 6207, "type": "VEC2", "byteOffset": 0}, {"bufferView": 10, "componentType": 5126, "count": 6207, "type": "VEC2", "byteOffset": 0}], "materials": [{"name": "M_0135_DarkGray", "pbrMetallicRoughness": {"baseColorFactor": [0.3176470100879669, 0.3176470100879669, 0.3176470100879669, 1], "metallicFactor": 0, "roughnessFactor": 0.9302135109901428}}], "meshes": [{"primitives": [{"attributes": {"POSITION": 1, "NORMAL": 2, "TEXCOORD_0": 3, "TEXCOORD_1": 4, "TEXCOORD_2": 5, "TEXCOORD_3": 6, "TEXCOORD_4": 7, "TEXCOORD_5": 8, "TEXCOORD_6": 9, "TEXCOORD_7": 10}, "indices": 0, "material": 0}]}], "scene": 0, "scenes": [{"name": "Scene", "nodes": [0]}]}