{"asset": {"generator": "Khronos glTF Blender I/O v1.5.17", "version": "2.0"}, "nodes": [{"mesh": 0, "name": "Mesh6_M_0130_Gainsboro_0"}], "buffers": [{"byteLength": 25104, "uri": "FlatCity10.bin"}], "bufferViews": [{"buffer": 0, "byteLength": 816, "byteOffset": 0}, {"buffer": 0, "byteLength": 3300, "byteOffset": 816}, {"buffer": 0, "byteLength": 3300, "byteOffset": 4128}, {"buffer": 0, "byteLength": 2200, "byteOffset": 7440}, {"buffer": 0, "byteLength": 2200, "byteOffset": 9648}, {"buffer": 0, "byteLength": 2200, "byteOffset": 11856}, {"buffer": 0, "byteLength": 2200, "byteOffset": 14064}, {"buffer": 0, "byteLength": 2200, "byteOffset": 16272}, {"buffer": 0, "byteLength": 2200, "byteOffset": 18480}, {"buffer": 0, "byteLength": 2200, "byteOffset": 20688}, {"buffer": 0, "byteLength": 2200, "byteOffset": 22896}], "accessors": [{"bufferView": 0, "componentType": 5123, "count": 408, "type": "SCALAR", "byteOffset": 0}, {"bufferView": 1, "componentType": 5126, "count": 275, "max": [2.5454139709472656, 3.246732711791992, 11.55886459350586], "min": [-4.499889373779297, -0.1546640396118164, 4.406284332275391], "type": "VEC3", "byteOffset": 0}, {"bufferView": 2, "componentType": 5126, "count": 275, "type": "VEC3", "byteOffset": 0}, {"bufferView": 3, "componentType": 5126, "count": 275, "type": "VEC2", "byteOffset": 0}, {"bufferView": 4, "componentType": 5126, "count": 275, "type": "VEC2", "byteOffset": 0}, {"bufferView": 5, "componentType": 5126, "count": 275, "type": "VEC2", "byteOffset": 0}, {"bufferView": 6, "componentType": 5126, "count": 275, "type": "VEC2", "byteOffset": 0}, {"bufferView": 7, "componentType": 5126, "count": 275, "type": "VEC2", "byteOffset": 0}, {"bufferView": 8, "componentType": 5126, "count": 275, "type": "VEC2", "byteOffset": 0}, {"bufferView": 9, "componentType": 5126, "count": 275, "type": "VEC2", "byteOffset": 0}, {"bufferView": 10, "componentType": 5126, "count": 275, "type": "VEC2", "byteOffset": 0}], "materials": [{"name": "M_0087_Cyan", "pbrMetallicRoughness": {"baseColorFactor": [0, 1, 1, 1], "metallicFactor": 0, "roughnessFactor": 0.9302135109901428}}], "meshes": [{"primitives": [{"attributes": {"POSITION": 1, "NORMAL": 2, "TEXCOORD_0": 3, "TEXCOORD_1": 4, "TEXCOORD_2": 5, "TEXCOORD_3": 6, "TEXCOORD_4": 7, "TEXCOORD_5": 8, "TEXCOORD_6": 9, "TEXCOORD_7": 10}, "indices": 0, "material": 0}]}], "scene": 0, "scenes": [{"name": "Scene", "nodes": [0]}]}