{"asset": {"generator": "Khronos glTF Blender I/O v1.5.17", "version": "2.0"}, "nodes": [{"mesh": 0, "name": "Mesh36_M_0137_Black_0"}], "buffers": [{"byteLength": 59664, "uri": "FlatCity92.bin"}], "bufferViews": [{"buffer": 0, "byteLength": 1770, "byteOffset": 0}, {"buffer": 0, "byteLength": 7884, "byteOffset": 1776}, {"buffer": 0, "byteLength": 7884, "byteOffset": 9664}, {"buffer": 0, "byteLength": 5256, "byteOffset": 17552}, {"buffer": 0, "byteLength": 5256, "byteOffset": 22816}, {"buffer": 0, "byteLength": 5256, "byteOffset": 28080}, {"buffer": 0, "byteLength": 5256, "byteOffset": 33344}, {"buffer": 0, "byteLength": 5256, "byteOffset": 38608}, {"buffer": 0, "byteLength": 5256, "byteOffset": 43872}, {"buffer": 0, "byteLength": 5256, "byteOffset": 49136}, {"buffer": 0, "byteLength": 5256, "byteOffset": 54400}], "accessors": [{"bufferView": 0, "componentType": 5123, "count": 885, "type": "SCALAR", "byteOffset": 0}, {"bufferView": 1, "componentType": 5126, "count": 657, "max": [-5.035804748535156, 1.306998372077942, 12.441240310668945], "min": [-14.843894958496094, -0.10982504487037659, 2.7103652954101562], "type": "VEC3", "byteOffset": 0}, {"bufferView": 2, "componentType": 5126, "count": 657, "type": "VEC3", "byteOffset": 0}, {"bufferView": 3, "componentType": 5126, "count": 657, "type": "VEC2", "byteOffset": 0}, {"bufferView": 4, "componentType": 5126, "count": 657, "type": "VEC2", "byteOffset": 0}, {"bufferView": 5, "componentType": 5126, "count": 657, "type": "VEC2", "byteOffset": 0}, {"bufferView": 6, "componentType": 5126, "count": 657, "type": "VEC2", "byteOffset": 0}, {"bufferView": 7, "componentType": 5126, "count": 657, "type": "VEC2", "byteOffset": 0}, {"bufferView": 8, "componentType": 5126, "count": 657, "type": "VEC2", "byteOffset": 0}, {"bufferView": 9, "componentType": 5126, "count": 657, "type": "VEC2", "byteOffset": 0}, {"bufferView": 10, "componentType": 5126, "count": 657, "type": "VEC2", "byteOffset": 0}], "materials": [{"name": "M_0069_LimeGreen", "pbrMetallicRoughness": {"baseColorFactor": [0.19607800245285034, 0.8039219975471497, 0.19607800245285034, 1], "metallicFactor": 0, "roughnessFactor": 0.9302135109901428}}], "meshes": [{"primitives": [{"attributes": {"POSITION": 1, "NORMAL": 2, "TEXCOORD_0": 3, "TEXCOORD_1": 4, "TEXCOORD_2": 5, "TEXCOORD_3": 6, "TEXCOORD_4": 7, "TEXCOORD_5": 8, "TEXCOORD_6": 9, "TEXCOORD_7": 10}, "indices": 0, "material": 0}]}], "scene": 0, "scenes": [{"name": "Scene", "nodes": [0]}]}