{"asset": {"generator": "Khronos glTF Blender I/O v1.5.17", "version": "2.0"}, "nodes": [{"mesh": 0, "name": "Mesh178_M_0137_Black_0"}], "buffers": [{"byteLength": 15056, "uri": "FlatCity493.bin"}], "bufferViews": [{"buffer": 0, "byteLength": 456, "byteOffset": 0}, {"buffer": 0, "byteLength": 1980, "byteOffset": 464}, {"buffer": 0, "byteLength": 1980, "byteOffset": 2448}, {"buffer": 0, "byteLength": 1320, "byteOffset": 4432}, {"buffer": 0, "byteLength": 1320, "byteOffset": 5760}, {"buffer": 0, "byteLength": 1320, "byteOffset": 7088}, {"buffer": 0, "byteLength": 1320, "byteOffset": 8416}, {"buffer": 0, "byteLength": 1320, "byteOffset": 9744}, {"buffer": 0, "byteLength": 1320, "byteOffset": 11072}, {"buffer": 0, "byteLength": 1320, "byteOffset": 12400}, {"buffer": 0, "byteLength": 1320, "byteOffset": 13728}], "accessors": [{"bufferView": 0, "componentType": 5123, "count": 228, "type": "SCALAR", "byteOffset": 0}, {"bufferView": 1, "componentType": 5126, "count": 165, "max": [12.191261291503906, 1.1907386779785156, -6.228340148925781], "min": [11.089435577392578, 1.040468692779541, -7.289638519287109], "type": "VEC3", "byteOffset": 0}, {"bufferView": 2, "componentType": 5126, "count": 165, "type": "VEC3", "byteOffset": 0}, {"bufferView": 3, "componentType": 5126, "count": 165, "type": "VEC2", "byteOffset": 0}, {"bufferView": 4, "componentType": 5126, "count": 165, "type": "VEC2", "byteOffset": 0}, {"bufferView": 5, "componentType": 5126, "count": 165, "type": "VEC2", "byteOffset": 0}, {"bufferView": 6, "componentType": 5126, "count": 165, "type": "VEC2", "byteOffset": 0}, {"bufferView": 7, "componentType": 5126, "count": 165, "type": "VEC2", "byteOffset": 0}, {"bufferView": 8, "componentType": 5126, "count": 165, "type": "VEC2", "byteOffset": 0}, {"bufferView": 9, "componentType": 5126, "count": 165, "type": "VEC2", "byteOffset": 0}, {"bufferView": 10, "componentType": 5126, "count": 165, "type": "VEC2", "byteOffset": 0}], "materials": [{"name": "M_0130_Gainsboro", "pbrMetallicRoughness": {"baseColorFactor": [0.8627449870109558, 0.8627449870109558, 0.8627449870109558, 1], "metallicFactor": 0, "roughnessFactor": 0.9685046672821045}}], "meshes": [{"primitives": [{"attributes": {"POSITION": 1, "NORMAL": 2, "TEXCOORD_0": 3, "TEXCOORD_1": 4, "TEXCOORD_2": 5, "TEXCOORD_3": 6, "TEXCOORD_4": 7, "TEXCOORD_5": 8, "TEXCOORD_6": 9, "TEXCOORD_7": 10}, "indices": 0, "material": 0}]}], "scene": 0, "scenes": [{"name": "Scene", "nodes": [0]}]}