{"asset": {"generator": "Khronos glTF Blender I/O v1.5.17", "version": "2.0"}, "nodes": [{"mesh": 0, "name": "Mesh50_FrontColor_0"}], "buffers": [{"byteLength": 15760, "uri": "FlatCity135.bin"}], "bufferViews": [{"buffer": 0, "byteLength": 456, "byteOffset": 0}, {"buffer": 0, "byteLength": 2076, "byteOffset": 464}, {"buffer": 0, "byteLength": 2076, "byteOffset": 2544}, {"buffer": 0, "byteLength": 1384, "byteOffset": 4624}, {"buffer": 0, "byteLength": 1384, "byteOffset": 6016}, {"buffer": 0, "byteLength": 1384, "byteOffset": 7408}, {"buffer": 0, "byteLength": 1384, "byteOffset": 8800}, {"buffer": 0, "byteLength": 1384, "byteOffset": 10192}, {"buffer": 0, "byteLength": 1384, "byteOffset": 11584}, {"buffer": 0, "byteLength": 1384, "byteOffset": 12976}, {"buffer": 0, "byteLength": 1384, "byteOffset": 14368}], "accessors": [{"bufferView": 0, "componentType": 5123, "count": 228, "type": "SCALAR", "byteOffset": 0}, {"bufferView": 1, "componentType": 5126, "count": 173, "max": [9.043359756469727, 2.0923590660095215, 3.7716636657714844], "min": [7.941535949707031, 1.9420889616012573, 2.7103652954101562], "type": "VEC3", "byteOffset": 0}, {"bufferView": 2, "componentType": 5126, "count": 173, "type": "VEC3", "byteOffset": 0}, {"bufferView": 3, "componentType": 5126, "count": 173, "type": "VEC2", "byteOffset": 0}, {"bufferView": 4, "componentType": 5126, "count": 173, "type": "VEC2", "byteOffset": 0}, {"bufferView": 5, "componentType": 5126, "count": 173, "type": "VEC2", "byteOffset": 0}, {"bufferView": 6, "componentType": 5126, "count": 173, "type": "VEC2", "byteOffset": 0}, {"bufferView": 7, "componentType": 5126, "count": 173, "type": "VEC2", "byteOffset": 0}, {"bufferView": 8, "componentType": 5126, "count": 173, "type": "VEC2", "byteOffset": 0}, {"bufferView": 9, "componentType": 5126, "count": 173, "type": "VEC2", "byteOffset": 0}, {"bufferView": 10, "componentType": 5126, "count": 173, "type": "VEC2", "byteOffset": 0}], "materials": [{"name": "M_0130_Gainsboro", "pbrMetallicRoughness": {"baseColorFactor": [0.8627449870109558, 0.8627449870109558, 0.8627449870109558, 1], "metallicFactor": 0, "roughnessFactor": 0.9685046672821045}}], "meshes": [{"primitives": [{"attributes": {"POSITION": 1, "NORMAL": 2, "TEXCOORD_0": 3, "TEXCOORD_1": 4, "TEXCOORD_2": 5, "TEXCOORD_3": 6, "TEXCOORD_4": 7, "TEXCOORD_5": 8, "TEXCOORD_6": 9, "TEXCOORD_7": 10}, "indices": 0, "material": 0}]}], "scene": 0, "scenes": [{"name": "Scene", "nodes": [0]}]}