{"asset": {"generator": "Khronos glTF Blender I/O v1.5.17", "version": "2.0"}, "nodes": [{"mesh": 0, "name": "Mesh5_M_0130_Gainsboro_0"}], "buffers": [{"byteLength": 4226576, "uri": "FlatCity8.bin"}], "bufferViews": [{"buffer": 0, "byteLength": 116430, "byteOffset": 0}, {"buffer": 0, "byteLength": 560472, "byteOffset": 116432}, {"buffer": 0, "byteLength": 560472, "byteOffset": 676912}, {"buffer": 0, "byteLength": 373648, "byteOffset": 1237392}, {"buffer": 0, "byteLength": 373648, "byteOffset": 1611040}, {"buffer": 0, "byteLength": 373648, "byteOffset": 1984688}, {"buffer": 0, "byteLength": 373648, "byteOffset": 2358336}, {"buffer": 0, "byteLength": 373648, "byteOffset": 2731984}, {"buffer": 0, "byteLength": 373648, "byteOffset": 3105632}, {"buffer": 0, "byteLength": 373648, "byteOffset": 3479280}, {"buffer": 0, "byteLength": 373648, "byteOffset": 3852928}], "accessors": [{"bufferView": 0, "componentType": 5123, "count": 58215, "type": "SCALAR", "byteOffset": 0}, {"bufferView": 1, "componentType": 5126, "count": 46706, "max": [5.066398620605469, 3.2583117485046387, 12.530948638916016], "min": [-4.933601379394531, -0.5328661203384399, 2.5309410095214844], "type": "VEC3", "byteOffset": 0}, {"bufferView": 2, "componentType": 5126, "count": 46706, "type": "VEC3", "byteOffset": 0}, {"bufferView": 3, "componentType": 5126, "count": 46706, "type": "VEC2", "byteOffset": 0}, {"bufferView": 4, "componentType": 5126, "count": 46706, "type": "VEC2", "byteOffset": 0}, {"bufferView": 5, "componentType": 5126, "count": 46706, "type": "VEC2", "byteOffset": 0}, {"bufferView": 6, "componentType": 5126, "count": 46706, "type": "VEC2", "byteOffset": 0}, {"bufferView": 7, "componentType": 5126, "count": 46706, "type": "VEC2", "byteOffset": 0}, {"bufferView": 8, "componentType": 5126, "count": 46706, "type": "VEC2", "byteOffset": 0}, {"bufferView": 9, "componentType": 5126, "count": 46706, "type": "VEC2", "byteOffset": 0}, {"bufferView": 10, "componentType": 5126, "count": 46706, "type": "VEC2", "byteOffset": 0}], "materials": [{"name": "M_0130_Gainsboro", "pbrMetallicRoughness": {"baseColorFactor": [0.8627449870109558, 0.8627449870109558, 0.8627449870109558, 1], "metallicFactor": 0, "roughnessFactor": 0.9685046672821045}}], "meshes": [{"primitives": [{"attributes": {"POSITION": 1, "NORMAL": 2, "TEXCOORD_0": 3, "TEXCOORD_1": 4, "TEXCOORD_2": 5, "TEXCOORD_3": 6, "TEXCOORD_4": 7, "TEXCOORD_5": 8, "TEXCOORD_6": 9, "TEXCOORD_7": 10}, "indices": 0, "material": 0}]}], "scene": 0, "scenes": [{"name": "Scene", "nodes": [0]}]}