{"asset": {"generator": "Khronos glTF Blender I/O v1.5.17", "version": "2.0"}, "nodes": [{"mesh": 0, "name": "Mesh26_M_0137_Black_0"}], "buffers": [{"byteLength": 3104, "uri": "FlatCity59.bin"}], "bufferViews": [{"buffer": 0, "byteLength": 96, "byteOffset": 0}, {"buffer": 0, "byteLength": 408, "byteOffset": 96}, {"buffer": 0, "byteLength": 408, "byteOffset": 512}, {"buffer": 0, "byteLength": 272, "byteOffset": 928}, {"buffer": 0, "byteLength": 272, "byteOffset": 1200}, {"buffer": 0, "byteLength": 272, "byteOffset": 1472}, {"buffer": 0, "byteLength": 272, "byteOffset": 1744}, {"buffer": 0, "byteLength": 272, "byteOffset": 2016}, {"buffer": 0, "byteLength": 272, "byteOffset": 2288}, {"buffer": 0, "byteLength": 272, "byteOffset": 2560}, {"buffer": 0, "byteLength": 272, "byteOffset": 2832}], "accessors": [{"bufferView": 0, "componentType": 5123, "count": 48, "type": "SCALAR", "byteOffset": 0}, {"bufferView": 1, "componentType": 5126, "count": 34, "max": [4.840045928955078, 0.6647936105728149, 6.460971832275391], "min": [3.87261962890625, 0.5896586179733276, 5.453022003173828], "type": "VEC3", "byteOffset": 0}, {"bufferView": 2, "componentType": 5126, "count": 34, "type": "VEC3", "byteOffset": 0}, {"bufferView": 3, "componentType": 5126, "count": 34, "type": "VEC2", "byteOffset": 0}, {"bufferView": 4, "componentType": 5126, "count": 34, "type": "VEC2", "byteOffset": 0}, {"bufferView": 5, "componentType": 5126, "count": 34, "type": "VEC2", "byteOffset": 0}, {"bufferView": 6, "componentType": 5126, "count": 34, "type": "VEC2", "byteOffset": 0}, {"bufferView": 7, "componentType": 5126, "count": 34, "type": "VEC2", "byteOffset": 0}, {"bufferView": 8, "componentType": 5126, "count": 34, "type": "VEC2", "byteOffset": 0}, {"bufferView": 9, "componentType": 5126, "count": 34, "type": "VEC2", "byteOffset": 0}, {"bufferView": 10, "componentType": 5126, "count": 34, "type": "VEC2", "byteOffset": 0}], "materials": [{"name": "M_0137_Black", "pbrMetallicRoughness": {"baseColorFactor": [0, 0, 0, 1], "metallicFactor": 0, "roughnessFactor": 0}}], "meshes": [{"primitives": [{"attributes": {"POSITION": 1, "NORMAL": 2, "TEXCOORD_0": 3, "TEXCOORD_1": 4, "TEXCOORD_2": 5, "TEXCOORD_3": 6, "TEXCOORD_4": 7, "TEXCOORD_5": 8, "TEXCOORD_6": 9, "TEXCOORD_7": 10}, "indices": 0, "material": 0}]}], "scene": 0, "scenes": [{"name": "Scene", "nodes": [0]}]}