{"asset": {"generator": "Khronos glTF Blender I/O v1.5.17", "version": "2.0"}, "nodes": [{"mesh": 0, "name": "Mesh101_M_0137_Black_0"}], "buffers": [{"byteLength": 1248, "uri": "FlatCity284.bin"}], "bufferViews": [{"buffer": 0, "byteLength": 30, "byteOffset": 0}, {"buffer": 0, "byteLength": 156, "byteOffset": 32}, {"buffer": 0, "byteLength": 156, "byteOffset": 192}, {"buffer": 0, "byteLength": 104, "byteOffset": 352}, {"buffer": 0, "byteLength": 104, "byteOffset": 464}, {"buffer": 0, "byteLength": 104, "byteOffset": 576}, {"buffer": 0, "byteLength": 104, "byteOffset": 688}, {"buffer": 0, "byteLength": 104, "byteOffset": 800}, {"buffer": 0, "byteLength": 104, "byteOffset": 912}, {"buffer": 0, "byteLength": 104, "byteOffset": 1024}, {"buffer": 0, "byteLength": 104, "byteOffset": 1136}], "accessors": [{"bufferView": 0, "componentType": 5123, "count": 15, "type": "SCALAR", "byteOffset": 0}, {"bufferView": 1, "componentType": 5126, "count": 13, "max": [-44.93360137939453, -0.10982504487037659, -4.697624206542969], "min": [-47.71039581298828, -0.10982504487037659, -7.474418640136719], "type": "VEC3", "byteOffset": 0}, {"bufferView": 2, "componentType": 5126, "count": 13, "type": "VEC3", "byteOffset": 0}, {"bufferView": 3, "componentType": 5126, "count": 13, "type": "VEC2", "byteOffset": 0}, {"bufferView": 4, "componentType": 5126, "count": 13, "type": "VEC2", "byteOffset": 0}, {"bufferView": 5, "componentType": 5126, "count": 13, "type": "VEC2", "byteOffset": 0}, {"bufferView": 6, "componentType": 5126, "count": 13, "type": "VEC2", "byteOffset": 0}, {"bufferView": 7, "componentType": 5126, "count": 13, "type": "VEC2", "byteOffset": 0}, {"bufferView": 8, "componentType": 5126, "count": 13, "type": "VEC2", "byteOffset": 0}, {"bufferView": 9, "componentType": 5126, "count": 13, "type": "VEC2", "byteOffset": 0}, {"bufferView": 10, "componentType": 5126, "count": 13, "type": "VEC2", "byteOffset": 0}], "materials": [{"name": "M_0135_DarkGray", "pbrMetallicRoughness": {"baseColorFactor": [0.3176470100879669, 0.3176470100879669, 0.3176470100879669, 1], "metallicFactor": 0, "roughnessFactor": 0.9302135109901428}}], "meshes": [{"primitives": [{"attributes": {"POSITION": 1, "NORMAL": 2, "TEXCOORD_0": 3, "TEXCOORD_1": 4, "TEXCOORD_2": 5, "TEXCOORD_3": 6, "TEXCOORD_4": 7, "TEXCOORD_5": 8, "TEXCOORD_6": 9, "TEXCOORD_7": 10}, "indices": 0, "material": 0}]}], "scene": 0, "scenes": [{"name": "Scene", "nodes": [0]}]}