{"asset": {"generator": "Khronos glTF Blender I/O v1.5.17", "version": "2.0"}, "nodes": [{"mesh": 0, "name": "Mesh41_FrontColor_0"}], "buffers": [{"byteLength": 12720, "uri": "FlatCity108.bin"}], "bufferViews": [{"buffer": 0, "byteLength": 396, "byteOffset": 0}, {"buffer": 0, "byteLength": 1680, "byteOffset": 400}, {"buffer": 0, "byteLength": 1680, "byteOffset": 2080}, {"buffer": 0, "byteLength": 1120, "byteOffset": 3760}, {"buffer": 0, "byteLength": 1120, "byteOffset": 4880}, {"buffer": 0, "byteLength": 1120, "byteOffset": 6000}, {"buffer": 0, "byteLength": 1120, "byteOffset": 7120}, {"buffer": 0, "byteLength": 1120, "byteOffset": 8240}, {"buffer": 0, "byteLength": 1120, "byteOffset": 9360}, {"buffer": 0, "byteLength": 1120, "byteOffset": 10480}, {"buffer": 0, "byteLength": 1120, "byteOffset": 11600}], "accessors": [{"bufferView": 0, "componentType": 5123, "count": 198, "type": "SCALAR", "byteOffset": 0}, {"bufferView": 1, "componentType": 5126, "count": 140, "max": [13.063020706176758, 1.0901962518692017, 7.712871551513672], "min": [5.245813369750977, 0.1594095230102539, 2.751148223876953], "type": "VEC3", "byteOffset": 0}, {"bufferView": 2, "componentType": 5126, "count": 140, "type": "VEC3", "byteOffset": 0}, {"bufferView": 3, "componentType": 5126, "count": 140, "type": "VEC2", "byteOffset": 0}, {"bufferView": 4, "componentType": 5126, "count": 140, "type": "VEC2", "byteOffset": 0}, {"bufferView": 5, "componentType": 5126, "count": 140, "type": "VEC2", "byteOffset": 0}, {"bufferView": 6, "componentType": 5126, "count": 140, "type": "VEC2", "byteOffset": 0}, {"bufferView": 7, "componentType": 5126, "count": 140, "type": "VEC2", "byteOffset": 0}, {"bufferView": 8, "componentType": 5126, "count": 140, "type": "VEC2", "byteOffset": 0}, {"bufferView": 9, "componentType": 5126, "count": 140, "type": "VEC2", "byteOffset": 0}, {"bufferView": 10, "componentType": 5126, "count": 140, "type": "VEC2", "byteOffset": 0}], "materials": [{"emissiveFactor": [1, 0.3421842157840729, 0.3421842157840729], "name": "M_0003_DeepPink", "pbrMetallicRoughness": {"baseColorFactor": [1, 0.0784313976764679, 0.5764709711074829, 1], "metallicFactor": 0, "roughnessFactor": 0.9302135109901428}}], "meshes": [{"primitives": [{"attributes": {"POSITION": 1, "NORMAL": 2, "TEXCOORD_0": 3, "TEXCOORD_1": 4, "TEXCOORD_2": 5, "TEXCOORD_3": 6, "TEXCOORD_4": 7, "TEXCOORD_5": 8, "TEXCOORD_6": 9, "TEXCOORD_7": 10}, "indices": 0, "material": 0}]}], "scene": 0, "scenes": [{"name": "Scene", "nodes": [0]}]}