{"asset": {"generator": "Khronos glTF Blender I/O v1.5.17", "version": "2.0"}, "nodes": [{"mesh": 0, "name": "Mesh228_FrontColor_0"}], "buffers": [{"byteLength": 59600, "uri": "FlatCity605.bin"}], "bufferViews": [{"buffer": 0, "byteLength": 1674, "byteOffset": 0}, {"buffer": 0, "byteLength": 7896, "byteOffset": 1680}, {"buffer": 0, "byteLength": 7896, "byteOffset": 9584}, {"buffer": 0, "byteLength": 5264, "byteOffset": 17488}, {"buffer": 0, "byteLength": 5264, "byteOffset": 22752}, {"buffer": 0, "byteLength": 5264, "byteOffset": 28016}, {"buffer": 0, "byteLength": 5264, "byteOffset": 33280}, {"buffer": 0, "byteLength": 5264, "byteOffset": 38544}, {"buffer": 0, "byteLength": 5264, "byteOffset": 43808}, {"buffer": 0, "byteLength": 5264, "byteOffset": 49072}, {"buffer": 0, "byteLength": 5264, "byteOffset": 54336}], "accessors": [{"bufferView": 0, "componentType": 5123, "count": 837, "type": "SCALAR", "byteOffset": 0}, {"bufferView": 1, "componentType": 5126, "count": 658, "max": [4.992959976196289, 3.2583117485046387, -7.5587615966796875], "min": [-4.843894958496094, -0.11001846194267273, -17.36782455444336], "type": "VEC3", "byteOffset": 0}, {"bufferView": 2, "componentType": 5126, "count": 658, "type": "VEC3", "byteOffset": 0}, {"bufferView": 3, "componentType": 5126, "count": 658, "type": "VEC2", "byteOffset": 0}, {"bufferView": 4, "componentType": 5126, "count": 658, "type": "VEC2", "byteOffset": 0}, {"bufferView": 5, "componentType": 5126, "count": 658, "type": "VEC2", "byteOffset": 0}, {"bufferView": 6, "componentType": 5126, "count": 658, "type": "VEC2", "byteOffset": 0}, {"bufferView": 7, "componentType": 5126, "count": 658, "type": "VEC2", "byteOffset": 0}, {"bufferView": 8, "componentType": 5126, "count": 658, "type": "VEC2", "byteOffset": 0}, {"bufferView": 9, "componentType": 5126, "count": 658, "type": "VEC2", "byteOffset": 0}, {"bufferView": 10, "componentType": 5126, "count": 658, "type": "VEC2", "byteOffset": 0}], "materials": [{"name": "M_0069_LimeGreen", "pbrMetallicRoughness": {"baseColorFactor": [0.19607800245285034, 0.8039219975471497, 0.19607800245285034, 1], "metallicFactor": 0, "roughnessFactor": 0.9302135109901428}}], "meshes": [{"primitives": [{"attributes": {"POSITION": 1, "NORMAL": 2, "TEXCOORD_0": 3, "TEXCOORD_1": 4, "TEXCOORD_2": 5, "TEXCOORD_3": 6, "TEXCOORD_4": 7, "TEXCOORD_5": 8, "TEXCOORD_6": 9, "TEXCOORD_7": 10}, "indices": 0, "material": 0}]}], "scene": 0, "scenes": [{"name": "Scene", "nodes": [0]}]}