{"asset": {"generator": "Khronos glTF Blender I/O v1.5.17", "version": "2.0"}, "nodes": [{"mesh": 0, "name": "Mesh208_FrontColor_0"}], "buffers": [{"byteLength": 1360896, "uri": "FlatCity565.bin"}], "bufferViews": [{"buffer": 0, "byteLength": 38976, "byteOffset": 0}, {"buffer": 0, "byteLength": 180252, "byteOffset": 38976}, {"buffer": 0, "byteLength": 180252, "byteOffset": 219232}, {"buffer": 0, "byteLength": 120168, "byteOffset": 399488}, {"buffer": 0, "byteLength": 120168, "byteOffset": 519664}, {"buffer": 0, "byteLength": 120168, "byteOffset": 639840}, {"buffer": 0, "byteLength": 120168, "byteOffset": 760016}, {"buffer": 0, "byteLength": 120168, "byteOffset": 880192}, {"buffer": 0, "byteLength": 120168, "byteOffset": 1000368}, {"buffer": 0, "byteLength": 120168, "byteOffset": 1120544}, {"buffer": 0, "byteLength": 120168, "byteOffset": 1240720}], "accessors": [{"bufferView": 0, "componentType": 5123, "count": 19488, "type": "SCALAR", "byteOffset": 0}, {"bufferView": 1, "componentType": 5126, "count": 15021, "max": [15.066398620605469, 1.152474284172058, -7.46905517578125], "min": [5.066398620605469, -0.5328661203384399, -17.469058990478516], "type": "VEC3", "byteOffset": 0}, {"bufferView": 2, "componentType": 5126, "count": 15021, "type": "VEC3", "byteOffset": 0}, {"bufferView": 3, "componentType": 5126, "count": 15021, "type": "VEC2", "byteOffset": 0}, {"bufferView": 4, "componentType": 5126, "count": 15021, "type": "VEC2", "byteOffset": 0}, {"bufferView": 5, "componentType": 5126, "count": 15021, "type": "VEC2", "byteOffset": 0}, {"bufferView": 6, "componentType": 5126, "count": 15021, "type": "VEC2", "byteOffset": 0}, {"bufferView": 7, "componentType": 5126, "count": 15021, "type": "VEC2", "byteOffset": 0}, {"bufferView": 8, "componentType": 5126, "count": 15021, "type": "VEC2", "byteOffset": 0}, {"bufferView": 9, "componentType": 5126, "count": 15021, "type": "VEC2", "byteOffset": 0}, {"bufferView": 10, "componentType": 5126, "count": 15021, "type": "VEC2", "byteOffset": 0}], "materials": [{"name": "FrontColor", "pbrMetallicRoughness": {"baseColorFactor": [0.5684521794319153, 0.5684521794319153, 0.5684521794319153, 1], "metallicFactor": 0.17196325957775116, "roughnessFactor": 0.47536954283714294}}], "meshes": [{"primitives": [{"attributes": {"POSITION": 1, "NORMAL": 2, "TEXCOORD_0": 3, "TEXCOORD_1": 4, "TEXCOORD_2": 5, "TEXCOORD_3": 6, "TEXCOORD_4": 7, "TEXCOORD_5": 8, "TEXCOORD_6": 9, "TEXCOORD_7": 10}, "indices": 0, "material": 0}]}], "scene": 0, "scenes": [{"name": "Scene", "nodes": [0]}]}