{"asset": {"generator": "Khronos glTF Blender I/O v1.5.17", "version": "2.0"}, "nodes": [{"mesh": 0, "name": "Mesh157_FrontColor_0"}], "buffers": [{"byteLength": 1763840, "uri": "FlatCity442.bin"}], "bufferViews": [{"buffer": 0, "byteLength": 51702, "byteOffset": 0}, {"buffer": 0, "byteLength": 233472, "byteOffset": 51712}, {"buffer": 0, "byteLength": 233472, "byteOffset": 285184}, {"buffer": 0, "byteLength": 155648, "byteOffset": 518656}, {"buffer": 0, "byteLength": 155648, "byteOffset": 674304}, {"buffer": 0, "byteLength": 155648, "byteOffset": 829952}, {"buffer": 0, "byteLength": 155648, "byteOffset": 985600}, {"buffer": 0, "byteLength": 155648, "byteOffset": 1141248}, {"buffer": 0, "byteLength": 155648, "byteOffset": 1296896}, {"buffer": 0, "byteLength": 155648, "byteOffset": 1452544}, {"buffer": 0, "byteLength": 155648, "byteOffset": 1608192}], "accessors": [{"bufferView": 0, "componentType": 5123, "count": 25851, "type": "SCALAR", "byteOffset": 0}, {"bufferView": 1, "componentType": 5126, "count": 19456, "max": [-34.93360137939453, 5.231984615325928, -7.474418640136719], "min": [-44.93360137939453, -0.5328661203384399, -17.474422454833984], "type": "VEC3", "byteOffset": 0}, {"bufferView": 2, "componentType": 5126, "count": 19456, "type": "VEC3", "byteOffset": 0}, {"bufferView": 3, "componentType": 5126, "count": 19456, "type": "VEC2", "byteOffset": 0}, {"bufferView": 4, "componentType": 5126, "count": 19456, "type": "VEC2", "byteOffset": 0}, {"bufferView": 5, "componentType": 5126, "count": 19456, "type": "VEC2", "byteOffset": 0}, {"bufferView": 6, "componentType": 5126, "count": 19456, "type": "VEC2", "byteOffset": 0}, {"bufferView": 7, "componentType": 5126, "count": 19456, "type": "VEC2", "byteOffset": 0}, {"bufferView": 8, "componentType": 5126, "count": 19456, "type": "VEC2", "byteOffset": 0}, {"bufferView": 9, "componentType": 5126, "count": 19456, "type": "VEC2", "byteOffset": 0}, {"bufferView": 10, "componentType": 5126, "count": 19456, "type": "VEC2", "byteOffset": 0}], "materials": [{"name": "FrontColor", "pbrMetallicRoughness": {"baseColorFactor": [0.5684521794319153, 0.5684521794319153, 0.5684521794319153, 1], "metallicFactor": 0.17196325957775116, "roughnessFactor": 0.47536954283714294}}], "meshes": [{"primitives": [{"attributes": {"POSITION": 1, "NORMAL": 2, "TEXCOORD_0": 3, "TEXCOORD_1": 4, "TEXCOORD_2": 5, "TEXCOORD_3": 6, "TEXCOORD_4": 7, "TEXCOORD_5": 8, "TEXCOORD_6": 9, "TEXCOORD_7": 10}, "indices": 0, "material": 0}]}], "scene": 0, "scenes": [{"name": "Scene", "nodes": [0]}]}