{"asset": {"generator": "Khronos glTF Blender I/O v1.5.17", "version": "2.0"}, "nodes": [{"mesh": 0, "name": "Mesh37_FrontColor_0"}], "buffers": [{"byteLength": 83024, "uri": "FlatCity96.bin"}], "bufferViews": [{"buffer": 0, "byteLength": 2220, "byteOffset": 0}, {"buffer": 0, "byteLength": 11016, "byteOffset": 2224}, {"buffer": 0, "byteLength": 11016, "byteOffset": 13248}, {"buffer": 0, "byteLength": 7344, "byteOffset": 24272}, {"buffer": 0, "byteLength": 7344, "byteOffset": 31616}, {"buffer": 0, "byteLength": 7344, "byteOffset": 38960}, {"buffer": 0, "byteLength": 7344, "byteOffset": 46304}, {"buffer": 0, "byteLength": 7344, "byteOffset": 53648}, {"buffer": 0, "byteLength": 7344, "byteOffset": 60992}, {"buffer": 0, "byteLength": 7344, "byteOffset": 68336}, {"buffer": 0, "byteLength": 7344, "byteOffset": 75680}], "accessors": [{"bufferView": 0, "componentType": 5123, "count": 1110, "type": "SCALAR", "byteOffset": 0}, {"bufferView": 1, "componentType": 5126, "count": 918, "max": [14.984334945678711, 2.421888828277588, 12.342546463012695], "min": [5.245813369750977, -0.12167003750801086, 2.779102325439453], "type": "VEC3", "byteOffset": 0}, {"bufferView": 2, "componentType": 5126, "count": 918, "type": "VEC3", "byteOffset": 0}, {"bufferView": 3, "componentType": 5126, "count": 918, "type": "VEC2", "byteOffset": 0}, {"bufferView": 4, "componentType": 5126, "count": 918, "type": "VEC2", "byteOffset": 0}, {"bufferView": 5, "componentType": 5126, "count": 918, "type": "VEC2", "byteOffset": 0}, {"bufferView": 6, "componentType": 5126, "count": 918, "type": "VEC2", "byteOffset": 0}, {"bufferView": 7, "componentType": 5126, "count": 918, "type": "VEC2", "byteOffset": 0}, {"bufferView": 8, "componentType": 5126, "count": 918, "type": "VEC2", "byteOffset": 0}, {"bufferView": 9, "componentType": 5126, "count": 918, "type": "VEC2", "byteOffset": 0}, {"bufferView": 10, "componentType": 5126, "count": 918, "type": "VEC2", "byteOffset": 0}], "materials": [{"name": "M_0136_Charcoal", "pbrMetallicRoughness": {"baseColorFactor": [0.137254998087883, 0.137254998087883, 0.137254998087883, 1], "roughnessFactor": 0}}], "meshes": [{"primitives": [{"attributes": {"POSITION": 1, "NORMAL": 2, "TEXCOORD_0": 3, "TEXCOORD_1": 4, "TEXCOORD_2": 5, "TEXCOORD_3": 6, "TEXCOORD_4": 7, "TEXCOORD_5": 8, "TEXCOORD_6": 9, "TEXCOORD_7": 10}, "indices": 0, "material": 0}]}], "scene": 0, "scenes": [{"name": "Scene", "nodes": [0]}]}