{"asset": {"generator": "Khronos glTF Blender I/O v1.5.17", "version": "2.0"}, "nodes": [{"mesh": 0, "name": "Mesh20_M_0137_Black_0"}], "buffers": [{"byteLength": 82672, "uri": "FlatCity47.bin"}], "bufferViews": [{"buffer": 0, "byteLength": 2220, "byteOffset": 0}, {"buffer": 0, "byteLength": 10968, "byteOffset": 2224}, {"buffer": 0, "byteLength": 10968, "byteOffset": 13200}, {"buffer": 0, "byteLength": 7312, "byteOffset": 24176}, {"buffer": 0, "byteLength": 7312, "byteOffset": 31488}, {"buffer": 0, "byteLength": 7312, "byteOffset": 38800}, {"buffer": 0, "byteLength": 7312, "byteOffset": 46112}, {"buffer": 0, "byteLength": 7312, "byteOffset": 53424}, {"buffer": 0, "byteLength": 7312, "byteOffset": 60736}, {"buffer": 0, "byteLength": 7312, "byteOffset": 68048}, {"buffer": 0, "byteLength": 7312, "byteOffset": 75360}], "accessors": [{"bufferView": 0, "componentType": 5123, "count": 1110, "type": "SCALAR", "byteOffset": 0}, {"bufferView": 1, "componentType": 5126, "count": 914, "max": [-5.015663146972656, 2.421888828277588, 22.282798767089844], "min": [-14.754188537597656, -0.12167003750801086, 12.719350814819336], "type": "VEC3", "byteOffset": 0}, {"bufferView": 2, "componentType": 5126, "count": 914, "type": "VEC3", "byteOffset": 0}, {"bufferView": 3, "componentType": 5126, "count": 914, "type": "VEC2", "byteOffset": 0}, {"bufferView": 4, "componentType": 5126, "count": 914, "type": "VEC2", "byteOffset": 0}, {"bufferView": 5, "componentType": 5126, "count": 914, "type": "VEC2", "byteOffset": 0}, {"bufferView": 6, "componentType": 5126, "count": 914, "type": "VEC2", "byteOffset": 0}, {"bufferView": 7, "componentType": 5126, "count": 914, "type": "VEC2", "byteOffset": 0}, {"bufferView": 8, "componentType": 5126, "count": 914, "type": "VEC2", "byteOffset": 0}, {"bufferView": 9, "componentType": 5126, "count": 914, "type": "VEC2", "byteOffset": 0}, {"bufferView": 10, "componentType": 5126, "count": 914, "type": "VEC2", "byteOffset": 0}], "materials": [{"name": "M_0136_Charcoal", "pbrMetallicRoughness": {"baseColorFactor": [0.137254998087883, 0.137254998087883, 0.137254998087883, 1], "roughnessFactor": 0}}], "meshes": [{"primitives": [{"attributes": {"POSITION": 1, "NORMAL": 2, "TEXCOORD_0": 3, "TEXCOORD_1": 4, "TEXCOORD_2": 5, "TEXCOORD_3": 6, "TEXCOORD_4": 7, "TEXCOORD_5": 8, "TEXCOORD_6": 9, "TEXCOORD_7": 10}, "indices": 0, "material": 0}]}], "scene": 0, "scenes": [{"name": "Scene", "nodes": [0]}]}