{"asset": {"generator": "Khronos glTF Blender I/O v1.5.17", "version": "2.0"}, "nodes": [{"mesh": 0, "name": "Mesh19_M_0130_Gainsboro_0"}], "buffers": [{"byteLength": 1296, "uri": "FlatCity44.bin"}], "bufferViews": [{"buffer": 0, "byteLength": 36, "byteOffset": 0}, {"buffer": 0, "byteLength": 168, "byteOffset": 48}, {"buffer": 0, "byteLength": 168, "byteOffset": 224}, {"buffer": 0, "byteLength": 112, "byteOffset": 400}, {"buffer": 0, "byteLength": 112, "byteOffset": 512}, {"buffer": 0, "byteLength": 112, "byteOffset": 624}, {"buffer": 0, "byteLength": 112, "byteOffset": 736}, {"buffer": 0, "byteLength": 112, "byteOffset": 848}, {"buffer": 0, "byteLength": 112, "byteOffset": 960}, {"buffer": 0, "byteLength": 112, "byteOffset": 1072}, {"buffer": 0, "byteLength": 112, "byteOffset": 1184}], "accessors": [{"bufferView": 0, "componentType": 5123, "count": 18, "type": "SCALAR", "byteOffset": 0}, {"bufferView": 1, "componentType": 5126, "count": 14, "max": [-11.151622772216797, 2.679574966430664, 22.156553268432617], "min": [-11.863483428955078, 2.679574966430664, 21.48521614074707], "type": "VEC3", "byteOffset": 0}, {"bufferView": 2, "componentType": 5126, "count": 14, "type": "VEC3", "byteOffset": 0}, {"bufferView": 3, "componentType": 5126, "count": 14, "type": "VEC2", "byteOffset": 0}, {"bufferView": 4, "componentType": 5126, "count": 14, "type": "VEC2", "byteOffset": 0}, {"bufferView": 5, "componentType": 5126, "count": 14, "type": "VEC2", "byteOffset": 0}, {"bufferView": 6, "componentType": 5126, "count": 14, "type": "VEC2", "byteOffset": 0}, {"bufferView": 7, "componentType": 5126, "count": 14, "type": "VEC2", "byteOffset": 0}, {"bufferView": 8, "componentType": 5126, "count": 14, "type": "VEC2", "byteOffset": 0}, {"bufferView": 9, "componentType": 5126, "count": 14, "type": "VEC2", "byteOffset": 0}, {"bufferView": 10, "componentType": 5126, "count": 14, "type": "VEC2", "byteOffset": 0}], "materials": [{"name": "M_0137_Black", "pbrMetallicRoughness": {"baseColorFactor": [0, 0, 0, 1], "metallicFactor": 0, "roughnessFactor": 0}}], "meshes": [{"primitives": [{"attributes": {"POSITION": 1, "NORMAL": 2, "TEXCOORD_0": 3, "TEXCOORD_1": 4, "TEXCOORD_2": 5, "TEXCOORD_3": 6, "TEXCOORD_4": 7, "TEXCOORD_5": 8, "TEXCOORD_6": 9, "TEXCOORD_7": 10}, "indices": 0, "material": 0}]}], "scene": 0, "scenes": [{"name": "Scene", "nodes": [0]}]}