{"asset": {"generator": "Khronos glTF Blender I/O v1.5.17", "version": "2.0"}, "nodes": [{"mesh": 0, "name": "Mesh186_M_0069_LimeGreen_0"}], "buffers": [{"byteLength": 8544, "uri": "FlatCity517.bin"}], "bufferViews": [{"buffer": 0, "byteLength": 288, "byteOffset": 0}, {"buffer": 0, "byteLength": 1116, "byteOffset": 288}, {"buffer": 0, "byteLength": 1116, "byteOffset": 1408}, {"buffer": 0, "byteLength": 744, "byteOffset": 2528}, {"buffer": 0, "byteLength": 744, "byteOffset": 3280}, {"buffer": 0, "byteLength": 744, "byteOffset": 4032}, {"buffer": 0, "byteLength": 744, "byteOffset": 4784}, {"buffer": 0, "byteLength": 744, "byteOffset": 5536}, {"buffer": 0, "byteLength": 744, "byteOffset": 6288}, {"buffer": 0, "byteLength": 744, "byteOffset": 7040}, {"buffer": 0, "byteLength": 744, "byteOffset": 7792}], "accessors": [{"bufferView": 0, "componentType": 5123, "count": 144, "type": "SCALAR", "byteOffset": 0}, {"bufferView": 1, "componentType": 5126, "count": 93, "max": [4.375217437744141, 2.6776227951049805, -0.3632469177246094], "min": [0.4605903625488281, 2.5118765830993652, -4.277873992919922], "type": "VEC3", "byteOffset": 0}, {"bufferView": 2, "componentType": 5126, "count": 93, "type": "VEC3", "byteOffset": 0}, {"bufferView": 3, "componentType": 5126, "count": 93, "type": "VEC2", "byteOffset": 0}, {"bufferView": 4, "componentType": 5126, "count": 93, "type": "VEC2", "byteOffset": 0}, {"bufferView": 5, "componentType": 5126, "count": 93, "type": "VEC2", "byteOffset": 0}, {"bufferView": 6, "componentType": 5126, "count": 93, "type": "VEC2", "byteOffset": 0}, {"bufferView": 7, "componentType": 5126, "count": 93, "type": "VEC2", "byteOffset": 0}, {"bufferView": 8, "componentType": 5126, "count": 93, "type": "VEC2", "byteOffset": 0}, {"bufferView": 9, "componentType": 5126, "count": 93, "type": "VEC2", "byteOffset": 0}, {"bufferView": 10, "componentType": 5126, "count": 93, "type": "VEC2", "byteOffset": 0}], "materials": [{"name": "M_0131_Silver", "pbrMetallicRoughness": {"baseColorFactor": [0.7529410123825073, 0.7529410123825073, 0.7529410123825073, 1], "metallicFactor": 0, "roughnessFactor": 0.9302135109901428}}], "meshes": [{"primitives": [{"attributes": {"POSITION": 1, "NORMAL": 2, "TEXCOORD_0": 3, "TEXCOORD_1": 4, "TEXCOORD_2": 5, "TEXCOORD_3": 6, "TEXCOORD_4": 7, "TEXCOORD_5": 8, "TEXCOORD_6": 9, "TEXCOORD_7": 10}, "indices": 0, "material": 0}]}], "scene": 0, "scenes": [{"name": "Scene", "nodes": [0]}]}