{"asset": {"generator": "Khronos glTF Blender I/O v1.5.17", "version": "2.0"}, "nodes": [{"mesh": 0, "name": "Mesh140_M_0135_DarkGray_0"}], "buffers": [{"byteLength": 9952, "uri": "FlatCity391.bin"}], "bufferViews": [{"buffer": 0, "byteLength": 288, "byteOffset": 0}, {"buffer": 0, "byteLength": 1308, "byteOffset": 288}, {"buffer": 0, "byteLength": 1308, "byteOffset": 1600}, {"buffer": 0, "byteLength": 872, "byteOffset": 2912}, {"buffer": 0, "byteLength": 872, "byteOffset": 3792}, {"buffer": 0, "byteLength": 872, "byteOffset": 4672}, {"buffer": 0, "byteLength": 872, "byteOffset": 5552}, {"buffer": 0, "byteLength": 872, "byteOffset": 6432}, {"buffer": 0, "byteLength": 872, "byteOffset": 7312}, {"buffer": 0, "byteLength": 872, "byteOffset": 8192}, {"buffer": 0, "byteLength": 872, "byteOffset": 9072}], "accessors": [{"bufferView": 0, "componentType": 5123, "count": 144, "type": "SCALAR", "byteOffset": 0}, {"bufferView": 1, "componentType": 5126, "count": 109, "max": [-40.327796936035156, 3.0091147422790527, -10.665596008300781], "min": [-44.24242401123047, 2.8433685302734375, -14.58022689819336], "type": "VEC3", "byteOffset": 0}, {"bufferView": 2, "componentType": 5126, "count": 109, "type": "VEC3", "byteOffset": 0}, {"bufferView": 3, "componentType": 5126, "count": 109, "type": "VEC2", "byteOffset": 0}, {"bufferView": 4, "componentType": 5126, "count": 109, "type": "VEC2", "byteOffset": 0}, {"bufferView": 5, "componentType": 5126, "count": 109, "type": "VEC2", "byteOffset": 0}, {"bufferView": 6, "componentType": 5126, "count": 109, "type": "VEC2", "byteOffset": 0}, {"bufferView": 7, "componentType": 5126, "count": 109, "type": "VEC2", "byteOffset": 0}, {"bufferView": 8, "componentType": 5126, "count": 109, "type": "VEC2", "byteOffset": 0}, {"bufferView": 9, "componentType": 5126, "count": 109, "type": "VEC2", "byteOffset": 0}, {"bufferView": 10, "componentType": 5126, "count": 109, "type": "VEC2", "byteOffset": 0}], "materials": [{"name": "M_0131_Silver", "pbrMetallicRoughness": {"baseColorFactor": [0.7529410123825073, 0.7529410123825073, 0.7529410123825073, 1], "metallicFactor": 0, "roughnessFactor": 0.9302135109901428}}], "meshes": [{"primitives": [{"attributes": {"POSITION": 1, "NORMAL": 2, "TEXCOORD_0": 3, "TEXCOORD_1": 4, "TEXCOORD_2": 5, "TEXCOORD_3": 6, "TEXCOORD_4": 7, "TEXCOORD_5": 8, "TEXCOORD_6": 9, "TEXCOORD_7": 10}, "indices": 0, "material": 0}]}], "scene": 0, "scenes": [{"name": "Scene", "nodes": [0]}]}