{"asset": {"generator": "Khronos glTF Blender I/O v1.5.17", "version": "2.0"}, "nodes": [{"mesh": 0, "name": "Mesh48_FrontColor_0"}], "buffers": [{"byteLength": 1010848, "uri": "FlatCity129.bin"}], "bufferViews": [{"buffer": 0, "byteLength": 31770, "byteOffset": 0}, {"buffer": 0, "byteLength": 133500, "byteOffset": 31776}, {"buffer": 0, "byteLength": 133500, "byteOffset": 165280}, {"buffer": 0, "byteLength": 89000, "byteOffset": 298784}, {"buffer": 0, "byteLength": 89000, "byteOffset": 387792}, {"buffer": 0, "byteLength": 89000, "byteOffset": 476800}, {"buffer": 0, "byteLength": 89000, "byteOffset": 565808}, {"buffer": 0, "byteLength": 89000, "byteOffset": 654816}, {"buffer": 0, "byteLength": 89000, "byteOffset": 743824}, {"buffer": 0, "byteLength": 89000, "byteOffset": 832832}, {"buffer": 0, "byteLength": 89000, "byteOffset": 921840}], "accessors": [{"bufferView": 0, "componentType": 5123, "count": 15885, "type": "SCALAR", "byteOffset": 0}, {"bufferView": 1, "componentType": 5126, "count": 11125, "max": [25.06639862060547, 1.0679092407226562, 12.530948638916016], "min": [15.066398620605469, -0.5328661203384399, 2.5309486389160156], "type": "VEC3", "byteOffset": 0}, {"bufferView": 2, "componentType": 5126, "count": 11125, "type": "VEC3", "byteOffset": 0}, {"bufferView": 3, "componentType": 5126, "count": 11125, "type": "VEC2", "byteOffset": 0}, {"bufferView": 4, "componentType": 5126, "count": 11125, "type": "VEC2", "byteOffset": 0}, {"bufferView": 5, "componentType": 5126, "count": 11125, "type": "VEC2", "byteOffset": 0}, {"bufferView": 6, "componentType": 5126, "count": 11125, "type": "VEC2", "byteOffset": 0}, {"bufferView": 7, "componentType": 5126, "count": 11125, "type": "VEC2", "byteOffset": 0}, {"bufferView": 8, "componentType": 5126, "count": 11125, "type": "VEC2", "byteOffset": 0}, {"bufferView": 9, "componentType": 5126, "count": 11125, "type": "VEC2", "byteOffset": 0}, {"bufferView": 10, "componentType": 5126, "count": 11125, "type": "VEC2", "byteOffset": 0}], "materials": [{"name": "FrontColor", "pbrMetallicRoughness": {"baseColorFactor": [0.5684521794319153, 0.5684521794319153, 0.5684521794319153, 1], "metallicFactor": 0.17196325957775116, "roughnessFactor": 0.47536954283714294}}], "meshes": [{"primitives": [{"attributes": {"POSITION": 1, "NORMAL": 2, "TEXCOORD_0": 3, "TEXCOORD_1": 4, "TEXCOORD_2": 5, "TEXCOORD_3": 6, "TEXCOORD_4": 7, "TEXCOORD_5": 8, "TEXCOORD_6": 9, "TEXCOORD_7": 10}, "indices": 0, "material": 0}]}], "scene": 0, "scenes": [{"name": "Scene", "nodes": [0]}]}