{"asset": {"generator": "Khronos glTF Blender I/O v1.5.17", "version": "2.0"}, "nodes": [{"mesh": 0, "name": "Mesh23_M_0137_Black_0"}], "buffers": [{"byteLength": 6048, "uri": "FlatCity53.bin"}], "bufferViews": [{"buffer": 0, "byteLength": 210, "byteOffset": 0}, {"buffer": 0, "byteLength": 792, "byteOffset": 224}, {"buffer": 0, "byteLength": 792, "byteOffset": 1024}, {"buffer": 0, "byteLength": 528, "byteOffset": 1824}, {"buffer": 0, "byteLength": 528, "byteOffset": 2352}, {"buffer": 0, "byteLength": 528, "byteOffset": 2880}, {"buffer": 0, "byteLength": 528, "byteOffset": 3408}, {"buffer": 0, "byteLength": 528, "byteOffset": 3936}, {"buffer": 0, "byteLength": 528, "byteOffset": 4464}, {"buffer": 0, "byteLength": 528, "byteOffset": 4992}, {"buffer": 0, "byteLength": 528, "byteOffset": 5520}], "accessors": [{"bufferView": 0, "componentType": 5123, "count": 105, "type": "SCALAR", "byteOffset": 0}, {"bufferView": 1, "componentType": 5126, "count": 66, "max": [15.066398620605469, -0.10982504487037659, 17.53095054626465], "min": [5.066398620605469, -0.5328661203384399, 12.530948638916016], "type": "VEC3", "byteOffset": 0}, {"bufferView": 2, "componentType": 5126, "count": 66, "type": "VEC3", "byteOffset": 0}, {"bufferView": 3, "componentType": 5126, "count": 66, "type": "VEC2", "byteOffset": 0}, {"bufferView": 4, "componentType": 5126, "count": 66, "type": "VEC2", "byteOffset": 0}, {"bufferView": 5, "componentType": 5126, "count": 66, "type": "VEC2", "byteOffset": 0}, {"bufferView": 6, "componentType": 5126, "count": 66, "type": "VEC2", "byteOffset": 0}, {"bufferView": 7, "componentType": 5126, "count": 66, "type": "VEC2", "byteOffset": 0}, {"bufferView": 8, "componentType": 5126, "count": 66, "type": "VEC2", "byteOffset": 0}, {"bufferView": 9, "componentType": 5126, "count": 66, "type": "VEC2", "byteOffset": 0}, {"bufferView": 10, "componentType": 5126, "count": 66, "type": "VEC2", "byteOffset": 0}], "materials": [{"name": "FrontColor", "pbrMetallicRoughness": {"baseColorFactor": [0.5684521794319153, 0.5684521794319153, 0.5684521794319153, 1], "metallicFactor": 0.17196325957775116, "roughnessFactor": 0.47536954283714294}}], "meshes": [{"primitives": [{"attributes": {"POSITION": 1, "NORMAL": 2, "TEXCOORD_0": 3, "TEXCOORD_1": 4, "TEXCOORD_2": 5, "TEXCOORD_3": 6, "TEXCOORD_4": 7, "TEXCOORD_5": 8, "TEXCOORD_6": 9, "TEXCOORD_7": 10}, "indices": 0, "material": 0}]}], "scene": 0, "scenes": [{"name": "Scene", "nodes": [0]}]}