{"asset": {"generator": "Khronos glTF Blender I/O v1.5.17", "version": "2.0"}, "nodes": [{"mesh": 0, "name": "Mesh4_M_0137_Black_0"}], "buffers": [{"byteLength": 573296, "uri": "FlatCity7.bin"}], "bufferViews": [{"buffer": 0, "byteLength": 19590, "byteOffset": 0}, {"buffer": 0, "byteLength": 75504, "byteOffset": 19600}, {"buffer": 0, "byteLength": 75504, "byteOffset": 95104}, {"buffer": 0, "byteLength": 50336, "byteOffset": 170608}, {"buffer": 0, "byteLength": 50336, "byteOffset": 220944}, {"buffer": 0, "byteLength": 50336, "byteOffset": 271280}, {"buffer": 0, "byteLength": 50336, "byteOffset": 321616}, {"buffer": 0, "byteLength": 50336, "byteOffset": 371952}, {"buffer": 0, "byteLength": 50336, "byteOffset": 422288}, {"buffer": 0, "byteLength": 50336, "byteOffset": 472624}, {"buffer": 0, "byteLength": 50336, "byteOffset": 522960}], "accessors": [{"bufferView": 0, "componentType": 5123, "count": 9795, "type": "SCALAR", "byteOffset": 0}, {"bufferView": 1, "componentType": 5126, "count": 6292, "max": [5.066398620605469, 2.5080795288085938, 12.530948638916016], "min": [-4.933601379394531, -0.121792733669281, 2.5309410095214844], "type": "VEC3", "byteOffset": 0}, {"bufferView": 2, "componentType": 5126, "count": 6292, "type": "VEC3", "byteOffset": 0}, {"bufferView": 3, "componentType": 5126, "count": 6292, "type": "VEC2", "byteOffset": 0}, {"bufferView": 4, "componentType": 5126, "count": 6292, "type": "VEC2", "byteOffset": 0}, {"bufferView": 5, "componentType": 5126, "count": 6292, "type": "VEC2", "byteOffset": 0}, {"bufferView": 6, "componentType": 5126, "count": 6292, "type": "VEC2", "byteOffset": 0}, {"bufferView": 7, "componentType": 5126, "count": 6292, "type": "VEC2", "byteOffset": 0}, {"bufferView": 8, "componentType": 5126, "count": 6292, "type": "VEC2", "byteOffset": 0}, {"bufferView": 9, "componentType": 5126, "count": 6292, "type": "VEC2", "byteOffset": 0}, {"bufferView": 10, "componentType": 5126, "count": 6292, "type": "VEC2", "byteOffset": 0}], "materials": [{"name": "M_0135_DarkGray", "pbrMetallicRoughness": {"baseColorFactor": [0.3176470100879669, 0.3176470100879669, 0.3176470100879669, 1], "metallicFactor": 0, "roughnessFactor": 0.9302135109901428}}], "meshes": [{"primitives": [{"attributes": {"POSITION": 1, "NORMAL": 2, "TEXCOORD_0": 3, "TEXCOORD_1": 4, "TEXCOORD_2": 5, "TEXCOORD_3": 6, "TEXCOORD_4": 7, "TEXCOORD_5": 8, "TEXCOORD_6": 9, "TEXCOORD_7": 10}, "indices": 0, "material": 0}]}], "scene": 0, "scenes": [{"name": "Scene", "nodes": [0]}]}