{"asset": {"generator": "Khronos glTF Blender I/O v1.5.17", "version": "2.0"}, "nodes": [{"mesh": 0, "name": "Mesh53_FrontColor_0"}], "buffers": [{"byteLength": 35744, "uri": "FlatCity144.bin"}], "bufferViews": [{"buffer": 0, "byteLength": 1242, "byteOffset": 0}, {"buffer": 0, "byteLength": 4692, "byteOffset": 1248}, {"buffer": 0, "byteLength": 4692, "byteOffset": 5952}, {"buffer": 0, "byteLength": 3128, "byteOffset": 10656}, {"buffer": 0, "byteLength": 3128, "byteOffset": 13792}, {"buffer": 0, "byteLength": 3128, "byteOffset": 16928}, {"buffer": 0, "byteLength": 3128, "byteOffset": 20064}, {"buffer": 0, "byteLength": 3128, "byteOffset": 23200}, {"buffer": 0, "byteLength": 3128, "byteOffset": 26336}, {"buffer": 0, "byteLength": 3128, "byteOffset": 29472}, {"buffer": 0, "byteLength": 3128, "byteOffset": 32608}], "accessors": [{"bufferView": 0, "componentType": 5123, "count": 621, "type": "SCALAR", "byteOffset": 0}, {"bufferView": 1, "componentType": 5126, "count": 391, "max": [-24.93360137939453, -0.11192402243614197, 7.530948638916016], "min": [-29.93360137939453, -0.5349650979042053, 2.5309486389160156], "type": "VEC3", "byteOffset": 0}, {"bufferView": 2, "componentType": 5126, "count": 391, "type": "VEC3", "byteOffset": 0}, {"bufferView": 3, "componentType": 5126, "count": 391, "type": "VEC2", "byteOffset": 0}, {"bufferView": 4, "componentType": 5126, "count": 391, "type": "VEC2", "byteOffset": 0}, {"bufferView": 5, "componentType": 5126, "count": 391, "type": "VEC2", "byteOffset": 0}, {"bufferView": 6, "componentType": 5126, "count": 391, "type": "VEC2", "byteOffset": 0}, {"bufferView": 7, "componentType": 5126, "count": 391, "type": "VEC2", "byteOffset": 0}, {"bufferView": 8, "componentType": 5126, "count": 391, "type": "VEC2", "byteOffset": 0}, {"bufferView": 9, "componentType": 5126, "count": 391, "type": "VEC2", "byteOffset": 0}, {"bufferView": 10, "componentType": 5126, "count": 391, "type": "VEC2", "byteOffset": 0}], "materials": [{"name": "FrontColor", "pbrMetallicRoughness": {"baseColorFactor": [0.5684521794319153, 0.5684521794319153, 0.5684521794319153, 1], "metallicFactor": 0.17196325957775116, "roughnessFactor": 0.47536954283714294}}], "meshes": [{"primitives": [{"attributes": {"POSITION": 1, "NORMAL": 2, "TEXCOORD_0": 3, "TEXCOORD_1": 4, "TEXCOORD_2": 5, "TEXCOORD_3": 6, "TEXCOORD_4": 7, "TEXCOORD_5": 8, "TEXCOORD_6": 9, "TEXCOORD_7": 10}, "indices": 0, "material": 0}]}], "scene": 0, "scenes": [{"name": "Scene", "nodes": [0]}]}