{"asset": {"generator": "Khronos glTF Blender I/O v1.5.17", "version": "2.0"}, "nodes": [{"mesh": 0, "name": "Mesh101_FrontColor_0"}], "buffers": [{"byteLength": 18640, "uri": "FlatCity285.bin"}], "bufferViews": [{"buffer": 0, "byteLength": 516, "byteOffset": 0}, {"buffer": 0, "byteLength": 2460, "byteOffset": 528}, {"buffer": 0, "byteLength": 2460, "byteOffset": 2992}, {"buffer": 0, "byteLength": 1640, "byteOffset": 5456}, {"buffer": 0, "byteLength": 1640, "byteOffset": 7104}, {"buffer": 0, "byteLength": 1640, "byteOffset": 8752}, {"buffer": 0, "byteLength": 1640, "byteOffset": 10400}, {"buffer": 0, "byteLength": 1640, "byteOffset": 12048}, {"buffer": 0, "byteLength": 1640, "byteOffset": 13696}, {"buffer": 0, "byteLength": 1640, "byteOffset": 15344}, {"buffer": 0, "byteLength": 1640, "byteOffset": 16992}], "accessors": [{"bufferView": 0, "componentType": 5123, "count": 258, "type": "SCALAR", "byteOffset": 0}, {"bufferView": 1, "componentType": 5126, "count": 205, "max": [-15.113018035888672, 1.0604132413864136, 1.7897377014160156], "min": [-24.754188537597656, -0.10982504487037659, -7.236499786376953], "type": "VEC3", "byteOffset": 0}, {"bufferView": 2, "componentType": 5126, "count": 205, "type": "VEC3", "byteOffset": 0}, {"bufferView": 3, "componentType": 5126, "count": 205, "type": "VEC2", "byteOffset": 0}, {"bufferView": 4, "componentType": 5126, "count": 205, "type": "VEC2", "byteOffset": 0}, {"bufferView": 5, "componentType": 5126, "count": 205, "type": "VEC2", "byteOffset": 0}, {"bufferView": 6, "componentType": 5126, "count": 205, "type": "VEC2", "byteOffset": 0}, {"bufferView": 7, "componentType": 5126, "count": 205, "type": "VEC2", "byteOffset": 0}, {"bufferView": 8, "componentType": 5126, "count": 205, "type": "VEC2", "byteOffset": 0}, {"bufferView": 9, "componentType": 5126, "count": 205, "type": "VEC2", "byteOffset": 0}, {"bufferView": 10, "componentType": 5126, "count": 205, "type": "VEC2", "byteOffset": 0}], "materials": [{"name": "M_0137_Black", "pbrMetallicRoughness": {"baseColorFactor": [0, 0, 0, 1], "metallicFactor": 0, "roughnessFactor": 0}}], "meshes": [{"primitives": [{"attributes": {"POSITION": 1, "NORMAL": 2, "TEXCOORD_0": 3, "TEXCOORD_1": 4, "TEXCOORD_2": 5, "TEXCOORD_3": 6, "TEXCOORD_4": 7, "TEXCOORD_5": 8, "TEXCOORD_6": 9, "TEXCOORD_7": 10}, "indices": 0, "material": 0}]}], "scene": 0, "scenes": [{"name": "Scene", "nodes": [0]}]}