{"asset": {"generator": "Khronos glTF Blender I/O v1.5.17", "version": "2.0"}, "nodes": [{"mesh": 0, "name": "Mesh141_M_0131_Silver_0"}], "buffers": [{"byteLength": 4720, "uri": "FlatCity392.bin"}], "bufferViews": [{"buffer": 0, "byteLength": 132, "byteOffset": 0}, {"buffer": 0, "byteLength": 624, "byteOffset": 144}, {"buffer": 0, "byteLength": 624, "byteOffset": 768}, {"buffer": 0, "byteLength": 416, "byteOffset": 1392}, {"buffer": 0, "byteLength": 416, "byteOffset": 1808}, {"buffer": 0, "byteLength": 416, "byteOffset": 2224}, {"buffer": 0, "byteLength": 416, "byteOffset": 2640}, {"buffer": 0, "byteLength": 416, "byteOffset": 3056}, {"buffer": 0, "byteLength": 416, "byteOffset": 3472}, {"buffer": 0, "byteLength": 416, "byteOffset": 3888}, {"buffer": 0, "byteLength": 416, "byteOffset": 4304}], "accessors": [{"bufferView": 0, "componentType": 5123, "count": 66, "type": "SCALAR", "byteOffset": 0}, {"bufferView": 1, "componentType": 5126, "count": 52, "max": [-40.369842529296875, 3.0091147422790527, -10.707645416259766], "min": [-44.20037078857422, 2.8433685302734375, -14.53818130493164], "type": "VEC3", "byteOffset": 0}, {"bufferView": 2, "componentType": 5126, "count": 52, "type": "VEC3", "byteOffset": 0}, {"bufferView": 3, "componentType": 5126, "count": 52, "type": "VEC2", "byteOffset": 0}, {"bufferView": 4, "componentType": 5126, "count": 52, "type": "VEC2", "byteOffset": 0}, {"bufferView": 5, "componentType": 5126, "count": 52, "type": "VEC2", "byteOffset": 0}, {"bufferView": 6, "componentType": 5126, "count": 52, "type": "VEC2", "byteOffset": 0}, {"bufferView": 7, "componentType": 5126, "count": 52, "type": "VEC2", "byteOffset": 0}, {"bufferView": 8, "componentType": 5126, "count": 52, "type": "VEC2", "byteOffset": 0}, {"bufferView": 9, "componentType": 5126, "count": 52, "type": "VEC2", "byteOffset": 0}, {"bufferView": 10, "componentType": 5126, "count": 52, "type": "VEC2", "byteOffset": 0}], "materials": [{"name": "M_0137_Black", "pbrMetallicRoughness": {"baseColorFactor": [0, 0, 0, 1], "metallicFactor": 0, "roughnessFactor": 0}}], "meshes": [{"primitives": [{"attributes": {"POSITION": 1, "NORMAL": 2, "TEXCOORD_0": 3, "TEXCOORD_1": 4, "TEXCOORD_2": 5, "TEXCOORD_3": 6, "TEXCOORD_4": 7, "TEXCOORD_5": 8, "TEXCOORD_6": 9, "TEXCOORD_7": 10}, "indices": 0, "material": 0}]}], "scene": 0, "scenes": [{"name": "Scene", "nodes": [0]}]}