{"asset": {"generator": "Khronos glTF Blender I/O v1.5.17", "version": "2.0"}, "nodes": [{"mesh": 0, "name": "Mesh161_FrontColor_0"}], "buffers": [{"byteLength": 368, "uri": "FlatCity454.bin"}], "bufferViews": [{"buffer": 0, "byteLength": 12, "byteOffset": 0}, {"buffer": 0, "byteLength": 48, "byteOffset": 16}, {"buffer": 0, "byteLength": 48, "byteOffset": 64}, {"buffer": 0, "byteLength": 32, "byteOffset": 112}, {"buffer": 0, "byteLength": 32, "byteOffset": 144}, {"buffer": 0, "byteLength": 32, "byteOffset": 176}, {"buffer": 0, "byteLength": 32, "byteOffset": 208}, {"buffer": 0, "byteLength": 32, "byteOffset": 240}, {"buffer": 0, "byteLength": 32, "byteOffset": 272}, {"buffer": 0, "byteLength": 32, "byteOffset": 304}, {"buffer": 0, "byteLength": 32, "byteOffset": 336}], "accessors": [{"bufferView": 0, "componentType": 5123, "count": 6, "type": "SCALAR", "byteOffset": 0}, {"bufferView": 1, "componentType": 5126, "count": 4, "max": [-13.795761108398438, 3.764963150024414, -6.142971038818359], "min": [-13.940414428710938, 3.764963150024414, -6.811737060546875], "type": "VEC3", "byteOffset": 0}, {"bufferView": 2, "componentType": 5126, "count": 4, "type": "VEC3", "byteOffset": 0}, {"bufferView": 3, "componentType": 5126, "count": 4, "type": "VEC2", "byteOffset": 0}, {"bufferView": 4, "componentType": 5126, "count": 4, "type": "VEC2", "byteOffset": 0}, {"bufferView": 5, "componentType": 5126, "count": 4, "type": "VEC2", "byteOffset": 0}, {"bufferView": 6, "componentType": 5126, "count": 4, "type": "VEC2", "byteOffset": 0}, {"bufferView": 7, "componentType": 5126, "count": 4, "type": "VEC2", "byteOffset": 0}, {"bufferView": 8, "componentType": 5126, "count": 4, "type": "VEC2", "byteOffset": 0}, {"bufferView": 9, "componentType": 5126, "count": 4, "type": "VEC2", "byteOffset": 0}, {"bufferView": 10, "componentType": 5126, "count": 4, "type": "VEC2", "byteOffset": 0}], "materials": [{"name": "M_0087_Cyan", "pbrMetallicRoughness": {"baseColorFactor": [0, 1, 1, 1], "metallicFactor": 0, "roughnessFactor": 0.9302135109901428}}], "meshes": [{"primitives": [{"attributes": {"POSITION": 1, "NORMAL": 2, "TEXCOORD_0": 3, "TEXCOORD_1": 4, "TEXCOORD_2": 5, "TEXCOORD_3": 6, "TEXCOORD_4": 7, "TEXCOORD_5": 8, "TEXCOORD_6": 9, "TEXCOORD_7": 10}, "indices": 0, "material": 0}]}], "scene": 0, "scenes": [{"name": "Scene", "nodes": [0]}]}