{"asset": {"generator": "Khronos glTF Blender I/O v1.5.17", "version": "2.0"}, "nodes": [{"mesh": 0, "name": "Mesh160_M_0131_Silver_0"}], "buffers": [{"byteLength": 1105568, "uri": "FlatCity449.bin"}], "bufferViews": [{"buffer": 0, "byteLength": 31764, "byteOffset": 0}, {"buffer": 0, "byteLength": 146424, "byteOffset": 31776}, {"buffer": 0, "byteLength": 146424, "byteOffset": 178208}, {"buffer": 0, "byteLength": 97616, "byteOffset": 324640}, {"buffer": 0, "byteLength": 97616, "byteOffset": 422256}, {"buffer": 0, "byteLength": 97616, "byteOffset": 519872}, {"buffer": 0, "byteLength": 97616, "byteOffset": 617488}, {"buffer": 0, "byteLength": 97616, "byteOffset": 715104}, {"buffer": 0, "byteLength": 97616, "byteOffset": 812720}, {"buffer": 0, "byteLength": 97616, "byteOffset": 910336}, {"buffer": 0, "byteLength": 97616, "byteOffset": 1007952}], "accessors": [{"bufferView": 0, "componentType": 5123, "count": 15882, "type": "SCALAR", "byteOffset": 0}, {"bufferView": 1, "componentType": 5126, "count": 12202, "max": [-24.93360137939453, 1.0679092407226562, -7.46905517578125], "min": [-34.93360137939453, -0.5328661203384399, -17.469058990478516], "type": "VEC3", "byteOffset": 0}, {"bufferView": 2, "componentType": 5126, "count": 12202, "type": "VEC3", "byteOffset": 0}, {"bufferView": 3, "componentType": 5126, "count": 12202, "type": "VEC2", "byteOffset": 0}, {"bufferView": 4, "componentType": 5126, "count": 12202, "type": "VEC2", "byteOffset": 0}, {"bufferView": 5, "componentType": 5126, "count": 12202, "type": "VEC2", "byteOffset": 0}, {"bufferView": 6, "componentType": 5126, "count": 12202, "type": "VEC2", "byteOffset": 0}, {"bufferView": 7, "componentType": 5126, "count": 12202, "type": "VEC2", "byteOffset": 0}, {"bufferView": 8, "componentType": 5126, "count": 12202, "type": "VEC2", "byteOffset": 0}, {"bufferView": 9, "componentType": 5126, "count": 12202, "type": "VEC2", "byteOffset": 0}, {"bufferView": 10, "componentType": 5126, "count": 12202, "type": "VEC2", "byteOffset": 0}], "materials": [{"name": "FrontColor", "pbrMetallicRoughness": {"baseColorFactor": [0.5684521794319153, 0.5684521794319153, 0.5684521794319153, 1], "metallicFactor": 0.17196325957775116, "roughnessFactor": 0.47536954283714294}}], "meshes": [{"primitives": [{"attributes": {"POSITION": 1, "NORMAL": 2, "TEXCOORD_0": 3, "TEXCOORD_1": 4, "TEXCOORD_2": 5, "TEXCOORD_3": 6, "TEXCOORD_4": 7, "TEXCOORD_5": 8, "TEXCOORD_6": 9, "TEXCOORD_7": 10}, "indices": 0, "material": 0}]}], "scene": 0, "scenes": [{"name": "Scene", "nodes": [0]}]}