{"asset": {"generator": "Khronos glTF Blender I/O v1.5.17", "version": "2.0"}, "nodes": [{"mesh": 0, "name": "Mesh129_M_0137_Black_0"}], "buffers": [{"byteLength": 1771072, "uri": "FlatCity361.bin"}], "bufferViews": [{"buffer": 0, "byteLength": 51702, "byteOffset": 0}, {"buffer": 0, "byteLength": 234456, "byteOffset": 51712}, {"buffer": 0, "byteLength": 234456, "byteOffset": 286176}, {"buffer": 0, "byteLength": 156304, "byteOffset": 520640}, {"buffer": 0, "byteLength": 156304, "byteOffset": 676944}, {"buffer": 0, "byteLength": 156304, "byteOffset": 833248}, {"buffer": 0, "byteLength": 156304, "byteOffset": 989552}, {"buffer": 0, "byteLength": 156304, "byteOffset": 1145856}, {"buffer": 0, "byteLength": 156304, "byteOffset": 1302160}, {"buffer": 0, "byteLength": 156304, "byteOffset": 1458464}, {"buffer": 0, "byteLength": 156304, "byteOffset": 1614768}], "accessors": [{"bufferView": 0, "componentType": 5123, "count": 25851, "type": "SCALAR", "byteOffset": 0}, {"bufferView": 1, "componentType": 5126, "count": 19538, "max": [-4.933601379394531, 5.231984615325928, 2.5309486389160156], "min": [-14.933601379394531, -0.5328661203384399, -7.46905517578125], "type": "VEC3", "byteOffset": 0}, {"bufferView": 2, "componentType": 5126, "count": 19538, "type": "VEC3", "byteOffset": 0}, {"bufferView": 3, "componentType": 5126, "count": 19538, "type": "VEC2", "byteOffset": 0}, {"bufferView": 4, "componentType": 5126, "count": 19538, "type": "VEC2", "byteOffset": 0}, {"bufferView": 5, "componentType": 5126, "count": 19538, "type": "VEC2", "byteOffset": 0}, {"bufferView": 6, "componentType": 5126, "count": 19538, "type": "VEC2", "byteOffset": 0}, {"bufferView": 7, "componentType": 5126, "count": 19538, "type": "VEC2", "byteOffset": 0}, {"bufferView": 8, "componentType": 5126, "count": 19538, "type": "VEC2", "byteOffset": 0}, {"bufferView": 9, "componentType": 5126, "count": 19538, "type": "VEC2", "byteOffset": 0}, {"bufferView": 10, "componentType": 5126, "count": 19538, "type": "VEC2", "byteOffset": 0}], "materials": [{"name": "FrontColor", "pbrMetallicRoughness": {"baseColorFactor": [0.5684521794319153, 0.5684521794319153, 0.5684521794319153, 1], "metallicFactor": 0.17196325957775116, "roughnessFactor": 0.47536954283714294}}], "meshes": [{"primitives": [{"attributes": {"POSITION": 1, "NORMAL": 2, "TEXCOORD_0": 3, "TEXCOORD_1": 4, "TEXCOORD_2": 5, "TEXCOORD_3": 6, "TEXCOORD_4": 7, "TEXCOORD_5": 8, "TEXCOORD_6": 9, "TEXCOORD_7": 10}, "indices": 0, "material": 0}]}], "scene": 0, "scenes": [{"name": "Scene", "nodes": [0]}]}