{"asset": {"generator": "Khronos glTF Blender I/O v1.5.17", "version": "2.0"}, "nodes": [{"mesh": 0, "name": "Mesh210_FrontColor_0"}], "buffers": [{"byteLength": 17936, "uri": "FlatCity569.bin"}], "bufferViews": [{"buffer": 0, "byteLength": 516, "byteOffset": 0}, {"buffer": 0, "byteLength": 2364, "byteOffset": 528}, {"buffer": 0, "byteLength": 2364, "byteOffset": 2896}, {"buffer": 0, "byteLength": 1576, "byteOffset": 5264}, {"buffer": 0, "byteLength": 1576, "byteOffset": 6848}, {"buffer": 0, "byteLength": 1576, "byteOffset": 8432}, {"buffer": 0, "byteLength": 1576, "byteOffset": 10016}, {"buffer": 0, "byteLength": 1576, "byteOffset": 11600}, {"buffer": 0, "byteLength": 1576, "byteOffset": 13184}, {"buffer": 0, "byteLength": 1576, "byteOffset": 14768}, {"buffer": 0, "byteLength": 1576, "byteOffset": 16352}], "accessors": [{"bufferView": 0, "componentType": 5123, "count": 258, "type": "SCALAR", "byteOffset": 0}, {"bufferView": 1, "componentType": 5126, "count": 197, "max": [14.886983871459961, 1.0604132413864136, -8.210262298583984], "min": [5.245813369750977, -0.10982504487037659, -17.23650360107422], "type": "VEC3", "byteOffset": 0}, {"bufferView": 2, "componentType": 5126, "count": 197, "type": "VEC3", "byteOffset": 0}, {"bufferView": 3, "componentType": 5126, "count": 197, "type": "VEC2", "byteOffset": 0}, {"bufferView": 4, "componentType": 5126, "count": 197, "type": "VEC2", "byteOffset": 0}, {"bufferView": 5, "componentType": 5126, "count": 197, "type": "VEC2", "byteOffset": 0}, {"bufferView": 6, "componentType": 5126, "count": 197, "type": "VEC2", "byteOffset": 0}, {"bufferView": 7, "componentType": 5126, "count": 197, "type": "VEC2", "byteOffset": 0}, {"bufferView": 8, "componentType": 5126, "count": 197, "type": "VEC2", "byteOffset": 0}, {"bufferView": 9, "componentType": 5126, "count": 197, "type": "VEC2", "byteOffset": 0}, {"bufferView": 10, "componentType": 5126, "count": 197, "type": "VEC2", "byteOffset": 0}], "materials": [{"name": "M_0137_Black", "pbrMetallicRoughness": {"baseColorFactor": [0, 0, 0, 1], "metallicFactor": 0, "roughnessFactor": 0}}], "meshes": [{"primitives": [{"attributes": {"POSITION": 1, "NORMAL": 2, "TEXCOORD_0": 3, "TEXCOORD_1": 4, "TEXCOORD_2": 5, "TEXCOORD_3": 6, "TEXCOORD_4": 7, "TEXCOORD_5": 8, "TEXCOORD_6": 9, "TEXCOORD_7": 10}, "indices": 0, "material": 0}]}], "scene": 0, "scenes": [{"name": "Scene", "nodes": [0]}]}