{"asset": {"generator": "Khronos glTF Blender I/O v1.5.17", "version": "2.0"}, "nodes": [{"mesh": 0, "name": "Mesh170_FrontColor_0"}], "buffers": [{"byteLength": 3616, "uri": "FlatCity476.bin"}], "bufferViews": [{"buffer": 0, "byteLength": 96, "byteOffset": 0}, {"buffer": 0, "byteLength": 480, "byteOffset": 96}, {"buffer": 0, "byteLength": 480, "byteOffset": 576}, {"buffer": 0, "byteLength": 320, "byteOffset": 1056}, {"buffer": 0, "byteLength": 320, "byteOffset": 1376}, {"buffer": 0, "byteLength": 320, "byteOffset": 1696}, {"buffer": 0, "byteLength": 320, "byteOffset": 2016}, {"buffer": 0, "byteLength": 320, "byteOffset": 2336}, {"buffer": 0, "byteLength": 320, "byteOffset": 2656}, {"buffer": 0, "byteLength": 320, "byteOffset": 2976}, {"buffer": 0, "byteLength": 320, "byteOffset": 3296}], "accessors": [{"bufferView": 0, "componentType": 5123, "count": 48, "type": "SCALAR", "byteOffset": 0}, {"bufferView": 1, "componentType": 5126, "count": 40, "max": [12.144323348999023, 2.3177642822265625, -6.275276184082031], "min": [11.136373519897461, 2.242629051208496, -7.242702484130859], "type": "VEC3", "byteOffset": 0}, {"bufferView": 2, "componentType": 5126, "count": 40, "type": "VEC3", "byteOffset": 0}, {"bufferView": 3, "componentType": 5126, "count": 40, "type": "VEC2", "byteOffset": 0}, {"bufferView": 4, "componentType": 5126, "count": 40, "type": "VEC2", "byteOffset": 0}, {"bufferView": 5, "componentType": 5126, "count": 40, "type": "VEC2", "byteOffset": 0}, {"bufferView": 6, "componentType": 5126, "count": 40, "type": "VEC2", "byteOffset": 0}, {"bufferView": 7, "componentType": 5126, "count": 40, "type": "VEC2", "byteOffset": 0}, {"bufferView": 8, "componentType": 5126, "count": 40, "type": "VEC2", "byteOffset": 0}, {"bufferView": 9, "componentType": 5126, "count": 40, "type": "VEC2", "byteOffset": 0}, {"bufferView": 10, "componentType": 5126, "count": 40, "type": "VEC2", "byteOffset": 0}], "materials": [{"name": "M_0137_Black", "pbrMetallicRoughness": {"baseColorFactor": [0, 0, 0, 1], "metallicFactor": 0, "roughnessFactor": 0}}], "meshes": [{"primitives": [{"attributes": {"POSITION": 1, "NORMAL": 2, "TEXCOORD_0": 3, "TEXCOORD_1": 4, "TEXCOORD_2": 5, "TEXCOORD_3": 6, "TEXCOORD_4": 7, "TEXCOORD_5": 8, "TEXCOORD_6": 9, "TEXCOORD_7": 10}, "indices": 0, "material": 0}]}], "scene": 0, "scenes": [{"name": "Scene", "nodes": [0]}]}