{"asset": {"generator": "Khronos glTF Blender I/O v1.5.17", "version": "2.0"}, "nodes": [{"mesh": 0, "name": "Mesh32_M_0131_Silver_0"}], "buffers": [{"byteLength": 15952, "uri": "FlatCity79.bin"}], "bufferViews": [{"buffer": 0, "byteLength": 456, "byteOffset": 0}, {"buffer": 0, "byteLength": 2100, "byteOffset": 464}, {"buffer": 0, "byteLength": 2100, "byteOffset": 2576}, {"buffer": 0, "byteLength": 1400, "byteOffset": 4688}, {"buffer": 0, "byteLength": 1400, "byteOffset": 6096}, {"buffer": 0, "byteLength": 1400, "byteOffset": 7504}, {"buffer": 0, "byteLength": 1400, "byteOffset": 8912}, {"buffer": 0, "byteLength": 1400, "byteOffset": 10320}, {"buffer": 0, "byteLength": 1400, "byteOffset": 11728}, {"buffer": 0, "byteLength": 1400, "byteOffset": 13136}, {"buffer": 0, "byteLength": 1400, "byteOffset": 14544}], "accessors": [{"bufferView": 0, "componentType": 5123, "count": 228, "type": "SCALAR", "byteOffset": 0}, {"bufferView": 1, "componentType": 5126, "count": 175, "max": [4.886983871459961, 2.0923590660095215, 6.507911682128906], "min": [3.82568359375, 1.9420889616012573, 5.406085968017578], "type": "VEC3", "byteOffset": 0}, {"bufferView": 2, "componentType": 5126, "count": 175, "type": "VEC3", "byteOffset": 0}, {"bufferView": 3, "componentType": 5126, "count": 175, "type": "VEC2", "byteOffset": 0}, {"bufferView": 4, "componentType": 5126, "count": 175, "type": "VEC2", "byteOffset": 0}, {"bufferView": 5, "componentType": 5126, "count": 175, "type": "VEC2", "byteOffset": 0}, {"bufferView": 6, "componentType": 5126, "count": 175, "type": "VEC2", "byteOffset": 0}, {"bufferView": 7, "componentType": 5126, "count": 175, "type": "VEC2", "byteOffset": 0}, {"bufferView": 8, "componentType": 5126, "count": 175, "type": "VEC2", "byteOffset": 0}, {"bufferView": 9, "componentType": 5126, "count": 175, "type": "VEC2", "byteOffset": 0}, {"bufferView": 10, "componentType": 5126, "count": 175, "type": "VEC2", "byteOffset": 0}], "materials": [{"name": "M_0130_Gainsboro", "pbrMetallicRoughness": {"baseColorFactor": [0.8627449870109558, 0.8627449870109558, 0.8627449870109558, 1], "metallicFactor": 0, "roughnessFactor": 0.9685046672821045}}], "meshes": [{"primitives": [{"attributes": {"POSITION": 1, "NORMAL": 2, "TEXCOORD_0": 3, "TEXCOORD_1": 4, "TEXCOORD_2": 5, "TEXCOORD_3": 6, "TEXCOORD_4": 7, "TEXCOORD_5": 8, "TEXCOORD_6": 9, "TEXCOORD_7": 10}, "indices": 0, "material": 0}]}], "scene": 0, "scenes": [{"name": "Scene", "nodes": [0]}]}