{"asset": {"generator": "Khronos glTF Blender I/O v1.5.17", "version": "2.0"}, "nodes": [{"mesh": 0, "name": "Mesh133_M_0131_Silver_0"}], "buffers": [{"byteLength": 2176, "uri": "FlatCity370.bin"}], "bufferViews": [{"buffer": 0, "byteLength": 60, "byteOffset": 0}, {"buffer": 0, "byteLength": 288, "byteOffset": 64}, {"buffer": 0, "byteLength": 288, "byteOffset": 352}, {"buffer": 0, "byteLength": 192, "byteOffset": 640}, {"buffer": 0, "byteLength": 192, "byteOffset": 832}, {"buffer": 0, "byteLength": 192, "byteOffset": 1024}, {"buffer": 0, "byteLength": 192, "byteOffset": 1216}, {"buffer": 0, "byteLength": 192, "byteOffset": 1408}, {"buffer": 0, "byteLength": 192, "byteOffset": 1600}, {"buffer": 0, "byteLength": 192, "byteOffset": 1792}, {"buffer": 0, "byteLength": 192, "byteOffset": 1984}], "accessors": [{"bufferView": 0, "componentType": 5123, "count": 30, "type": "SCALAR", "byteOffset": 0}, {"bufferView": 1, "componentType": 5126, "count": 24, "max": [-44.93360137939453, -0.10982504487037659, -7.474418640136719], "min": [-47.71039581298828, -0.11949405074119568, -17.474422454833984], "type": "VEC3", "byteOffset": 0}, {"bufferView": 2, "componentType": 5126, "count": 24, "type": "VEC3", "byteOffset": 0}, {"bufferView": 3, "componentType": 5126, "count": 24, "type": "VEC2", "byteOffset": 0}, {"bufferView": 4, "componentType": 5126, "count": 24, "type": "VEC2", "byteOffset": 0}, {"bufferView": 5, "componentType": 5126, "count": 24, "type": "VEC2", "byteOffset": 0}, {"bufferView": 6, "componentType": 5126, "count": 24, "type": "VEC2", "byteOffset": 0}, {"bufferView": 7, "componentType": 5126, "count": 24, "type": "VEC2", "byteOffset": 0}, {"bufferView": 8, "componentType": 5126, "count": 24, "type": "VEC2", "byteOffset": 0}, {"bufferView": 9, "componentType": 5126, "count": 24, "type": "VEC2", "byteOffset": 0}, {"bufferView": 10, "componentType": 5126, "count": 24, "type": "VEC2", "byteOffset": 0}], "materials": [{"name": "M_0135_DarkGray", "pbrMetallicRoughness": {"baseColorFactor": [0.3176470100879669, 0.3176470100879669, 0.3176470100879669, 1], "metallicFactor": 0, "roughnessFactor": 0.9302135109901428}}], "meshes": [{"primitives": [{"attributes": {"POSITION": 1, "NORMAL": 2, "TEXCOORD_0": 3, "TEXCOORD_1": 4, "TEXCOORD_2": 5, "TEXCOORD_3": 6, "TEXCOORD_4": 7, "TEXCOORD_5": 8, "TEXCOORD_6": 9, "TEXCOORD_7": 10}, "indices": 0, "material": 0}]}], "scene": 0, "scenes": [{"name": "Scene", "nodes": [0]}]}