{"asset": {"generator": "Khronos glTF Blender I/O v1.5.17", "version": "2.0"}, "nodes": [{"mesh": 0, "name": "Mesh47_FrontColor_0"}], "buffers": [{"byteLength": 3456, "uri": "FlatCity126.bin"}], "bufferViews": [{"buffer": 0, "byteLength": 96, "byteOffset": 0}, {"buffer": 0, "byteLength": 456, "byteOffset": 96}, {"buffer": 0, "byteLength": 456, "byteOffset": 560}, {"buffer": 0, "byteLength": 304, "byteOffset": 1024}, {"buffer": 0, "byteLength": 304, "byteOffset": 1328}, {"buffer": 0, "byteLength": 304, "byteOffset": 1632}, {"buffer": 0, "byteLength": 304, "byteOffset": 1936}, {"buffer": 0, "byteLength": 304, "byteOffset": 2240}, {"buffer": 0, "byteLength": 304, "byteOffset": 2544}, {"buffer": 0, "byteLength": 304, "byteOffset": 2848}, {"buffer": 0, "byteLength": 304, "byteOffset": 3152}], "accessors": [{"bufferView": 0, "componentType": 5123, "count": 48, "type": "SCALAR", "byteOffset": 0}, {"bufferView": 1, "componentType": 5126, "count": 38, "max": [8.996423721313477, 1.5664137601852417, 3.7247276306152344], "min": [7.988473892211914, 1.4912787675857544, 2.7573013305664062], "type": "VEC3", "byteOffset": 0}, {"bufferView": 2, "componentType": 5126, "count": 38, "type": "VEC3", "byteOffset": 0}, {"bufferView": 3, "componentType": 5126, "count": 38, "type": "VEC2", "byteOffset": 0}, {"bufferView": 4, "componentType": 5126, "count": 38, "type": "VEC2", "byteOffset": 0}, {"bufferView": 5, "componentType": 5126, "count": 38, "type": "VEC2", "byteOffset": 0}, {"bufferView": 6, "componentType": 5126, "count": 38, "type": "VEC2", "byteOffset": 0}, {"bufferView": 7, "componentType": 5126, "count": 38, "type": "VEC2", "byteOffset": 0}, {"bufferView": 8, "componentType": 5126, "count": 38, "type": "VEC2", "byteOffset": 0}, {"bufferView": 9, "componentType": 5126, "count": 38, "type": "VEC2", "byteOffset": 0}, {"bufferView": 10, "componentType": 5126, "count": 38, "type": "VEC2", "byteOffset": 0}], "materials": [{"name": "M_0137_Black", "pbrMetallicRoughness": {"baseColorFactor": [0, 0, 0, 1], "metallicFactor": 0, "roughnessFactor": 0}}], "meshes": [{"primitives": [{"attributes": {"POSITION": 1, "NORMAL": 2, "TEXCOORD_0": 3, "TEXCOORD_1": 4, "TEXCOORD_2": 5, "TEXCOORD_3": 6, "TEXCOORD_4": 7, "TEXCOORD_5": 8, "TEXCOORD_6": 9, "TEXCOORD_7": 10}, "indices": 0, "material": 0}]}], "scene": 0, "scenes": [{"name": "Scene", "nodes": [0]}]}