{"asset": {"generator": "Khronos glTF Blender I/O v1.5.17", "version": "2.0"}, "nodes": [{"mesh": 0, "name": "Mesh8_M_0130_Gainsboro_0"}], "buffers": [{"byteLength": 6912, "uri": "FlatCity14.bin"}], "bufferViews": [{"buffer": 0, "byteLength": 210, "byteOffset": 0}, {"buffer": 0, "byteLength": 912, "byteOffset": 224}, {"buffer": 0, "byteLength": 912, "byteOffset": 1136}, {"buffer": 0, "byteLength": 608, "byteOffset": 2048}, {"buffer": 0, "byteLength": 608, "byteOffset": 2656}, {"buffer": 0, "byteLength": 608, "byteOffset": 3264}, {"buffer": 0, "byteLength": 608, "byteOffset": 3872}, {"buffer": 0, "byteLength": 608, "byteOffset": 4480}, {"buffer": 0, "byteLength": 608, "byteOffset": 5088}, {"buffer": 0, "byteLength": 608, "byteOffset": 5696}, {"buffer": 0, "byteLength": 608, "byteOffset": 6304}], "accessors": [{"bufferView": 0, "componentType": 5123, "count": 105, "type": "SCALAR", "byteOffset": 0}, {"bufferView": 1, "componentType": 5126, "count": 76, "max": [-4.933601379394531, -0.10982504487037659, 27.53095245361328], "min": [-14.933601379394531, -0.5328661203384399, 22.53095245361328], "type": "VEC3", "byteOffset": 0}, {"bufferView": 2, "componentType": 5126, "count": 76, "type": "VEC3", "byteOffset": 0}, {"bufferView": 3, "componentType": 5126, "count": 76, "type": "VEC2", "byteOffset": 0}, {"bufferView": 4, "componentType": 5126, "count": 76, "type": "VEC2", "byteOffset": 0}, {"bufferView": 5, "componentType": 5126, "count": 76, "type": "VEC2", "byteOffset": 0}, {"bufferView": 6, "componentType": 5126, "count": 76, "type": "VEC2", "byteOffset": 0}, {"bufferView": 7, "componentType": 5126, "count": 76, "type": "VEC2", "byteOffset": 0}, {"bufferView": 8, "componentType": 5126, "count": 76, "type": "VEC2", "byteOffset": 0}, {"bufferView": 9, "componentType": 5126, "count": 76, "type": "VEC2", "byteOffset": 0}, {"bufferView": 10, "componentType": 5126, "count": 76, "type": "VEC2", "byteOffset": 0}], "materials": [{"name": "FrontColor", "pbrMetallicRoughness": {"baseColorFactor": [0.5684521794319153, 0.5684521794319153, 0.5684521794319153, 1], "metallicFactor": 0.17196325957775116, "roughnessFactor": 0.47536954283714294}}], "meshes": [{"primitives": [{"attributes": {"POSITION": 1, "NORMAL": 2, "TEXCOORD_0": 3, "TEXCOORD_1": 4, "TEXCOORD_2": 5, "TEXCOORD_3": 6, "TEXCOORD_4": 7, "TEXCOORD_5": 8, "TEXCOORD_6": 9, "TEXCOORD_7": 10}, "indices": 0, "material": 0}]}], "scene": 0, "scenes": [{"name": "Scene", "nodes": [0]}]}