{"asset": {"generator": "Khronos glTF Blender I/O v1.5.17", "version": "2.0"}, "nodes": [{"mesh": 0, "name": "Mesh135_M_0135_DarkGray_0"}], "buffers": [{"byteLength": 9440, "uri": "FlatCity381.bin"}], "bufferViews": [{"buffer": 0, "byteLength": 288, "byteOffset": 0}, {"buffer": 0, "byteLength": 1236, "byteOffset": 288}, {"buffer": 0, "byteLength": 1236, "byteOffset": 1536}, {"buffer": 0, "byteLength": 824, "byteOffset": 2784}, {"buffer": 0, "byteLength": 824, "byteOffset": 3616}, {"buffer": 0, "byteLength": 824, "byteOffset": 4448}, {"buffer": 0, "byteLength": 824, "byteOffset": 5280}, {"buffer": 0, "byteLength": 824, "byteOffset": 6112}, {"buffer": 0, "byteLength": 824, "byteOffset": 6944}, {"buffer": 0, "byteLength": 824, "byteOffset": 7776}, {"buffer": 0, "byteLength": 824, "byteOffset": 8608}], "accessors": [{"bufferView": 0, "componentType": 5123, "count": 144, "type": "SCALAR", "byteOffset": 0}, {"bufferView": 1, "componentType": 5126, "count": 103, "max": [-40.327796936035156, 3.5063529014587402, -10.665596008300781], "min": [-44.24242401123047, 3.340606689453125, -14.58022689819336], "type": "VEC3", "byteOffset": 0}, {"bufferView": 2, "componentType": 5126, "count": 103, "type": "VEC3", "byteOffset": 0}, {"bufferView": 3, "componentType": 5126, "count": 103, "type": "VEC2", "byteOffset": 0}, {"bufferView": 4, "componentType": 5126, "count": 103, "type": "VEC2", "byteOffset": 0}, {"bufferView": 5, "componentType": 5126, "count": 103, "type": "VEC2", "byteOffset": 0}, {"bufferView": 6, "componentType": 5126, "count": 103, "type": "VEC2", "byteOffset": 0}, {"bufferView": 7, "componentType": 5126, "count": 103, "type": "VEC2", "byteOffset": 0}, {"bufferView": 8, "componentType": 5126, "count": 103, "type": "VEC2", "byteOffset": 0}, {"bufferView": 9, "componentType": 5126, "count": 103, "type": "VEC2", "byteOffset": 0}, {"bufferView": 10, "componentType": 5126, "count": 103, "type": "VEC2", "byteOffset": 0}], "materials": [{"name": "M_0131_Silver", "pbrMetallicRoughness": {"baseColorFactor": [0.7529410123825073, 0.7529410123825073, 0.7529410123825073, 1], "metallicFactor": 0, "roughnessFactor": 0.9302135109901428}}], "meshes": [{"primitives": [{"attributes": {"POSITION": 1, "NORMAL": 2, "TEXCOORD_0": 3, "TEXCOORD_1": 4, "TEXCOORD_2": 5, "TEXCOORD_3": 6, "TEXCOORD_4": 7, "TEXCOORD_5": 8, "TEXCOORD_6": 9, "TEXCOORD_7": 10}, "indices": 0, "material": 0}]}], "scene": 0, "scenes": [{"name": "Scene", "nodes": [0]}]}