{"asset": {"generator": "Khronos glTF Blender I/O v1.5.17", "version": "2.0"}, "nodes": [{"mesh": 0, "name": "Mesh213_M_0136_Charcoal_0"}], "buffers": [{"byteLength": 13296, "uri": "FlatCity576.bin"}], "bufferViews": [{"buffer": 0, "byteLength": 456, "byteOffset": 0}, {"buffer": 0, "byteLength": 1740, "byteOffset": 464}, {"buffer": 0, "byteLength": 1740, "byteOffset": 2208}, {"buffer": 0, "byteLength": 1160, "byteOffset": 3952}, {"buffer": 0, "byteLength": 1160, "byteOffset": 5120}, {"buffer": 0, "byteLength": 1160, "byteOffset": 6288}, {"buffer": 0, "byteLength": 1160, "byteOffset": 7456}, {"buffer": 0, "byteLength": 1160, "byteOffset": 8624}, {"buffer": 0, "byteLength": 1160, "byteOffset": 9792}, {"buffer": 0, "byteLength": 1160, "byteOffset": 10960}, {"buffer": 0, "byteLength": 1160, "byteOffset": 12128}], "accessors": [{"bufferView": 0, "componentType": 5123, "count": 228, "type": "SCALAR", "byteOffset": 0}, {"bufferView": 1, "componentType": 5126, "count": 145, "max": [4.886983871459961, 2.242629051208496, -10.344192504882812], "min": [3.82568359375, 2.0923590660095215, -11.44601821899414], "type": "VEC3", "byteOffset": 0}, {"bufferView": 2, "componentType": 5126, "count": 145, "type": "VEC3", "byteOffset": 0}, {"bufferView": 3, "componentType": 5126, "count": 145, "type": "VEC2", "byteOffset": 0}, {"bufferView": 4, "componentType": 5126, "count": 145, "type": "VEC2", "byteOffset": 0}, {"bufferView": 5, "componentType": 5126, "count": 145, "type": "VEC2", "byteOffset": 0}, {"bufferView": 6, "componentType": 5126, "count": 145, "type": "VEC2", "byteOffset": 0}, {"bufferView": 7, "componentType": 5126, "count": 145, "type": "VEC2", "byteOffset": 0}, {"bufferView": 8, "componentType": 5126, "count": 145, "type": "VEC2", "byteOffset": 0}, {"bufferView": 9, "componentType": 5126, "count": 145, "type": "VEC2", "byteOffset": 0}, {"bufferView": 10, "componentType": 5126, "count": 145, "type": "VEC2", "byteOffset": 0}], "materials": [{"name": "M_0130_Gainsboro", "pbrMetallicRoughness": {"baseColorFactor": [0.8627449870109558, 0.8627449870109558, 0.8627449870109558, 1], "metallicFactor": 0, "roughnessFactor": 0.9685046672821045}}], "meshes": [{"primitives": [{"attributes": {"POSITION": 1, "NORMAL": 2, "TEXCOORD_0": 3, "TEXCOORD_1": 4, "TEXCOORD_2": 5, "TEXCOORD_3": 6, "TEXCOORD_4": 7, "TEXCOORD_5": 8, "TEXCOORD_6": 9, "TEXCOORD_7": 10}, "indices": 0, "material": 0}]}], "scene": 0, "scenes": [{"name": "Scene", "nodes": [0]}]}