{"asset": {"generator": "Khronos glTF Blender I/O v1.5.17", "version": "2.0"}, "nodes": [{"mesh": 0, "name": "Mesh30_M_0131_Silver_0"}], "buffers": [{"byteLength": 15600, "uri": "FlatCity68.bin"}], "bufferViews": [{"buffer": 0, "byteLength": 456, "byteOffset": 0}, {"buffer": 0, "byteLength": 2052, "byteOffset": 464}, {"buffer": 0, "byteLength": 2052, "byteOffset": 2528}, {"buffer": 0, "byteLength": 1368, "byteOffset": 4592}, {"buffer": 0, "byteLength": 1368, "byteOffset": 5968}, {"buffer": 0, "byteLength": 1368, "byteOffset": 7344}, {"buffer": 0, "byteLength": 1368, "byteOffset": 8720}, {"buffer": 0, "byteLength": 1368, "byteOffset": 10096}, {"buffer": 0, "byteLength": 1368, "byteOffset": 11472}, {"buffer": 0, "byteLength": 1368, "byteOffset": 12848}, {"buffer": 0, "byteLength": 1368, "byteOffset": 14224}], "accessors": [{"bufferView": 0, "componentType": 5123, "count": 228, "type": "SCALAR", "byteOffset": 0}, {"bufferView": 1, "componentType": 5126, "count": 171, "max": [4.886983871459961, 1.3410089015960693, 6.507911682128906], "min": [3.82568359375, 1.1907386779785156, 5.406085968017578], "type": "VEC3", "byteOffset": 0}, {"bufferView": 2, "componentType": 5126, "count": 171, "type": "VEC3", "byteOffset": 0}, {"bufferView": 3, "componentType": 5126, "count": 171, "type": "VEC2", "byteOffset": 0}, {"bufferView": 4, "componentType": 5126, "count": 171, "type": "VEC2", "byteOffset": 0}, {"bufferView": 5, "componentType": 5126, "count": 171, "type": "VEC2", "byteOffset": 0}, {"bufferView": 6, "componentType": 5126, "count": 171, "type": "VEC2", "byteOffset": 0}, {"bufferView": 7, "componentType": 5126, "count": 171, "type": "VEC2", "byteOffset": 0}, {"bufferView": 8, "componentType": 5126, "count": 171, "type": "VEC2", "byteOffset": 0}, {"bufferView": 9, "componentType": 5126, "count": 171, "type": "VEC2", "byteOffset": 0}, {"bufferView": 10, "componentType": 5126, "count": 171, "type": "VEC2", "byteOffset": 0}], "materials": [{"name": "M_0130_Gainsboro", "pbrMetallicRoughness": {"baseColorFactor": [0.8627449870109558, 0.8627449870109558, 0.8627449870109558, 1], "metallicFactor": 0, "roughnessFactor": 0.9685046672821045}}], "meshes": [{"primitives": [{"attributes": {"POSITION": 1, "NORMAL": 2, "TEXCOORD_0": 3, "TEXCOORD_1": 4, "TEXCOORD_2": 5, "TEXCOORD_3": 6, "TEXCOORD_4": 7, "TEXCOORD_5": 8, "TEXCOORD_6": 9, "TEXCOORD_7": 10}, "indices": 0, "material": 0}]}], "scene": 0, "scenes": [{"name": "Scene", "nodes": [0]}]}