{"asset": {"generator": "Khronos glTF Blender I/O v1.5.17", "version": "2.0"}, "nodes": [{"mesh": 0, "name": "Mesh117_FrontColor_0"}], "buffers": [{"byteLength": 4560, "uri": "FlatCity331.bin"}], "bufferViews": [{"buffer": 0, "byteLength": 132, "byteOffset": 0}, {"buffer": 0, "byteLength": 600, "byteOffset": 144}, {"buffer": 0, "byteLength": 600, "byteOffset": 752}, {"buffer": 0, "byteLength": 400, "byteOffset": 1360}, {"buffer": 0, "byteLength": 400, "byteOffset": 1760}, {"buffer": 0, "byteLength": 400, "byteOffset": 2160}, {"buffer": 0, "byteLength": 400, "byteOffset": 2560}, {"buffer": 0, "byteLength": 400, "byteOffset": 2960}, {"buffer": 0, "byteLength": 400, "byteOffset": 3360}, {"buffer": 0, "byteLength": 400, "byteOffset": 3760}, {"buffer": 0, "byteLength": 400, "byteOffset": 4160}], "accessors": [{"bufferView": 0, "componentType": 5123, "count": 66, "type": "SCALAR", "byteOffset": 0}, {"bufferView": 1, "componentType": 5126, "count": 50, "max": [-10.369842529296875, 1.848892331123352, -0.7022857666015625], "min": [-14.200370788574219, 1.683146357536316, -4.532814025878906], "type": "VEC3", "byteOffset": 0}, {"bufferView": 2, "componentType": 5126, "count": 50, "type": "VEC3", "byteOffset": 0}, {"bufferView": 3, "componentType": 5126, "count": 50, "type": "VEC2", "byteOffset": 0}, {"bufferView": 4, "componentType": 5126, "count": 50, "type": "VEC2", "byteOffset": 0}, {"bufferView": 5, "componentType": 5126, "count": 50, "type": "VEC2", "byteOffset": 0}, {"bufferView": 6, "componentType": 5126, "count": 50, "type": "VEC2", "byteOffset": 0}, {"bufferView": 7, "componentType": 5126, "count": 50, "type": "VEC2", "byteOffset": 0}, {"bufferView": 8, "componentType": 5126, "count": 50, "type": "VEC2", "byteOffset": 0}, {"bufferView": 9, "componentType": 5126, "count": 50, "type": "VEC2", "byteOffset": 0}, {"bufferView": 10, "componentType": 5126, "count": 50, "type": "VEC2", "byteOffset": 0}], "materials": [{"name": "M_0137_Black", "pbrMetallicRoughness": {"baseColorFactor": [0, 0, 0, 1], "metallicFactor": 0, "roughnessFactor": 0}}], "meshes": [{"primitives": [{"attributes": {"POSITION": 1, "NORMAL": 2, "TEXCOORD_0": 3, "TEXCOORD_1": 4, "TEXCOORD_2": 5, "TEXCOORD_3": 6, "TEXCOORD_4": 7, "TEXCOORD_5": 8, "TEXCOORD_6": 9, "TEXCOORD_7": 10}, "indices": 0, "material": 0}]}], "scene": 0, "scenes": [{"name": "Scene", "nodes": [0]}]}