{"asset": {"generator": "Khronos glTF Blender I/O v1.5.17", "version": "2.0"}, "nodes": [{"mesh": 0, "name": "Mesh189_FrontColor_0"}], "buffers": [{"byteLength": 5824, "uri": "FlatCity524.bin"}], "bufferViews": [{"buffer": 0, "byteLength": 192, "byteOffset": 0}, {"buffer": 0, "byteLength": 756, "byteOffset": 192}, {"buffer": 0, "byteLength": 756, "byteOffset": 960}, {"buffer": 0, "byteLength": 504, "byteOffset": 1728}, {"buffer": 0, "byteLength": 504, "byteOffset": 2240}, {"buffer": 0, "byteLength": 504, "byteOffset": 2752}, {"buffer": 0, "byteLength": 504, "byteOffset": 3264}, {"buffer": 0, "byteLength": 504, "byteOffset": 3776}, {"buffer": 0, "byteLength": 504, "byteOffset": 4288}, {"buffer": 0, "byteLength": 504, "byteOffset": 4800}, {"buffer": 0, "byteLength": 504, "byteOffset": 5312}], "accessors": [{"bufferView": 0, "componentType": 5123, "count": 96, "type": "SCALAR", "byteOffset": 0}, {"bufferView": 1, "componentType": 5126, "count": 63, "max": [4.375217437744141, 2.180384635925293, -0.3632469177246094], "min": [0.4605903625488281, 2.0975117683410645, -4.277873992919922], "type": "VEC3", "byteOffset": 0}, {"bufferView": 2, "componentType": 5126, "count": 63, "type": "VEC3", "byteOffset": 0}, {"bufferView": 3, "componentType": 5126, "count": 63, "type": "VEC2", "byteOffset": 0}, {"bufferView": 4, "componentType": 5126, "count": 63, "type": "VEC2", "byteOffset": 0}, {"bufferView": 5, "componentType": 5126, "count": 63, "type": "VEC2", "byteOffset": 0}, {"bufferView": 6, "componentType": 5126, "count": 63, "type": "VEC2", "byteOffset": 0}, {"bufferView": 7, "componentType": 5126, "count": 63, "type": "VEC2", "byteOffset": 0}, {"bufferView": 8, "componentType": 5126, "count": 63, "type": "VEC2", "byteOffset": 0}, {"bufferView": 9, "componentType": 5126, "count": 63, "type": "VEC2", "byteOffset": 0}, {"bufferView": 10, "componentType": 5126, "count": 63, "type": "VEC2", "byteOffset": 0}], "materials": [{"name": "FrontColor", "pbrMetallicRoughness": {"baseColorFactor": [0.5684521794319153, 0.5684521794319153, 0.5684521794319153, 1], "metallicFactor": 0.17196325957775116, "roughnessFactor": 0.47536954283714294}}], "meshes": [{"primitives": [{"attributes": {"POSITION": 1, "NORMAL": 2, "TEXCOORD_0": 3, "TEXCOORD_1": 4, "TEXCOORD_2": 5, "TEXCOORD_3": 6, "TEXCOORD_4": 7, "TEXCOORD_5": 8, "TEXCOORD_6": 9, "TEXCOORD_7": 10}, "indices": 0, "material": 0}]}], "scene": 0, "scenes": [{"name": "Scene", "nodes": [0]}]}