{"asset": {"generator": "Khronos glTF Blender I/O v1.5.17", "version": "2.0"}, "nodes": [{"mesh": 0, "name": "Mesh49_M_0137_Black_0"}], "buffers": [{"byteLength": 15408, "uri": "FlatCity131.bin"}], "bufferViews": [{"buffer": 0, "byteLength": 456, "byteOffset": 0}, {"buffer": 0, "byteLength": 2028, "byteOffset": 464}, {"buffer": 0, "byteLength": 2028, "byteOffset": 2496}, {"buffer": 0, "byteLength": 1352, "byteOffset": 4528}, {"buffer": 0, "byteLength": 1352, "byteOffset": 5888}, {"buffer": 0, "byteLength": 1352, "byteOffset": 7248}, {"buffer": 0, "byteLength": 1352, "byteOffset": 8608}, {"buffer": 0, "byteLength": 1352, "byteOffset": 9968}, {"buffer": 0, "byteLength": 1352, "byteOffset": 11328}, {"buffer": 0, "byteLength": 1352, "byteOffset": 12688}, {"buffer": 0, "byteLength": 1352, "byteOffset": 14048}], "accessors": [{"bufferView": 0, "componentType": 5123, "count": 228, "type": "SCALAR", "byteOffset": 0}, {"bufferView": 1, "componentType": 5126, "count": 169, "max": [9.043359756469727, 1.7918187379837036, 3.7716636657714844], "min": [7.941535949707031, 1.641548752784729, 2.7103652954101562], "type": "VEC3", "byteOffset": 0}, {"bufferView": 2, "componentType": 5126, "count": 169, "type": "VEC3", "byteOffset": 0}, {"bufferView": 3, "componentType": 5126, "count": 169, "type": "VEC2", "byteOffset": 0}, {"bufferView": 4, "componentType": 5126, "count": 169, "type": "VEC2", "byteOffset": 0}, {"bufferView": 5, "componentType": 5126, "count": 169, "type": "VEC2", "byteOffset": 0}, {"bufferView": 6, "componentType": 5126, "count": 169, "type": "VEC2", "byteOffset": 0}, {"bufferView": 7, "componentType": 5126, "count": 169, "type": "VEC2", "byteOffset": 0}, {"bufferView": 8, "componentType": 5126, "count": 169, "type": "VEC2", "byteOffset": 0}, {"bufferView": 9, "componentType": 5126, "count": 169, "type": "VEC2", "byteOffset": 0}, {"bufferView": 10, "componentType": 5126, "count": 169, "type": "VEC2", "byteOffset": 0}], "materials": [{"name": "M_0130_Gainsboro", "pbrMetallicRoughness": {"baseColorFactor": [0.8627449870109558, 0.8627449870109558, 0.8627449870109558, 1], "metallicFactor": 0, "roughnessFactor": 0.9685046672821045}}], "meshes": [{"primitives": [{"attributes": {"POSITION": 1, "NORMAL": 2, "TEXCOORD_0": 3, "TEXCOORD_1": 4, "TEXCOORD_2": 5, "TEXCOORD_3": 6, "TEXCOORD_4": 7, "TEXCOORD_5": 8, "TEXCOORD_6": 9, "TEXCOORD_7": 10}, "indices": 0, "material": 0}]}], "scene": 0, "scenes": [{"name": "Scene", "nodes": [0]}]}