{"asset": {"generator": "Khronos glTF Blender I/O v1.5.17", "version": "2.0"}, "nodes": [{"mesh": 0, "name": "Mesh173_M_0130_Gainsboro_0"}], "buffers": [{"byteLength": 2912, "uri": "FlatCity482.bin"}], "bufferViews": [{"buffer": 0, "byteLength": 96, "byteOffset": 0}, {"buffer": 0, "byteLength": 384, "byteOffset": 96}, {"buffer": 0, "byteLength": 384, "byteOffset": 480}, {"buffer": 0, "byteLength": 256, "byteOffset": 864}, {"buffer": 0, "byteLength": 256, "byteOffset": 1120}, {"buffer": 0, "byteLength": 256, "byteOffset": 1376}, {"buffer": 0, "byteLength": 256, "byteOffset": 1632}, {"buffer": 0, "byteLength": 256, "byteOffset": 1888}, {"buffer": 0, "byteLength": 256, "byteOffset": 2144}, {"buffer": 0, "byteLength": 256, "byteOffset": 2400}, {"buffer": 0, "byteLength": 256, "byteOffset": 2656}], "accessors": [{"bufferView": 0, "componentType": 5123, "count": 48, "type": "SCALAR", "byteOffset": 0}, {"bufferView": 1, "componentType": 5126, "count": 32, "max": [12.144323348999023, 2.0172243118286133, -6.275276184082031], "min": [11.136373519897461, 1.9420889616012573, -7.242702484130859], "type": "VEC3", "byteOffset": 0}, {"bufferView": 2, "componentType": 5126, "count": 32, "type": "VEC3", "byteOffset": 0}, {"bufferView": 3, "componentType": 5126, "count": 32, "type": "VEC2", "byteOffset": 0}, {"bufferView": 4, "componentType": 5126, "count": 32, "type": "VEC2", "byteOffset": 0}, {"bufferView": 5, "componentType": 5126, "count": 32, "type": "VEC2", "byteOffset": 0}, {"bufferView": 6, "componentType": 5126, "count": 32, "type": "VEC2", "byteOffset": 0}, {"bufferView": 7, "componentType": 5126, "count": 32, "type": "VEC2", "byteOffset": 0}, {"bufferView": 8, "componentType": 5126, "count": 32, "type": "VEC2", "byteOffset": 0}, {"bufferView": 9, "componentType": 5126, "count": 32, "type": "VEC2", "byteOffset": 0}, {"bufferView": 10, "componentType": 5126, "count": 32, "type": "VEC2", "byteOffset": 0}], "materials": [{"name": "M_0137_Black", "pbrMetallicRoughness": {"baseColorFactor": [0, 0, 0, 1], "metallicFactor": 0, "roughnessFactor": 0}}], "meshes": [{"primitives": [{"attributes": {"POSITION": 1, "NORMAL": 2, "TEXCOORD_0": 3, "TEXCOORD_1": 4, "TEXCOORD_2": 5, "TEXCOORD_3": 6, "TEXCOORD_4": 7, "TEXCOORD_5": 8, "TEXCOORD_6": 9, "TEXCOORD_7": 10}, "indices": 0, "material": 0}]}], "scene": 0, "scenes": [{"name": "Scene", "nodes": [0]}]}