{"asset": {"generator": "Khronos glTF Blender I/O v1.5.17", "version": "2.0"}, "nodes": [{"mesh": 0, "name": "Mesh42_M_0131_Silver_0"}], "buffers": [{"byteLength": 23760, "uri": "FlatCity109.bin"}], "bufferViews": [{"buffer": 0, "byteLength": 720, "byteOffset": 0}, {"buffer": 0, "byteLength": 3132, "byteOffset": 720}, {"buffer": 0, "byteLength": 3132, "byteOffset": 3856}, {"buffer": 0, "byteLength": 2088, "byteOffset": 6992}, {"buffer": 0, "byteLength": 2088, "byteOffset": 9088}, {"buffer": 0, "byteLength": 2088, "byteOffset": 11184}, {"buffer": 0, "byteLength": 2088, "byteOffset": 13280}, {"buffer": 0, "byteLength": 2088, "byteOffset": 15376}, {"buffer": 0, "byteLength": 2088, "byteOffset": 17472}, {"buffer": 0, "byteLength": 2088, "byteOffset": 19568}, {"buffer": 0, "byteLength": 2088, "byteOffset": 21664}], "accessors": [{"bufferView": 0, "componentType": 5123, "count": 360, "type": "SCALAR", "byteOffset": 0}, {"bufferView": 1, "componentType": 5126, "count": 261, "max": [14.307992935180664, 3.1795287132263184, 8.299308776855469], "min": [7.191835403442383, 0.26108604669570923, 2.6933670043945312], "type": "VEC3", "byteOffset": 0}, {"bufferView": 2, "componentType": 5126, "count": 261, "type": "VEC3", "byteOffset": 0}, {"bufferView": 3, "componentType": 5126, "count": 261, "type": "VEC2", "byteOffset": 0}, {"bufferView": 4, "componentType": 5126, "count": 261, "type": "VEC2", "byteOffset": 0}, {"bufferView": 5, "componentType": 5126, "count": 261, "type": "VEC2", "byteOffset": 0}, {"bufferView": 6, "componentType": 5126, "count": 261, "type": "VEC2", "byteOffset": 0}, {"bufferView": 7, "componentType": 5126, "count": 261, "type": "VEC2", "byteOffset": 0}, {"bufferView": 8, "componentType": 5126, "count": 261, "type": "VEC2", "byteOffset": 0}, {"bufferView": 9, "componentType": 5126, "count": 261, "type": "VEC2", "byteOffset": 0}, {"bufferView": 10, "componentType": 5126, "count": 261, "type": "VEC2", "byteOffset": 0}], "materials": [{"name": "M_0134_DimGray", "pbrMetallicRoughness": {"baseColorFactor": [0.4117650091648102, 0.4117650091648102, 0.4117650091648102, 1], "metallicFactor": 0, "roughnessFactor": 0.9302135109901428}}], "meshes": [{"primitives": [{"attributes": {"POSITION": 1, "NORMAL": 2, "TEXCOORD_0": 3, "TEXCOORD_1": 4, "TEXCOORD_2": 5, "TEXCOORD_3": 6, "TEXCOORD_4": 7, "TEXCOORD_5": 8, "TEXCOORD_6": 9, "TEXCOORD_7": 10}, "indices": 0, "material": 0}]}], "scene": 0, "scenes": [{"name": "Scene", "nodes": [0]}]}