{"asset": {"generator": "Khronos glTF Blender I/O v1.5.17", "version": "2.0"}, "nodes": [{"mesh": 0, "name": "Mesh52_FrontColor_0"}], "buffers": [{"byteLength": 1264, "uri": "FlatCity141.bin"}], "bufferViews": [{"buffer": 0, "byteLength": 36, "byteOffset": 0}, {"buffer": 0, "byteLength": 156, "byteOffset": 48}, {"buffer": 0, "byteLength": 156, "byteOffset": 208}, {"buffer": 0, "byteLength": 104, "byteOffset": 368}, {"buffer": 0, "byteLength": 104, "byteOffset": 480}, {"buffer": 0, "byteLength": 104, "byteOffset": 592}, {"buffer": 0, "byteLength": 104, "byteOffset": 704}, {"buffer": 0, "byteLength": 104, "byteOffset": 816}, {"buffer": 0, "byteLength": 104, "byteOffset": 928}, {"buffer": 0, "byteLength": 104, "byteOffset": 1040}, {"buffer": 0, "byteLength": 104, "byteOffset": 1152}], "accessors": [{"bufferView": 0, "componentType": 5123, "count": 18, "type": "SCALAR", "byteOffset": 0}, {"bufferView": 1, "componentType": 5126, "count": 13, "max": [8.848379135131836, 2.679574966430664, 3.5766830444335938], "min": [8.136518478393555, 2.679574966430664, 2.905345916748047], "type": "VEC3", "byteOffset": 0}, {"bufferView": 2, "componentType": 5126, "count": 13, "type": "VEC3", "byteOffset": 0}, {"bufferView": 3, "componentType": 5126, "count": 13, "type": "VEC2", "byteOffset": 0}, {"bufferView": 4, "componentType": 5126, "count": 13, "type": "VEC2", "byteOffset": 0}, {"bufferView": 5, "componentType": 5126, "count": 13, "type": "VEC2", "byteOffset": 0}, {"bufferView": 6, "componentType": 5126, "count": 13, "type": "VEC2", "byteOffset": 0}, {"bufferView": 7, "componentType": 5126, "count": 13, "type": "VEC2", "byteOffset": 0}, {"bufferView": 8, "componentType": 5126, "count": 13, "type": "VEC2", "byteOffset": 0}, {"bufferView": 9, "componentType": 5126, "count": 13, "type": "VEC2", "byteOffset": 0}, {"bufferView": 10, "componentType": 5126, "count": 13, "type": "VEC2", "byteOffset": 0}], "materials": [{"name": "M_0137_Black", "pbrMetallicRoughness": {"baseColorFactor": [0, 0, 0, 1], "metallicFactor": 0, "roughnessFactor": 0}}], "meshes": [{"primitives": [{"attributes": {"POSITION": 1, "NORMAL": 2, "TEXCOORD_0": 3, "TEXCOORD_1": 4, "TEXCOORD_2": 5, "TEXCOORD_3": 6, "TEXCOORD_4": 7, "TEXCOORD_5": 8, "TEXCOORD_6": 9, "TEXCOORD_7": 10}, "indices": 0, "material": 0}]}], "scene": 0, "scenes": [{"name": "Scene", "nodes": [0]}]}