{"asset": {"generator": "Khronos glTF Blender I/O v1.5.17", "version": "2.0"}, "nodes": [{"mesh": 0, "name": "Mesh129_M_0130_Gainsboro_0"}], "buffers": [{"byteLength": 188480, "uri": "FlatCity360.bin"}], "bufferViews": [{"buffer": 0, "byteLength": 5082, "byteOffset": 0}, {"buffer": 0, "byteLength": 24996, "byteOffset": 5088}, {"buffer": 0, "byteLength": 24996, "byteOffset": 30096}, {"buffer": 0, "byteLength": 16664, "byteOffset": 55104}, {"buffer": 0, "byteLength": 16664, "byteOffset": 71776}, {"buffer": 0, "byteLength": 16664, "byteOffset": 88448}, {"buffer": 0, "byteLength": 16664, "byteOffset": 105120}, {"buffer": 0, "byteLength": 16664, "byteOffset": 121792}, {"buffer": 0, "byteLength": 16664, "byteOffset": 138464}, {"buffer": 0, "byteLength": 16664, "byteOffset": 155136}, {"buffer": 0, "byteLength": 16664, "byteOffset": 171808}], "accessors": [{"bufferView": 0, "componentType": 5123, "count": 2541, "type": "SCALAR", "byteOffset": 0}, {"bufferView": 1, "componentType": 5126, "count": 2083, "max": [14.785594940185547, 2.421888828277588, 2.308910369873047], "min": [5.625438690185547, -0.12167003750801086, -7.272434234619141], "type": "VEC3", "byteOffset": 0}, {"bufferView": 2, "componentType": 5126, "count": 2083, "type": "VEC3", "byteOffset": 0}, {"bufferView": 3, "componentType": 5126, "count": 2083, "type": "VEC2", "byteOffset": 0}, {"bufferView": 4, "componentType": 5126, "count": 2083, "type": "VEC2", "byteOffset": 0}, {"bufferView": 5, "componentType": 5126, "count": 2083, "type": "VEC2", "byteOffset": 0}, {"bufferView": 6, "componentType": 5126, "count": 2083, "type": "VEC2", "byteOffset": 0}, {"bufferView": 7, "componentType": 5126, "count": 2083, "type": "VEC2", "byteOffset": 0}, {"bufferView": 8, "componentType": 5126, "count": 2083, "type": "VEC2", "byteOffset": 0}, {"bufferView": 9, "componentType": 5126, "count": 2083, "type": "VEC2", "byteOffset": 0}, {"bufferView": 10, "componentType": 5126, "count": 2083, "type": "VEC2", "byteOffset": 0}], "materials": [{"name": "M_0137_Black", "pbrMetallicRoughness": {"baseColorFactor": [0, 0, 0, 1], "metallicFactor": 0, "roughnessFactor": 0}}], "meshes": [{"primitives": [{"attributes": {"POSITION": 1, "NORMAL": 2, "TEXCOORD_0": 3, "TEXCOORD_1": 4, "TEXCOORD_2": 5, "TEXCOORD_3": 6, "TEXCOORD_4": 7, "TEXCOORD_5": 8, "TEXCOORD_6": 9, "TEXCOORD_7": 10}, "indices": 0, "material": 0}]}], "scene": 0, "scenes": [{"name": "Scene", "nodes": [0]}]}