{"asset": {"generator": "Khronos glTF Blender I/O v1.5.17", "version": "2.0"}, "nodes": [{"mesh": 0, "name": "Mesh37_M_0131_Silver_0"}], "buffers": [{"byteLength": 320864, "uri": "FlatCity94.bin"}], "bufferViews": [{"buffer": 0, "byteLength": 10194, "byteOffset": 0}, {"buffer": 0, "byteLength": 42360, "byteOffset": 10208}, {"buffer": 0, "byteLength": 42360, "byteOffset": 52576}, {"buffer": 0, "byteLength": 28240, "byteOffset": 94944}, {"buffer": 0, "byteLength": 28240, "byteOffset": 123184}, {"buffer": 0, "byteLength": 28240, "byteOffset": 151424}, {"buffer": 0, "byteLength": 28240, "byteOffset": 179664}, {"buffer": 0, "byteLength": 28240, "byteOffset": 207904}, {"buffer": 0, "byteLength": 28240, "byteOffset": 236144}, {"buffer": 0, "byteLength": 28240, "byteOffset": 264384}, {"buffer": 0, "byteLength": 28240, "byteOffset": 292624}], "accessors": [{"bufferView": 0, "componentType": 5123, "count": 5097, "type": "SCALAR", "byteOffset": 0}, {"bufferView": 1, "componentType": 5126, "count": 3530, "max": [15.066398620605469, 0.8444921970367432, 12.530948638916016], "min": [5.066398620605469, -0.1469159722328186, 2.5309486389160156], "type": "VEC3", "byteOffset": 0}, {"bufferView": 2, "componentType": 5126, "count": 3530, "type": "VEC3", "byteOffset": 0}, {"bufferView": 3, "componentType": 5126, "count": 3530, "type": "VEC2", "byteOffset": 0}, {"bufferView": 4, "componentType": 5126, "count": 3530, "type": "VEC2", "byteOffset": 0}, {"bufferView": 5, "componentType": 5126, "count": 3530, "type": "VEC2", "byteOffset": 0}, {"bufferView": 6, "componentType": 5126, "count": 3530, "type": "VEC2", "byteOffset": 0}, {"bufferView": 7, "componentType": 5126, "count": 3530, "type": "VEC2", "byteOffset": 0}, {"bufferView": 8, "componentType": 5126, "count": 3530, "type": "VEC2", "byteOffset": 0}, {"bufferView": 9, "componentType": 5126, "count": 3530, "type": "VEC2", "byteOffset": 0}, {"bufferView": 10, "componentType": 5126, "count": 3530, "type": "VEC2", "byteOffset": 0}], "materials": [{"name": "M_0131_Silver", "pbrMetallicRoughness": {"baseColorFactor": [0.7529410123825073, 0.7529410123825073, 0.7529410123825073, 1], "metallicFactor": 0, "roughnessFactor": 0.9302135109901428}}], "meshes": [{"primitives": [{"attributes": {"POSITION": 1, "NORMAL": 2, "TEXCOORD_0": 3, "TEXCOORD_1": 4, "TEXCOORD_2": 5, "TEXCOORD_3": 6, "TEXCOORD_4": 7, "TEXCOORD_5": 8, "TEXCOORD_6": 9, "TEXCOORD_7": 10}, "indices": 0, "material": 0}]}], "scene": 0, "scenes": [{"name": "Scene", "nodes": [0]}]}