{"asset": {"generator": "Khronos glTF Blender I/O v1.5.17", "version": "2.0"}, "nodes": [{"mesh": 0, "name": "Mesh114_FrontColor_0"}], "buffers": [{"byteLength": 9280, "uri": "FlatCity324.bin"}], "bufferViews": [{"buffer": 0, "byteLength": 288, "byteOffset": 0}, {"buffer": 0, "byteLength": 1224, "byteOffset": 288}, {"buffer": 0, "byteLength": 1224, "byteOffset": 1520}, {"buffer": 0, "byteLength": 816, "byteOffset": 2752}, {"buffer": 0, "byteLength": 816, "byteOffset": 3568}, {"buffer": 0, "byteLength": 816, "byteOffset": 4384}, {"buffer": 0, "byteLength": 816, "byteOffset": 5200}, {"buffer": 0, "byteLength": 816, "byteOffset": 6016}, {"buffer": 0, "byteLength": 816, "byteOffset": 6832}, {"buffer": 0, "byteLength": 816, "byteOffset": 7648}, {"buffer": 0, "byteLength": 816, "byteOffset": 8464}], "accessors": [{"bufferView": 0, "componentType": 5123, "count": 144, "type": "SCALAR", "byteOffset": 0}, {"bufferView": 1, "componentType": 5126, "count": 102, "max": [-10.32779312133789, 2.180384635925293, -0.6602363586425781], "min": [-14.242420196533203, 2.0146384239196777, -4.574863433837891], "type": "VEC3", "byteOffset": 0}, {"bufferView": 2, "componentType": 5126, "count": 102, "type": "VEC3", "byteOffset": 0}, {"bufferView": 3, "componentType": 5126, "count": 102, "type": "VEC2", "byteOffset": 0}, {"bufferView": 4, "componentType": 5126, "count": 102, "type": "VEC2", "byteOffset": 0}, {"bufferView": 5, "componentType": 5126, "count": 102, "type": "VEC2", "byteOffset": 0}, {"bufferView": 6, "componentType": 5126, "count": 102, "type": "VEC2", "byteOffset": 0}, {"bufferView": 7, "componentType": 5126, "count": 102, "type": "VEC2", "byteOffset": 0}, {"bufferView": 8, "componentType": 5126, "count": 102, "type": "VEC2", "byteOffset": 0}, {"bufferView": 9, "componentType": 5126, "count": 102, "type": "VEC2", "byteOffset": 0}, {"bufferView": 10, "componentType": 5126, "count": 102, "type": "VEC2", "byteOffset": 0}], "materials": [{"name": "M_0131_Silver", "pbrMetallicRoughness": {"baseColorFactor": [0.7529410123825073, 0.7529410123825073, 0.7529410123825073, 1], "metallicFactor": 0, "roughnessFactor": 0.9302135109901428}}], "meshes": [{"primitives": [{"attributes": {"POSITION": 1, "NORMAL": 2, "TEXCOORD_0": 3, "TEXCOORD_1": 4, "TEXCOORD_2": 5, "TEXCOORD_3": 6, "TEXCOORD_4": 7, "TEXCOORD_5": 8, "TEXCOORD_6": 9, "TEXCOORD_7": 10}, "indices": 0, "material": 0}]}], "scene": 0, "scenes": [{"name": "Scene", "nodes": [0]}]}