{"asset": {"generator": "Khronos glTF Blender I/O v1.5.17", "version": "2.0"}, "nodes": [{"mesh": 0, "name": "Mesh36_M_0131_Silver_0"}], "buffers": [{"byteLength": 30032, "uri": "FlatCity91.bin"}], "bufferViews": [{"buffer": 0, "byteLength": 816, "byteOffset": 0}, {"buffer": 0, "byteLength": 3984, "byteOffset": 816}, {"buffer": 0, "byteLength": 3984, "byteOffset": 4800}, {"buffer": 0, "byteLength": 2656, "byteOffset": 8784}, {"buffer": 0, "byteLength": 2656, "byteOffset": 11440}, {"buffer": 0, "byteLength": 2656, "byteOffset": 14096}, {"buffer": 0, "byteLength": 2656, "byteOffset": 16752}, {"buffer": 0, "byteLength": 2656, "byteOffset": 19408}, {"buffer": 0, "byteLength": 2656, "byteOffset": 22064}, {"buffer": 0, "byteLength": 2656, "byteOffset": 24720}, {"buffer": 0, "byteLength": 2656, "byteOffset": 27376}], "accessors": [{"bufferView": 0, "componentType": 5123, "count": 408, "type": "SCALAR", "byteOffset": 0}, {"bufferView": 1, "componentType": 5126, "count": 332, "max": [14.094314575195312, 3.246732711791992, 12.097236633300781], "min": [6.941736221313477, -0.1546640396118164, 5.051929473876953], "type": "VEC3", "byteOffset": 0}, {"bufferView": 2, "componentType": 5126, "count": 332, "type": "VEC3", "byteOffset": 0}, {"bufferView": 3, "componentType": 5126, "count": 332, "type": "VEC2", "byteOffset": 0}, {"bufferView": 4, "componentType": 5126, "count": 332, "type": "VEC2", "byteOffset": 0}, {"bufferView": 5, "componentType": 5126, "count": 332, "type": "VEC2", "byteOffset": 0}, {"bufferView": 6, "componentType": 5126, "count": 332, "type": "VEC2", "byteOffset": 0}, {"bufferView": 7, "componentType": 5126, "count": 332, "type": "VEC2", "byteOffset": 0}, {"bufferView": 8, "componentType": 5126, "count": 332, "type": "VEC2", "byteOffset": 0}, {"bufferView": 9, "componentType": 5126, "count": 332, "type": "VEC2", "byteOffset": 0}, {"bufferView": 10, "componentType": 5126, "count": 332, "type": "VEC2", "byteOffset": 0}], "materials": [{"name": "M_0087_Cyan", "pbrMetallicRoughness": {"baseColorFactor": [0, 1, 1, 1], "metallicFactor": 0, "roughnessFactor": 0.9302135109901428}}], "meshes": [{"primitives": [{"attributes": {"POSITION": 1, "NORMAL": 2, "TEXCOORD_0": 3, "TEXCOORD_1": 4, "TEXCOORD_2": 5, "TEXCOORD_3": 6, "TEXCOORD_4": 7, "TEXCOORD_5": 8, "TEXCOORD_6": 9, "TEXCOORD_7": 10}, "indices": 0, "material": 0}]}], "scene": 0, "scenes": [{"name": "Scene", "nodes": [0]}]}