{"asset": {"generator": "Khronos glTF Blender I/O v1.5.17", "version": "2.0"}, "nodes": [{"mesh": 0, "name": "Mesh5_M_0137_Black_0"}], "buffers": [{"byteLength": 59264, "uri": "FlatCity9.bin"}], "bufferViews": [{"buffer": 0, "byteLength": 1686, "byteOffset": 0}, {"buffer": 0, "byteLength": 7848, "byteOffset": 1696}, {"buffer": 0, "byteLength": 7848, "byteOffset": 9552}, {"buffer": 0, "byteLength": 5232, "byteOffset": 17408}, {"buffer": 0, "byteLength": 5232, "byteOffset": 22640}, {"buffer": 0, "byteLength": 5232, "byteOffset": 27872}, {"buffer": 0, "byteLength": 5232, "byteOffset": 33104}, {"buffer": 0, "byteLength": 5232, "byteOffset": 38336}, {"buffer": 0, "byteLength": 5232, "byteOffset": 43568}, {"buffer": 0, "byteLength": 5232, "byteOffset": 48800}, {"buffer": 0, "byteLength": 5232, "byteOffset": 54032}], "accessors": [{"bufferView": 0, "componentType": 5123, "count": 843, "type": "SCALAR", "byteOffset": 0}, {"bufferView": 1, "componentType": 5126, "count": 654, "max": [4.992959976196289, 3.2583117485046387, 12.429716110229492], "min": [-4.843894958496094, -0.11001846194267273, 2.620655059814453], "type": "VEC3", "byteOffset": 0}, {"bufferView": 2, "componentType": 5126, "count": 654, "type": "VEC3", "byteOffset": 0}, {"bufferView": 3, "componentType": 5126, "count": 654, "type": "VEC2", "byteOffset": 0}, {"bufferView": 4, "componentType": 5126, "count": 654, "type": "VEC2", "byteOffset": 0}, {"bufferView": 5, "componentType": 5126, "count": 654, "type": "VEC2", "byteOffset": 0}, {"bufferView": 6, "componentType": 5126, "count": 654, "type": "VEC2", "byteOffset": 0}, {"bufferView": 7, "componentType": 5126, "count": 654, "type": "VEC2", "byteOffset": 0}, {"bufferView": 8, "componentType": 5126, "count": 654, "type": "VEC2", "byteOffset": 0}, {"bufferView": 9, "componentType": 5126, "count": 654, "type": "VEC2", "byteOffset": 0}, {"bufferView": 10, "componentType": 5126, "count": 654, "type": "VEC2", "byteOffset": 0}], "materials": [{"name": "M_0069_LimeGreen", "pbrMetallicRoughness": {"baseColorFactor": [0.19607800245285034, 0.8039219975471497, 0.19607800245285034, 1], "metallicFactor": 0, "roughnessFactor": 0.9302135109901428}}], "meshes": [{"primitives": [{"attributes": {"POSITION": 1, "NORMAL": 2, "TEXCOORD_0": 3, "TEXCOORD_1": 4, "TEXCOORD_2": 5, "TEXCOORD_3": 6, "TEXCOORD_4": 7, "TEXCOORD_5": 8, "TEXCOORD_6": 9, "TEXCOORD_7": 10}, "indices": 0, "material": 0}]}], "scene": 0, "scenes": [{"name": "Scene", "nodes": [0]}]}