{"asset": {"generator": "Khronos glTF Blender I/O v1.5.17", "version": "2.0"}, "nodes": [{"mesh": 0, "name": "Mesh209_FrontColor_0"}], "buffers": [{"byteLength": 1002064, "uri": "FlatCity567.bin"}], "bufferViews": [{"buffer": 0, "byteLength": 31752, "byteOffset": 0}, {"buffer": 0, "byteLength": 132312, "byteOffset": 31760}, {"buffer": 0, "byteLength": 132312, "byteOffset": 164080}, {"buffer": 0, "byteLength": 88208, "byteOffset": 296400}, {"buffer": 0, "byteLength": 88208, "byteOffset": 384608}, {"buffer": 0, "byteLength": 88208, "byteOffset": 472816}, {"buffer": 0, "byteLength": 88208, "byteOffset": 561024}, {"buffer": 0, "byteLength": 88208, "byteOffset": 649232}, {"buffer": 0, "byteLength": 88208, "byteOffset": 737440}, {"buffer": 0, "byteLength": 88208, "byteOffset": 825648}, {"buffer": 0, "byteLength": 88208, "byteOffset": 913856}], "accessors": [{"bufferView": 0, "componentType": 5123, "count": 15876, "type": "SCALAR", "byteOffset": 0}, {"bufferView": 1, "componentType": 5126, "count": 11026, "max": [-4.933601379394531, 1.0679092407226562, -7.46905517578125], "min": [-14.933601379394531, -0.5328661203384399, -17.469058990478516], "type": "VEC3", "byteOffset": 0}, {"bufferView": 2, "componentType": 5126, "count": 11026, "type": "VEC3", "byteOffset": 0}, {"bufferView": 3, "componentType": 5126, "count": 11026, "type": "VEC2", "byteOffset": 0}, {"bufferView": 4, "componentType": 5126, "count": 11026, "type": "VEC2", "byteOffset": 0}, {"bufferView": 5, "componentType": 5126, "count": 11026, "type": "VEC2", "byteOffset": 0}, {"bufferView": 6, "componentType": 5126, "count": 11026, "type": "VEC2", "byteOffset": 0}, {"bufferView": 7, "componentType": 5126, "count": 11026, "type": "VEC2", "byteOffset": 0}, {"bufferView": 8, "componentType": 5126, "count": 11026, "type": "VEC2", "byteOffset": 0}, {"bufferView": 9, "componentType": 5126, "count": 11026, "type": "VEC2", "byteOffset": 0}, {"bufferView": 10, "componentType": 5126, "count": 11026, "type": "VEC2", "byteOffset": 0}], "materials": [{"name": "FrontColor", "pbrMetallicRoughness": {"baseColorFactor": [0.5684521794319153, 0.5684521794319153, 0.5684521794319153, 1], "metallicFactor": 0.17196325957775116, "roughnessFactor": 0.47536954283714294}}], "meshes": [{"primitives": [{"attributes": {"POSITION": 1, "NORMAL": 2, "TEXCOORD_0": 3, "TEXCOORD_1": 4, "TEXCOORD_2": 5, "TEXCOORD_3": 6, "TEXCOORD_4": 7, "TEXCOORD_5": 8, "TEXCOORD_6": 9, "TEXCOORD_7": 10}, "indices": 0, "material": 0}]}], "scene": 0, "scenes": [{"name": "Scene", "nodes": [0]}]}