{"asset": {"generator": "Khronos glTF Blender I/O v1.5.17", "version": "2.0"}, "nodes": [{"mesh": 0, "name": "Mesh131_M_0137_Black_0"}], "buffers": [{"byteLength": 581392, "uri": "FlatCity365.bin"}], "bufferViews": [{"buffer": 0, "byteLength": 19590, "byteOffset": 0}, {"buffer": 0, "byteLength": 76596, "byteOffset": 19600}, {"buffer": 0, "byteLength": 76596, "byteOffset": 96208}, {"buffer": 0, "byteLength": 51064, "byteOffset": 172816}, {"buffer": 0, "byteLength": 51064, "byteOffset": 223888}, {"buffer": 0, "byteLength": 51064, "byteOffset": 274960}, {"buffer": 0, "byteLength": 51064, "byteOffset": 326032}, {"buffer": 0, "byteLength": 51064, "byteOffset": 377104}, {"buffer": 0, "byteLength": 51064, "byteOffset": 428176}, {"buffer": 0, "byteLength": 51064, "byteOffset": 479248}, {"buffer": 0, "byteLength": 51064, "byteOffset": 530320}], "accessors": [{"bufferView": 0, "componentType": 5123, "count": 9795, "type": "SCALAR", "byteOffset": 0}, {"bufferView": 1, "componentType": 5126, "count": 6383, "max": [15.066402435302734, 2.5080795288085938, 2.5309486389160156], "min": [5.066398620605469, -0.121792733669281, -7.46905517578125], "type": "VEC3", "byteOffset": 0}, {"bufferView": 2, "componentType": 5126, "count": 6383, "type": "VEC3", "byteOffset": 0}, {"bufferView": 3, "componentType": 5126, "count": 6383, "type": "VEC2", "byteOffset": 0}, {"bufferView": 4, "componentType": 5126, "count": 6383, "type": "VEC2", "byteOffset": 0}, {"bufferView": 5, "componentType": 5126, "count": 6383, "type": "VEC2", "byteOffset": 0}, {"bufferView": 6, "componentType": 5126, "count": 6383, "type": "VEC2", "byteOffset": 0}, {"bufferView": 7, "componentType": 5126, "count": 6383, "type": "VEC2", "byteOffset": 0}, {"bufferView": 8, "componentType": 5126, "count": 6383, "type": "VEC2", "byteOffset": 0}, {"bufferView": 9, "componentType": 5126, "count": 6383, "type": "VEC2", "byteOffset": 0}, {"bufferView": 10, "componentType": 5126, "count": 6383, "type": "VEC2", "byteOffset": 0}], "materials": [{"name": "M_0135_DarkGray", "pbrMetallicRoughness": {"baseColorFactor": [0.3176470100879669, 0.3176470100879669, 0.3176470100879669, 1], "metallicFactor": 0, "roughnessFactor": 0.9302135109901428}}], "meshes": [{"primitives": [{"attributes": {"POSITION": 1, "NORMAL": 2, "TEXCOORD_0": 3, "TEXCOORD_1": 4, "TEXCOORD_2": 5, "TEXCOORD_3": 6, "TEXCOORD_4": 7, "TEXCOORD_5": 8, "TEXCOORD_6": 9, "TEXCOORD_7": 10}, "indices": 0, "material": 0}]}], "scene": 0, "scenes": [{"name": "Scene", "nodes": [0]}]}