{"asset": {"generator": "Khronos glTF Blender I/O v1.5.17", "version": "2.0"}, "nodes": [{"mesh": 0, "name": "Mesh35_FrontColor_0"}], "buffers": [{"byteLength": 1088, "uri": "FlatCity90.bin"}], "bufferViews": [{"buffer": 0, "byteLength": 30, "byteOffset": 0}, {"buffer": 0, "byteLength": 132, "byteOffset": 32}, {"buffer": 0, "byteLength": 132, "byteOffset": 176}, {"buffer": 0, "byteLength": 88, "byteOffset": 320}, {"buffer": 0, "byteLength": 88, "byteOffset": 416}, {"buffer": 0, "byteLength": 88, "byteOffset": 512}, {"buffer": 0, "byteLength": 88, "byteOffset": 608}, {"buffer": 0, "byteLength": 88, "byteOffset": 704}, {"buffer": 0, "byteLength": 88, "byteOffset": 800}, {"buffer": 0, "byteLength": 88, "byteOffset": 896}, {"buffer": 0, "byteLength": 88, "byteOffset": 992}], "accessors": [{"bufferView": 0, "componentType": 5123, "count": 15, "type": "SCALAR", "byteOffset": 0}, {"bufferView": 1, "componentType": 5126, "count": 11, "max": [17.843191146850586, -0.10982504487037659, 15.307743072509766], "min": [15.066398620605469, -0.10982504487037659, 12.530948638916016], "type": "VEC3", "byteOffset": 0}, {"bufferView": 2, "componentType": 5126, "count": 11, "type": "VEC3", "byteOffset": 0}, {"bufferView": 3, "componentType": 5126, "count": 11, "type": "VEC2", "byteOffset": 0}, {"bufferView": 4, "componentType": 5126, "count": 11, "type": "VEC2", "byteOffset": 0}, {"bufferView": 5, "componentType": 5126, "count": 11, "type": "VEC2", "byteOffset": 0}, {"bufferView": 6, "componentType": 5126, "count": 11, "type": "VEC2", "byteOffset": 0}, {"bufferView": 7, "componentType": 5126, "count": 11, "type": "VEC2", "byteOffset": 0}, {"bufferView": 8, "componentType": 5126, "count": 11, "type": "VEC2", "byteOffset": 0}, {"bufferView": 9, "componentType": 5126, "count": 11, "type": "VEC2", "byteOffset": 0}, {"bufferView": 10, "componentType": 5126, "count": 11, "type": "VEC2", "byteOffset": 0}], "materials": [{"name": "M_0135_DarkGray", "pbrMetallicRoughness": {"baseColorFactor": [0.3176470100879669, 0.3176470100879669, 0.3176470100879669, 1], "metallicFactor": 0, "roughnessFactor": 0.9302135109901428}}], "meshes": [{"primitives": [{"attributes": {"POSITION": 1, "NORMAL": 2, "TEXCOORD_0": 3, "TEXCOORD_1": 4, "TEXCOORD_2": 5, "TEXCOORD_3": 6, "TEXCOORD_4": 7, "TEXCOORD_5": 8, "TEXCOORD_6": 9, "TEXCOORD_7": 10}, "indices": 0, "material": 0}]}], "scene": 0, "scenes": [{"name": "Scene", "nodes": [0]}]}