{"asset": {"generator": "Khronos glTF Blender I/O v1.5.17", "version": "2.0"}, "nodes": [{"mesh": 0, "name": "Mesh74_FrontColor_0"}], "buffers": [{"byteLength": 4368, "uri": "FlatCity209.bin"}], "bufferViews": [{"buffer": 0, "byteLength": 132, "byteOffset": 0}, {"buffer": 0, "byteLength": 576, "byteOffset": 144}, {"buffer": 0, "byteLength": 576, "byteOffset": 720}, {"buffer": 0, "byteLength": 384, "byteOffset": 1296}, {"buffer": 0, "byteLength": 384, "byteOffset": 1680}, {"buffer": 0, "byteLength": 384, "byteOffset": 2064}, {"buffer": 0, "byteLength": 384, "byteOffset": 2448}, {"buffer": 0, "byteLength": 384, "byteOffset": 2832}, {"buffer": 0, "byteLength": 384, "byteOffset": 3216}, {"buffer": 0, "byteLength": 384, "byteOffset": 3600}, {"buffer": 0, "byteLength": 384, "byteOffset": 3984}], "accessors": [{"bufferView": 0, "componentType": 5123, "count": 66, "type": "SCALAR", "byteOffset": 0}, {"bufferView": 1, "componentType": 5126, "count": 48, "max": [24.33316993713379, 4.003591060638428, -0.7022857666015625], "min": [20.502639770507812, 3.8378448486328125, -4.532814025878906], "type": "VEC3", "byteOffset": 0}, {"bufferView": 2, "componentType": 5126, "count": 48, "type": "VEC3", "byteOffset": 0}, {"bufferView": 3, "componentType": 5126, "count": 48, "type": "VEC2", "byteOffset": 0}, {"bufferView": 4, "componentType": 5126, "count": 48, "type": "VEC2", "byteOffset": 0}, {"bufferView": 5, "componentType": 5126, "count": 48, "type": "VEC2", "byteOffset": 0}, {"bufferView": 6, "componentType": 5126, "count": 48, "type": "VEC2", "byteOffset": 0}, {"bufferView": 7, "componentType": 5126, "count": 48, "type": "VEC2", "byteOffset": 0}, {"bufferView": 8, "componentType": 5126, "count": 48, "type": "VEC2", "byteOffset": 0}, {"bufferView": 9, "componentType": 5126, "count": 48, "type": "VEC2", "byteOffset": 0}, {"bufferView": 10, "componentType": 5126, "count": 48, "type": "VEC2", "byteOffset": 0}], "materials": [{"name": "M_0137_Black", "pbrMetallicRoughness": {"baseColorFactor": [0, 0, 0, 1], "metallicFactor": 0, "roughnessFactor": 0}}], "meshes": [{"primitives": [{"attributes": {"POSITION": 1, "NORMAL": 2, "TEXCOORD_0": 3, "TEXCOORD_1": 4, "TEXCOORD_2": 5, "TEXCOORD_3": 6, "TEXCOORD_4": 7, "TEXCOORD_5": 8, "TEXCOORD_6": 9, "TEXCOORD_7": 10}, "indices": 0, "material": 0}]}], "scene": 0, "scenes": [{"name": "Scene", "nodes": [0]}]}