{"asset": {"generator": "Khronos glTF Blender I/O v1.5.17", "version": "2.0"}, "nodes": [{"mesh": 0, "name": "Mesh118_M_0135_DarkGray_0"}], "buffers": [{"byteLength": 6176, "uri": "FlatCity338.bin"}], "bufferViews": [{"buffer": 0, "byteLength": 192, "byteOffset": 0}, {"buffer": 0, "byteLength": 816, "byteOffset": 192}, {"buffer": 0, "byteLength": 816, "byteOffset": 1008}, {"buffer": 0, "byteLength": 544, "byteOffset": 1824}, {"buffer": 0, "byteLength": 544, "byteOffset": 2368}, {"buffer": 0, "byteLength": 544, "byteOffset": 2912}, {"buffer": 0, "byteLength": 544, "byteOffset": 3456}, {"buffer": 0, "byteLength": 544, "byteOffset": 4000}, {"buffer": 0, "byteLength": 544, "byteOffset": 4544}, {"buffer": 0, "byteLength": 544, "byteOffset": 5088}, {"buffer": 0, "byteLength": 544, "byteOffset": 5632}], "accessors": [{"bufferView": 0, "componentType": 5123, "count": 96, "type": "SCALAR", "byteOffset": 0}, {"bufferView": 1, "componentType": 5126, "count": 68, "max": [-10.32779312133789, 1.3516544103622437, -0.6602363586425781], "min": [-14.242420196533203, 1.268781304359436, -4.574863433837891], "type": "VEC3", "byteOffset": 0}, {"bufferView": 2, "componentType": 5126, "count": 68, "type": "VEC3", "byteOffset": 0}, {"bufferView": 3, "componentType": 5126, "count": 68, "type": "VEC2", "byteOffset": 0}, {"bufferView": 4, "componentType": 5126, "count": 68, "type": "VEC2", "byteOffset": 0}, {"bufferView": 5, "componentType": 5126, "count": 68, "type": "VEC2", "byteOffset": 0}, {"bufferView": 6, "componentType": 5126, "count": 68, "type": "VEC2", "byteOffset": 0}, {"bufferView": 7, "componentType": 5126, "count": 68, "type": "VEC2", "byteOffset": 0}, {"bufferView": 8, "componentType": 5126, "count": 68, "type": "VEC2", "byteOffset": 0}, {"bufferView": 9, "componentType": 5126, "count": 68, "type": "VEC2", "byteOffset": 0}, {"bufferView": 10, "componentType": 5126, "count": 68, "type": "VEC2", "byteOffset": 0}], "materials": [{"name": "FrontColor", "pbrMetallicRoughness": {"baseColorFactor": [0.5684521794319153, 0.5684521794319153, 0.5684521794319153, 1], "metallicFactor": 0.17196325957775116, "roughnessFactor": 0.47536954283714294}}], "meshes": [{"primitives": [{"attributes": {"POSITION": 1, "NORMAL": 2, "TEXCOORD_0": 3, "TEXCOORD_1": 4, "TEXCOORD_2": 5, "TEXCOORD_3": 6, "TEXCOORD_4": 7, "TEXCOORD_5": 8, "TEXCOORD_6": 9, "TEXCOORD_7": 10}, "indices": 0, "material": 0}]}], "scene": 0, "scenes": [{"name": "Scene", "nodes": [0]}]}