{"asset": {"generator": "Khronos glTF Blender I/O v1.5.17", "version": "2.0"}, "nodes": [{"mesh": 0, "name": "Mesh160_FrontColor_0"}], "buffers": [{"byteLength": 34336, "uri": "FlatCity451.bin"}], "bufferViews": [{"buffer": 0, "byteLength": 1242, "byteOffset": 0}, {"buffer": 0, "byteLength": 4500, "byteOffset": 1248}, {"buffer": 0, "byteLength": 4500, "byteOffset": 5760}, {"buffer": 0, "byteLength": 3000, "byteOffset": 10272}, {"buffer": 0, "byteLength": 3000, "byteOffset": 13280}, {"buffer": 0, "byteLength": 3000, "byteOffset": 16288}, {"buffer": 0, "byteLength": 3000, "byteOffset": 19296}, {"buffer": 0, "byteLength": 3000, "byteOffset": 22304}, {"buffer": 0, "byteLength": 3000, "byteOffset": 25312}, {"buffer": 0, "byteLength": 3000, "byteOffset": 28320}, {"buffer": 0, "byteLength": 3000, "byteOffset": 31328}], "accessors": [{"bufferView": 0, "componentType": 5123, "count": 621, "type": "SCALAR", "byteOffset": 0}, {"bufferView": 1, "componentType": 5126, "count": 375, "max": [-44.93360137939453, -0.10982504487037659, -17.474422454833984], "min": [-49.93360137939453, -0.5328661203384399, -22.474422454833984], "type": "VEC3", "byteOffset": 0}, {"bufferView": 2, "componentType": 5126, "count": 375, "type": "VEC3", "byteOffset": 0}, {"bufferView": 3, "componentType": 5126, "count": 375, "type": "VEC2", "byteOffset": 0}, {"bufferView": 4, "componentType": 5126, "count": 375, "type": "VEC2", "byteOffset": 0}, {"bufferView": 5, "componentType": 5126, "count": 375, "type": "VEC2", "byteOffset": 0}, {"bufferView": 6, "componentType": 5126, "count": 375, "type": "VEC2", "byteOffset": 0}, {"bufferView": 7, "componentType": 5126, "count": 375, "type": "VEC2", "byteOffset": 0}, {"bufferView": 8, "componentType": 5126, "count": 375, "type": "VEC2", "byteOffset": 0}, {"bufferView": 9, "componentType": 5126, "count": 375, "type": "VEC2", "byteOffset": 0}, {"bufferView": 10, "componentType": 5126, "count": 375, "type": "VEC2", "byteOffset": 0}], "materials": [{"name": "FrontColor", "pbrMetallicRoughness": {"baseColorFactor": [0.5684521794319153, 0.5684521794319153, 0.5684521794319153, 1], "metallicFactor": 0.17196325957775116, "roughnessFactor": 0.47536954283714294}}], "meshes": [{"primitives": [{"attributes": {"POSITION": 1, "NORMAL": 2, "TEXCOORD_0": 3, "TEXCOORD_1": 4, "TEXCOORD_2": 5, "TEXCOORD_3": 6, "TEXCOORD_4": 7, "TEXCOORD_5": 8, "TEXCOORD_6": 9, "TEXCOORD_7": 10}, "indices": 0, "material": 0}]}], "scene": 0, "scenes": [{"name": "Scene", "nodes": [0]}]}