{"asset": {"generator": "Khronos glTF Blender I/O v1.5.17", "version": "2.0"}, "nodes": [{"mesh": 0, "name": "Mesh9_M_0130_Gainsboro_0"}], "buffers": [{"byteLength": 24304, "uri": "FlatCity16.bin"}], "bufferViews": [{"buffer": 0, "byteLength": 720, "byteOffset": 0}, {"buffer": 0, "byteLength": 3204, "byteOffset": 720}, {"buffer": 0, "byteLength": 3204, "byteOffset": 3936}, {"buffer": 0, "byteLength": 2136, "byteOffset": 7152}, {"buffer": 0, "byteLength": 2136, "byteOffset": 9296}, {"buffer": 0, "byteLength": 2136, "byteOffset": 11440}, {"buffer": 0, "byteLength": 2136, "byteOffset": 13584}, {"buffer": 0, "byteLength": 2136, "byteOffset": 15728}, {"buffer": 0, "byteLength": 2136, "byteOffset": 17872}, {"buffer": 0, "byteLength": 2136, "byteOffset": 20016}, {"buffer": 0, "byteLength": 2136, "byteOffset": 22160}], "accessors": [{"bufferView": 0, "componentType": 5123, "count": 360, "type": "SCALAR", "byteOffset": 0}, {"bufferView": 1, "componentType": 5126, "count": 267, "max": [-5.692005157470703, 3.1795287132263184, 22.368532180786133], "min": [-12.80816650390625, 0.26108604669570923, 16.762588500976562], "type": "VEC3", "byteOffset": 0}, {"bufferView": 2, "componentType": 5126, "count": 267, "type": "VEC3", "byteOffset": 0}, {"bufferView": 3, "componentType": 5126, "count": 267, "type": "VEC2", "byteOffset": 0}, {"bufferView": 4, "componentType": 5126, "count": 267, "type": "VEC2", "byteOffset": 0}, {"bufferView": 5, "componentType": 5126, "count": 267, "type": "VEC2", "byteOffset": 0}, {"bufferView": 6, "componentType": 5126, "count": 267, "type": "VEC2", "byteOffset": 0}, {"bufferView": 7, "componentType": 5126, "count": 267, "type": "VEC2", "byteOffset": 0}, {"bufferView": 8, "componentType": 5126, "count": 267, "type": "VEC2", "byteOffset": 0}, {"bufferView": 9, "componentType": 5126, "count": 267, "type": "VEC2", "byteOffset": 0}, {"bufferView": 10, "componentType": 5126, "count": 267, "type": "VEC2", "byteOffset": 0}], "materials": [{"name": "M_0134_DimGray", "pbrMetallicRoughness": {"baseColorFactor": [0.4117650091648102, 0.4117650091648102, 0.4117650091648102, 1], "metallicFactor": 0, "roughnessFactor": 0.9302135109901428}}], "meshes": [{"primitives": [{"attributes": {"POSITION": 1, "NORMAL": 2, "TEXCOORD_0": 3, "TEXCOORD_1": 4, "TEXCOORD_2": 5, "TEXCOORD_3": 6, "TEXCOORD_4": 7, "TEXCOORD_5": 8, "TEXCOORD_6": 9, "TEXCOORD_7": 10}, "indices": 0, "material": 0}]}], "scene": 0, "scenes": [{"name": "Scene", "nodes": [0]}]}