{"asset": {"generator": "Khronos glTF Blender I/O v1.5.17", "version": "2.0"}, "nodes": [{"mesh": 0, "name": "Mesh39_M_0137_Black_0"}], "buffers": [{"byteLength": 9792, "uri": "FlatCity101.bin"}], "bufferViews": [{"buffer": 0, "byteLength": 288, "byteOffset": 0}, {"buffer": 0, "byteLength": 1284, "byteOffset": 288}, {"buffer": 0, "byteLength": 1284, "byteOffset": 1584}, {"buffer": 0, "byteLength": 856, "byteOffset": 2880}, {"buffer": 0, "byteLength": 856, "byteOffset": 3744}, {"buffer": 0, "byteLength": 856, "byteOffset": 4608}, {"buffer": 0, "byteLength": 856, "byteOffset": 5472}, {"buffer": 0, "byteLength": 856, "byteOffset": 6336}, {"buffer": 0, "byteLength": 856, "byteOffset": 7200}, {"buffer": 0, "byteLength": 856, "byteOffset": 8064}, {"buffer": 0, "byteLength": 856, "byteOffset": 8928}], "accessors": [{"bufferView": 0, "componentType": 5123, "count": 144, "type": "SCALAR", "byteOffset": 0}, {"bufferView": 1, "componentType": 5126, "count": 107, "max": [-10.32779312133789, 0.35717809200286865, 9.339767456054688], "min": [-14.242420196533203, 0.19143205881118774, 5.425140380859375], "type": "VEC3", "byteOffset": 0}, {"bufferView": 2, "componentType": 5126, "count": 107, "type": "VEC3", "byteOffset": 0}, {"bufferView": 3, "componentType": 5126, "count": 107, "type": "VEC2", "byteOffset": 0}, {"bufferView": 4, "componentType": 5126, "count": 107, "type": "VEC2", "byteOffset": 0}, {"bufferView": 5, "componentType": 5126, "count": 107, "type": "VEC2", "byteOffset": 0}, {"bufferView": 6, "componentType": 5126, "count": 107, "type": "VEC2", "byteOffset": 0}, {"bufferView": 7, "componentType": 5126, "count": 107, "type": "VEC2", "byteOffset": 0}, {"bufferView": 8, "componentType": 5126, "count": 107, "type": "VEC2", "byteOffset": 0}, {"bufferView": 9, "componentType": 5126, "count": 107, "type": "VEC2", "byteOffset": 0}, {"bufferView": 10, "componentType": 5126, "count": 107, "type": "VEC2", "byteOffset": 0}], "materials": [{"name": "M_0131_Silver", "pbrMetallicRoughness": {"baseColorFactor": [0.7529410123825073, 0.7529410123825073, 0.7529410123825073, 1], "metallicFactor": 0, "roughnessFactor": 0.9302135109901428}}], "meshes": [{"primitives": [{"attributes": {"POSITION": 1, "NORMAL": 2, "TEXCOORD_0": 3, "TEXCOORD_1": 4, "TEXCOORD_2": 5, "TEXCOORD_3": 6, "TEXCOORD_4": 7, "TEXCOORD_5": 8, "TEXCOORD_6": 9, "TEXCOORD_7": 10}, "indices": 0, "material": 0}]}], "scene": 0, "scenes": [{"name": "Scene", "nodes": [0]}]}