{"asset": {"generator": "Khronos glTF Blender I/O v1.5.17", "version": "2.0"}, "nodes": [{"mesh": 0, "name": "Mesh157_M_0137_Black_0"}], "buffers": [{"byteLength": 2896, "uri": "FlatCity441.bin"}], "bufferViews": [{"buffer": 0, "byteLength": 66, "byteOffset": 0}, {"buffer": 0, "byteLength": 384, "byteOffset": 80}, {"buffer": 0, "byteLength": 384, "byteOffset": 464}, {"buffer": 0, "byteLength": 256, "byteOffset": 848}, {"buffer": 0, "byteLength": 256, "byteOffset": 1104}, {"buffer": 0, "byteLength": 256, "byteOffset": 1360}, {"buffer": 0, "byteLength": 256, "byteOffset": 1616}, {"buffer": 0, "byteLength": 256, "byteOffset": 1872}, {"buffer": 0, "byteLength": 256, "byteOffset": 2128}, {"buffer": 0, "byteLength": 256, "byteOffset": 2384}, {"buffer": 0, "byteLength": 256, "byteOffset": 2640}], "accessors": [{"bufferView": 0, "componentType": 5123, "count": 33, "type": "SCALAR", "byteOffset": 0}, {"bufferView": 1, "componentType": 5126, "count": 32, "max": [-40.754371643066406, 4.803144454956055, -11.625423431396484], "min": [-43.28260040283203, 4.741957664489746, -14.153648376464844], "type": "VEC3", "byteOffset": 0}, {"bufferView": 2, "componentType": 5126, "count": 32, "type": "VEC3", "byteOffset": 0}, {"bufferView": 3, "componentType": 5126, "count": 32, "type": "VEC2", "byteOffset": 0}, {"bufferView": 4, "componentType": 5126, "count": 32, "type": "VEC2", "byteOffset": 0}, {"bufferView": 5, "componentType": 5126, "count": 32, "type": "VEC2", "byteOffset": 0}, {"bufferView": 6, "componentType": 5126, "count": 32, "type": "VEC2", "byteOffset": 0}, {"bufferView": 7, "componentType": 5126, "count": 32, "type": "VEC2", "byteOffset": 0}, {"bufferView": 8, "componentType": 5126, "count": 32, "type": "VEC2", "byteOffset": 0}, {"bufferView": 9, "componentType": 5126, "count": 32, "type": "VEC2", "byteOffset": 0}, {"bufferView": 10, "componentType": 5126, "count": 32, "type": "VEC2", "byteOffset": 0}], "materials": [{"name": "M_0137_Black", "pbrMetallicRoughness": {"baseColorFactor": [0, 0, 0, 1], "metallicFactor": 0, "roughnessFactor": 0}}], "meshes": [{"primitives": [{"attributes": {"POSITION": 1, "NORMAL": 2, "TEXCOORD_0": 3, "TEXCOORD_1": 4, "TEXCOORD_2": 5, "TEXCOORD_3": 6, "TEXCOORD_4": 7, "TEXCOORD_5": 8, "TEXCOORD_6": 9, "TEXCOORD_7": 10}, "indices": 0, "material": 0}]}], "scene": 0, "scenes": [{"name": "Scene", "nodes": [0]}]}