{"asset": {"generator": "Khronos glTF Blender I/O v1.5.17", "version": "2.0"}, "nodes": [{"mesh": 0, "name": "Mesh71_FrontColor_0"}], "buffers": [{"byteLength": 10160, "uri": "FlatCity200.bin"}], "bufferViews": [{"buffer": 0, "byteLength": 300, "byteOffset": 0}, {"buffer": 0, "byteLength": 1344, "byteOffset": 304}, {"buffer": 0, "byteLength": 1344, "byteOffset": 1648}, {"buffer": 0, "byteLength": 896, "byteOffset": 2992}, {"buffer": 0, "byteLength": 896, "byteOffset": 3888}, {"buffer": 0, "byteLength": 896, "byteOffset": 4784}, {"buffer": 0, "byteLength": 896, "byteOffset": 5680}, {"buffer": 0, "byteLength": 896, "byteOffset": 6576}, {"buffer": 0, "byteLength": 896, "byteOffset": 7472}, {"buffer": 0, "byteLength": 896, "byteOffset": 8368}, {"buffer": 0, "byteLength": 896, "byteOffset": 9264}], "accessors": [{"bufferView": 0, "componentType": 5123, "count": 150, "type": "SCALAR", "byteOffset": 0}, {"bufferView": 1, "componentType": 5126, "count": 112, "max": [-28.611175537109375, 0.39169710874557495, 0.37712860107421875], "min": [-32.20399475097656, 0.27477502822875977, -3.215686798095703], "type": "VEC3", "byteOffset": 0}, {"bufferView": 2, "componentType": 5126, "count": 112, "type": "VEC3", "byteOffset": 0}, {"bufferView": 3, "componentType": 5126, "count": 112, "type": "VEC2", "byteOffset": 0}, {"bufferView": 4, "componentType": 5126, "count": 112, "type": "VEC2", "byteOffset": 0}, {"bufferView": 5, "componentType": 5126, "count": 112, "type": "VEC2", "byteOffset": 0}, {"bufferView": 6, "componentType": 5126, "count": 112, "type": "VEC2", "byteOffset": 0}, {"bufferView": 7, "componentType": 5126, "count": 112, "type": "VEC2", "byteOffset": 0}, {"bufferView": 8, "componentType": 5126, "count": 112, "type": "VEC2", "byteOffset": 0}, {"bufferView": 9, "componentType": 5126, "count": 112, "type": "VEC2", "byteOffset": 0}, {"bufferView": 10, "componentType": 5126, "count": 112, "type": "VEC2", "byteOffset": 0}], "materials": [{"name": "M_0136_Charcoal", "pbrMetallicRoughness": {"baseColorFactor": [0.137254998087883, 0.137254998087883, 0.137254998087883, 1], "roughnessFactor": 0}}], "meshes": [{"primitives": [{"attributes": {"POSITION": 1, "NORMAL": 2, "TEXCOORD_0": 3, "TEXCOORD_1": 4, "TEXCOORD_2": 5, "TEXCOORD_3": 6, "TEXCOORD_4": 7, "TEXCOORD_5": 8, "TEXCOORD_6": 9, "TEXCOORD_7": 10}, "indices": 0, "material": 0}]}], "scene": 0, "scenes": [{"name": "Scene", "nodes": [0]}]}