{"asset": {"generator": "Khronos glTF Blender I/O v1.5.17", "version": "2.0"}, "nodes": [{"mesh": 0, "name": "Mesh190_M_0135_DarkGray_0"}], "buffers": [{"byteLength": 8736, "uri": "FlatCity526.bin"}], "bufferViews": [{"buffer": 0, "byteLength": 288, "byteOffset": 0}, {"buffer": 0, "byteLength": 1140, "byteOffset": 288}, {"buffer": 0, "byteLength": 1140, "byteOffset": 1440}, {"buffer": 0, "byteLength": 760, "byteOffset": 2592}, {"buffer": 0, "byteLength": 760, "byteOffset": 3360}, {"buffer": 0, "byteLength": 760, "byteOffset": 4128}, {"buffer": 0, "byteLength": 760, "byteOffset": 4896}, {"buffer": 0, "byteLength": 760, "byteOffset": 5664}, {"buffer": 0, "byteLength": 760, "byteOffset": 6432}, {"buffer": 0, "byteLength": 760, "byteOffset": 7200}, {"buffer": 0, "byteLength": 760, "byteOffset": 7968}], "accessors": [{"bufferView": 0, "componentType": 5123, "count": 144, "type": "SCALAR", "byteOffset": 0}, {"bufferView": 1, "componentType": 5126, "count": 95, "max": [4.375217437744141, 2.180384635925293, -0.3632469177246094], "min": [0.4605903625488281, 2.0146384239196777, -4.277873992919922], "type": "VEC3", "byteOffset": 0}, {"bufferView": 2, "componentType": 5126, "count": 95, "type": "VEC3", "byteOffset": 0}, {"bufferView": 3, "componentType": 5126, "count": 95, "type": "VEC2", "byteOffset": 0}, {"bufferView": 4, "componentType": 5126, "count": 95, "type": "VEC2", "byteOffset": 0}, {"bufferView": 5, "componentType": 5126, "count": 95, "type": "VEC2", "byteOffset": 0}, {"bufferView": 6, "componentType": 5126, "count": 95, "type": "VEC2", "byteOffset": 0}, {"bufferView": 7, "componentType": 5126, "count": 95, "type": "VEC2", "byteOffset": 0}, {"bufferView": 8, "componentType": 5126, "count": 95, "type": "VEC2", "byteOffset": 0}, {"bufferView": 9, "componentType": 5126, "count": 95, "type": "VEC2", "byteOffset": 0}, {"bufferView": 10, "componentType": 5126, "count": 95, "type": "VEC2", "byteOffset": 0}], "materials": [{"name": "M_0131_Silver", "pbrMetallicRoughness": {"baseColorFactor": [0.7529410123825073, 0.7529410123825073, 0.7529410123825073, 1], "metallicFactor": 0, "roughnessFactor": 0.9302135109901428}}], "meshes": [{"primitives": [{"attributes": {"POSITION": 1, "NORMAL": 2, "TEXCOORD_0": 3, "TEXCOORD_1": 4, "TEXCOORD_2": 5, "TEXCOORD_3": 6, "TEXCOORD_4": 7, "TEXCOORD_5": 8, "TEXCOORD_6": 9, "TEXCOORD_7": 10}, "indices": 0, "material": 0}]}], "scene": 0, "scenes": [{"name": "Scene", "nodes": [0]}]}