{"asset": {"generator": "Khronos glTF Blender I/O v1.5.17", "version": "2.0"}, "nodes": [{"mesh": 0, "name": "Mesh7_M_0130_Gainsboro_0"}], "buffers": [{"byteLength": 25552, "uri": "FlatCity12.bin"}], "bufferViews": [{"buffer": 0, "byteLength": 720, "byteOffset": 0}, {"buffer": 0, "byteLength": 3384, "byteOffset": 720}, {"buffer": 0, "byteLength": 3384, "byteOffset": 4112}, {"buffer": 0, "byteLength": 2256, "byteOffset": 7504}, {"buffer": 0, "byteLength": 2256, "byteOffset": 9760}, {"buffer": 0, "byteLength": 2256, "byteOffset": 12016}, {"buffer": 0, "byteLength": 2256, "byteOffset": 14272}, {"buffer": 0, "byteLength": 2256, "byteOffset": 16528}, {"buffer": 0, "byteLength": 2256, "byteOffset": 18784}, {"buffer": 0, "byteLength": 2256, "byteOffset": 21040}, {"buffer": 0, "byteLength": 2256, "byteOffset": 23296}], "accessors": [{"bufferView": 0, "componentType": 5123, "count": 360, "type": "SCALAR", "byteOffset": 0}, {"bufferView": 1, "componentType": 5126, "count": 282, "max": [4.903980255126953, 3.1795287132263184, 11.772542953491211], "min": [-0.7019615173339844, 0.26108604669570923, 4.656383514404297], "type": "VEC3", "byteOffset": 0}, {"bufferView": 2, "componentType": 5126, "count": 282, "type": "VEC3", "byteOffset": 0}, {"bufferView": 3, "componentType": 5126, "count": 282, "type": "VEC2", "byteOffset": 0}, {"bufferView": 4, "componentType": 5126, "count": 282, "type": "VEC2", "byteOffset": 0}, {"bufferView": 5, "componentType": 5126, "count": 282, "type": "VEC2", "byteOffset": 0}, {"bufferView": 6, "componentType": 5126, "count": 282, "type": "VEC2", "byteOffset": 0}, {"bufferView": 7, "componentType": 5126, "count": 282, "type": "VEC2", "byteOffset": 0}, {"bufferView": 8, "componentType": 5126, "count": 282, "type": "VEC2", "byteOffset": 0}, {"bufferView": 9, "componentType": 5126, "count": 282, "type": "VEC2", "byteOffset": 0}, {"bufferView": 10, "componentType": 5126, "count": 282, "type": "VEC2", "byteOffset": 0}], "materials": [{"name": "M_0134_DimGray", "pbrMetallicRoughness": {"baseColorFactor": [0.4117650091648102, 0.4117650091648102, 0.4117650091648102, 1], "metallicFactor": 0, "roughnessFactor": 0.9302135109901428}}], "meshes": [{"primitives": [{"attributes": {"POSITION": 1, "NORMAL": 2, "TEXCOORD_0": 3, "TEXCOORD_1": 4, "TEXCOORD_2": 5, "TEXCOORD_3": 6, "TEXCOORD_4": 7, "TEXCOORD_5": 8, "TEXCOORD_6": 9, "TEXCOORD_7": 10}, "indices": 0, "material": 0}]}], "scene": 0, "scenes": [{"name": "Scene", "nodes": [0]}]}