{"asset": {"generator": "Khronos glTF Blender I/O v1.5.17", "version": "2.0"}, "nodes": [{"mesh": 0, "name": "Mesh58_M_0137_Black_0"}], "buffers": [{"byteLength": 10352, "uri": "FlatCity160.bin"}], "bufferViews": [{"buffer": 0, "byteLength": 300, "byteOffset": 0}, {"buffer": 0, "byteLength": 1368, "byteOffset": 304}, {"buffer": 0, "byteLength": 1368, "byteOffset": 1680}, {"buffer": 0, "byteLength": 912, "byteOffset": 3056}, {"buffer": 0, "byteLength": 912, "byteOffset": 3968}, {"buffer": 0, "byteLength": 912, "byteOffset": 4880}, {"buffer": 0, "byteLength": 912, "byteOffset": 5792}, {"buffer": 0, "byteLength": 912, "byteOffset": 6704}, {"buffer": 0, "byteLength": 912, "byteOffset": 7616}, {"buffer": 0, "byteLength": 912, "byteOffset": 8528}, {"buffer": 0, "byteLength": 912, "byteOffset": 9440}], "accessors": [{"bufferView": 0, "componentType": 5123, "count": 150, "type": "SCALAR", "byteOffset": 0}, {"bufferView": 1, "componentType": 5126, "count": 114, "max": [-28.611175537109375, 4.10892915725708, 0.37712860107421875], "min": [-32.20399475097656, 3.992006778717041, -3.215686798095703], "type": "VEC3", "byteOffset": 0}, {"bufferView": 2, "componentType": 5126, "count": 114, "type": "VEC3", "byteOffset": 0}, {"bufferView": 3, "componentType": 5126, "count": 114, "type": "VEC2", "byteOffset": 0}, {"bufferView": 4, "componentType": 5126, "count": 114, "type": "VEC2", "byteOffset": 0}, {"bufferView": 5, "componentType": 5126, "count": 114, "type": "VEC2", "byteOffset": 0}, {"bufferView": 6, "componentType": 5126, "count": 114, "type": "VEC2", "byteOffset": 0}, {"bufferView": 7, "componentType": 5126, "count": 114, "type": "VEC2", "byteOffset": 0}, {"bufferView": 8, "componentType": 5126, "count": 114, "type": "VEC2", "byteOffset": 0}, {"bufferView": 9, "componentType": 5126, "count": 114, "type": "VEC2", "byteOffset": 0}, {"bufferView": 10, "componentType": 5126, "count": 114, "type": "VEC2", "byteOffset": 0}], "materials": [{"name": "M_0136_Charcoal", "pbrMetallicRoughness": {"baseColorFactor": [0.137254998087883, 0.137254998087883, 0.137254998087883, 1], "roughnessFactor": 0}}], "meshes": [{"primitives": [{"attributes": {"POSITION": 1, "NORMAL": 2, "TEXCOORD_0": 3, "TEXCOORD_1": 4, "TEXCOORD_2": 5, "TEXCOORD_3": 6, "TEXCOORD_4": 7, "TEXCOORD_5": 8, "TEXCOORD_6": 9, "TEXCOORD_7": 10}, "indices": 0, "material": 0}]}], "scene": 0, "scenes": [{"name": "Scene", "nodes": [0]}]}