{"asset": {"generator": "Khronos glTF Blender I/O v1.5.17", "version": "2.0"}, "nodes": [{"mesh": 0, "name": "Mesh54_M_0087_Cyan_0"}], "buffers": [{"byteLength": 80256, "uri": "FlatCity148.bin"}], "bufferViews": [{"buffer": 0, "byteLength": 2292, "byteOffset": 0}, {"buffer": 0, "byteLength": 10620, "byteOffset": 2304}, {"buffer": 0, "byteLength": 10620, "byteOffset": 12928}, {"buffer": 0, "byteLength": 7080, "byteOffset": 23552}, {"buffer": 0, "byteLength": 7080, "byteOffset": 30640}, {"buffer": 0, "byteLength": 7080, "byteOffset": 37728}, {"buffer": 0, "byteLength": 7080, "byteOffset": 44816}, {"buffer": 0, "byteLength": 7080, "byteOffset": 51904}, {"buffer": 0, "byteLength": 7080, "byteOffset": 58992}, {"buffer": 0, "byteLength": 7080, "byteOffset": 66080}, {"buffer": 0, "byteLength": 7080, "byteOffset": 73168}], "accessors": [{"bufferView": 0, "componentType": 5123, "count": 1146, "type": "SCALAR", "byteOffset": 0}, {"bufferView": 1, "componentType": 5126, "count": 885, "max": [-28.568164825439453, 5.282362461090088, 0.42659759521484375], "min": [-32.25346374511719, 4.639962196350098, -3.2587013244628906], "type": "VEC3", "byteOffset": 0}, {"bufferView": 2, "componentType": 5126, "count": 885, "type": "VEC3", "byteOffset": 0}, {"bufferView": 3, "componentType": 5126, "count": 885, "type": "VEC2", "byteOffset": 0}, {"bufferView": 4, "componentType": 5126, "count": 885, "type": "VEC2", "byteOffset": 0}, {"bufferView": 5, "componentType": 5126, "count": 885, "type": "VEC2", "byteOffset": 0}, {"bufferView": 6, "componentType": 5126, "count": 885, "type": "VEC2", "byteOffset": 0}, {"bufferView": 7, "componentType": 5126, "count": 885, "type": "VEC2", "byteOffset": 0}, {"bufferView": 8, "componentType": 5126, "count": 885, "type": "VEC2", "byteOffset": 0}, {"bufferView": 9, "componentType": 5126, "count": 885, "type": "VEC2", "byteOffset": 0}, {"bufferView": 10, "componentType": 5126, "count": 885, "type": "VEC2", "byteOffset": 0}], "materials": [{"name": "FrontColor", "pbrMetallicRoughness": {"baseColorFactor": [0.5684521794319153, 0.5684521794319153, 0.5684521794319153, 1], "metallicFactor": 0.17196325957775116, "roughnessFactor": 0.47536954283714294}}], "meshes": [{"primitives": [{"attributes": {"POSITION": 1, "NORMAL": 2, "TEXCOORD_0": 3, "TEXCOORD_1": 4, "TEXCOORD_2": 5, "TEXCOORD_3": 6, "TEXCOORD_4": 7, "TEXCOORD_5": 8, "TEXCOORD_6": 9, "TEXCOORD_7": 10}, "indices": 0, "material": 0}]}], "scene": 0, "scenes": [{"name": "Scene", "nodes": [0]}]}