{"asset": {"generator": "Khronos glTF Blender I/O v1.5.17", "version": "2.0"}, "nodes": [{"mesh": 0, "name": "Mesh1_M_0137_Black_0"}], "buffers": [{"byteLength": 1003792, "uri": "FlatCity1.bin"}], "bufferViews": [{"buffer": 0, "byteLength": 31758, "byteOffset": 0}, {"buffer": 0, "byteLength": 132540, "byteOffset": 31760}, {"buffer": 0, "byteLength": 132540, "byteOffset": 164304}, {"buffer": 0, "byteLength": 88360, "byteOffset": 296848}, {"buffer": 0, "byteLength": 88360, "byteOffset": 385216}, {"buffer": 0, "byteLength": 88360, "byteOffset": 473584}, {"buffer": 0, "byteLength": 88360, "byteOffset": 561952}, {"buffer": 0, "byteLength": 88360, "byteOffset": 650320}, {"buffer": 0, "byteLength": 88360, "byteOffset": 738688}, {"buffer": 0, "byteLength": 88360, "byteOffset": 827056}, {"buffer": 0, "byteLength": 88360, "byteOffset": 915424}], "accessors": [{"bufferView": 0, "componentType": 5123, "count": 15879, "type": "SCALAR", "byteOffset": 0}, {"bufferView": 1, "componentType": 5126, "count": 11045, "max": [5.066398620605469, 1.0679092407226562, 22.53095245361328], "min": [-4.933601379394531, -0.5328661203384399, 12.530948638916016], "type": "VEC3", "byteOffset": 0}, {"bufferView": 2, "componentType": 5126, "count": 11045, "type": "VEC3", "byteOffset": 0}, {"bufferView": 3, "componentType": 5126, "count": 11045, "type": "VEC2", "byteOffset": 0}, {"bufferView": 4, "componentType": 5126, "count": 11045, "type": "VEC2", "byteOffset": 0}, {"bufferView": 5, "componentType": 5126, "count": 11045, "type": "VEC2", "byteOffset": 0}, {"bufferView": 6, "componentType": 5126, "count": 11045, "type": "VEC2", "byteOffset": 0}, {"bufferView": 7, "componentType": 5126, "count": 11045, "type": "VEC2", "byteOffset": 0}, {"bufferView": 8, "componentType": 5126, "count": 11045, "type": "VEC2", "byteOffset": 0}, {"bufferView": 9, "componentType": 5126, "count": 11045, "type": "VEC2", "byteOffset": 0}, {"bufferView": 10, "componentType": 5126, "count": 11045, "type": "VEC2", "byteOffset": 0}], "materials": [{"name": "FrontColor", "pbrMetallicRoughness": {"baseColorFactor": [0.5684521794319153, 0.5684521794319153, 0.5684521794319153, 1], "metallicFactor": 0.17196325957775116, "roughnessFactor": 0.47536954283714294}}], "meshes": [{"primitives": [{"attributes": {"POSITION": 1, "NORMAL": 2, "TEXCOORD_0": 3, "TEXCOORD_1": 4, "TEXCOORD_2": 5, "TEXCOORD_3": 6, "TEXCOORD_4": 7, "TEXCOORD_5": 8, "TEXCOORD_6": 9, "TEXCOORD_7": 10}, "indices": 0, "material": 0}]}], "scene": 0, "scenes": [{"name": "Scene", "nodes": [0]}]}