{"asset": {"generator": "Khronos glTF Blender I/O v1.5.17", "version": "2.0"}, "nodes": [{"mesh": 0, "name": "Mesh161_M_0131_Silver_0"}], "buffers": [{"byteLength": 12736, "uri": "FlatCity452.bin"}], "bufferViews": [{"buffer": 0, "byteLength": 402, "byteOffset": 0}, {"buffer": 0, "byteLength": 1668, "byteOffset": 416}, {"buffer": 0, "byteLength": 1668, "byteOffset": 2096}, {"buffer": 0, "byteLength": 1112, "byteOffset": 3776}, {"buffer": 0, "byteLength": 1112, "byteOffset": 4896}, {"buffer": 0, "byteLength": 1112, "byteOffset": 6016}, {"buffer": 0, "byteLength": 1112, "byteOffset": 7136}, {"buffer": 0, "byteLength": 1112, "byteOffset": 8256}, {"buffer": 0, "byteLength": 1112, "byteOffset": 9376}, {"buffer": 0, "byteLength": 1112, "byteOffset": 10496}, {"buffer": 0, "byteLength": 1112, "byteOffset": 11616}], "accessors": [{"bufferView": 0, "componentType": 5123, "count": 201, "type": "SCALAR", "byteOffset": 0}, {"bufferView": 1, "componentType": 5126, "count": 139, "max": [14.886983871459961, 1.0901962518692017, -2.2871322631835938], "min": [7.06977653503418, 0.1594095230102539, -7.2488555908203125], "type": "VEC3", "byteOffset": 0}, {"bufferView": 2, "componentType": 5126, "count": 139, "type": "VEC3", "byteOffset": 0}, {"bufferView": 3, "componentType": 5126, "count": 139, "type": "VEC2", "byteOffset": 0}, {"bufferView": 4, "componentType": 5126, "count": 139, "type": "VEC2", "byteOffset": 0}, {"bufferView": 5, "componentType": 5126, "count": 139, "type": "VEC2", "byteOffset": 0}, {"bufferView": 6, "componentType": 5126, "count": 139, "type": "VEC2", "byteOffset": 0}, {"bufferView": 7, "componentType": 5126, "count": 139, "type": "VEC2", "byteOffset": 0}, {"bufferView": 8, "componentType": 5126, "count": 139, "type": "VEC2", "byteOffset": 0}, {"bufferView": 9, "componentType": 5126, "count": 139, "type": "VEC2", "byteOffset": 0}, {"bufferView": 10, "componentType": 5126, "count": 139, "type": "VEC2", "byteOffset": 0}], "materials": [{"emissiveFactor": [1, 0.3421842157840729, 0.3421842157840729], "name": "M_0003_DeepPink", "pbrMetallicRoughness": {"baseColorFactor": [1, 0.0784313976764679, 0.5764709711074829, 1], "metallicFactor": 0, "roughnessFactor": 0.9302135109901428}}], "meshes": [{"primitives": [{"attributes": {"POSITION": 1, "NORMAL": 2, "TEXCOORD_0": 3, "TEXCOORD_1": 4, "TEXCOORD_2": 5, "TEXCOORD_3": 6, "TEXCOORD_4": 7, "TEXCOORD_5": 8, "TEXCOORD_6": 9, "TEXCOORD_7": 10}, "indices": 0, "material": 0}]}], "scene": 0, "scenes": [{"name": "Scene", "nodes": [0]}]}