{"asset": {"generator": "Khronos glTF Blender I/O v1.5.17", "version": "2.0"}, "nodes": [{"mesh": 0, "name": "Mesh67_M_0131_Silver_0"}], "buffers": [{"byteLength": 47808, "uri": "FlatCity186.bin"}], "bufferViews": [{"buffer": 0, "byteLength": 1338, "byteOffset": 0}, {"buffer": 0, "byteLength": 6336, "byteOffset": 1344}, {"buffer": 0, "byteLength": 6336, "byteOffset": 7680}, {"buffer": 0, "byteLength": 4224, "byteOffset": 14016}, {"buffer": 0, "byteLength": 4224, "byteOffset": 18240}, {"buffer": 0, "byteLength": 4224, "byteOffset": 22464}, {"buffer": 0, "byteLength": 4224, "byteOffset": 26688}, {"buffer": 0, "byteLength": 4224, "byteOffset": 30912}, {"buffer": 0, "byteLength": 4224, "byteOffset": 35136}, {"buffer": 0, "byteLength": 4224, "byteOffset": 39360}, {"buffer": 0, "byteLength": 4224, "byteOffset": 43584}], "accessors": [{"bufferView": 0, "componentType": 5123, "count": 669, "type": "SCALAR", "byteOffset": 0}, {"bufferView": 1, "componentType": 5126, "count": 528, "max": [-28.568164825439453, 0.7457191944122314, 0.42659759521484375], "min": [-32.25346374511719, 0.5454541444778442, -3.2587013244628906], "type": "VEC3", "byteOffset": 0}, {"bufferView": 2, "componentType": 5126, "count": 528, "type": "VEC3", "byteOffset": 0}, {"bufferView": 3, "componentType": 5126, "count": 528, "type": "VEC2", "byteOffset": 0}, {"bufferView": 4, "componentType": 5126, "count": 528, "type": "VEC2", "byteOffset": 0}, {"bufferView": 5, "componentType": 5126, "count": 528, "type": "VEC2", "byteOffset": 0}, {"bufferView": 6, "componentType": 5126, "count": 528, "type": "VEC2", "byteOffset": 0}, {"bufferView": 7, "componentType": 5126, "count": 528, "type": "VEC2", "byteOffset": 0}, {"bufferView": 8, "componentType": 5126, "count": 528, "type": "VEC2", "byteOffset": 0}, {"bufferView": 9, "componentType": 5126, "count": 528, "type": "VEC2", "byteOffset": 0}, {"bufferView": 10, "componentType": 5126, "count": 528, "type": "VEC2", "byteOffset": 0}], "materials": [{"name": "FrontColor", "pbrMetallicRoughness": {"baseColorFactor": [0.5684521794319153, 0.5684521794319153, 0.5684521794319153, 1], "metallicFactor": 0.17196325957775116, "roughnessFactor": 0.47536954283714294}}], "meshes": [{"primitives": [{"attributes": {"POSITION": 1, "NORMAL": 2, "TEXCOORD_0": 3, "TEXCOORD_1": 4, "TEXCOORD_2": 5, "TEXCOORD_3": 6, "TEXCOORD_4": 7, "TEXCOORD_5": 8, "TEXCOORD_6": 9, "TEXCOORD_7": 10}, "indices": 0, "material": 0}]}], "scene": 0, "scenes": [{"name": "Scene", "nodes": [0]}]}