{"asset": {"generator": "Khronos glTF Blender I/O v1.5.17", "version": "2.0"}, "nodes": [{"mesh": 0, "name": "Mesh37_M_0137_Black_0"}], "buffers": [{"byteLength": 576096, "uri": "FlatCity95.bin"}], "bufferViews": [{"buffer": 0, "byteLength": 19584, "byteOffset": 0}, {"buffer": 0, "byteLength": 75888, "byteOffset": 19584}, {"buffer": 0, "byteLength": 75888, "byteOffset": 95472}, {"buffer": 0, "byteLength": 50592, "byteOffset": 171360}, {"buffer": 0, "byteLength": 50592, "byteOffset": 221952}, {"buffer": 0, "byteLength": 50592, "byteOffset": 272544}, {"buffer": 0, "byteLength": 50592, "byteOffset": 323136}, {"buffer": 0, "byteLength": 50592, "byteOffset": 373728}, {"buffer": 0, "byteLength": 50592, "byteOffset": 424320}, {"buffer": 0, "byteLength": 50592, "byteOffset": 474912}, {"buffer": 0, "byteLength": 50592, "byteOffset": 525504}], "accessors": [{"bufferView": 0, "componentType": 5123, "count": 9792, "type": "SCALAR", "byteOffset": 0}, {"bufferView": 1, "componentType": 5126, "count": 6324, "max": [15.066398620605469, 2.5080795288085938, 12.530948638916016], "min": [5.066394805908203, -0.121792733669281, 2.5309486389160156], "type": "VEC3", "byteOffset": 0}, {"bufferView": 2, "componentType": 5126, "count": 6324, "type": "VEC3", "byteOffset": 0}, {"bufferView": 3, "componentType": 5126, "count": 6324, "type": "VEC2", "byteOffset": 0}, {"bufferView": 4, "componentType": 5126, "count": 6324, "type": "VEC2", "byteOffset": 0}, {"bufferView": 5, "componentType": 5126, "count": 6324, "type": "VEC2", "byteOffset": 0}, {"bufferView": 6, "componentType": 5126, "count": 6324, "type": "VEC2", "byteOffset": 0}, {"bufferView": 7, "componentType": 5126, "count": 6324, "type": "VEC2", "byteOffset": 0}, {"bufferView": 8, "componentType": 5126, "count": 6324, "type": "VEC2", "byteOffset": 0}, {"bufferView": 9, "componentType": 5126, "count": 6324, "type": "VEC2", "byteOffset": 0}, {"bufferView": 10, "componentType": 5126, "count": 6324, "type": "VEC2", "byteOffset": 0}], "materials": [{"name": "M_0135_DarkGray", "pbrMetallicRoughness": {"baseColorFactor": [0.3176470100879669, 0.3176470100879669, 0.3176470100879669, 1], "metallicFactor": 0, "roughnessFactor": 0.9302135109901428}}], "meshes": [{"primitives": [{"attributes": {"POSITION": 1, "NORMAL": 2, "TEXCOORD_0": 3, "TEXCOORD_1": 4, "TEXCOORD_2": 5, "TEXCOORD_3": 6, "TEXCOORD_4": 7, "TEXCOORD_5": 8, "TEXCOORD_6": 9, "TEXCOORD_7": 10}, "indices": 0, "material": 0}]}], "scene": 0, "scenes": [{"name": "Scene", "nodes": [0]}]}