{"asset": {"generator": "Khronos glTF Blender I/O v1.5.17", "version": "2.0"}, "nodes": [{"mesh": 0, "name": "Mesh101_M_0131_Silver_0"}], "buffers": [{"byteLength": 2544, "uri": "FlatCity283.bin"}], "bufferViews": [{"buffer": 0, "byteLength": 66, "byteOffset": 0}, {"buffer": 0, "byteLength": 324, "byteOffset": 80}, {"buffer": 0, "byteLength": 324, "byteOffset": 416}, {"buffer": 0, "byteLength": 216, "byteOffset": 752}, {"buffer": 0, "byteLength": 216, "byteOffset": 976}, {"buffer": 0, "byteLength": 216, "byteOffset": 1200}, {"buffer": 0, "byteLength": 216, "byteOffset": 1424}, {"buffer": 0, "byteLength": 216, "byteOffset": 1648}, {"buffer": 0, "byteLength": 216, "byteOffset": 1872}, {"buffer": 0, "byteLength": 216, "byteOffset": 2096}, {"buffer": 0, "byteLength": 216, "byteOffset": 2320}], "accessors": [{"bufferView": 0, "componentType": 5123, "count": 33, "type": "SCALAR", "byteOffset": 0}, {"bufferView": 1, "componentType": 5126, "count": 27, "max": [23.415393829345703, 4.803144454956055, -1.6200599670410156], "min": [20.887168884277344, 4.741957664489746, -4.148284912109375], "type": "VEC3", "byteOffset": 0}, {"bufferView": 2, "componentType": 5126, "count": 27, "type": "VEC3", "byteOffset": 0}, {"bufferView": 3, "componentType": 5126, "count": 27, "type": "VEC2", "byteOffset": 0}, {"bufferView": 4, "componentType": 5126, "count": 27, "type": "VEC2", "byteOffset": 0}, {"bufferView": 5, "componentType": 5126, "count": 27, "type": "VEC2", "byteOffset": 0}, {"bufferView": 6, "componentType": 5126, "count": 27, "type": "VEC2", "byteOffset": 0}, {"bufferView": 7, "componentType": 5126, "count": 27, "type": "VEC2", "byteOffset": 0}, {"bufferView": 8, "componentType": 5126, "count": 27, "type": "VEC2", "byteOffset": 0}, {"bufferView": 9, "componentType": 5126, "count": 27, "type": "VEC2", "byteOffset": 0}, {"bufferView": 10, "componentType": 5126, "count": 27, "type": "VEC2", "byteOffset": 0}], "materials": [{"name": "M_0137_Black", "pbrMetallicRoughness": {"baseColorFactor": [0, 0, 0, 1], "metallicFactor": 0, "roughnessFactor": 0}}], "meshes": [{"primitives": [{"attributes": {"POSITION": 1, "NORMAL": 2, "TEXCOORD_0": 3, "TEXCOORD_1": 4, "TEXCOORD_2": 5, "TEXCOORD_3": 6, "TEXCOORD_4": 7, "TEXCOORD_5": 8, "TEXCOORD_6": 9, "TEXCOORD_7": 10}, "indices": 0, "material": 0}]}], "scene": 0, "scenes": [{"name": "Scene", "nodes": [0]}]}