{"asset": {"generator": "Khronos glTF Blender I/O v1.5.17", "version": "2.0"}, "nodes": [{"mesh": 0, "name": "Mesh22_M_0137_Black_0"}], "buffers": [{"byteLength": 189728, "uri": "FlatCity51.bin"}], "bufferViews": [{"buffer": 0, "byteLength": 5088, "byteOffset": 0}, {"buffer": 0, "byteLength": 25176, "byteOffset": 5088}, {"buffer": 0, "byteLength": 25176, "byteOffset": 30272}, {"buffer": 0, "byteLength": 16784, "byteOffset": 55456}, {"buffer": 0, "byteLength": 16784, "byteOffset": 72240}, {"buffer": 0, "byteLength": 16784, "byteOffset": 89024}, {"buffer": 0, "byteLength": 16784, "byteOffset": 105808}, {"buffer": 0, "byteLength": 16784, "byteOffset": 122592}, {"buffer": 0, "byteLength": 16784, "byteOffset": 139376}, {"buffer": 0, "byteLength": 16784, "byteOffset": 156160}, {"buffer": 0, "byteLength": 16784, "byteOffset": 172944}], "accessors": [{"bufferView": 0, "componentType": 5123, "count": 2544, "type": "SCALAR", "byteOffset": 0}, {"bufferView": 1, "componentType": 5126, "count": 2098, "max": [-5.492641448974609, 2.421888828277588, 22.334327697753906], "min": [-14.65279769897461, -0.12167003750801086, 12.752983093261719], "type": "VEC3", "byteOffset": 0}, {"bufferView": 2, "componentType": 5126, "count": 2098, "type": "VEC3", "byteOffset": 0}, {"bufferView": 3, "componentType": 5126, "count": 2098, "type": "VEC2", "byteOffset": 0}, {"bufferView": 4, "componentType": 5126, "count": 2098, "type": "VEC2", "byteOffset": 0}, {"bufferView": 5, "componentType": 5126, "count": 2098, "type": "VEC2", "byteOffset": 0}, {"bufferView": 6, "componentType": 5126, "count": 2098, "type": "VEC2", "byteOffset": 0}, {"bufferView": 7, "componentType": 5126, "count": 2098, "type": "VEC2", "byteOffset": 0}, {"bufferView": 8, "componentType": 5126, "count": 2098, "type": "VEC2", "byteOffset": 0}, {"bufferView": 9, "componentType": 5126, "count": 2098, "type": "VEC2", "byteOffset": 0}, {"bufferView": 10, "componentType": 5126, "count": 2098, "type": "VEC2", "byteOffset": 0}], "materials": [{"name": "M_0137_Black", "pbrMetallicRoughness": {"baseColorFactor": [0, 0, 0, 1], "metallicFactor": 0, "roughnessFactor": 0}}], "meshes": [{"primitives": [{"attributes": {"POSITION": 1, "NORMAL": 2, "TEXCOORD_0": 3, "TEXCOORD_1": 4, "TEXCOORD_2": 5, "TEXCOORD_3": 6, "TEXCOORD_4": 7, "TEXCOORD_5": 8, "TEXCOORD_6": 9, "TEXCOORD_7": 10}, "indices": 0, "material": 0}]}], "scene": 0, "scenes": [{"name": "Scene", "nodes": [0]}]}