{"asset": {"generator": "Khronos glTF Blender I/O v1.5.17", "version": "2.0"}, "nodes": [{"mesh": 0, "name": "Mesh74_M_0131_Silver_0"}], "buffers": [{"byteLength": 43232, "uri": "FlatCity207.bin"}], "bufferViews": [{"buffer": 0, "byteLength": 1332, "byteOffset": 0}, {"buffer": 0, "byteLength": 5712, "byteOffset": 1344}, {"buffer": 0, "byteLength": 5712, "byteOffset": 7056}, {"buffer": 0, "byteLength": 3808, "byteOffset": 12768}, {"buffer": 0, "byteLength": 3808, "byteOffset": 16576}, {"buffer": 0, "byteLength": 3808, "byteOffset": 20384}, {"buffer": 0, "byteLength": 3808, "byteOffset": 24192}, {"buffer": 0, "byteLength": 3808, "byteOffset": 28000}, {"buffer": 0, "byteLength": 3808, "byteOffset": 31808}, {"buffer": 0, "byteLength": 3808, "byteOffset": 35616}, {"buffer": 0, "byteLength": 3808, "byteOffset": 39424}], "accessors": [{"bufferView": 0, "componentType": 5123, "count": 666, "type": "SCALAR", "byteOffset": 0}, {"bufferView": 1, "componentType": 5126, "count": 476, "max": [24.88698387145996, 4.870538234710693, 2.3515281677246094], "min": [18.336030960083008, -0.10982504487037659, -7.073192596435547], "type": "VEC3", "byteOffset": 0}, {"bufferView": 2, "componentType": 5126, "count": 476, "type": "VEC3", "byteOffset": 0}, {"bufferView": 3, "componentType": 5126, "count": 476, "type": "VEC2", "byteOffset": 0}, {"bufferView": 4, "componentType": 5126, "count": 476, "type": "VEC2", "byteOffset": 0}, {"bufferView": 5, "componentType": 5126, "count": 476, "type": "VEC2", "byteOffset": 0}, {"bufferView": 6, "componentType": 5126, "count": 476, "type": "VEC2", "byteOffset": 0}, {"bufferView": 7, "componentType": 5126, "count": 476, "type": "VEC2", "byteOffset": 0}, {"bufferView": 8, "componentType": 5126, "count": 476, "type": "VEC2", "byteOffset": 0}, {"bufferView": 9, "componentType": 5126, "count": 476, "type": "VEC2", "byteOffset": 0}, {"bufferView": 10, "componentType": 5126, "count": 476, "type": "VEC2", "byteOffset": 0}], "materials": [{"name": "M_0069_LimeGreen", "pbrMetallicRoughness": {"baseColorFactor": [0.19607800245285034, 0.8039219975471497, 0.19607800245285034, 1], "metallicFactor": 0, "roughnessFactor": 0.9302135109901428}}], "meshes": [{"primitives": [{"attributes": {"POSITION": 1, "NORMAL": 2, "TEXCOORD_0": 3, "TEXCOORD_1": 4, "TEXCOORD_2": 5, "TEXCOORD_3": 6, "TEXCOORD_4": 7, "TEXCOORD_5": 8, "TEXCOORD_6": 9, "TEXCOORD_7": 10}, "indices": 0, "material": 0}]}], "scene": 0, "scenes": [{"name": "Scene", "nodes": [0]}]}