{"asset": {"generator": "Khronos glTF Blender I/O v1.5.17", "version": "2.0"}, "nodes": [{"mesh": 0, "name": "Mesh93_M_0003_DeepPink_0"}], "buffers": [{"byteLength": 11040, "uri": "FlatCity261.bin"}], "bufferViews": [{"buffer": 0, "byteLength": 288, "byteOffset": 0}, {"buffer": 0, "byteLength": 1464, "byteOffset": 288}, {"buffer": 0, "byteLength": 1464, "byteOffset": 1760}, {"buffer": 0, "byteLength": 976, "byteOffset": 3232}, {"buffer": 0, "byteLength": 976, "byteOffset": 4208}, {"buffer": 0, "byteLength": 976, "byteOffset": 5184}, {"buffer": 0, "byteLength": 976, "byteOffset": 6160}, {"buffer": 0, "byteLength": 976, "byteOffset": 7136}, {"buffer": 0, "byteLength": 976, "byteOffset": 8112}, {"buffer": 0, "byteLength": 976, "byteOffset": 9088}, {"buffer": 0, "byteLength": 976, "byteOffset": 10064}], "accessors": [{"bufferView": 0, "componentType": 5123, "count": 144, "type": "SCALAR", "byteOffset": 0}, {"bufferView": 1, "componentType": 5126, "count": 122, "max": [24.37521743774414, 1.1859081983566284, -0.6602363586425781], "min": [20.460590362548828, 1.0201622247695923, -4.574863433837891], "type": "VEC3", "byteOffset": 0}, {"bufferView": 2, "componentType": 5126, "count": 122, "type": "VEC3", "byteOffset": 0}, {"bufferView": 3, "componentType": 5126, "count": 122, "type": "VEC2", "byteOffset": 0}, {"bufferView": 4, "componentType": 5126, "count": 122, "type": "VEC2", "byteOffset": 0}, {"bufferView": 5, "componentType": 5126, "count": 122, "type": "VEC2", "byteOffset": 0}, {"bufferView": 6, "componentType": 5126, "count": 122, "type": "VEC2", "byteOffset": 0}, {"bufferView": 7, "componentType": 5126, "count": 122, "type": "VEC2", "byteOffset": 0}, {"bufferView": 8, "componentType": 5126, "count": 122, "type": "VEC2", "byteOffset": 0}, {"bufferView": 9, "componentType": 5126, "count": 122, "type": "VEC2", "byteOffset": 0}, {"bufferView": 10, "componentType": 5126, "count": 122, "type": "VEC2", "byteOffset": 0}], "materials": [{"name": "M_0131_Silver", "pbrMetallicRoughness": {"baseColorFactor": [0.7529410123825073, 0.7529410123825073, 0.7529410123825073, 1], "metallicFactor": 0, "roughnessFactor": 0.9302135109901428}}], "meshes": [{"primitives": [{"attributes": {"POSITION": 1, "NORMAL": 2, "TEXCOORD_0": 3, "TEXCOORD_1": 4, "TEXCOORD_2": 5, "TEXCOORD_3": 6, "TEXCOORD_4": 7, "TEXCOORD_5": 8, "TEXCOORD_6": 9, "TEXCOORD_7": 10}, "indices": 0, "material": 0}]}], "scene": 0, "scenes": [{"name": "Scene", "nodes": [0]}]}