{"asset": {"generator": "Khronos glTF Blender I/O v1.5.17", "version": "2.0"}, "nodes": [{"mesh": 0, "name": "Mesh15_M_0069_LimeGreen_0"}], "buffers": [{"byteLength": 3264, "uri": "FlatCity29.bin"}], "bufferViews": [{"buffer": 0, "byteLength": 96, "byteOffset": 0}, {"buffer": 0, "byteLength": 432, "byteOffset": 96}, {"buffer": 0, "byteLength": 432, "byteOffset": 528}, {"buffer": 0, "byteLength": 288, "byteOffset": 960}, {"buffer": 0, "byteLength": 288, "byteOffset": 1248}, {"buffer": 0, "byteLength": 288, "byteOffset": 1536}, {"buffer": 0, "byteLength": 288, "byteOffset": 1824}, {"buffer": 0, "byteLength": 288, "byteOffset": 2112}, {"buffer": 0, "byteLength": 288, "byteOffset": 2400}, {"buffer": 0, "byteLength": 288, "byteOffset": 2688}, {"buffer": 0, "byteLength": 288, "byteOffset": 2976}], "accessors": [{"bufferView": 0, "componentType": 5123, "count": 48, "type": "SCALAR", "byteOffset": 0}, {"bufferView": 1, "componentType": 5126, "count": 36, "max": [-11.003578186035156, 1.4161438941955566, 22.304597854614258], "min": [-12.011528015136719, 1.3410089015960693, 21.33717155456543], "type": "VEC3", "byteOffset": 0}, {"bufferView": 2, "componentType": 5126, "count": 36, "type": "VEC3", "byteOffset": 0}, {"bufferView": 3, "componentType": 5126, "count": 36, "type": "VEC2", "byteOffset": 0}, {"bufferView": 4, "componentType": 5126, "count": 36, "type": "VEC2", "byteOffset": 0}, {"bufferView": 5, "componentType": 5126, "count": 36, "type": "VEC2", "byteOffset": 0}, {"bufferView": 6, "componentType": 5126, "count": 36, "type": "VEC2", "byteOffset": 0}, {"bufferView": 7, "componentType": 5126, "count": 36, "type": "VEC2", "byteOffset": 0}, {"bufferView": 8, "componentType": 5126, "count": 36, "type": "VEC2", "byteOffset": 0}, {"bufferView": 9, "componentType": 5126, "count": 36, "type": "VEC2", "byteOffset": 0}, {"bufferView": 10, "componentType": 5126, "count": 36, "type": "VEC2", "byteOffset": 0}], "materials": [{"name": "M_0137_Black", "pbrMetallicRoughness": {"baseColorFactor": [0, 0, 0, 1], "metallicFactor": 0, "roughnessFactor": 0}}], "meshes": [{"primitives": [{"attributes": {"POSITION": 1, "NORMAL": 2, "TEXCOORD_0": 3, "TEXCOORD_1": 4, "TEXCOORD_2": 5, "TEXCOORD_3": 6, "TEXCOORD_4": 7, "TEXCOORD_5": 8, "TEXCOORD_6": 9, "TEXCOORD_7": 10}, "indices": 0, "material": 0}]}], "scene": 0, "scenes": [{"name": "Scene", "nodes": [0]}]}