{"asset": {"generator": "Khronos glTF Blender I/O v1.5.17", "version": "2.0"}, "nodes": [{"mesh": 0, "name": "Mesh158_M_0131_Silver_0"}], "buffers": [{"byteLength": 563472, "uri": "FlatCity443.bin"}], "bufferViews": [{"buffer": 0, "byteLength": 17004, "byteOffset": 0}, {"buffer": 0, "byteLength": 74508, "byteOffset": 17008}, {"buffer": 0, "byteLength": 74508, "byteOffset": 91520}, {"buffer": 0, "byteLength": 49672, "byteOffset": 166032}, {"buffer": 0, "byteLength": 49672, "byteOffset": 215712}, {"buffer": 0, "byteLength": 49672, "byteOffset": 265392}, {"buffer": 0, "byteLength": 49672, "byteOffset": 315072}, {"buffer": 0, "byteLength": 49672, "byteOffset": 364752}, {"buffer": 0, "byteLength": 49672, "byteOffset": 414432}, {"buffer": 0, "byteLength": 49672, "byteOffset": 464112}, {"buffer": 0, "byteLength": 49672, "byteOffset": 513792}], "accessors": [{"bufferView": 0, "componentType": 5123, "count": 8502, "type": "SCALAR", "byteOffset": 0}, {"bufferView": 1, "componentType": 5126, "count": 6209, "max": [-34.93360137939453, -0.10982504487037659, -7.474418640136719], "min": [-44.93360137939453, -0.12068304419517517, -17.474422454833984], "type": "VEC3", "byteOffset": 0}, {"bufferView": 2, "componentType": 5126, "count": 6209, "type": "VEC3", "byteOffset": 0}, {"bufferView": 3, "componentType": 5126, "count": 6209, "type": "VEC2", "byteOffset": 0}, {"bufferView": 4, "componentType": 5126, "count": 6209, "type": "VEC2", "byteOffset": 0}, {"bufferView": 5, "componentType": 5126, "count": 6209, "type": "VEC2", "byteOffset": 0}, {"bufferView": 6, "componentType": 5126, "count": 6209, "type": "VEC2", "byteOffset": 0}, {"bufferView": 7, "componentType": 5126, "count": 6209, "type": "VEC2", "byteOffset": 0}, {"bufferView": 8, "componentType": 5126, "count": 6209, "type": "VEC2", "byteOffset": 0}, {"bufferView": 9, "componentType": 5126, "count": 6209, "type": "VEC2", "byteOffset": 0}, {"bufferView": 10, "componentType": 5126, "count": 6209, "type": "VEC2", "byteOffset": 0}], "materials": [{"name": "M_0135_DarkGray", "pbrMetallicRoughness": {"baseColorFactor": [0.3176470100879669, 0.3176470100879669, 0.3176470100879669, 1], "metallicFactor": 0, "roughnessFactor": 0.9302135109901428}}], "meshes": [{"primitives": [{"attributes": {"POSITION": 1, "NORMAL": 2, "TEXCOORD_0": 3, "TEXCOORD_1": 4, "TEXCOORD_2": 5, "TEXCOORD_3": 6, "TEXCOORD_4": 7, "TEXCOORD_5": 8, "TEXCOORD_6": 9, "TEXCOORD_7": 10}, "indices": 0, "material": 0}]}], "scene": 0, "scenes": [{"name": "Scene", "nodes": [0]}]}