{"asset": {"generator": "Khronos glTF Blender I/O v1.5.17", "version": "2.0"}, "nodes": [{"mesh": 0, "name": "Mesh54_M_0135_DarkGray_0"}], "buffers": [{"byteLength": 4336, "uri": "FlatCity149.bin"}], "bufferViews": [{"buffer": 0, "byteLength": 102, "byteOffset": 0}, {"buffer": 0, "byteLength": 576, "byteOffset": 112}, {"buffer": 0, "byteLength": 576, "byteOffset": 688}, {"buffer": 0, "byteLength": 384, "byteOffset": 1264}, {"buffer": 0, "byteLength": 384, "byteOffset": 1648}, {"buffer": 0, "byteLength": 384, "byteOffset": 2032}, {"buffer": 0, "byteLength": 384, "byteOffset": 2416}, {"buffer": 0, "byteLength": 384, "byteOffset": 2800}, {"buffer": 0, "byteLength": 384, "byteOffset": 3184}, {"buffer": 0, "byteLength": 384, "byteOffset": 3568}, {"buffer": 0, "byteLength": 384, "byteOffset": 3952}], "accessors": [{"bufferView": 0, "componentType": 5123, "count": 51, "type": "SCALAR", "byteOffset": 0}, {"bufferView": 1, "componentType": 5126, "count": 48, "max": [-29.116531372070312, 5.255753517150879, -0.12884902954101562], "min": [-31.698013305664062, 5.255753517150879, -2.7103347778320312], "type": "VEC3", "byteOffset": 0}, {"bufferView": 2, "componentType": 5126, "count": 48, "type": "VEC3", "byteOffset": 0}, {"bufferView": 3, "componentType": 5126, "count": 48, "type": "VEC2", "byteOffset": 0}, {"bufferView": 4, "componentType": 5126, "count": 48, "type": "VEC2", "byteOffset": 0}, {"bufferView": 5, "componentType": 5126, "count": 48, "type": "VEC2", "byteOffset": 0}, {"bufferView": 6, "componentType": 5126, "count": 48, "type": "VEC2", "byteOffset": 0}, {"bufferView": 7, "componentType": 5126, "count": 48, "type": "VEC2", "byteOffset": 0}, {"bufferView": 8, "componentType": 5126, "count": 48, "type": "VEC2", "byteOffset": 0}, {"bufferView": 9, "componentType": 5126, "count": 48, "type": "VEC2", "byteOffset": 0}, {"bufferView": 10, "componentType": 5126, "count": 48, "type": "VEC2", "byteOffset": 0}], "materials": [{"name": "M_0137_Black", "pbrMetallicRoughness": {"baseColorFactor": [0, 0, 0, 1], "metallicFactor": 0, "roughnessFactor": 0}}], "meshes": [{"primitives": [{"attributes": {"POSITION": 1, "NORMAL": 2, "TEXCOORD_0": 3, "TEXCOORD_1": 4, "TEXCOORD_2": 5, "TEXCOORD_3": 6, "TEXCOORD_4": 7, "TEXCOORD_5": 8, "TEXCOORD_6": 9, "TEXCOORD_7": 10}, "indices": 0, "material": 0}]}], "scene": 0, "scenes": [{"name": "Scene", "nodes": [0]}]}