{"asset": {"generator": "Khronos glTF Blender I/O v1.5.17", "version": "2.0"}, "nodes": [{"mesh": 0, "name": "Mesh209_M_0136_Charcoal_0"}], "buffers": [{"byteLength": 338720, "uri": "FlatCity568.bin"}], "bufferViews": [{"buffer": 0, "byteLength": 11004, "byteOffset": 0}, {"buffer": 0, "byteLength": 44676, "byteOffset": 11008}, {"buffer": 0, "byteLength": 44676, "byteOffset": 55696}, {"buffer": 0, "byteLength": 29784, "byteOffset": 100384}, {"buffer": 0, "byteLength": 29784, "byteOffset": 130176}, {"buffer": 0, "byteLength": 29784, "byteOffset": 159968}, {"buffer": 0, "byteLength": 29784, "byteOffset": 189760}, {"buffer": 0, "byteLength": 29784, "byteOffset": 219552}, {"buffer": 0, "byteLength": 29784, "byteOffset": 249344}, {"buffer": 0, "byteLength": 29784, "byteOffset": 279136}, {"buffer": 0, "byteLength": 29784, "byteOffset": 308928}], "accessors": [{"bufferView": 0, "componentType": 5123, "count": 5502, "type": "SCALAR", "byteOffset": 0}, {"bufferView": 1, "componentType": 5126, "count": 3723, "max": [-4.933601379394531, -0.10982504487037659, -7.46905517578125], "min": [-14.933601379394531, -0.11949405074119568, -17.469058990478516], "type": "VEC3", "byteOffset": 0}, {"bufferView": 2, "componentType": 5126, "count": 3723, "type": "VEC3", "byteOffset": 0}, {"bufferView": 3, "componentType": 5126, "count": 3723, "type": "VEC2", "byteOffset": 0}, {"bufferView": 4, "componentType": 5126, "count": 3723, "type": "VEC2", "byteOffset": 0}, {"bufferView": 5, "componentType": 5126, "count": 3723, "type": "VEC2", "byteOffset": 0}, {"bufferView": 6, "componentType": 5126, "count": 3723, "type": "VEC2", "byteOffset": 0}, {"bufferView": 7, "componentType": 5126, "count": 3723, "type": "VEC2", "byteOffset": 0}, {"bufferView": 8, "componentType": 5126, "count": 3723, "type": "VEC2", "byteOffset": 0}, {"bufferView": 9, "componentType": 5126, "count": 3723, "type": "VEC2", "byteOffset": 0}, {"bufferView": 10, "componentType": 5126, "count": 3723, "type": "VEC2", "byteOffset": 0}], "materials": [{"name": "M_0135_DarkGray", "pbrMetallicRoughness": {"baseColorFactor": [0.3176470100879669, 0.3176470100879669, 0.3176470100879669, 1], "metallicFactor": 0, "roughnessFactor": 0.9302135109901428}}], "meshes": [{"primitives": [{"attributes": {"POSITION": 1, "NORMAL": 2, "TEXCOORD_0": 3, "TEXCOORD_1": 4, "TEXCOORD_2": 5, "TEXCOORD_3": 6, "TEXCOORD_4": 7, "TEXCOORD_5": 8, "TEXCOORD_6": 9, "TEXCOORD_7": 10}, "indices": 0, "material": 0}]}], "scene": 0, "scenes": [{"name": "Scene", "nodes": [0]}]}