{"asset": {"generator": "Khronos glTF Blender I/O v1.5.17", "version": "2.0"}, "nodes": [{"mesh": 0, "name": "Mesh99_FrontColor_0"}], "buffers": [{"byteLength": 515440, "uri": "FlatCity279.bin"}], "bufferViews": [{"buffer": 0, "byteLength": 17004, "byteOffset": 0}, {"buffer": 0, "byteLength": 67956, "byteOffset": 17008}, {"buffer": 0, "byteLength": 67956, "byteOffset": 84976}, {"buffer": 0, "byteLength": 45304, "byteOffset": 152944}, {"buffer": 0, "byteLength": 45304, "byteOffset": 198256}, {"buffer": 0, "byteLength": 45304, "byteOffset": 243568}, {"buffer": 0, "byteLength": 45304, "byteOffset": 288880}, {"buffer": 0, "byteLength": 45304, "byteOffset": 334192}, {"buffer": 0, "byteLength": 45304, "byteOffset": 379504}, {"buffer": 0, "byteLength": 45304, "byteOffset": 424816}, {"buffer": 0, "byteLength": 45304, "byteOffset": 470128}], "accessors": [{"bufferView": 0, "componentType": 5123, "count": 8502, "type": "SCALAR", "byteOffset": 0}, {"bufferView": 1, "componentType": 5126, "count": 5663, "max": [25.06639862060547, -0.10982504487037659, 2.5309486389160156], "min": [15.066398620605469, -0.12068304419517517, -7.46905517578125], "type": "VEC3", "byteOffset": 0}, {"bufferView": 2, "componentType": 5126, "count": 5663, "type": "VEC3", "byteOffset": 0}, {"bufferView": 3, "componentType": 5126, "count": 5663, "type": "VEC2", "byteOffset": 0}, {"bufferView": 4, "componentType": 5126, "count": 5663, "type": "VEC2", "byteOffset": 0}, {"bufferView": 5, "componentType": 5126, "count": 5663, "type": "VEC2", "byteOffset": 0}, {"bufferView": 6, "componentType": 5126, "count": 5663, "type": "VEC2", "byteOffset": 0}, {"bufferView": 7, "componentType": 5126, "count": 5663, "type": "VEC2", "byteOffset": 0}, {"bufferView": 8, "componentType": 5126, "count": 5663, "type": "VEC2", "byteOffset": 0}, {"bufferView": 9, "componentType": 5126, "count": 5663, "type": "VEC2", "byteOffset": 0}, {"bufferView": 10, "componentType": 5126, "count": 5663, "type": "VEC2", "byteOffset": 0}], "materials": [{"name": "M_0135_DarkGray", "pbrMetallicRoughness": {"baseColorFactor": [0.3176470100879669, 0.3176470100879669, 0.3176470100879669, 1], "metallicFactor": 0, "roughnessFactor": 0.9302135109901428}}], "meshes": [{"primitives": [{"attributes": {"POSITION": 1, "NORMAL": 2, "TEXCOORD_0": 3, "TEXCOORD_1": 4, "TEXCOORD_2": 5, "TEXCOORD_3": 6, "TEXCOORD_4": 7, "TEXCOORD_5": 8, "TEXCOORD_6": 9, "TEXCOORD_7": 10}, "indices": 0, "material": 0}]}], "scene": 0, "scenes": [{"name": "Scene", "nodes": [0]}]}