{"asset": {"generator": "Khronos glTF Blender I/O v1.5.17", "version": "2.0"}, "nodes": [{"mesh": 0, "name": "Mesh34_M_0131_Silver_0"}], "buffers": [{"byteLength": 28976, "uri": "FlatCity85.bin"}], "bufferViews": [{"buffer": 0, "byteLength": 804, "byteOffset": 0}, {"buffer": 0, "byteLength": 3840, "byteOffset": 816}, {"buffer": 0, "byteLength": 3840, "byteOffset": 4656}, {"buffer": 0, "byteLength": 2560, "byteOffset": 8496}, {"buffer": 0, "byteLength": 2560, "byteOffset": 11056}, {"buffer": 0, "byteLength": 2560, "byteOffset": 13616}, {"buffer": 0, "byteLength": 2560, "byteOffset": 16176}, {"buffer": 0, "byteLength": 2560, "byteOffset": 18736}, {"buffer": 0, "byteLength": 2560, "byteOffset": 21296}, {"buffer": 0, "byteLength": 2560, "byteOffset": 23856}, {"buffer": 0, "byteLength": 2560, "byteOffset": 26416}], "accessors": [{"bufferView": 0, "componentType": 5123, "count": 402, "type": "SCALAR", "byteOffset": 0}, {"bufferView": 1, "componentType": 5126, "count": 320, "max": [4.886983871459961, 2.707263946533203, 6.507911682128906], "min": [3.82568359375, 2.3928990364074707, 5.406085968017578], "type": "VEC3", "byteOffset": 0}, {"bufferView": 2, "componentType": 5126, "count": 320, "type": "VEC3", "byteOffset": 0}, {"bufferView": 3, "componentType": 5126, "count": 320, "type": "VEC2", "byteOffset": 0}, {"bufferView": 4, "componentType": 5126, "count": 320, "type": "VEC2", "byteOffset": 0}, {"bufferView": 5, "componentType": 5126, "count": 320, "type": "VEC2", "byteOffset": 0}, {"bufferView": 6, "componentType": 5126, "count": 320, "type": "VEC2", "byteOffset": 0}, {"bufferView": 7, "componentType": 5126, "count": 320, "type": "VEC2", "byteOffset": 0}, {"bufferView": 8, "componentType": 5126, "count": 320, "type": "VEC2", "byteOffset": 0}, {"bufferView": 9, "componentType": 5126, "count": 320, "type": "VEC2", "byteOffset": 0}, {"bufferView": 10, "componentType": 5126, "count": 320, "type": "VEC2", "byteOffset": 0}], "materials": [{"name": "M_0130_Gainsboro", "pbrMetallicRoughness": {"baseColorFactor": [0.8627449870109558, 0.8627449870109558, 0.8627449870109558, 1], "metallicFactor": 0, "roughnessFactor": 0.9685046672821045}}], "meshes": [{"primitives": [{"attributes": {"POSITION": 1, "NORMAL": 2, "TEXCOORD_0": 3, "TEXCOORD_1": 4, "TEXCOORD_2": 5, "TEXCOORD_3": 6, "TEXCOORD_4": 7, "TEXCOORD_5": 8, "TEXCOORD_6": 9, "TEXCOORD_7": 10}, "indices": 0, "material": 0}]}], "scene": 0, "scenes": [{"name": "Scene", "nodes": [0]}]}