{"asset": {"generator": "Khronos glTF Blender I/O v1.5.17", "version": "2.0"}, "nodes": [{"mesh": 0, "name": "Mesh15_M_0135_DarkGray_0"}], "buffers": [{"byteLength": 14032, "uri": "FlatCity34.bin"}], "bufferViews": [{"buffer": 0, "byteLength": 456, "byteOffset": 0}, {"buffer": 0, "byteLength": 1848, "byteOffset": 464}, {"buffer": 0, "byteLength": 1848, "byteOffset": 2320}, {"buffer": 0, "byteLength": 1232, "byteOffset": 4176}, {"buffer": 0, "byteLength": 1232, "byteOffset": 5408}, {"buffer": 0, "byteLength": 1232, "byteOffset": 6640}, {"buffer": 0, "byteLength": 1232, "byteOffset": 7872}, {"buffer": 0, "byteLength": 1232, "byteOffset": 9104}, {"buffer": 0, "byteLength": 1232, "byteOffset": 10336}, {"buffer": 0, "byteLength": 1232, "byteOffset": 11568}, {"buffer": 0, "byteLength": 1232, "byteOffset": 12800}], "accessors": [{"bufferView": 0, "componentType": 5123, "count": 228, "type": "SCALAR", "byteOffset": 0}, {"bufferView": 1, "componentType": 5126, "count": 154, "max": [-10.95663833618164, 1.7918187379837036, 22.35153579711914], "min": [-12.058464050292969, 1.641548752784729, 21.29023551940918], "type": "VEC3", "byteOffset": 0}, {"bufferView": 2, "componentType": 5126, "count": 154, "type": "VEC3", "byteOffset": 0}, {"bufferView": 3, "componentType": 5126, "count": 154, "type": "VEC2", "byteOffset": 0}, {"bufferView": 4, "componentType": 5126, "count": 154, "type": "VEC2", "byteOffset": 0}, {"bufferView": 5, "componentType": 5126, "count": 154, "type": "VEC2", "byteOffset": 0}, {"bufferView": 6, "componentType": 5126, "count": 154, "type": "VEC2", "byteOffset": 0}, {"bufferView": 7, "componentType": 5126, "count": 154, "type": "VEC2", "byteOffset": 0}, {"bufferView": 8, "componentType": 5126, "count": 154, "type": "VEC2", "byteOffset": 0}, {"bufferView": 9, "componentType": 5126, "count": 154, "type": "VEC2", "byteOffset": 0}, {"bufferView": 10, "componentType": 5126, "count": 154, "type": "VEC2", "byteOffset": 0}], "materials": [{"name": "M_0130_Gainsboro", "pbrMetallicRoughness": {"baseColorFactor": [0.8627449870109558, 0.8627449870109558, 0.8627449870109558, 1], "metallicFactor": 0, "roughnessFactor": 0.9685046672821045}}], "meshes": [{"primitives": [{"attributes": {"POSITION": 1, "NORMAL": 2, "TEXCOORD_0": 3, "TEXCOORD_1": 4, "TEXCOORD_2": 5, "TEXCOORD_3": 6, "TEXCOORD_4": 7, "TEXCOORD_5": 8, "TEXCOORD_6": 9, "TEXCOORD_7": 10}, "indices": 0, "material": 0}]}], "scene": 0, "scenes": [{"name": "Scene", "nodes": [0]}]}