{"asset": {"generator": "Khronos glTF Blender I/O v1.5.17", "version": "2.0"}, "nodes": [{"mesh": 0, "name": "Mesh48_M_0137_Black_0"}], "buffers": [{"byteLength": 340336, "uri": "FlatCity128.bin"}], "bufferViews": [{"buffer": 0, "byteLength": 11010, "byteOffset": 0}, {"buffer": 0, "byteLength": 44904, "byteOffset": 11024}, {"buffer": 0, "byteLength": 44904, "byteOffset": 55936}, {"buffer": 0, "byteLength": 29936, "byteOffset": 100848}, {"buffer": 0, "byteLength": 29936, "byteOffset": 130784}, {"buffer": 0, "byteLength": 29936, "byteOffset": 160720}, {"buffer": 0, "byteLength": 29936, "byteOffset": 190656}, {"buffer": 0, "byteLength": 29936, "byteOffset": 220592}, {"buffer": 0, "byteLength": 29936, "byteOffset": 250528}, {"buffer": 0, "byteLength": 29936, "byteOffset": 280464}, {"buffer": 0, "byteLength": 29936, "byteOffset": 310400}], "accessors": [{"bufferView": 0, "componentType": 5123, "count": 5505, "type": "SCALAR", "byteOffset": 0}, {"bufferView": 1, "componentType": 5126, "count": 3742, "max": [25.06639862060547, -0.10982504487037659, 12.530948638916016], "min": [15.066398620605469, -0.11949405074119568, 2.5309486389160156], "type": "VEC3", "byteOffset": 0}, {"bufferView": 2, "componentType": 5126, "count": 3742, "type": "VEC3", "byteOffset": 0}, {"bufferView": 3, "componentType": 5126, "count": 3742, "type": "VEC2", "byteOffset": 0}, {"bufferView": 4, "componentType": 5126, "count": 3742, "type": "VEC2", "byteOffset": 0}, {"bufferView": 5, "componentType": 5126, "count": 3742, "type": "VEC2", "byteOffset": 0}, {"bufferView": 6, "componentType": 5126, "count": 3742, "type": "VEC2", "byteOffset": 0}, {"bufferView": 7, "componentType": 5126, "count": 3742, "type": "VEC2", "byteOffset": 0}, {"bufferView": 8, "componentType": 5126, "count": 3742, "type": "VEC2", "byteOffset": 0}, {"bufferView": 9, "componentType": 5126, "count": 3742, "type": "VEC2", "byteOffset": 0}, {"bufferView": 10, "componentType": 5126, "count": 3742, "type": "VEC2", "byteOffset": 0}], "materials": [{"name": "M_0135_DarkGray", "pbrMetallicRoughness": {"baseColorFactor": [0.3176470100879669, 0.3176470100879669, 0.3176470100879669, 1], "metallicFactor": 0, "roughnessFactor": 0.9302135109901428}}], "meshes": [{"primitives": [{"attributes": {"POSITION": 1, "NORMAL": 2, "TEXCOORD_0": 3, "TEXCOORD_1": 4, "TEXCOORD_2": 5, "TEXCOORD_3": 6, "TEXCOORD_4": 7, "TEXCOORD_5": 8, "TEXCOORD_6": 9, "TEXCOORD_7": 10}, "indices": 0, "material": 0}]}], "scene": 0, "scenes": [{"name": "Scene", "nodes": [0]}]}