{"asset": {"generator": "Khronos glTF Blender I/O v1.5.17", "version": "2.0"}, "nodes": [{"mesh": 0, "name": "Mesh21_M_0137_Black_0"}], "buffers": [{"byteLength": 4182384, "uri": "FlatCity49.bin"}], "bufferViews": [{"buffer": 0, "byteLength": 116934, "byteOffset": 0}, {"buffer": 0, "byteLength": 554376, "byteOffset": 116944}, {"buffer": 0, "byteLength": 554376, "byteOffset": 671328}, {"buffer": 0, "byteLength": 369584, "byteOffset": 1225712}, {"buffer": 0, "byteLength": 369584, "byteOffset": 1595296}, {"buffer": 0, "byteLength": 369584, "byteOffset": 1964880}, {"buffer": 0, "byteLength": 369584, "byteOffset": 2334464}, {"buffer": 0, "byteLength": 369584, "byteOffset": 2704048}, {"buffer": 0, "byteLength": 369584, "byteOffset": 3073632}, {"buffer": 0, "byteLength": 369584, "byteOffset": 3443216}, {"buffer": 0, "byteLength": 369584, "byteOffset": 3812800}], "accessors": [{"bufferView": 0, "componentType": 5123, "count": 58467, "type": "SCALAR", "byteOffset": 0}, {"bufferView": 1, "componentType": 5126, "count": 46198, "max": [-4.933601379394531, 3.2583117485046387, 22.53095245361328], "min": [-14.933605194091797, -0.5328661203384399, 12.530948638916016], "type": "VEC3", "byteOffset": 0}, {"bufferView": 2, "componentType": 5126, "count": 46198, "type": "VEC3", "byteOffset": 0}, {"bufferView": 3, "componentType": 5126, "count": 46198, "type": "VEC2", "byteOffset": 0}, {"bufferView": 4, "componentType": 5126, "count": 46198, "type": "VEC2", "byteOffset": 0}, {"bufferView": 5, "componentType": 5126, "count": 46198, "type": "VEC2", "byteOffset": 0}, {"bufferView": 6, "componentType": 5126, "count": 46198, "type": "VEC2", "byteOffset": 0}, {"bufferView": 7, "componentType": 5126, "count": 46198, "type": "VEC2", "byteOffset": 0}, {"bufferView": 8, "componentType": 5126, "count": 46198, "type": "VEC2", "byteOffset": 0}, {"bufferView": 9, "componentType": 5126, "count": 46198, "type": "VEC2", "byteOffset": 0}, {"bufferView": 10, "componentType": 5126, "count": 46198, "type": "VEC2", "byteOffset": 0}], "materials": [{"name": "M_0130_Gainsboro", "pbrMetallicRoughness": {"baseColorFactor": [0.8627449870109558, 0.8627449870109558, 0.8627449870109558, 1], "metallicFactor": 0, "roughnessFactor": 0.9685046672821045}}], "meshes": [{"primitives": [{"attributes": {"POSITION": 1, "NORMAL": 2, "TEXCOORD_0": 3, "TEXCOORD_1": 4, "TEXCOORD_2": 5, "TEXCOORD_3": 6, "TEXCOORD_4": 7, "TEXCOORD_5": 8, "TEXCOORD_6": 9, "TEXCOORD_7": 10}, "indices": 0, "material": 0}]}], "scene": 0, "scenes": [{"name": "Scene", "nodes": [0]}]}