{"asset": {"generator": "Khronos glTF Blender I/O v1.5.17", "version": "2.0"}, "nodes": [{"mesh": 0, "name": "Mesh30_M_0134_DimGray_0"}], "buffers": [{"byteLength": 4144, "uri": "FlatCity73.bin"}], "bufferViews": [{"buffer": 0, "byteLength": 108, "byteOffset": 0}, {"buffer": 0, "byteLength": 540, "byteOffset": 112}, {"buffer": 0, "byteLength": 540, "byteOffset": 656}, {"buffer": 0, "byteLength": 360, "byteOffset": 1200}, {"buffer": 0, "byteLength": 360, "byteOffset": 1568}, {"buffer": 0, "byteLength": 360, "byteOffset": 1936}, {"buffer": 0, "byteLength": 360, "byteOffset": 2304}, {"buffer": 0, "byteLength": 360, "byteOffset": 2672}, {"buffer": 0, "byteLength": 360, "byteOffset": 3040}, {"buffer": 0, "byteLength": 360, "byteOffset": 3408}, {"buffer": 0, "byteLength": 360, "byteOffset": 3776}], "accessors": [{"bufferView": 0, "componentType": 5123, "count": 54, "type": "SCALAR", "byteOffset": 0}, {"bufferView": 1, "componentType": 5126, "count": 45, "max": [7.2640228271484375, 1.3899518251419067, 11.818899154663086], "min": [5.246713638305664, 0.0757555365562439, 4.305255889892578], "type": "VEC3", "byteOffset": 0}, {"bufferView": 2, "componentType": 5126, "count": 45, "type": "VEC3", "byteOffset": 0}, {"bufferView": 3, "componentType": 5126, "count": 45, "type": "VEC2", "byteOffset": 0}, {"bufferView": 4, "componentType": 5126, "count": 45, "type": "VEC2", "byteOffset": 0}, {"bufferView": 5, "componentType": 5126, "count": 45, "type": "VEC2", "byteOffset": 0}, {"bufferView": 6, "componentType": 5126, "count": 45, "type": "VEC2", "byteOffset": 0}, {"bufferView": 7, "componentType": 5126, "count": 45, "type": "VEC2", "byteOffset": 0}, {"bufferView": 8, "componentType": 5126, "count": 45, "type": "VEC2", "byteOffset": 0}, {"bufferView": 9, "componentType": 5126, "count": 45, "type": "VEC2", "byteOffset": 0}, {"bufferView": 10, "componentType": 5126, "count": 45, "type": "VEC2", "byteOffset": 0}], "materials": [{"emissiveFactor": [1, 0.20742511749267578, 1], "name": "M_0127_Magenta", "pbrMetallicRoughness": {"baseColorFactor": [1, 0, 1, 1], "metallicFactor": 0, "roughnessFactor": 0.9302135109901428}}], "meshes": [{"primitives": [{"attributes": {"POSITION": 1, "NORMAL": 2, "TEXCOORD_0": 3, "TEXCOORD_1": 4, "TEXCOORD_2": 5, "TEXCOORD_3": 6, "TEXCOORD_4": 7, "TEXCOORD_5": 8, "TEXCOORD_6": 9, "TEXCOORD_7": 10}, "indices": 0, "material": 0}]}], "scene": 0, "scenes": [{"name": "Scene", "nodes": [0]}]}