{"asset": {"generator": "Khronos glTF Blender I/O v1.5.17", "version": "2.0"}, "nodes": [{"mesh": 0, "name": "Mesh6_M_0137_Black_0"}], "buffers": [{"byteLength": 3824, "uri": "FlatCity11.bin"}], "bufferViews": [{"buffer": 0, "byteLength": 108, "byteOffset": 0}, {"buffer": 0, "byteLength": 504, "byteOffset": 112}, {"buffer": 0, "byteLength": 504, "byteOffset": 624}, {"buffer": 0, "byteLength": 336, "byteOffset": 1136}, {"buffer": 0, "byteLength": 336, "byteOffset": 1472}, {"buffer": 0, "byteLength": 336, "byteOffset": 1808}, {"buffer": 0, "byteLength": 336, "byteOffset": 2144}, {"buffer": 0, "byteLength": 336, "byteOffset": 2480}, {"buffer": 0, "byteLength": 336, "byteOffset": 2816}, {"buffer": 0, "byteLength": 336, "byteOffset": 3152}, {"buffer": 0, "byteLength": 336, "byteOffset": 3488}], "accessors": [{"bufferView": 0, "componentType": 5123, "count": 54, "type": "SCALAR", "byteOffset": 0}, {"bufferView": 1, "componentType": 5126, "count": 42, "max": [3.2920913696289062, 1.3899518251419067, 4.728572845458984], "min": [-4.221549987792969, 0.0757555365562439, 2.7112655639648438], "type": "VEC3", "byteOffset": 0}, {"bufferView": 2, "componentType": 5126, "count": 42, "type": "VEC3", "byteOffset": 0}, {"bufferView": 3, "componentType": 5126, "count": 42, "type": "VEC2", "byteOffset": 0}, {"bufferView": 4, "componentType": 5126, "count": 42, "type": "VEC2", "byteOffset": 0}, {"bufferView": 5, "componentType": 5126, "count": 42, "type": "VEC2", "byteOffset": 0}, {"bufferView": 6, "componentType": 5126, "count": 42, "type": "VEC2", "byteOffset": 0}, {"bufferView": 7, "componentType": 5126, "count": 42, "type": "VEC2", "byteOffset": 0}, {"bufferView": 8, "componentType": 5126, "count": 42, "type": "VEC2", "byteOffset": 0}, {"bufferView": 9, "componentType": 5126, "count": 42, "type": "VEC2", "byteOffset": 0}, {"bufferView": 10, "componentType": 5126, "count": 42, "type": "VEC2", "byteOffset": 0}], "materials": [{"emissiveFactor": [1, 0.20742511749267578, 1], "name": "M_0127_Magenta", "pbrMetallicRoughness": {"baseColorFactor": [1, 0, 1, 1], "metallicFactor": 0, "roughnessFactor": 0.9302135109901428}}], "meshes": [{"primitives": [{"attributes": {"POSITION": 1, "NORMAL": 2, "TEXCOORD_0": 3, "TEXCOORD_1": 4, "TEXCOORD_2": 5, "TEXCOORD_3": 6, "TEXCOORD_4": 7, "TEXCOORD_5": 8, "TEXCOORD_6": 9, "TEXCOORD_7": 10}, "indices": 0, "material": 0}]}], "scene": 0, "scenes": [{"name": "Scene", "nodes": [0]}]}