{"asset": {"generator": "Khronos glTF Blender I/O v1.5.17", "version": "2.0"}, "nodes": [{"mesh": 0, "name": "Mesh34_M_0137_Black_0"}], "buffers": [{"byteLength": 1456, "uri": "FlatCity86.bin"}], "bufferViews": [{"buffer": 0, "byteLength": 36, "byteOffset": 0}, {"buffer": 0, "byteLength": 192, "byteOffset": 48}, {"buffer": 0, "byteLength": 192, "byteOffset": 240}, {"buffer": 0, "byteLength": 128, "byteOffset": 432}, {"buffer": 0, "byteLength": 128, "byteOffset": 560}, {"buffer": 0, "byteLength": 128, "byteOffset": 688}, {"buffer": 0, "byteLength": 128, "byteOffset": 816}, {"buffer": 0, "byteLength": 128, "byteOffset": 944}, {"buffer": 0, "byteLength": 128, "byteOffset": 1072}, {"buffer": 0, "byteLength": 128, "byteOffset": 1200}, {"buffer": 0, "byteLength": 128, "byteOffset": 1328}], "accessors": [{"bufferView": 0, "componentType": 5123, "count": 18, "type": "SCALAR", "byteOffset": 0}, {"bufferView": 1, "componentType": 5126, "count": 16, "max": [4.6920013427734375, 2.679574966430664, 6.31292724609375], "min": [4.020664215087891, 2.679574966430664, 5.601066589355469], "type": "VEC3", "byteOffset": 0}, {"bufferView": 2, "componentType": 5126, "count": 16, "type": "VEC3", "byteOffset": 0}, {"bufferView": 3, "componentType": 5126, "count": 16, "type": "VEC2", "byteOffset": 0}, {"bufferView": 4, "componentType": 5126, "count": 16, "type": "VEC2", "byteOffset": 0}, {"bufferView": 5, "componentType": 5126, "count": 16, "type": "VEC2", "byteOffset": 0}, {"bufferView": 6, "componentType": 5126, "count": 16, "type": "VEC2", "byteOffset": 0}, {"bufferView": 7, "componentType": 5126, "count": 16, "type": "VEC2", "byteOffset": 0}, {"bufferView": 8, "componentType": 5126, "count": 16, "type": "VEC2", "byteOffset": 0}, {"bufferView": 9, "componentType": 5126, "count": 16, "type": "VEC2", "byteOffset": 0}, {"bufferView": 10, "componentType": 5126, "count": 16, "type": "VEC2", "byteOffset": 0}], "materials": [{"name": "M_0137_Black", "pbrMetallicRoughness": {"baseColorFactor": [0, 0, 0, 1], "metallicFactor": 0, "roughnessFactor": 0}}], "meshes": [{"primitives": [{"attributes": {"POSITION": 1, "NORMAL": 2, "TEXCOORD_0": 3, "TEXCOORD_1": 4, "TEXCOORD_2": 5, "TEXCOORD_3": 6, "TEXCOORD_4": 7, "TEXCOORD_5": 8, "TEXCOORD_6": 9, "TEXCOORD_7": 10}, "indices": 0, "material": 0}]}], "scene": 0, "scenes": [{"name": "Scene", "nodes": [0]}]}