{"asset": {"generator": "Khronos glTF Blender I/O v1.5.17", "version": "2.0"}, "nodes": [{"mesh": 0, "name": "Mesh23_M_0130_Gainsboro_0"}], "buffers": [{"byteLength": 28432, "uri": "FlatCity52.bin"}], "bufferViews": [{"buffer": 0, "byteLength": 816, "byteOffset": 0}, {"buffer": 0, "byteLength": 3756, "byteOffset": 816}, {"buffer": 0, "byteLength": 3756, "byteOffset": 4576}, {"buffer": 0, "byteLength": 2504, "byteOffset": 8336}, {"buffer": 0, "byteLength": 2504, "byteOffset": 10848}, {"buffer": 0, "byteLength": 2504, "byteOffset": 13360}, {"buffer": 0, "byteLength": 2504, "byteOffset": 15872}, {"buffer": 0, "byteLength": 2504, "byteOffset": 18384}, {"buffer": 0, "byteLength": 2504, "byteOffset": 20896}, {"buffer": 0, "byteLength": 2504, "byteOffset": 23408}, {"buffer": 0, "byteLength": 2504, "byteOffset": 25920}], "accessors": [{"bufferView": 0, "componentType": 5123, "count": 408, "type": "SCALAR", "byteOffset": 0}, {"bufferView": 1, "componentType": 5126, "count": 313, "max": [-5.9056854248046875, 3.246732711791992, 20.009967803955078], "min": [-13.058265686035156, -0.1546640396118164, 12.96466064453125], "type": "VEC3", "byteOffset": 0}, {"bufferView": 2, "componentType": 5126, "count": 313, "type": "VEC3", "byteOffset": 0}, {"bufferView": 3, "componentType": 5126, "count": 313, "type": "VEC2", "byteOffset": 0}, {"bufferView": 4, "componentType": 5126, "count": 313, "type": "VEC2", "byteOffset": 0}, {"bufferView": 5, "componentType": 5126, "count": 313, "type": "VEC2", "byteOffset": 0}, {"bufferView": 6, "componentType": 5126, "count": 313, "type": "VEC2", "byteOffset": 0}, {"bufferView": 7, "componentType": 5126, "count": 313, "type": "VEC2", "byteOffset": 0}, {"bufferView": 8, "componentType": 5126, "count": 313, "type": "VEC2", "byteOffset": 0}, {"bufferView": 9, "componentType": 5126, "count": 313, "type": "VEC2", "byteOffset": 0}, {"bufferView": 10, "componentType": 5126, "count": 313, "type": "VEC2", "byteOffset": 0}], "materials": [{"name": "M_0087_Cyan", "pbrMetallicRoughness": {"baseColorFactor": [0, 1, 1, 1], "metallicFactor": 0, "roughnessFactor": 0.9302135109901428}}], "meshes": [{"primitives": [{"attributes": {"POSITION": 1, "NORMAL": 2, "TEXCOORD_0": 3, "TEXCOORD_1": 4, "TEXCOORD_2": 5, "TEXCOORD_3": 6, "TEXCOORD_4": 7, "TEXCOORD_5": 8, "TEXCOORD_6": 9, "TEXCOORD_7": 10}, "indices": 0, "material": 0}]}], "scene": 0, "scenes": [{"name": "Scene", "nodes": [0]}]}