{"asset": {"generator": "Khronos glTF Blender I/O v1.5.17", "version": "2.0"}, "nodes": [{"mesh": 0, "name": "Mesh100_M_0137_Black_0"}], "buffers": [{"byteLength": 594576, "uri": "FlatCity281.bin"}], "bufferViews": [{"buffer": 0, "byteLength": 17802, "byteOffset": 0}, {"buffer": 0, "byteLength": 78648, "byteOffset": 17808}, {"buffer": 0, "byteLength": 78648, "byteOffset": 96464}, {"buffer": 0, "byteLength": 52432, "byteOffset": 175120}, {"buffer": 0, "byteLength": 52432, "byteOffset": 227552}, {"buffer": 0, "byteLength": 52432, "byteOffset": 279984}, {"buffer": 0, "byteLength": 52432, "byteOffset": 332416}, {"buffer": 0, "byteLength": 52432, "byteOffset": 384848}, {"buffer": 0, "byteLength": 52432, "byteOffset": 437280}, {"buffer": 0, "byteLength": 52432, "byteOffset": 489712}, {"buffer": 0, "byteLength": 52432, "byteOffset": 542144}], "accessors": [{"bufferView": 0, "componentType": 5123, "count": 8901, "type": "SCALAR", "byteOffset": 0}, {"bufferView": 1, "componentType": 5126, "count": 6554, "max": [-14.933601379394531, 0.6456661224365234, 2.5309486389160156], "min": [-24.93360137939453, -0.12159302830696106, -7.46905517578125], "type": "VEC3", "byteOffset": 0}, {"bufferView": 2, "componentType": 5126, "count": 6554, "type": "VEC3", "byteOffset": 0}, {"bufferView": 3, "componentType": 5126, "count": 6554, "type": "VEC2", "byteOffset": 0}, {"bufferView": 4, "componentType": 5126, "count": 6554, "type": "VEC2", "byteOffset": 0}, {"bufferView": 5, "componentType": 5126, "count": 6554, "type": "VEC2", "byteOffset": 0}, {"bufferView": 6, "componentType": 5126, "count": 6554, "type": "VEC2", "byteOffset": 0}, {"bufferView": 7, "componentType": 5126, "count": 6554, "type": "VEC2", "byteOffset": 0}, {"bufferView": 8, "componentType": 5126, "count": 6554, "type": "VEC2", "byteOffset": 0}, {"bufferView": 9, "componentType": 5126, "count": 6554, "type": "VEC2", "byteOffset": 0}, {"bufferView": 10, "componentType": 5126, "count": 6554, "type": "VEC2", "byteOffset": 0}], "materials": [{"name": "M_0135_DarkGray", "pbrMetallicRoughness": {"baseColorFactor": [0.3176470100879669, 0.3176470100879669, 0.3176470100879669, 1], "metallicFactor": 0, "roughnessFactor": 0.9302135109901428}}], "meshes": [{"primitives": [{"attributes": {"POSITION": 1, "NORMAL": 2, "TEXCOORD_0": 3, "TEXCOORD_1": 4, "TEXCOORD_2": 5, "TEXCOORD_3": 6, "TEXCOORD_4": 7, "TEXCOORD_5": 8, "TEXCOORD_6": 9, "TEXCOORD_7": 10}, "indices": 0, "material": 0}]}], "scene": 0, "scenes": [{"name": "Scene", "nodes": [0]}]}