{"asset": {"generator": "Khronos glTF Blender I/O v1.5.17", "version": "2.0"}, "nodes": [{"mesh": 0, "name": "Mesh40_M_0131_Silver_0"}], "buffers": [{"byteLength": 6720, "uri": "FlatCity103.bin"}], "bufferViews": [{"buffer": 0, "byteLength": 192, "byteOffset": 0}, {"buffer": 0, "byteLength": 888, "byteOffset": 192}, {"buffer": 0, "byteLength": 888, "byteOffset": 1088}, {"buffer": 0, "byteLength": 592, "byteOffset": 1984}, {"buffer": 0, "byteLength": 592, "byteOffset": 2576}, {"buffer": 0, "byteLength": 592, "byteOffset": 3168}, {"buffer": 0, "byteLength": 592, "byteOffset": 3760}, {"buffer": 0, "byteLength": 592, "byteOffset": 4352}, {"buffer": 0, "byteLength": 592, "byteOffset": 4944}, {"buffer": 0, "byteLength": 592, "byteOffset": 5536}, {"buffer": 0, "byteLength": 592, "byteOffset": 6128}], "accessors": [{"bufferView": 0, "componentType": 5123, "count": 96, "type": "SCALAR", "byteOffset": 0}, {"bufferView": 1, "componentType": 5126, "count": 74, "max": [-10.32779312133789, 0.35717809200286865, 9.339767456054688], "min": [-14.242420196533203, 0.2743050456047058, 5.425140380859375], "type": "VEC3", "byteOffset": 0}, {"bufferView": 2, "componentType": 5126, "count": 74, "type": "VEC3", "byteOffset": 0}, {"bufferView": 3, "componentType": 5126, "count": 74, "type": "VEC2", "byteOffset": 0}, {"bufferView": 4, "componentType": 5126, "count": 74, "type": "VEC2", "byteOffset": 0}, {"bufferView": 5, "componentType": 5126, "count": 74, "type": "VEC2", "byteOffset": 0}, {"bufferView": 6, "componentType": 5126, "count": 74, "type": "VEC2", "byteOffset": 0}, {"bufferView": 7, "componentType": 5126, "count": 74, "type": "VEC2", "byteOffset": 0}, {"bufferView": 8, "componentType": 5126, "count": 74, "type": "VEC2", "byteOffset": 0}, {"bufferView": 9, "componentType": 5126, "count": 74, "type": "VEC2", "byteOffset": 0}, {"bufferView": 10, "componentType": 5126, "count": 74, "type": "VEC2", "byteOffset": 0}], "materials": [{"name": "FrontColor", "pbrMetallicRoughness": {"baseColorFactor": [0.5684521794319153, 0.5684521794319153, 0.5684521794319153, 1], "metallicFactor": 0.17196325957775116, "roughnessFactor": 0.47536954283714294}}], "meshes": [{"primitives": [{"attributes": {"POSITION": 1, "NORMAL": 2, "TEXCOORD_0": 3, "TEXCOORD_1": 4, "TEXCOORD_2": 5, "TEXCOORD_3": 6, "TEXCOORD_4": 7, "TEXCOORD_5": 8, "TEXCOORD_6": 9, "TEXCOORD_7": 10}, "indices": 0, "material": 0}]}], "scene": 0, "scenes": [{"name": "Scene", "nodes": [0]}]}