{"asset": {"generator": "Khronos glTF Blender I/O v1.5.17", "version": "2.0"}, "nodes": [{"mesh": 0, "name": "Mesh159_FrontColor_0"}], "buffers": [{"byteLength": 1440, "uri": "FlatCity448.bin"}], "bufferViews": [{"buffer": 0, "byteLength": 30, "byteOffset": 0}, {"buffer": 0, "byteLength": 180, "byteOffset": 32}, {"buffer": 0, "byteLength": 180, "byteOffset": 224}, {"buffer": 0, "byteLength": 120, "byteOffset": 416}, {"buffer": 0, "byteLength": 120, "byteOffset": 544}, {"buffer": 0, "byteLength": 120, "byteOffset": 672}, {"buffer": 0, "byteLength": 120, "byteOffset": 800}, {"buffer": 0, "byteLength": 120, "byteOffset": 928}, {"buffer": 0, "byteLength": 120, "byteOffset": 1056}, {"buffer": 0, "byteLength": 120, "byteOffset": 1184}, {"buffer": 0, "byteLength": 120, "byteOffset": 1312}], "accessors": [{"bufferView": 0, "componentType": 5123, "count": 15, "type": "SCALAR", "byteOffset": 0}, {"bufferView": 1, "componentType": 5126, "count": 15, "max": [-44.93360137939453, -0.10982504487037659, -17.474422454833984], "min": [-47.71039581298828, -0.10982504487037659, -20.25121307373047], "type": "VEC3", "byteOffset": 0}, {"bufferView": 2, "componentType": 5126, "count": 15, "type": "VEC3", "byteOffset": 0}, {"bufferView": 3, "componentType": 5126, "count": 15, "type": "VEC2", "byteOffset": 0}, {"bufferView": 4, "componentType": 5126, "count": 15, "type": "VEC2", "byteOffset": 0}, {"bufferView": 5, "componentType": 5126, "count": 15, "type": "VEC2", "byteOffset": 0}, {"bufferView": 6, "componentType": 5126, "count": 15, "type": "VEC2", "byteOffset": 0}, {"bufferView": 7, "componentType": 5126, "count": 15, "type": "VEC2", "byteOffset": 0}, {"bufferView": 8, "componentType": 5126, "count": 15, "type": "VEC2", "byteOffset": 0}, {"bufferView": 9, "componentType": 5126, "count": 15, "type": "VEC2", "byteOffset": 0}, {"bufferView": 10, "componentType": 5126, "count": 15, "type": "VEC2", "byteOffset": 0}], "materials": [{"name": "M_0135_DarkGray", "pbrMetallicRoughness": {"baseColorFactor": [0.3176470100879669, 0.3176470100879669, 0.3176470100879669, 1], "metallicFactor": 0, "roughnessFactor": 0.9302135109901428}}], "meshes": [{"primitives": [{"attributes": {"POSITION": 1, "NORMAL": 2, "TEXCOORD_0": 3, "TEXCOORD_1": 4, "TEXCOORD_2": 5, "TEXCOORD_3": 6, "TEXCOORD_4": 7, "TEXCOORD_5": 8, "TEXCOORD_6": 9, "TEXCOORD_7": 10}, "indices": 0, "material": 0}]}], "scene": 0, "scenes": [{"name": "Scene", "nodes": [0]}]}