{"asset": {"generator": "Khronos glTF Blender I/O v1.5.17", "version": "2.0"}, "nodes": [{"mesh": 0, "name": "Mesh150_M_0137_Black_0"}], "buffers": [{"byteLength": 6016, "uri": "FlatCity420.bin"}], "bufferViews": [{"buffer": 0, "byteLength": 192, "byteOffset": 0}, {"buffer": 0, "byteLength": 792, "byteOffset": 192}, {"buffer": 0, "byteLength": 792, "byteOffset": 992}, {"buffer": 0, "byteLength": 528, "byteOffset": 1792}, {"buffer": 0, "byteLength": 528, "byteOffset": 2320}, {"buffer": 0, "byteLength": 528, "byteOffset": 2848}, {"buffer": 0, "byteLength": 528, "byteOffset": 3376}, {"buffer": 0, "byteLength": 528, "byteOffset": 3904}, {"buffer": 0, "byteLength": 528, "byteOffset": 4432}, {"buffer": 0, "byteLength": 528, "byteOffset": 4960}, {"buffer": 0, "byteLength": 528, "byteOffset": 5488}], "accessors": [{"bufferView": 0, "componentType": 5123, "count": 96, "type": "SCALAR", "byteOffset": 0}, {"bufferView": 1, "componentType": 5126, "count": 66, "max": [-40.327796936035156, 1.3516544103622437, -10.665596008300781], "min": [-44.24242401123047, 1.268781304359436, -14.58022689819336], "type": "VEC3", "byteOffset": 0}, {"bufferView": 2, "componentType": 5126, "count": 66, "type": "VEC3", "byteOffset": 0}, {"bufferView": 3, "componentType": 5126, "count": 66, "type": "VEC2", "byteOffset": 0}, {"bufferView": 4, "componentType": 5126, "count": 66, "type": "VEC2", "byteOffset": 0}, {"bufferView": 5, "componentType": 5126, "count": 66, "type": "VEC2", "byteOffset": 0}, {"bufferView": 6, "componentType": 5126, "count": 66, "type": "VEC2", "byteOffset": 0}, {"bufferView": 7, "componentType": 5126, "count": 66, "type": "VEC2", "byteOffset": 0}, {"bufferView": 8, "componentType": 5126, "count": 66, "type": "VEC2", "byteOffset": 0}, {"bufferView": 9, "componentType": 5126, "count": 66, "type": "VEC2", "byteOffset": 0}, {"bufferView": 10, "componentType": 5126, "count": 66, "type": "VEC2", "byteOffset": 0}], "materials": [{"name": "FrontColor", "pbrMetallicRoughness": {"baseColorFactor": [0.5684521794319153, 0.5684521794319153, 0.5684521794319153, 1], "metallicFactor": 0.17196325957775116, "roughnessFactor": 0.47536954283714294}}], "meshes": [{"primitives": [{"attributes": {"POSITION": 1, "NORMAL": 2, "TEXCOORD_0": 3, "TEXCOORD_1": 4, "TEXCOORD_2": 5, "TEXCOORD_3": 6, "TEXCOORD_4": 7, "TEXCOORD_5": 8, "TEXCOORD_6": 9, "TEXCOORD_7": 10}, "indices": 0, "material": 0}]}], "scene": 0, "scenes": [{"name": "Scene", "nodes": [0]}]}