{"asset": {"generator": "Khronos glTF Blender I/O v1.5.17", "version": "2.0"}, "nodes": [{"mesh": 0, "name": "Mesh20_M_0130_Gainsboro_0"}], "buffers": [{"byteLength": 325104, "uri": "FlatCity46.bin"}], "bufferViews": [{"buffer": 0, "byteLength": 10224, "byteOffset": 0}, {"buffer": 0, "byteLength": 42936, "byteOffset": 10224}, {"buffer": 0, "byteLength": 42936, "byteOffset": 53168}, {"buffer": 0, "byteLength": 28624, "byteOffset": 96112}, {"buffer": 0, "byteLength": 28624, "byteOffset": 124736}, {"buffer": 0, "byteLength": 28624, "byteOffset": 153360}, {"buffer": 0, "byteLength": 28624, "byteOffset": 181984}, {"buffer": 0, "byteLength": 28624, "byteOffset": 210608}, {"buffer": 0, "byteLength": 28624, "byteOffset": 239232}, {"buffer": 0, "byteLength": 28624, "byteOffset": 267856}, {"buffer": 0, "byteLength": 28624, "byteOffset": 296480}], "accessors": [{"bufferView": 0, "componentType": 5123, "count": 5112, "type": "SCALAR", "byteOffset": 0}, {"bufferView": 1, "componentType": 5126, "count": 3578, "max": [-4.933601379394531, 0.8444921970367432, 22.53095245361328], "min": [-14.933601379394531, -0.1469159722328186, 12.530948638916016], "type": "VEC3", "byteOffset": 0}, {"bufferView": 2, "componentType": 5126, "count": 3578, "type": "VEC3", "byteOffset": 0}, {"bufferView": 3, "componentType": 5126, "count": 3578, "type": "VEC2", "byteOffset": 0}, {"bufferView": 4, "componentType": 5126, "count": 3578, "type": "VEC2", "byteOffset": 0}, {"bufferView": 5, "componentType": 5126, "count": 3578, "type": "VEC2", "byteOffset": 0}, {"bufferView": 6, "componentType": 5126, "count": 3578, "type": "VEC2", "byteOffset": 0}, {"bufferView": 7, "componentType": 5126, "count": 3578, "type": "VEC2", "byteOffset": 0}, {"bufferView": 8, "componentType": 5126, "count": 3578, "type": "VEC2", "byteOffset": 0}, {"bufferView": 9, "componentType": 5126, "count": 3578, "type": "VEC2", "byteOffset": 0}, {"bufferView": 10, "componentType": 5126, "count": 3578, "type": "VEC2", "byteOffset": 0}], "materials": [{"name": "M_0131_Silver", "pbrMetallicRoughness": {"baseColorFactor": [0.7529410123825073, 0.7529410123825073, 0.7529410123825073, 1], "metallicFactor": 0, "roughnessFactor": 0.9302135109901428}}], "meshes": [{"primitives": [{"attributes": {"POSITION": 1, "NORMAL": 2, "TEXCOORD_0": 3, "TEXCOORD_1": 4, "TEXCOORD_2": 5, "TEXCOORD_3": 6, "TEXCOORD_4": 7, "TEXCOORD_5": 8, "TEXCOORD_6": 9, "TEXCOORD_7": 10}, "indices": 0, "material": 0}]}], "scene": 0, "scenes": [{"name": "Scene", "nodes": [0]}]}