{"asset": {"generator": "Khronos glTF Blender I/O v1.5.17", "version": "2.0"}, "nodes": [{"mesh": 0, "name": "Mesh35_M_0131_Silver_0"}], "buffers": [{"byteLength": 8208, "uri": "FlatCity88.bin"}], "bufferViews": [{"buffer": 0, "byteLength": 258, "byteOffset": 0}, {"buffer": 0, "byteLength": 1080, "byteOffset": 272}, {"buffer": 0, "byteLength": 1080, "byteOffset": 1360}, {"buffer": 0, "byteLength": 720, "byteOffset": 2448}, {"buffer": 0, "byteLength": 720, "byteOffset": 3168}, {"buffer": 0, "byteLength": 720, "byteOffset": 3888}, {"buffer": 0, "byteLength": 720, "byteOffset": 4608}, {"buffer": 0, "byteLength": 720, "byteOffset": 5328}, {"buffer": 0, "byteLength": 720, "byteOffset": 6048}, {"buffer": 0, "byteLength": 720, "byteOffset": 6768}, {"buffer": 0, "byteLength": 720, "byteOffset": 7488}], "accessors": [{"bufferView": 0, "componentType": 5123, "count": 129, "type": "SCALAR", "byteOffset": 0}, {"bufferView": 1, "componentType": 5126, "count": 90, "max": [-14.933601379394531, -0.10015600919723511, 22.53095245361328], "min": [-19.93360137939453, -0.5231971144676208, 12.530948638916016], "type": "VEC3", "byteOffset": 0}, {"bufferView": 2, "componentType": 5126, "count": 90, "type": "VEC3", "byteOffset": 0}, {"bufferView": 3, "componentType": 5126, "count": 90, "type": "VEC2", "byteOffset": 0}, {"bufferView": 4, "componentType": 5126, "count": 90, "type": "VEC2", "byteOffset": 0}, {"bufferView": 5, "componentType": 5126, "count": 90, "type": "VEC2", "byteOffset": 0}, {"bufferView": 6, "componentType": 5126, "count": 90, "type": "VEC2", "byteOffset": 0}, {"bufferView": 7, "componentType": 5126, "count": 90, "type": "VEC2", "byteOffset": 0}, {"bufferView": 8, "componentType": 5126, "count": 90, "type": "VEC2", "byteOffset": 0}, {"bufferView": 9, "componentType": 5126, "count": 90, "type": "VEC2", "byteOffset": 0}, {"bufferView": 10, "componentType": 5126, "count": 90, "type": "VEC2", "byteOffset": 0}], "materials": [{"name": "FrontColor", "pbrMetallicRoughness": {"baseColorFactor": [0.5684521794319153, 0.5684521794319153, 0.5684521794319153, 1], "metallicFactor": 0.17196325957775116, "roughnessFactor": 0.47536954283714294}}], "meshes": [{"primitives": [{"attributes": {"POSITION": 1, "NORMAL": 2, "TEXCOORD_0": 3, "TEXCOORD_1": 4, "TEXCOORD_2": 5, "TEXCOORD_3": 6, "TEXCOORD_4": 7, "TEXCOORD_5": 8, "TEXCOORD_6": 9, "TEXCOORD_7": 10}, "indices": 0, "material": 0}]}], "scene": 0, "scenes": [{"name": "Scene", "nodes": [0]}]}