{"asset": {"generator": "Khronos glTF Blender I/O v1.5.17", "version": "2.0"}, "nodes": [{"mesh": 0, "name": "Mesh130_M_0130_Gainsboro_0"}], "buffers": [{"byteLength": 80528, "uri": "FlatCity362.bin"}], "bufferViews": [{"buffer": 0, "byteLength": 2214, "byteOffset": 0}, {"buffer": 0, "byteLength": 10668, "byteOffset": 2224}, {"buffer": 0, "byteLength": 10668, "byteOffset": 12896}, {"buffer": 0, "byteLength": 7112, "byteOffset": 23568}, {"buffer": 0, "byteLength": 7112, "byteOffset": 30688}, {"buffer": 0, "byteLength": 7112, "byteOffset": 37808}, {"buffer": 0, "byteLength": 7112, "byteOffset": 44928}, {"buffer": 0, "byteLength": 7112, "byteOffset": 52048}, {"buffer": 0, "byteLength": 7112, "byteOffset": 59168}, {"buffer": 0, "byteLength": 7112, "byteOffset": 66288}, {"buffer": 0, "byteLength": 7112, "byteOffset": 73408}], "accessors": [{"bufferView": 0, "componentType": 5123, "count": 1107, "type": "SCALAR", "byteOffset": 0}, {"bufferView": 1, "componentType": 5126, "count": 889, "max": [14.886983871459961, 2.421888828277588, 2.342540740966797], "min": [5.148462295532227, -0.12167003750801086, -7.2209014892578125], "type": "VEC3", "byteOffset": 0}, {"bufferView": 2, "componentType": 5126, "count": 889, "type": "VEC3", "byteOffset": 0}, {"bufferView": 3, "componentType": 5126, "count": 889, "type": "VEC2", "byteOffset": 0}, {"bufferView": 4, "componentType": 5126, "count": 889, "type": "VEC2", "byteOffset": 0}, {"bufferView": 5, "componentType": 5126, "count": 889, "type": "VEC2", "byteOffset": 0}, {"bufferView": 6, "componentType": 5126, "count": 889, "type": "VEC2", "byteOffset": 0}, {"bufferView": 7, "componentType": 5126, "count": 889, "type": "VEC2", "byteOffset": 0}, {"bufferView": 8, "componentType": 5126, "count": 889, "type": "VEC2", "byteOffset": 0}, {"bufferView": 9, "componentType": 5126, "count": 889, "type": "VEC2", "byteOffset": 0}, {"bufferView": 10, "componentType": 5126, "count": 889, "type": "VEC2", "byteOffset": 0}], "materials": [{"name": "M_0136_Charcoal", "pbrMetallicRoughness": {"baseColorFactor": [0.137254998087883, 0.137254998087883, 0.137254998087883, 1], "roughnessFactor": 0}}], "meshes": [{"primitives": [{"attributes": {"POSITION": 1, "NORMAL": 2, "TEXCOORD_0": 3, "TEXCOORD_1": 4, "TEXCOORD_2": 5, "TEXCOORD_3": 6, "TEXCOORD_4": 7, "TEXCOORD_5": 8, "TEXCOORD_6": 9, "TEXCOORD_7": 10}, "indices": 0, "material": 0}]}], "scene": 0, "scenes": [{"name": "Scene", "nodes": [0]}]}