{"asset": {"generator": "Khronos glTF Blender I/O v1.5.17", "version": "2.0"}, "nodes": [{"mesh": 0, "name": "Mesh184_M_0130_Gainsboro_0"}], "buffers": [{"byteLength": 4528, "uri": "FlatCity504.bin"}], "bufferViews": [{"buffer": 0, "byteLength": 132, "byteOffset": 0}, {"buffer": 0, "byteLength": 588, "byteOffset": 144}, {"buffer": 0, "byteLength": 588, "byteOffset": 736}, {"buffer": 0, "byteLength": 392, "byteOffset": 1328}, {"buffer": 0, "byteLength": 392, "byteOffset": 1728}, {"buffer": 0, "byteLength": 392, "byteOffset": 2128}, {"buffer": 0, "byteLength": 392, "byteOffset": 2528}, {"buffer": 0, "byteLength": 392, "byteOffset": 2928}, {"buffer": 0, "byteLength": 392, "byteOffset": 3328}, {"buffer": 0, "byteLength": 392, "byteOffset": 3728}, {"buffer": 0, "byteLength": 392, "byteOffset": 4128}], "accessors": [{"bufferView": 0, "componentType": 5123, "count": 66, "type": "SCALAR", "byteOffset": 0}, {"bufferView": 1, "componentType": 5126, "count": 49, "max": [4.333169937133789, 3.174860954284668, -0.40529632568359375], "min": [0.5026397705078125, 3.0091147422790527, -4.2358245849609375], "type": "VEC3", "byteOffset": 0}, {"bufferView": 2, "componentType": 5126, "count": 49, "type": "VEC3", "byteOffset": 0}, {"bufferView": 3, "componentType": 5126, "count": 49, "type": "VEC2", "byteOffset": 0}, {"bufferView": 4, "componentType": 5126, "count": 49, "type": "VEC2", "byteOffset": 0}, {"bufferView": 5, "componentType": 5126, "count": 49, "type": "VEC2", "byteOffset": 0}, {"bufferView": 6, "componentType": 5126, "count": 49, "type": "VEC2", "byteOffset": 0}, {"bufferView": 7, "componentType": 5126, "count": 49, "type": "VEC2", "byteOffset": 0}, {"bufferView": 8, "componentType": 5126, "count": 49, "type": "VEC2", "byteOffset": 0}, {"bufferView": 9, "componentType": 5126, "count": 49, "type": "VEC2", "byteOffset": 0}, {"bufferView": 10, "componentType": 5126, "count": 49, "type": "VEC2", "byteOffset": 0}], "materials": [{"name": "M_0137_Black", "pbrMetallicRoughness": {"baseColorFactor": [0, 0, 0, 1], "metallicFactor": 0, "roughnessFactor": 0}}], "meshes": [{"primitives": [{"attributes": {"POSITION": 1, "NORMAL": 2, "TEXCOORD_0": 3, "TEXCOORD_1": 4, "TEXCOORD_2": 5, "TEXCOORD_3": 6, "TEXCOORD_4": 7, "TEXCOORD_5": 8, "TEXCOORD_6": 9, "TEXCOORD_7": 10}, "indices": 0, "material": 0}]}], "scene": 0, "scenes": [{"name": "Scene", "nodes": [0]}]}