{"asset": {"generator": "Khronos glTF Blender I/O v1.5.17", "version": "2.0"}, "nodes": [{"mesh": 0, "name": "Mesh102_M_0131_Silver_0"}], "buffers": [{"byteLength": 3984, "uri": "FlatCity286.bin"}], "bufferViews": [{"buffer": 0, "byteLength": 108, "byteOffset": 0}, {"buffer": 0, "byteLength": 528, "byteOffset": 112}, {"buffer": 0, "byteLength": 528, "byteOffset": 640}, {"buffer": 0, "byteLength": 352, "byteOffset": 1168}, {"buffer": 0, "byteLength": 352, "byteOffset": 1520}, {"buffer": 0, "byteLength": 352, "byteOffset": 1872}, {"buffer": 0, "byteLength": 352, "byteOffset": 2224}, {"buffer": 0, "byteLength": 352, "byteOffset": 2576}, {"buffer": 0, "byteLength": 352, "byteOffset": 2928}, {"buffer": 0, "byteLength": 352, "byteOffset": 3280}, {"buffer": 0, "byteLength": 352, "byteOffset": 3632}], "accessors": [{"bufferView": 0, "componentType": 5123, "count": 54, "type": "SCALAR", "byteOffset": 0}, {"bufferView": 1, "componentType": 5126, "count": 44, "max": [14.88608169555664, 1.3899518251419067, 1.8188934326171875], "min": [12.8687744140625, 0.0757555365562439, -5.6947479248046875], "type": "VEC3", "byteOffset": 0}, {"bufferView": 2, "componentType": 5126, "count": 44, "type": "VEC3", "byteOffset": 0}, {"bufferView": 3, "componentType": 5126, "count": 44, "type": "VEC2", "byteOffset": 0}, {"bufferView": 4, "componentType": 5126, "count": 44, "type": "VEC2", "byteOffset": 0}, {"bufferView": 5, "componentType": 5126, "count": 44, "type": "VEC2", "byteOffset": 0}, {"bufferView": 6, "componentType": 5126, "count": 44, "type": "VEC2", "byteOffset": 0}, {"bufferView": 7, "componentType": 5126, "count": 44, "type": "VEC2", "byteOffset": 0}, {"bufferView": 8, "componentType": 5126, "count": 44, "type": "VEC2", "byteOffset": 0}, {"bufferView": 9, "componentType": 5126, "count": 44, "type": "VEC2", "byteOffset": 0}, {"bufferView": 10, "componentType": 5126, "count": 44, "type": "VEC2", "byteOffset": 0}], "materials": [{"emissiveFactor": [1, 0.20742511749267578, 1], "name": "M_0127_Magenta", "pbrMetallicRoughness": {"baseColorFactor": [1, 0, 1, 1], "metallicFactor": 0, "roughnessFactor": 0.9302135109901428}}], "meshes": [{"primitives": [{"attributes": {"POSITION": 1, "NORMAL": 2, "TEXCOORD_0": 3, "TEXCOORD_1": 4, "TEXCOORD_2": 5, "TEXCOORD_3": 6, "TEXCOORD_4": 7, "TEXCOORD_5": 8, "TEXCOORD_6": 9, "TEXCOORD_7": 10}, "indices": 0, "material": 0}]}], "scene": 0, "scenes": [{"name": "Scene", "nodes": [0]}]}