{"asset": {"generator": "Khronos glTF Blender I/O v1.5.17", "version": "2.0"}, "nodes": [{"mesh": 0, "name": "Mesh19_M_0137_Black_0"}], "buffers": [{"byteLength": 12896, "uri": "FlatCity45.bin"}], "bufferViews": [{"buffer": 0, "byteLength": 402, "byteOffset": 0}, {"buffer": 0, "byteLength": 1692, "byteOffset": 416}, {"buffer": 0, "byteLength": 1692, "byteOffset": 2112}, {"buffer": 0, "byteLength": 1128, "byteOffset": 3808}, {"buffer": 0, "byteLength": 1128, "byteOffset": 4944}, {"buffer": 0, "byteLength": 1128, "byteOffset": 6080}, {"buffer": 0, "byteLength": 1128, "byteOffset": 7216}, {"buffer": 0, "byteLength": 1128, "byteOffset": 8352}, {"buffer": 0, "byteLength": 1128, "byteOffset": 9488}, {"buffer": 0, "byteLength": 1128, "byteOffset": 10624}, {"buffer": 0, "byteLength": 1128, "byteOffset": 11760}], "accessors": [{"bufferView": 0, "componentType": 5123, "count": 201, "type": "SCALAR", "byteOffset": 0}, {"bufferView": 1, "componentType": 5126, "count": 141, "max": [-6.936977386474609, 1.0901962518692017, 22.310749053955078], "min": [-14.75418472290039, 0.1594095230102539, 17.349029541015625], "type": "VEC3", "byteOffset": 0}, {"bufferView": 2, "componentType": 5126, "count": 141, "type": "VEC3", "byteOffset": 0}, {"bufferView": 3, "componentType": 5126, "count": 141, "type": "VEC2", "byteOffset": 0}, {"bufferView": 4, "componentType": 5126, "count": 141, "type": "VEC2", "byteOffset": 0}, {"bufferView": 5, "componentType": 5126, "count": 141, "type": "VEC2", "byteOffset": 0}, {"bufferView": 6, "componentType": 5126, "count": 141, "type": "VEC2", "byteOffset": 0}, {"bufferView": 7, "componentType": 5126, "count": 141, "type": "VEC2", "byteOffset": 0}, {"bufferView": 8, "componentType": 5126, "count": 141, "type": "VEC2", "byteOffset": 0}, {"bufferView": 9, "componentType": 5126, "count": 141, "type": "VEC2", "byteOffset": 0}, {"bufferView": 10, "componentType": 5126, "count": 141, "type": "VEC2", "byteOffset": 0}], "materials": [{"emissiveFactor": [1, 0.3421842157840729, 0.3421842157840729], "name": "M_0003_DeepPink", "pbrMetallicRoughness": {"baseColorFactor": [1, 0.0784313976764679, 0.5764709711074829, 1], "metallicFactor": 0, "roughnessFactor": 0.9302135109901428}}], "meshes": [{"primitives": [{"attributes": {"POSITION": 1, "NORMAL": 2, "TEXCOORD_0": 3, "TEXCOORD_1": 4, "TEXCOORD_2": 5, "TEXCOORD_3": 6, "TEXCOORD_4": 7, "TEXCOORD_5": 8, "TEXCOORD_6": 9, "TEXCOORD_7": 10}, "indices": 0, "material": 0}]}], "scene": 0, "scenes": [{"name": "Scene", "nodes": [0]}]}