{"asset": {"generator": "Khronos glTF Blender I/O v1.5.17", "version": "2.0"}, "nodes": [{"mesh": 0, "name": "Mesh43_M_0131_Silver_0"}], "buffers": [{"byteLength": 3808, "uri": "FlatCity112.bin"}], "bufferViews": [{"buffer": 0, "byteLength": 96, "byteOffset": 0}, {"buffer": 0, "byteLength": 504, "byteOffset": 96}, {"buffer": 0, "byteLength": 504, "byteOffset": 608}, {"buffer": 0, "byteLength": 336, "byteOffset": 1120}, {"buffer": 0, "byteLength": 336, "byteOffset": 1456}, {"buffer": 0, "byteLength": 336, "byteOffset": 1792}, {"buffer": 0, "byteLength": 336, "byteOffset": 2128}, {"buffer": 0, "byteLength": 336, "byteOffset": 2464}, {"buffer": 0, "byteLength": 336, "byteOffset": 2800}, {"buffer": 0, "byteLength": 336, "byteOffset": 3136}, {"buffer": 0, "byteLength": 336, "byteOffset": 3472}], "accessors": [{"bufferView": 0, "componentType": 5123, "count": 48, "type": "SCALAR", "byteOffset": 0}, {"bufferView": 1, "componentType": 5126, "count": 42, "max": [8.996423721313477, 0.6647936105728149, 3.7247276306152344], "min": [7.988473892211914, 0.5896586179733276, 2.7573013305664062], "type": "VEC3", "byteOffset": 0}, {"bufferView": 2, "componentType": 5126, "count": 42, "type": "VEC3", "byteOffset": 0}, {"bufferView": 3, "componentType": 5126, "count": 42, "type": "VEC2", "byteOffset": 0}, {"bufferView": 4, "componentType": 5126, "count": 42, "type": "VEC2", "byteOffset": 0}, {"bufferView": 5, "componentType": 5126, "count": 42, "type": "VEC2", "byteOffset": 0}, {"bufferView": 6, "componentType": 5126, "count": 42, "type": "VEC2", "byteOffset": 0}, {"bufferView": 7, "componentType": 5126, "count": 42, "type": "VEC2", "byteOffset": 0}, {"bufferView": 8, "componentType": 5126, "count": 42, "type": "VEC2", "byteOffset": 0}, {"bufferView": 9, "componentType": 5126, "count": 42, "type": "VEC2", "byteOffset": 0}, {"bufferView": 10, "componentType": 5126, "count": 42, "type": "VEC2", "byteOffset": 0}], "materials": [{"name": "M_0137_Black", "pbrMetallicRoughness": {"baseColorFactor": [0, 0, 0, 1], "metallicFactor": 0, "roughnessFactor": 0}}], "meshes": [{"primitives": [{"attributes": {"POSITION": 1, "NORMAL": 2, "TEXCOORD_0": 3, "TEXCOORD_1": 4, "TEXCOORD_2": 5, "TEXCOORD_3": 6, "TEXCOORD_4": 7, "TEXCOORD_5": 8, "TEXCOORD_6": 9, "TEXCOORD_7": 10}, "indices": 0, "material": 0}]}], "scene": 0, "scenes": [{"name": "Scene", "nodes": [0]}]}