{"asset": {"generator": "Khronos glTF Blender I/O v1.5.17", "version": "2.0"}, "nodes": [{"mesh": 0, "name": "Mesh228_M_0137_Black_0"}], "buffers": [{"byteLength": 4210768, "uri": "FlatCity606.bin"}], "bufferViews": [{"buffer": 0, "byteLength": 116304, "byteOffset": 0}, {"buffer": 0, "byteLength": 558336, "byteOffset": 116304}, {"buffer": 0, "byteLength": 558336, "byteOffset": 674640}, {"buffer": 0, "byteLength": 372224, "byteOffset": 1232976}, {"buffer": 0, "byteLength": 372224, "byteOffset": 1605200}, {"buffer": 0, "byteLength": 372224, "byteOffset": 1977424}, {"buffer": 0, "byteLength": 372224, "byteOffset": 2349648}, {"buffer": 0, "byteLength": 372224, "byteOffset": 2721872}, {"buffer": 0, "byteLength": 372224, "byteOffset": 3094096}, {"buffer": 0, "byteLength": 372224, "byteOffset": 3466320}, {"buffer": 0, "byteLength": 372224, "byteOffset": 3838544}], "accessors": [{"bufferView": 0, "componentType": 5123, "count": 58152, "type": "SCALAR", "byteOffset": 0}, {"bufferView": 1, "componentType": 5126, "count": 46528, "max": [5.066398620605469, 3.2583117485046387, -7.469051361083984], "min": [-4.933601379394531, -0.5328661203384399, -17.469058990478516], "type": "VEC3", "byteOffset": 0}, {"bufferView": 2, "componentType": 5126, "count": 46528, "type": "VEC3", "byteOffset": 0}, {"bufferView": 3, "componentType": 5126, "count": 46528, "type": "VEC2", "byteOffset": 0}, {"bufferView": 4, "componentType": 5126, "count": 46528, "type": "VEC2", "byteOffset": 0}, {"bufferView": 5, "componentType": 5126, "count": 46528, "type": "VEC2", "byteOffset": 0}, {"bufferView": 6, "componentType": 5126, "count": 46528, "type": "VEC2", "byteOffset": 0}, {"bufferView": 7, "componentType": 5126, "count": 46528, "type": "VEC2", "byteOffset": 0}, {"bufferView": 8, "componentType": 5126, "count": 46528, "type": "VEC2", "byteOffset": 0}, {"bufferView": 9, "componentType": 5126, "count": 46528, "type": "VEC2", "byteOffset": 0}, {"bufferView": 10, "componentType": 5126, "count": 46528, "type": "VEC2", "byteOffset": 0}], "materials": [{"name": "M_0130_Gainsboro", "pbrMetallicRoughness": {"baseColorFactor": [0.8627449870109558, 0.8627449870109558, 0.8627449870109558, 1], "metallicFactor": 0, "roughnessFactor": 0.9685046672821045}}], "meshes": [{"primitives": [{"attributes": {"POSITION": 1, "NORMAL": 2, "TEXCOORD_0": 3, "TEXCOORD_1": 4, "TEXCOORD_2": 5, "TEXCOORD_3": 6, "TEXCOORD_4": 7, "TEXCOORD_5": 8, "TEXCOORD_6": 9, "TEXCOORD_7": 10}, "indices": 0, "material": 0}]}], "scene": 0, "scenes": [{"name": "Scene", "nodes": [0]}]}