{"asset": {"generator": "Khronos glTF Blender I/O v1.5.17", "version": "2.0"}, "nodes": [{"mesh": 0, "name": "Mesh207_M_0136_Charcoal_0"}], "buffers": [{"byteLength": 58224, "uri": "FlatCity564.bin"}], "bufferViews": [{"buffer": 0, "byteLength": 1740, "byteOffset": 0}, {"buffer": 0, "byteLength": 7692, "byteOffset": 1744}, {"buffer": 0, "byteLength": 7692, "byteOffset": 9440}, {"buffer": 0, "byteLength": 5128, "byteOffset": 17136}, {"buffer": 0, "byteLength": 5128, "byteOffset": 22272}, {"buffer": 0, "byteLength": 5128, "byteOffset": 27408}, {"buffer": 0, "byteLength": 5128, "byteOffset": 32544}, {"buffer": 0, "byteLength": 5128, "byteOffset": 37680}, {"buffer": 0, "byteLength": 5128, "byteOffset": 42816}, {"buffer": 0, "byteLength": 5128, "byteOffset": 47952}, {"buffer": 0, "byteLength": 5128, "byteOffset": 53088}], "accessors": [{"bufferView": 0, "componentType": 5123, "count": 870, "type": "SCALAR", "byteOffset": 0}, {"bufferView": 1, "componentType": 5126, "count": 641, "max": [14.976690292358398, -0.10982504487037659, -7.5587615966796875], "min": [5.245813369750977, -0.10982504487037659, -17.289642333984375], "type": "VEC3", "byteOffset": 0}, {"bufferView": 2, "componentType": 5126, "count": 641, "type": "VEC3", "byteOffset": 0}, {"bufferView": 3, "componentType": 5126, "count": 641, "type": "VEC2", "byteOffset": 0}, {"bufferView": 4, "componentType": 5126, "count": 641, "type": "VEC2", "byteOffset": 0}, {"bufferView": 5, "componentType": 5126, "count": 641, "type": "VEC2", "byteOffset": 0}, {"bufferView": 6, "componentType": 5126, "count": 641, "type": "VEC2", "byteOffset": 0}, {"bufferView": 7, "componentType": 5126, "count": 641, "type": "VEC2", "byteOffset": 0}, {"bufferView": 8, "componentType": 5126, "count": 641, "type": "VEC2", "byteOffset": 0}, {"bufferView": 9, "componentType": 5126, "count": 641, "type": "VEC2", "byteOffset": 0}, {"bufferView": 10, "componentType": 5126, "count": 641, "type": "VEC2", "byteOffset": 0}], "materials": [{"name": "M_0069_LimeGreen", "pbrMetallicRoughness": {"baseColorFactor": [0.19607800245285034, 0.8039219975471497, 0.19607800245285034, 1], "metallicFactor": 0, "roughnessFactor": 0.9302135109901428}}], "meshes": [{"primitives": [{"attributes": {"POSITION": 1, "NORMAL": 2, "TEXCOORD_0": 3, "TEXCOORD_1": 4, "TEXCOORD_2": 5, "TEXCOORD_3": 6, "TEXCOORD_4": 7, "TEXCOORD_5": 8, "TEXCOORD_6": 9, "TEXCOORD_7": 10}, "indices": 0, "material": 0}]}], "scene": 0, "scenes": [{"name": "Scene", "nodes": [0]}]}