{"asset": {"generator": "Khronos glTF Blender I/O v1.5.17", "version": "2.0"}, "nodes": [{"mesh": 0, "name": "Mesh36_FrontColor_0"}], "buffers": [{"byteLength": 188288, "uri": "FlatCity93.bin"}], "bufferViews": [{"buffer": 0, "byteLength": 5082, "byteOffset": 0}, {"buffer": 0, "byteLength": 24972, "byteOffset": 5088}, {"buffer": 0, "byteLength": 24972, "byteOffset": 30064}, {"buffer": 0, "byteLength": 16648, "byteOffset": 55040}, {"buffer": 0, "byteLength": 16648, "byteOffset": 71696}, {"buffer": 0, "byteLength": 16648, "byteOffset": 88352}, {"buffer": 0, "byteLength": 16648, "byteOffset": 105008}, {"buffer": 0, "byteLength": 16648, "byteOffset": 121664}, {"buffer": 0, "byteLength": 16648, "byteOffset": 138320}, {"buffer": 0, "byteLength": 16648, "byteOffset": 154976}, {"buffer": 0, "byteLength": 16648, "byteOffset": 171632}], "accessors": [{"bufferView": 0, "componentType": 5123, "count": 2541, "type": "SCALAR", "byteOffset": 0}, {"bufferView": 1, "componentType": 5126, "count": 2081, "max": [14.50735855102539, 2.421888828277588, 12.308914184570312], "min": [5.347202301025391, -0.12167003750801086, 2.727569580078125], "type": "VEC3", "byteOffset": 0}, {"bufferView": 2, "componentType": 5126, "count": 2081, "type": "VEC3", "byteOffset": 0}, {"bufferView": 3, "componentType": 5126, "count": 2081, "type": "VEC2", "byteOffset": 0}, {"bufferView": 4, "componentType": 5126, "count": 2081, "type": "VEC2", "byteOffset": 0}, {"bufferView": 5, "componentType": 5126, "count": 2081, "type": "VEC2", "byteOffset": 0}, {"bufferView": 6, "componentType": 5126, "count": 2081, "type": "VEC2", "byteOffset": 0}, {"bufferView": 7, "componentType": 5126, "count": 2081, "type": "VEC2", "byteOffset": 0}, {"bufferView": 8, "componentType": 5126, "count": 2081, "type": "VEC2", "byteOffset": 0}, {"bufferView": 9, "componentType": 5126, "count": 2081, "type": "VEC2", "byteOffset": 0}, {"bufferView": 10, "componentType": 5126, "count": 2081, "type": "VEC2", "byteOffset": 0}], "materials": [{"name": "M_0137_Black", "pbrMetallicRoughness": {"baseColorFactor": [0, 0, 0, 1], "metallicFactor": 0, "roughnessFactor": 0}}], "meshes": [{"primitives": [{"attributes": {"POSITION": 1, "NORMAL": 2, "TEXCOORD_0": 3, "TEXCOORD_1": 4, "TEXCOORD_2": 5, "TEXCOORD_3": 6, "TEXCOORD_4": 7, "TEXCOORD_5": 8, "TEXCOORD_6": 9, "TEXCOORD_7": 10}, "indices": 0, "material": 0}]}], "scene": 0, "scenes": [{"name": "Scene", "nodes": [0]}]}