{"extensionsRequired": ["KHR_materials_pbrSpecularGlossiness"], "extensionsUsed": ["KHR_materials_pbrSpecularGlossiness"], "asset": {"generator": "Sketchfab (OSG glTF plugin)", "version": "2.0"}, "nodes": [{"mesh": 0, "name": ""}], "buffers": [{"byteLength": 739216, "uri": "FutureHouse5.bin"}], "bufferViews": [{"buffer": 0, "byteLength": 260280, "byteOffset": 0}, {"buffer": 0, "byteLength": 143676, "byteOffset": 260288}, {"buffer": 0, "byteLength": 143676, "byteOffset": 403968}, {"buffer": 0, "byteLength": 191568, "byteOffset": 547648}], "accessors": [{"bufferView": 0, "byteOffset": 0, "componentType": 5125, "count": 65070, "max": [11972], "min": [0], "type": "SCALAR"}, {"bufferView": 1, "byteOffset": 0, "componentType": 5126, "count": 11973, "max": [0.999997615814209, 0.9999990463256836, 1], "min": [-1, -0.999993622303009, -1], "type": "VEC3"}, {"bufferView": 2, "byteOffset": 0, "componentType": 5126, "count": 11973, "max": [-0.01479789987206459, 0.601127028465271, 0.5038620233535767], "min": [-0.9292230010032654, -2.0089099407196045, 0.013624699786305428], "type": "VEC3"}, {"bufferView": 3, "byteOffset": 0, "componentType": 5126, "count": 11973, "max": [0.9999984502792358, 1, 1, 1], "min": [-0.9999974370002747, -1, -0.9985838532447815, -1], "type": "VEC4"}], "samplers": [{"magFilter": 9729, "minFilter": 9987, "wrapS": 10497, "wrapT": 10497}], "materials": [{"doubleSided": true, "emissiveFactor": [0, 0, 0], "extensions": {"KHR_materials_pbrSpecularGlossiness": {"diffuseFactor": [1, 1, 1, 1], "glossinessFactor": 1, "specularFactor": [0, 0, 0]}}, "name": "White Ceramic #2"}], "meshes": [{"primitives": [{"attributes": {"NORMAL": 1, "POSITION": 2, "TANGENT": 3}, "indices": 0, "material": 0, "mode": 4}]}], "scene": 0, "scenes": [{"name": "OSG_Scene", "nodes": [0]}]}