{"extensionsRequired": ["KHR_materials_pbrSpecularGlossiness"], "extensionsUsed": ["KHR_materials_pbrSpecularGlossiness"], "asset": {"generator": "Sketchfab (OSG glTF plugin)", "version": "2.0"}, "nodes": [{"mesh": 0, "name": ""}], "buffers": [{"byteLength": 66384, "uri": "FutureHouse19.bin"}], "bufferViews": [{"buffer": 0, "byteLength": 21120, "byteOffset": 0}, {"buffer": 0, "byteLength": 13572, "byteOffset": 21120}, {"buffer": 0, "byteLength": 13572, "byteOffset": 34704}, {"buffer": 0, "byteLength": 18096, "byteOffset": 48288}], "accessors": [{"bufferView": 0, "byteOffset": 0, "componentType": 5125, "count": 5280, "max": [1130], "min": [0], "type": "SCALAR"}, {"bufferView": 1, "byteOffset": 0, "componentType": 5126, "count": 1131, "max": [1, 1, 1], "min": [-1, -1, -1], "type": "VEC3"}, {"bufferView": 2, "byteOffset": 0, "componentType": 5126, "count": 1131, "max": [1.0082600116729736, 1.4314700365066528, 0.3993769884109497], "min": [0.046011701226234436, 0.720229983329773, 0.026664599776268005], "type": "VEC3"}, {"bufferView": 3, "byteOffset": 0, "componentType": 5126, "count": 1131, "max": [1, 1, 1, 1], "min": [-1, -1, -1, -1], "type": "VEC4"}], "samplers": [{"magFilter": 9729, "minFilter": 9987, "wrapS": 10497, "wrapT": 10497}], "materials": [{"doubleSided": true, "emissiveFactor": [0, 0, 0], "extensions": {"KHR_materials_pbrSpecularGlossiness": {"diffuseFactor": [0.968627, 0.968627, 0.968627, 1], "glossinessFactor": 0.59, "specularFactor": [0, 0, 0]}}, "name": "Porcelain #2"}], "meshes": [{"primitives": [{"attributes": {"NORMAL": 1, "POSITION": 2, "TANGENT": 3}, "indices": 0, "material": 0, "mode": 4}]}], "scene": 0, "scenes": [{"name": "OSG_Scene", "nodes": [0]}]}