{"extensionsRequired": ["KHR_materials_pbrSpecularGlossiness"], "extensionsUsed": ["KHR_materials_pbrSpecularGlossiness"], "asset": {"generator": "Sketchfab (OSG glTF plugin)", "version": "2.0"}, "nodes": [{"mesh": 0, "name": ""}], "buffers": [{"byteLength": 95904, "uri": "FutureHouse3.bin"}], "bufferViews": [{"buffer": 0, "byteLength": 25344, "byteOffset": 0}, {"buffer": 0, "byteLength": 21168, "byteOffset": 25344}, {"buffer": 0, "byteLength": 21168, "byteOffset": 46512}, {"buffer": 0, "byteLength": 28224, "byteOffset": 67680}], "accessors": [{"bufferView": 0, "byteOffset": 0, "componentType": 5125, "count": 6336, "max": [1763], "min": [0], "type": "SCALAR"}, {"bufferView": 1, "byteOffset": 0, "componentType": 5126, "count": 1764, "max": [0.9999681115150452, 0.9980967044830322, 1], "min": [-0.9988333582878113, -0.9999679923057556, -0.9999999403953552], "type": "VEC3"}, {"bufferView": 2, "byteOffset": 0, "componentType": 5126, "count": 1764, "max": [1.4692800045013428, -0.25873300433158875, 0.45873400568962097], "min": [-0.70620197057724, -1.5777699947357178, 0.41987699270248413], "type": "VEC3"}, {"bufferView": 3, "byteOffset": 0, "componentType": 5126, "count": 1764, "max": [0.9981187582015991, 0.9988481998443604, 1, 1], "min": [-0.9981631636619568, -0.9964186549186707, -0.999364972114563, -1], "type": "VEC4"}], "samplers": [{"magFilter": 9729, "minFilter": 9987, "wrapS": 10497, "wrapT": 10497}], "materials": [{"doubleSided": true, "emissiveFactor": [0, 0, 0], "extensions": {"KHR_materials_pbrSpecularGlossiness": {"diffuseFactor": [0.5190816594, 0.5190816594, 0.5190816594, 1], "glossinessFactor": 0.8, "specularFactor": [1, 1, 1]}}, "name": "Steel #1"}], "meshes": [{"primitives": [{"attributes": {"NORMAL": 1, "POSITION": 2, "TANGENT": 3}, "indices": 0, "material": 0, "mode": 4}]}], "scene": 0, "scenes": [{"name": "OSG_Scene", "nodes": [0]}]}