{"extensionsRequired": ["KHR_materials_pbrSpecularGlossiness"], "extensionsUsed": ["KHR_materials_pbrSpecularGlossiness"], "asset": {"generator": "Sketchfab (OSG glTF plugin)", "version": "2.0"}, "nodes": [{"mesh": 0, "name": ""}], "buffers": [{"byteLength": 61088, "uri": "FutureHouse26.bin"}], "bufferViews": [{"buffer": 0, "byteLength": 18588, "byteOffset": 0}, {"buffer": 0, "byteLength": 12744, "byteOffset": 18592}, {"buffer": 0, "byteLength": 12744, "byteOffset": 31344}, {"buffer": 0, "byteLength": 16992, "byteOffset": 44096}], "accessors": [{"bufferView": 0, "byteOffset": 0, "componentType": 5125, "count": 4647, "max": [1061], "min": [0], "type": "SCALAR"}, {"bufferView": 1, "byteOffset": 0, "componentType": 5126, "count": 1062, "max": [0.9963041543960571, 0.9453321695327759, 1], "min": [-1, -0.9453336000442505, -1], "type": "VEC3"}, {"bufferView": 2, "byteOffset": 0, "componentType": 5126, "count": 1062, "max": [1.4588799476623535, 2.7684199810028076, 0.34686100482940674], "min": [0.41322100162506104, 1.8101600408554077, 0.013624699786305428], "type": "VEC3"}, {"bufferView": 3, "byteOffset": 0, "componentType": 5126, "count": 1062, "max": [1, 1, 1, 1], "min": [-0.9476370811462402, -1, -1, -1], "type": "VEC4"}], "samplers": [{"magFilter": 9729, "minFilter": 9987, "wrapS": 10497, "wrapT": 10497}], "materials": [{"doubleSided": true, "emissiveFactor": [0, 0, 0], "extensions": {"KHR_materials_pbrSpecularGlossiness": {"diffuseFactor": [0.968627, 0.968627, 0.968627, 1], "glossinessFactor": 0.77, "specularFactor": [0, 0, 0]}}, "name": "Porcelain #1"}], "meshes": [{"primitives": [{"attributes": {"NORMAL": 1, "POSITION": 2, "TANGENT": 3}, "indices": 0, "material": 0, "mode": 4}]}], "scene": 0, "scenes": [{"name": "OSG_Scene", "nodes": [0]}]}