{"extensionsRequired": ["KHR_materials_pbrSpecularGlossiness"], "extensionsUsed": ["KHR_materials_pbrSpecularGlossiness"], "asset": {"generator": "Sketchfab (OSG glTF plugin)", "version": "2.0"}, "nodes": [{"mesh": 0, "name": ""}], "buffers": [{"byteLength": 30240, "uri": "FutureHouse21.bin"}], "bufferViews": [{"buffer": 0, "byteLength": 8496, "byteOffset": 0}, {"buffer": 0, "byteLength": 6516, "byteOffset": 8496}, {"buffer": 0, "byteLength": 6516, "byteOffset": 15024}, {"buffer": 0, "byteLength": 8688, "byteOffset": 21552}], "accessors": [{"bufferView": 0, "byteOffset": 0, "componentType": 5125, "count": 2124, "max": [542], "min": [0], "type": "SCALAR"}, {"bufferView": 1, "byteOffset": 0, "componentType": 5126, "count": 543, "max": [0.9883201122283936, 0.9885566830635071, 1], "min": [-0.988454282283783, -0.9887009859085083, -0.9999998211860657], "type": "VEC3"}, {"bufferView": 2, "byteOffset": 0, "componentType": 5126, "count": 543, "max": [-1.4069299697875977, 0.6712129712104797, 0.6684929728507996], "min": [-1.527519941329956, 0.3072409927845001, 0.4501200020313263], "type": "VEC3"}, {"bufferView": 3, "byteOffset": 0, "componentType": 5126, "count": 543, "max": [0.6460605263710022, 0.1000906303524971, 0.9958776235580444, 1], "min": [-0.9885974526405334, -0.9897906184196472, -1, -1], "type": "VEC4"}], "samplers": [{"magFilter": 9729, "minFilter": 9987, "wrapS": 10497, "wrapT": 10497}], "materials": [{"doubleSided": true, "emissiveFactor": [0, 0, 0], "extensions": {"KHR_materials_pbrSpecularGlossiness": {"diffuseFactor": [1, 1, 1, 1], "glossinessFactor": 0, "specularFactor": [0, 0, 0]}}, "name": "White Ceramic #1"}], "meshes": [{"primitives": [{"attributes": {"NORMAL": 1, "POSITION": 2, "TANGENT": 3}, "indices": 0, "material": 0, "mode": 4}]}], "scene": 0, "scenes": [{"name": "OSG_Scene", "nodes": [0]}]}