{"extensionsRequired": ["KHR_materials_pbrSpecularGlossiness"], "extensionsUsed": ["KHR_materials_pbrSpecularGlossiness"], "asset": {"generator": "Sketchfab (OSG glTF plugin)", "version": "2.0"}, "nodes": [{"mesh": 0, "name": ""}], "buffers": [{"byteLength": 5296, "uri": "FutureHouse8.bin"}], "bufferViews": [{"buffer": 0, "byteLength": 1200, "byteOffset": 0}, {"buffer": 0, "byteLength": 1224, "byteOffset": 1200}, {"buffer": 0, "byteLength": 1224, "byteOffset": 2432}, {"buffer": 0, "byteLength": 1632, "byteOffset": 3664}], "accessors": [{"bufferView": 0, "byteOffset": 0, "componentType": 5125, "count": 300, "max": [101], "min": [0], "type": "SCALAR"}, {"bufferView": 1, "byteOffset": 0, "componentType": 5126, "count": 102, "max": [0, 0, 1], "min": [0, 0, 0.9999999403953552], "type": "VEC3"}, {"bufferView": 2, "byteOffset": 0, "componentType": 5126, "count": 102, "max": [1.6098500490188599, 2.9999899864196777, 0.013624699786305428], "min": [-1.6168700456619263, -2.9701199531555176, 0.013624699786305428], "type": "VEC3"}, {"bufferView": 3, "byteOffset": 0, "componentType": 5126, "count": 102, "max": [1, 0.0014315181178972125, 0, -1], "min": [0.9999990463256836, -0.0006290446617640555, 0, -1], "type": "VEC4"}], "samplers": [{"magFilter": 9729, "minFilter": 9987, "wrapS": 10497, "wrapT": 10497}], "materials": [{"doubleSided": true, "emissiveFactor": [0, 0, 0], "extensions": {"KHR_materials_pbrSpecularGlossiness": {"diffuseFactor": [0.282826, 0.282826, 0.282826, 1], "glossinessFactor": 0.8, "specularFactor": [0, 0, 0]}}, "name": "Hard Rough Plastic Grey #53"}], "meshes": [{"primitives": [{"attributes": {"NORMAL": 1, "POSITION": 2, "TANGENT": 3}, "indices": 0, "material": 0, "mode": 4}]}], "scene": 0, "scenes": [{"name": "OSG_Scene", "nodes": [0]}]}