{"extensionsRequired": ["KHR_materials_pbrSpecularGlossiness"], "extensionsUsed": ["KHR_materials_pbrSpecularGlossiness"], "asset": {"generator": "Sketchfab (OSG glTF plugin)", "version": "2.0"}, "nodes": [{"mesh": 0, "name": ""}], "buffers": [{"byteLength": 3582320, "uri": "FutureHouse11.bin"}], "bufferViews": [{"buffer": 0, "byteLength": 1038540, "byteOffset": 0}, {"buffer": 0, "byteLength": 763128, "byteOffset": 1038544}, {"buffer": 0, "byteLength": 763128, "byteOffset": 1801680}, {"buffer": 0, "byteLength": 1017504, "byteOffset": 2564816}], "accessors": [{"bufferView": 0, "byteOffset": 0, "componentType": 5125, "count": 259635, "max": [63593], "min": [0], "type": "SCALAR"}, {"bufferView": 1, "byteOffset": 0, "componentType": 5126, "count": 63594, "max": [1, 1, 1], "min": [-1, -1, -1], "type": "VEC3"}, {"bufferView": 2, "byteOffset": 0, "componentType": 5126, "count": 63594, "max": [1.6071100234985352, 2.9159200191497803, 1.3641400337219238], "min": [-1.6090600490570068, -2.9305999279022217, 0.010765199549496174], "type": "VEC3"}, {"bufferView": 3, "byteOffset": 0, "componentType": 5126, "count": 63594, "max": [1, 1, 1, 1], "min": [-1, -1, -1, -1], "type": "VEC4"}], "samplers": [{"magFilter": 9729, "minFilter": 9987, "wrapS": 10497, "wrapT": 10497}], "materials": [{"alphaCutoff": 0.5, "alphaMode": "BLEND", "doubleSided": true, "emissiveFactor": [0, 0, 0], "extensions": {"KHR_materials_pbrSpecularGlossiness": {"diffuseFactor": [0, 0, 0, 0.38], "glossinessFactor": 0.94, "specularFactor": [0.78, 0.78, 0.78]}}, "name": "Glass Refractive White"}], "meshes": [{"primitives": [{"attributes": {"NORMAL": 1, "POSITION": 2, "TANGENT": 3}, "indices": 0, "material": 0, "mode": 4}]}], "scene": 0, "scenes": [{"name": "OSG_Scene", "nodes": [0]}]}