{"extensionsRequired": ["KHR_materials_pbrSpecularGlossiness"], "extensionsUsed": ["KHR_materials_pbrSpecularGlossiness"], "asset": {"generator": "Sketchfab (OSG glTF plugin)", "version": "2.0"}, "nodes": [{"mesh": 0, "name": ""}], "buffers": [{"byteLength": 129152, "uri": "FutureHouse12.bin"}], "bufferViews": [{"buffer": 0, "byteLength": 40896, "byteOffset": 0}, {"buffer": 0, "byteLength": 26472, "byteOffset": 40896}, {"buffer": 0, "byteLength": 26472, "byteOffset": 67376}, {"buffer": 0, "byteLength": 35296, "byteOffset": 93856}], "accessors": [{"bufferView": 0, "byteOffset": 0, "componentType": 5125, "count": 10224, "max": [2205], "min": [0], "type": "SCALAR"}, {"bufferView": 1, "byteOffset": 0, "componentType": 5126, "count": 2206, "max": [0.9999434351921082, 1, 1], "min": [-1, -1, -1], "type": "VEC3"}, {"bufferView": 2, "byteOffset": 0, "componentType": 5126, "count": 2206, "max": [0.401993989944458, 0.25611698627471924, 2.5067598819732666], "min": [-0.4042559862136841, -0.5495030283927917, 0.013624699786305428], "type": "VEC3"}, {"bufferView": 3, "byteOffset": 0, "componentType": 5126, "count": 2206, "max": [1, 0.9999434351921082, 0.9966863393783569, 1], "min": [-1, -1, -0.5150219202041626, -1], "type": "VEC4"}], "samplers": [{"magFilter": 9729, "minFilter": 9987, "wrapS": 10497, "wrapT": 10497}], "materials": [{"doubleSided": true, "emissiveFactor": [0, 0, 0], "extensions": {"KHR_materials_pbrSpecularGlossiness": {"diffuseFactor": [1, 1, 1, 1], "glossinessFactor": 0.8, "specularFactor": [0, 0, 0]}}, "name": "Hard Shiny Plastic White"}], "meshes": [{"primitives": [{"attributes": {"NORMAL": 1, "POSITION": 2, "TANGENT": 3}, "indices": 0, "material": 0, "mode": 4}]}], "scene": 0, "scenes": [{"name": "OSG_Scene", "nodes": [0]}]}