{"extensionsRequired": ["KHR_materials_pbrSpecularGlossiness"], "extensionsUsed": ["KHR_materials_pbrSpecularGlossiness"], "asset": {"generator": "Sketchfab (OSG glTF plugin)", "version": "2.0"}, "nodes": [{"mesh": 0, "name": ""}], "buffers": [{"byteLength": 1024048, "uri": "FutureHouse0.bin"}], "bufferViews": [{"buffer": 0, "byteLength": 278208, "byteOffset": 0}, {"buffer": 0, "byteLength": 186456, "byteOffset": 278208}, {"buffer": 0, "byteLength": 186456, "byteOffset": 464672}, {"buffer": 0, "byteLength": 248608, "byteOffset": 651136}, {"buffer": 0, "byteLength": 124304, "byteOffset": 899744}], "accessors": [{"bufferView": 0, "byteOffset": 0, "componentType": 5125, "count": 69552, "max": [15537], "min": [0], "type": "SCALAR"}, {"bufferView": 1, "byteOffset": 0, "componentType": 5126, "count": 15538, "max": [0.9999333620071411, 0.9999649524688721, 1], "min": [-0.9992310404777527, -0.9999902844429016, -1], "type": "VEC3"}, {"bufferView": 2, "byteOffset": 0, "componentType": 5126, "count": 15538, "max": [1.4041800498962402, -1.4749900102615356, 0.45190998911857605], "min": [0.08079220354557037, -2.4351000785827637, 0.04526679962873459], "type": "VEC3"}, {"bufferView": 3, "byteOffset": 0, "componentType": 5126, "count": 15538, "max": [0.9999994039535522, 0.9999753832817078, 0.9999999403953552, 1], "min": [-0.9999991655349731, -0.9999996423721313, -0.9998190402984619, -1], "type": "VEC4"}, {"bufferView": 4, "byteOffset": 0, "componentType": 5126, "count": 15538, "max": [0.9985349774360657, 0.9943339824676514], "min": [0, 0], "type": "VEC2"}], "samplers": [{"magFilter": 9729, "minFilter": 9987, "wrapS": 10497, "wrapT": 10497}], "images": [{"uri": "textures/Hard_Rough_Plastic_White_diffuse.jpg"}], "textures": [{"sampler": 0, "source": 0}], "materials": [{"doubleSided": true, "emissiveFactor": [0, 0, 0], "extensions": {"KHR_materials_pbrSpecularGlossiness": {"diffuseFactor": [0.96, 0.96, 0.96, 1], "diffuseTexture": {"index": 0, "texCoord": 0}, "glossinessFactor": 0.07999999999999996, "specularFactor": [0, 0, 0]}}, "name": "Hard Rough Plastic White"}], "meshes": [{"primitives": [{"attributes": {"NORMAL": 1, "POSITION": 2, "TANGENT": 3, "TEXCOORD_0": 4}, "indices": 0, "material": 0, "mode": 4}]}], "scene": 0, "scenes": [{"name": "OSG_Scene", "nodes": [0]}]}