{"extensionsRequired": ["KHR_materials_pbrSpecularGlossiness"], "extensionsUsed": ["KHR_materials_pbrSpecularGlossiness"], "asset": {"generator": "Sketchfab (OSG glTF plugin)", "version": "2.0"}, "nodes": [{"mesh": 0, "name": ""}], "buffers": [{"byteLength": 3026848, "uri": "FutureHouse10.bin"}], "bufferViews": [{"buffer": 0, "byteLength": 868260, "byteOffset": 0}, {"buffer": 0, "byteLength": 539640, "byteOffset": 868272}, {"buffer": 0, "byteLength": 539640, "byteOffset": 1407920}, {"buffer": 0, "byteLength": 719520, "byteOffset": 1947568}, {"buffer": 0, "byteLength": 359760, "byteOffset": 2667088}], "accessors": [{"bufferView": 0, "byteOffset": 0, "componentType": 5125, "count": 217065, "max": [44969], "min": [0], "type": "SCALAR"}, {"bufferView": 1, "byteOffset": 0, "componentType": 5126, "count": 44970, "max": [1, 0.9999642968177795, 1], "min": [-0.9999999403953552, -0.999997615814209, -1], "type": "VEC3"}, {"bufferView": 2, "byteOffset": 0, "componentType": 5126, "count": 44970, "max": [1.6174399852752686, 2.9400599002838135, 1.3964600563049316], "min": [-1.6174399852752686, -3, 0.0102225998416543], "type": "VEC3"}, {"bufferView": 3, "byteOffset": 0, "componentType": 5126, "count": 44970, "max": [1, 1, 0.9999902844429016, 1], "min": [-1, -1, -1, -1], "type": "VEC4"}, {"bufferView": 4, "byteOffset": 0, "componentType": 5126, "count": 44970, "max": [1, 1], "min": [0, 0], "type": "VEC2"}], "samplers": [{"magFilter": 9729, "minFilter": 9987, "wrapS": 10497, "wrapT": 10497}], "images": [{"uri": "textures/Hard_Rough_Plastic_Grey_diffuse.jpg"}], "textures": [{"sampler": 0, "source": 0}], "materials": [{"doubleSided": true, "emissiveFactor": [0, 0, 0], "extensions": {"KHR_materials_pbrSpecularGlossiness": {"diffuseFactor": [1, 1, 1, 1], "diffuseTexture": {"index": 0, "texCoord": 0}, "glossinessFactor": 0, "specularFactor": [0, 0, 0]}}, "name": "Hard Rough Plastic Grey"}], "meshes": [{"primitives": [{"attributes": {"NORMAL": 1, "POSITION": 2, "TANGENT": 3, "TEXCOORD_0": 4}, "indices": 0, "material": 0, "mode": 4}]}], "scene": 0, "scenes": [{"name": "OSG_Scene", "nodes": [0]}]}