{"extensionsRequired": ["KHR_materials_pbrSpecularGlossiness"], "extensionsUsed": ["KHR_materials_pbrSpecularGlossiness"], "asset": {"generator": "Sketchfab (OSG glTF plugin)", "version": "2.0"}, "nodes": [{"mesh": 0, "name": ""}], "buffers": [{"byteLength": 2663200, "uri": "FutureHouse9.bin"}], "bufferViews": [{"buffer": 0, "byteLength": 712008, "byteOffset": 0}, {"buffer": 0, "byteLength": 585348, "byteOffset": 712016}, {"buffer": 0, "byteLength": 585348, "byteOffset": 1297376}, {"buffer": 0, "byteLength": 780464, "byteOffset": 1882736}], "accessors": [{"bufferView": 0, "byteOffset": 0, "componentType": 5125, "count": 178002, "max": [48778], "min": [0], "type": "SCALAR"}, {"bufferView": 1, "byteOffset": 0, "componentType": 5126, "count": 48779, "max": [1, 1, 1], "min": [-1, -1, -1], "type": "VEC3"}, {"bufferView": 2, "byteOffset": 0, "componentType": 5126, "count": 48779, "max": [1.5360300540924072, 2.7471799850463867, 1.3952699899673462], "min": [-1.4892200231552124, -2.8739500045776367, 0.013558000326156616], "type": "VEC3"}, {"bufferView": 3, "byteOffset": 0, "componentType": 5126, "count": 48779, "max": [1, 1, 1, 1], "min": [-1, -1, -1, -1], "type": "VEC4"}], "samplers": [{"magFilter": 9729, "minFilter": 9987, "wrapS": 10497, "wrapT": 10497}], "materials": [{"doubleSided": true, "emissiveFactor": [0, 0, 0], "extensions": {"KHR_materials_pbrSpecularGlossiness": {"diffuseFactor": [1, 1, 1, 1], "glossinessFactor": 0.8, "specularFactor": [0, 0, 0]}}, "name": "Paint Matte White"}], "meshes": [{"primitives": [{"attributes": {"NORMAL": 1, "POSITION": 2, "TANGENT": 3}, "indices": 0, "material": 0, "mode": 4}]}], "scene": 0, "scenes": [{"name": "OSG_Scene", "nodes": [0]}]}