{"extensionsRequired": ["KHR_materials_pbrSpecularGlossiness"], "extensionsUsed": ["KHR_materials_pbrSpecularGlossiness"], "asset": {"generator": "Sketchfab (OSG glTF plugin)", "version": "2.0"}, "nodes": [{"mesh": 0, "name": ""}], "buffers": [{"byteLength": 103904, "uri": "FutureHouse24.bin"}], "bufferViews": [{"buffer": 0, "byteLength": 29196, "byteOffset": 0}, {"buffer": 0, "byteLength": 22404, "byteOffset": 29200}, {"buffer": 0, "byteLength": 22404, "byteOffset": 51616}, {"buffer": 0, "byteLength": 29872, "byteOffset": 74032}], "accessors": [{"bufferView": 0, "byteOffset": 0, "componentType": 5125, "count": 7299, "max": [1866], "min": [0], "type": "SCALAR"}, {"bufferView": 1, "byteOffset": 0, "componentType": 5126, "count": 1867, "max": [0.9999760389328003, 1, 1], "min": [-0.9998652338981628, -0.99992835521698, -1], "type": "VEC3"}, {"bufferView": 2, "byteOffset": 0, "componentType": 5126, "count": 1867, "max": [-1.117110013961792, 1.5977699756622314, 0.3508659899234772], "min": [-1.5496000051498413, 0.203916996717453, 0.12918800115585327], "type": "VEC3"}, {"bufferView": 3, "byteOffset": 0, "componentType": 5126, "count": 1867, "max": [0.9999325275421143, 0.9999661445617676, 1, 1], "min": [-0.9999337792396545, -0.9999692440032959, -1, -1], "type": "VEC4"}], "samplers": [{"magFilter": 9729, "minFilter": 9987, "wrapS": 10497, "wrapT": 10497}], "materials": [{"doubleSided": true, "emissiveFactor": [0, 0, 0], "extensions": {"KHR_materials_pbrSpecularGlossiness": {"diffuseFactor": [1, 1, 1, 1], "glossinessFactor": 1, "specularFactor": [0, 0, 0]}}, "name": "White Ceramic"}], "meshes": [{"primitives": [{"attributes": {"NORMAL": 1, "POSITION": 2, "TANGENT": 3}, "indices": 0, "material": 0, "mode": 4}]}], "scene": 0, "scenes": [{"name": "OSG_Scene", "nodes": [0]}]}