{"extensionsRequired": ["KHR_materials_pbrSpecularGlossiness"], "extensionsUsed": ["KHR_materials_pbrSpecularGlossiness"], "asset": {"generator": "Sketchfab (OSG glTF plugin)", "version": "2.0"}, "nodes": [{"mesh": 0, "name": ""}], "buffers": [{"byteLength": 134240, "uri": "FutureHouse15.bin"}], "bufferViews": [{"buffer": 0, "byteLength": 33048, "byteOffset": 0}, {"buffer": 0, "byteLength": 25296, "byteOffset": 33056}, {"buffer": 0, "byteLength": 25296, "byteOffset": 58352}, {"buffer": 0, "byteLength": 33728, "byteOffset": 83648}, {"buffer": 0, "byteLength": 16864, "byteOffset": 117376}], "accessors": [{"bufferView": 0, "byteOffset": 0, "componentType": 5125, "count": 8262, "max": [2107], "min": [0], "type": "SCALAR"}, {"bufferView": 1, "byteOffset": 0, "componentType": 5126, "count": 2108, "max": [0.07987022399902344, 0.11817063391208649, 1], "min": [-0.18037855625152588, -0.12230116873979568, 0.9832544922828674], "type": "VEC3"}, {"bufferView": 2, "byteOffset": 0, "componentType": 5126, "count": 2108, "max": [1.256309986114502, 2.7827200889587402, 1.370479941368103], "min": [-1.2486399412155151, -2.8453500270843506, 1.1401400566101074], "type": "VEC3"}, {"bufferView": 3, "byteOffset": 0, "componentType": 5126, "count": 2108, "max": [1, 1, 0.12229461967945099, -1], "min": [-0.027713079005479813, -0.00021537319116760045, -0.09682846069335938, -1], "type": "VEC4"}, {"bufferView": 4, "byteOffset": 0, "componentType": 5126, "count": 2108, "max": [0.9985349774360657, 0.9985349774360657], "min": [0.01779020018875599, 0], "type": "VEC2"}], "samplers": [{"magFilter": 9729, "minFilter": 9987, "wrapS": 10497, "wrapT": 10497}], "images": [{"uri": "textures/Hard_Shiny_Plastic_Black_diffuse.jpg"}], "textures": [{"sampler": 0, "source": 0}], "materials": [{"doubleSided": true, "emissiveFactor": [0, 0, 0], "extensions": {"KHR_materials_pbrSpecularGlossiness": {"diffuseFactor": [1, 1, 1, 1], "diffuseTexture": {"index": 0, "texCoord": 0}, "glossinessFactor": 0.8, "specularFactor": [0, 0, 0]}}, "name": "Hard Shiny Plastic Black"}], "meshes": [{"primitives": [{"attributes": {"NORMAL": 1, "POSITION": 2, "TANGENT": 3, "TEXCOORD_0": 4}, "indices": 0, "material": 0, "mode": 4}]}], "scene": 0, "scenes": [{"name": "OSG_Scene", "nodes": [0]}]}