{"extensionsRequired": ["KHR_materials_pbrSpecularGlossiness"], "extensionsUsed": ["KHR_materials_pbrSpecularGlossiness"], "asset": {"generator": "Sketchfab (OSG glTF plugin)", "version": "2.0"}, "nodes": [{"mesh": 0, "name": ""}], "buffers": [{"byteLength": 265200, "uri": "FutureHouse2.bin"}], "bufferViews": [{"buffer": 0, "byteLength": 84564, "byteOffset": 0}, {"buffer": 0, "byteLength": 54180, "byteOffset": 84576}, {"buffer": 0, "byteLength": 54180, "byteOffset": 138768}, {"buffer": 0, "byteLength": 72240, "byteOffset": 192960}], "accessors": [{"bufferView": 0, "byteOffset": 0, "componentType": 5125, "count": 21141, "max": [4514], "min": [0], "type": "SCALAR"}, {"bufferView": 1, "byteOffset": 0, "componentType": 5126, "count": 4515, "max": [0.9999990463256836, 0.9840903878211975, 1], "min": [-0.9840885996818542, -0.9840884804725647, -1], "type": "VEC3"}, {"bufferView": 2, "byteOffset": 0, "componentType": 5126, "count": 4515, "max": [0.913677990436554, -0.944366991519928, 0.37609800696372986], "min": [-1.5350300073623657, -2.637619972229004, 0.013624699786305428], "type": "VEC3"}, {"bufferView": 3, "byteOffset": 0, "componentType": 5126, "count": 4515, "max": [0.9990771412849426, 0.9571888446807861, 1, 1], "min": [-0.9844948649406433, -0.8773753046989441, -1, -1], "type": "VEC4"}], "samplers": [{"magFilter": 9729, "minFilter": 9987, "wrapS": 10497, "wrapT": 10497}], "materials": [{"doubleSided": true, "emissiveFactor": [0, 0, 0], "extensions": {"KHR_materials_pbrSpecularGlossiness": {"diffuseFactor": [1, 1, 1, 1], "glossinessFactor": 0.6, "specularFactor": [0, 0, 0]}}, "name": "White Ceramic #3"}], "meshes": [{"primitives": [{"attributes": {"NORMAL": 1, "POSITION": 2, "TANGENT": 3}, "indices": 0, "material": 0, "mode": 4}]}], "scene": 0, "scenes": [{"name": "OSG_Scene", "nodes": [0]}]}