{"extensionsRequired": ["KHR_materials_pbrSpecularGlossiness"], "extensionsUsed": ["KHR_materials_pbrSpecularGlossiness"], "asset": {"generator": "Sketchfab (OSG glTF plugin)", "version": "2.0"}, "nodes": [{"mesh": 0, "name": ""}], "buffers": [{"byteLength": 648160, "uri": "FutureHouse17.bin"}], "bufferViews": [{"buffer": 0, "byteLength": 190980, "byteOffset": 0}, {"buffer": 0, "byteLength": 137148, "byteOffset": 190992}, {"buffer": 0, "byteLength": 137148, "byteOffset": 328144}, {"buffer": 0, "byteLength": 182864, "byteOffset": 465296}], "accessors": [{"bufferView": 0, "byteOffset": 0, "componentType": 5125, "count": 47745, "max": [11428], "min": [0], "type": "SCALAR"}, {"bufferView": 1, "byteOffset": 0, "componentType": 5126, "count": 11429, "max": [1, 1, 1], "min": [-1, -1, -1], "type": "VEC3"}, {"bufferView": 2, "byteOffset": 0, "componentType": 5126, "count": 11429, "max": [1.2965099811553955, 2.0385899543762207, 1.2264000177383423], "min": [-1.2563199996948242, -0.8454989790916443, 0.013624600134789944], "type": "VEC3"}, {"bufferView": 3, "byteOffset": 0, "componentType": 5126, "count": 11429, "max": [1, 1, 1, 1], "min": [-1, -1, -1, -1], "type": "VEC4"}], "samplers": [{"magFilter": 9729, "minFilter": 9987, "wrapS": 10497, "wrapT": 10497}], "materials": [{"doubleSided": true, "emissiveFactor": [0, 0, 0], "extensions": {"KHR_materials_pbrSpecularGlossiness": {"diffuseFactor": [1, 1, 1, 1], "glossinessFactor": 0.8, "specularFactor": [0, 0, 0]}}, "name": "Paint Matte White #5"}], "meshes": [{"primitives": [{"attributes": {"NORMAL": 1, "POSITION": 2, "TANGENT": 3}, "indices": 0, "material": 0, "mode": 4}]}], "scene": 0, "scenes": [{"name": "OSG_Scene", "nodes": [0]}]}