{"extensionsRequired": ["KHR_materials_pbrSpecularGlossiness"], "extensionsUsed": ["KHR_materials_pbrSpecularGlossiness"], "asset": {"generator": "Sketchfab (OSG glTF plugin)", "version": "2.0"}, "nodes": [{"mesh": 0, "name": ""}], "buffers": [{"byteLength": 38272, "uri": "FutureHouse7.bin"}], "bufferViews": [{"buffer": 0, "byteLength": 7752, "byteOffset": 0}, {"buffer": 0, "byteLength": 7620, "byteOffset": 7760}, {"buffer": 0, "byteLength": 7620, "byteOffset": 15392}, {"buffer": 0, "byteLength": 10160, "byteOffset": 23024}, {"buffer": 0, "byteLength": 5080, "byteOffset": 33184}], "accessors": [{"bufferView": 0, "byteOffset": 0, "componentType": 5125, "count": 1938, "max": [634], "min": [0], "type": "SCALAR"}, {"bufferView": 1, "byteOffset": 0, "componentType": 5126, "count": 635, "max": [0.9999995827674866, 0.998047947883606, 1], "min": [-1, -0.9999740719795227, -1], "type": "VEC3"}, {"bufferView": 2, "byteOffset": 0, "componentType": 5126, "count": 635, "max": [1.5211100578308105, 2.9085700511932373, 0.026664599776268005], "min": [-1.5323899984359741, -2.9043500423431396, 0.013617199845612049], "type": "VEC3"}, {"bufferView": 3, "byteOffset": 0, "componentType": 5126, "count": 635, "max": [0.9964268803596497, 1, 1, 1], "min": [-0.9965460300445557, -0.9999898076057434, -1, -1], "type": "VEC4"}, {"bufferView": 4, "byteOffset": 0, "componentType": 5126, "count": 635, "max": [1, 0.9985349774360657], "min": [0, 0], "type": "VEC2"}], "samplers": [{"magFilter": 9729, "minFilter": 9987, "wrapS": 10497, "wrapT": 10497}], "images": [{"uri": "textures/Paint_Matte_White_237_diffuse.jpg"}], "textures": [{"sampler": 0, "source": 0}], "materials": [{"doubleSided": true, "emissiveFactor": [0, 0, 0], "extensions": {"KHR_materials_pbrSpecularGlossiness": {"diffuseFactor": [1, 1, 1, 1], "diffuseTexture": {"index": 0, "texCoord": 0}, "glossinessFactor": 0.8, "specularFactor": [0, 0, 0]}}, "name": "Paint Matte White #7"}], "meshes": [{"primitives": [{"attributes": {"NORMAL": 1, "POSITION": 2, "TANGENT": 3, "TEXCOORD_0": 4}, "indices": 0, "material": 0, "mode": 4}]}], "scene": 0, "scenes": [{"name": "OSG_Scene", "nodes": [0]}]}