{"extensionsRequired": ["KHR_materials_pbrSpecularGlossiness"], "extensionsUsed": ["KHR_materials_pbrSpecularGlossiness"], "asset": {"generator": "Sketchfab (OSG glTF plugin)", "version": "2.0"}, "nodes": [{"mesh": 0, "name": ""}], "buffers": [{"byteLength": 4736, "uri": "FutureHouse4.bin"}], "bufferViews": [{"buffer": 0, "byteLength": 840, "byteOffset": 0}, {"buffer": 0, "byteLength": 1164, "byteOffset": 848}, {"buffer": 0, "byteLength": 1164, "byteOffset": 2016}, {"buffer": 0, "byteLength": 1552, "byteOffset": 3184}], "accessors": [{"bufferView": 0, "byteOffset": 0, "componentType": 5125, "count": 210, "max": [96], "min": [0], "type": "SCALAR"}, {"bufferView": 1, "byteOffset": 0, "componentType": 5126, "count": 97, "max": [0.9980389475822449, 0.9980525970458984, 1], "min": [-0.9980409741401672, -0.9980525374412537, -1], "type": "VEC3"}, {"bufferView": 2, "byteOffset": 0, "componentType": 5126, "count": 97, "max": [1.4413199424743652, -0.2705250084400177, 0.9401230216026306], "min": [-0.968101978302002, -1.611840009689331, 0.013624699786305428], "type": "VEC3"}, {"bufferView": 3, "byteOffset": 0, "componentType": 5126, "count": 97, "max": [0.9980525374412537, 0.25783225893974304, 0.0003568324900697917, 1], "min": [-0.998079776763916, -0.998041033744812, -1.7387719708494842e-08, -1], "type": "VEC4"}], "samplers": [{"magFilter": 9729, "minFilter": 9987, "wrapS": 10497, "wrapT": 10497}], "materials": [{"doubleSided": true, "emissiveFactor": [0, 0, 0], "extensions": {"KHR_materials_pbrSpecularGlossiness": {"diffuseFactor": [1, 1, 1, 1], "glossinessFactor": 0.8, "specularFactor": [0, 0, 0]}}, "name": "Paint Matte White #4"}], "meshes": [{"primitives": [{"attributes": {"NORMAL": 1, "POSITION": 2, "TANGENT": 3}, "indices": 0, "material": 0, "mode": 4}]}], "scene": 0, "scenes": [{"name": "OSG_Scene", "nodes": [0]}]}