{"extensionsRequired": ["KHR_materials_pbrSpecularGlossiness"], "extensionsUsed": ["KHR_materials_pbrSpecularGlossiness"], "asset": {"generator": "Sketchfab (OSG glTF plugin)", "version": "2.0"}, "nodes": [{"mesh": 0, "name": ""}], "buffers": [{"byteLength": 163552, "uri": "FutureHouse1.bin"}], "bufferViews": [{"buffer": 0, "byteLength": 32928, "byteOffset": 0}, {"buffer": 0, "byteLength": 32652, "byteOffset": 32928}, {"buffer": 0, "byteLength": 32652, "byteOffset": 65584}, {"buffer": 0, "byteLength": 43536, "byteOffset": 98240}, {"buffer": 0, "byteLength": 21768, "byteOffset": 141776}], "accessors": [{"bufferView": 0, "byteOffset": 0, "componentType": 5125, "count": 8232, "max": [2720], "min": [0], "type": "SCALAR"}, {"bufferView": 1, "byteOffset": 0, "componentType": 5126, "count": 2721, "max": [1, 0.9999462366104126, 1], "min": [-0.9999954104423523, -0.9999954700469971, -1], "type": "VEC3"}, {"bufferView": 2, "byteOffset": 0, "componentType": 5126, "count": 2721, "max": [1.6098500490188599, -1.0871100425720215, 0.9715499877929688], "min": [-1.3875700235366821, -1.6385400295257568, 0.013617199845612049], "type": "VEC3"}, {"bufferView": 3, "byteOffset": 0, "componentType": 5126, "count": 2721, "max": [0.9986076354980469, 1, 1, 1], "min": [-0.9998774528503418, -1, -1, -1], "type": "VEC4"}, {"bufferView": 4, "byteOffset": 0, "componentType": 5126, "count": 2721, "max": [0.6516500115394592, 0.9985349774360657], "min": [0, 0], "type": "VEC2"}], "samplers": [{"magFilter": 9729, "minFilter": 9987, "wrapS": 10497, "wrapT": 10497}], "images": [{"uri": "textures/Hard_Rough_Plastic_Black_diffuse.jpg"}], "textures": [{"sampler": 0, "source": 0}], "materials": [{"doubleSided": true, "emissiveFactor": [0, 0, 0], "extensions": {"KHR_materials_pbrSpecularGlossiness": {"diffuseFactor": [1, 1, 1, 1], "diffuseTexture": {"index": 0, "texCoord": 0}, "glossinessFactor": 0.8, "specularFactor": [0, 0, 0]}}, "name": "Hard Rough Plastic Black"}], "meshes": [{"primitives": [{"attributes": {"NORMAL": 1, "POSITION": 2, "TANGENT": 3, "TEXCOORD_0": 4}, "indices": 0, "material": 0, "mode": 4}]}], "scene": 0, "scenes": [{"name": "OSG_Scene", "nodes": [0]}]}