{"extensionsRequired": ["KHR_materials_pbrSpecularGlossiness"], "extensionsUsed": ["KHR_materials_pbrSpecularGlossiness"], "asset": {"generator": "Sketchfab (OSG glTF plugin)", "version": "2.0"}, "nodes": [{"mesh": 0, "name": ""}], "buffers": [{"byteLength": 349040, "uri": "FutureHouse13.bin"}], "bufferViews": [{"buffer": 0, "byteLength": 94536, "byteOffset": 0}, {"buffer": 0, "byteLength": 76344, "byteOffset": 94544}, {"buffer": 0, "byteLength": 76344, "byteOffset": 170896}, {"buffer": 0, "byteLength": 101792, "byteOffset": 247248}], "accessors": [{"bufferView": 0, "byteOffset": 0, "componentType": 5125, "count": 23634, "max": [6361], "min": [0], "type": "SCALAR"}, {"bufferView": 1, "byteOffset": 0, "componentType": 5126, "count": 6362, "max": [0.999582827091217, 0.9967085719108582, 1], "min": [-0.9999111890792847, -0.9967856407165527, -0.9999998807907104], "type": "VEC3"}, {"bufferView": 2, "byteOffset": 0, "componentType": 5126, "count": 6362, "max": [1.410249948501587, 2.7827200889587402, 1.370479941368103], "min": [-1.2486399412155151, -2.845560073852539, 1.1205799579620361], "type": "VEC3"}, {"bufferView": 3, "byteOffset": 0, "componentType": 5126, "count": 6362, "max": [1, 1, 0.9999997019767761, 1], "min": [-0.9927862286567688, -0.9979063868522644, -1, -1], "type": "VEC4"}], "samplers": [{"magFilter": 9729, "minFilter": 9987, "wrapS": 10497, "wrapT": 10497}], "materials": [{"doubleSided": true, "emissiveFactor": [0, 0, 0], "extensions": {"KHR_materials_pbrSpecularGlossiness": {"diffuseFactor": [1, 1, 1, 1], "glossinessFactor": 0.8, "specularFactor": [0, 0, 0]}}, "name": "Paint Matte White #2"}], "meshes": [{"primitives": [{"attributes": {"NORMAL": 1, "POSITION": 2, "TANGENT": 3}, "indices": 0, "material": 0, "mode": 4}]}], "scene": 0, "scenes": [{"name": "OSG_Scene", "nodes": [0]}]}