{"extensionsRequired": ["KHR_materials_pbrSpecularGlossiness"], "extensionsUsed": ["KHR_materials_pbrSpecularGlossiness"], "asset": {"generator": "Sketchfab (OSG glTF plugin)", "version": "2.0"}, "nodes": [{"mesh": 0, "name": ""}], "buffers": [{"byteLength": 81184, "uri": "FutureHouse14.bin"}], "bufferViews": [{"buffer": 0, "byteLength": 24624, "byteOffset": 0}, {"buffer": 0, "byteLength": 14136, "byteOffset": 24624}, {"buffer": 0, "byteLength": 14136, "byteOffset": 38768}, {"buffer": 0, "byteLength": 18848, "byteOffset": 52912}, {"buffer": 0, "byteLength": 9424, "byteOffset": 71760}], "accessors": [{"bufferView": 0, "componentType": 5125, "count": 6156, "max": [1177], "min": [0], "type": "SCALAR", "byteOffset": 0}, {"bufferView": 1, "byteOffset": 0, "componentType": 5126, "count": 1178, "max": [0.9993938207626343, 0.9997063279151917, 0.995885968208313], "min": [-0.9994474649429321, -0.999991774559021, -1], "type": "VEC3"}, {"bufferView": 2, "componentType": 5126, "count": 1178, "max": [-1.3705300092697144, 0.510532021522522, 0.42761901021003723], "min": [-1.4898500442504883, -1.6377700567245483, 0.35076799988746643], "type": "VEC3", "byteOffset": 0}, {"bufferView": 3, "componentType": 5126, "count": 1178, "max": [0.9993705153465271, 0.9999781250953674, 0.9919704794883728, 1], "min": [-0.9980905055999756, -0.9999847412109375, -1, -1], "type": "VEC4", "byteOffset": 0}, {"bufferView": 4, "componentType": 5126, "count": 1178, "max": [0.4212450087070465, 0.9985349774360657], "min": [0, 0], "type": "VEC2", "byteOffset": 0}], "samplers": [{"magFilter": 9729, "minFilter": 9987, "wrapS": 10497, "wrapT": 10497}], "images": [{"uri": "textures/Aluminum_Polished_diffuse.jpg"}], "textures": [{"sampler": 0, "source": 0}], "materials": [{"doubleSided": true, "emissiveFactor": [0, 0, 0], "extensions": {"KHR_materials_pbrSpecularGlossiness": {"diffuseFactor": [1, 1, 1, 1], "diffuseTexture": {"index": 0, "texCoord": 0}, "glossinessFactor": 0.8, "specularFactor": [1, 1, 1]}}, "name": "Aluminum Polished"}], "meshes": [{"primitives": [{"attributes": {"NORMAL": 1, "POSITION": 2, "TANGENT": 3, "TEXCOORD_0": 4}, "indices": 0, "material": 0, "mode": 4}]}], "scene": 0, "scenes": [{"name": "OSG_Scene", "nodes": [0]}]}